<svg xmlns="http://www.w3.org/2000/svg" xmlns:xlink="http://www.w3.org/1999/xlink" viewBox="0 0 288.21 248.13"><defs><style>.cls-1,.cls-20{fill:none;}.cls-2{fill:#ed3561;}.cls-3{fill:#9487fc;}.cls-4{fill:#182067;}.cls-5{fill:#1372f5;}.cls-6{fill:#b6d0ff;}.cls-7{fill:#efaf84;}.cls-8{fill:#ef5180;}.cls-9{fill:#d3774f;}.cls-10{fill:#283e96;}.cls-11{fill:#009da5;}.cls-12{fill:#09546d;}.cls-13{fill:#fff;}.cls-14{fill:#e8de46;}.cls-15{fill:url(#Nowy_wzorek_3);}.cls-16{fill:#a7c65c;}.cls-17{fill:#b1b6ba;}.cls-18,.cls-19{fill:#ddd;}.cls-18{opacity:0.79;}.cls-20{stroke:#fff;stroke-linecap:round;stroke-miterlimit:10;stroke-width:0.25px;}.cls-21{fill:#7047ba;}.cls-22{fill:#ffd654;}.cls-23{fill:#f37645;}.cls-24{fill:#fec2c3;}</style><pattern id="Nowy_wzorek_3" data-name="Nowy wzorek 3" width="4" height="4" patternTransform="matrix(0.89, 0.77, 0.66, -0.76, 33.37, 19.75)" patternUnits="userSpaceOnUse" viewBox="0 0 4 4"><rect class="cls-1" width="4" height="4"/><circle class="cls-2" cx="3" cy="4" r="0.51"/><circle class="cls-2" cx="1" cy="4" r="0.51"/><circle class="cls-2" cx="4" cy="2" r="0.51"/><circle class="cls-2" cx="2" cy="2" r="0.51"/><circle class="cls-2" cy="2" r="0.51"/><circle class="cls-2" cx="3" r="0.51"/><circle class="cls-2" cx="1" r="0.51"/></pattern></defs><title>01_</title><g id="Warstwa_2" data-name="Warstwa 2"><g id="_01" data-name="01"><path class="cls-3" d="M280,26.52H241.72a8.24,8.24,0,0,0-8.24,8.25V55.4a8.24,8.24,0,0,0,8.24,8.24h.43V75.11a2.12,2.12,0,0,0,3.61,1.5l13-13H280a8.24,8.24,0,0,0,8.25-8.24V34.77A8.25,8.25,0,0,0,280,26.52Z"/><path class="cls-4" d="M170.2,112.82c-1.45-.13-2.9-.31-4.35-.55l-.15.52a51.9,51.9,0,0,0-1.71,9c-.1.83-.19,1.66-.28,2.49C167.53,121.42,170.25,117.65,170.2,112.82Z"/><path class="cls-3" d="M9.67,102.65C9.47,95.78,19.61,97,23.35,94c2.44-2,1.91-5.83,4.45-7.63,2.77-2,5.84.7,8.62,1.17,5.78,1,10.11-5.75,15.87-4.61,6,1.19,4.62,9.86,9.88,11.56,2.2.71,4.55-.46,6.79-.2A6.71,6.71,0,0,1,72.6,96a14.35,14.35,0,0,1,3.87,6.69Z"/><rect class="cls-5" x="56.54" y="7.89" width="97.03" height="217.55" rx="8.25"/><rect class="cls-6" x="59.97" y="28.48" width="90.16" height="176.38" rx="0.23"/><path class="cls-3" d="M172.31,69c-15.83-7.17-33.22,9.66-49.33,1.62-.51-.26-.15-1.08.37-.82C139.5,77.87,157,60.69,173,68.33Z"/><path class="cls-7" d="M224.19,195.46c1.5,2.73,14,3.19,16.63,3.17s6.91.21,7.15-3.18c.14-2.15-.73-4.62-1.12-6.71l-1.32-6.93.41-.09c.56-.13.25-1-.3-.84l-.41.09a.46.46,0,0,0-.68.14c-2.93,1.52-6.92,2.45-12.55.91-.3-.08-.52.17-.52.48l-.24,8.11C231.2,192.3,223.33,193.9,224.19,195.46Z"/><path class="cls-7" d="M109.29,176.93c-2.73,1.5-3.19,14-3.17,16.64s-.22,6.91,3.18,7.14c2.15.15,4.62-.72,6.71-1.12l6.93-1.32c0,.14,0,.28.09.42.12.56,1,.25.84-.3l-.09-.41a.46.46,0,0,0-.14-.68c-1.52-2.94-2.45-6.92-.91-12.56.08-.3-.17-.51-.48-.52l-8.11-.23C112.45,183.94,110.85,176.07,109.29,176.93Z"/><circle class="cls-7" cx="186.19" cy="36.19" r="12.16"/><path class="cls-8" d="M166.31,28.66c2.3,2.19,5,4.18,8.19,4.66s5.58-1.15,8.57-2c2.82-.82,4.91.43,7.16,2A7.48,7.48,0,0,1,192,35.22c.21.27.39.59.73.71s2.49-.64,3.16,1c.79,1.94-.54,3.55-2.75,3.48-.35,0-.49.45-.33.7,2.13,3.38,5.23,3.94,7.71.57a14.17,14.17,0,0,0,2.53-11.15,9.35,9.35,0,0,1-.56-3.07c.19-1.42,1.57-2.28,2.63-3.09a21.46,21.46,0,0,0,5.14-5.1,11.86,11.86,0,0,0,.25-11.89,11.53,11.53,0,0,0-9.65-5.63c-3.66-.19-8.34,1-10.49,4.19-1.32,2-1.7,4.42-3,6.44-1.63,2.67-3.36,1.9-6,1.75-3.6-.2-5.93,1.34-6.57,4.86-.3,1.66-.41,4-2.19,4.79-1.37.61-3.2.38-4.66.62C165.34,24.85,164.71,27.13,166.31,28.66Z"/><path class="cls-2" d="M190.21,17.43c2.8,3,6.82,5,11,3.86.56-.14.86.7.31.85-4.45,1.17-8.83-.73-11.87-4C189.25,17.7,189.82,17,190.21,17.43Z"/><path class="cls-8" d="M200.66,24.83A.47.47,0,0,1,201,24c4.88.25,12.62.49,14.06-5.54.13-.56,1-.41.88.15-1.58,6.63-9.65,6.56-15.09,6.27l-.09,0,.06,0c2.56,1.93,6.37,3.81,9.3,1.55.46-.35,1,.38.51.74-3.27,2.51-7.49.58-10.39-1.61C199.87,25.3,200.25,24.75,200.66,24.83Z"/><path class="cls-9" d="M230.54,197.4c-.91.12-1.8.11-2.69.15a.44.44,0,0,1,0-.5c3-4.25,6.13-8.76,6.27-14.17,0-.22.15-.49.41-.48a25.52,25.52,0,0,0,8.84-1.26.45.45,0,0,1,.59.49,23.4,23.4,0,0,1-12.73,15.78A2.82,2.82,0,0,0,230.54,197.4Z"/><path class="cls-9" d="M106.84,184.12c-.13-.9-.14-1.79-.19-2.68a.42.42,0,0,1,.5,0c4.3,3,8.87,6,14.27,6,.22,0,.5.13.49.4a25.42,25.42,0,0,0,1.42,8.81.46.46,0,0,1-.49.6,23.4,23.4,0,0,1-16-12.45A2.88,2.88,0,0,0,106.84,184.12Z"/><path class="cls-10" d="M103.61,176.89c.48,5.7,3.61,11.09,9.46,12.4,5.59,1.26,11.65-.37,14.14-5.86,1.47-3.24,2.19-6.71,3.85-9.88a29.26,29.26,0,0,1,7-8.86c.41-.34.91-.72,1.47-1.11a44.31,44.31,0,0,1,21.59-7.8c3.28-.29,6.55-.62,9.78-1.21,7.34-1.34,14.79-3.74,21-8A30,30,0,0,0,204.13,130a31.71,31.71,0,0,0-2.89-24.21.35.35,0,0,0-.51-.12.42.42,0,0,0-.5-.57c-9.62,3.18-19.92,3.6-29.9,4.88a.4.4,0,0,0-.37.44c1.38,7.15-3.05,12.23-8.88,15.67-5.49,3.24-12.15,5.58-18.12,7.74-18.76,6.79-28.68,11.89-34.94,24.72C105.28,164.13,103.07,170.56,103.61,176.89Z"/><path class="cls-4" d="M242.1,181.47l12.4-4.63a2.58,2.58,0,0,1,3.48,2.45l-.41,38.65a2.2,2.2,0,0,1-2.23,2.18h0a2.23,2.23,0,0,1-2-1.2l-8.46-16.54-4.76,1.31a1.33,1.33,0,0,1-1.64-1.58l1.57-6.55a1.33,1.33,0,0,1,1-1l2.73-.57h0a23.41,23.41,0,0,0-1.59-12.16Z"/><path class="cls-11" d="M254.5,176.84a2.58,2.58,0,0,1,3.48,2.45l-.41,38.65a2.2,2.2,0,0,1-2.23,2.18,2.16,2.16,0,0,1-1.38-.52l.46-42.73Z"/><path class="cls-11" d="M243.89,202.77a5.59,5.59,0,0,0,.77-5.46c-.24-.52.6-.81.85-.3a6.47,6.47,0,0,1-.94,6.34C244.18,203.78,243.5,203.19,243.89,202.77Z"/><path class="cls-11" d="M245.94,204.76c1-1.35,2.08-3.23,1.55-5-.16-.55.68-.85.85-.29.62,2.07-.5,4.21-1.72,5.83C246.28,205.81,245.6,205.22,245.94,204.76Z"/><path class="cls-11" d="M245.94,194.63c2.66-1.9,4.06-4.13,3.63-7.56-.3-2.37-1.91-4.24-2.31-6.56a8.85,8.85,0,0,1,3.85-8.77c.47-.33,1,.41.5.74a8,8,0,0,0-3.56,7.21c.17,2.34,1.76,4.22,2.26,6.48a9.48,9.48,0,0,1-.4,5.4c-.7,1.83-1.93,2.7-3.47,3.81C246,195.71,245.47,195,245.94,194.63Z"/><path class="cls-7" d="M121.15,101.22a20.15,20.15,0,0,0-2.49-1c.91-3.08,2-6.1,2.65-9.25a.46.46,0,0,0,.22-.83l-.17-.11a.53.53,0,0,0-.39-.2c-3.12-1.57-14.83-5.71-17.82-3.83-2.56-.52-4.89-.19-6,2.5,0,0,0,.06,0,.08-1.24.15-2.52.58-2.6,1.75-.16,2.23,3.26,2.78,4.75,3a34.72,34.72,0,0,1,4.87.75,33.66,33.66,0,0,1,3.38,1.3,21.3,21.3,0,0,1-3.3,0,3.79,3.79,0,0,0-2.9.65.44.44,0,0,0,0,.63c1.71,1.88,4.77,2.16,7.14,2.46a56.58,56.58,0,0,1,9.2,1.62.46.46,0,0,0,.72.24,21.31,21.31,0,0,1,2.35.94C121.2,102.23,121.67,101.47,121.15,101.22Z"/><path class="cls-12" d="M169.47,81.26c1.15-4.66,2.2-9.36,3.68-13.92a27,27,0,0,1,5.68-10.41c-1.11.69-2.15,1.45-3.06,2.13-9,6.77-15,16.71-24.34,23-5.1,3.43-11.11,6.33-17.28,7s-12.16-1.66-18-3.29c0,0-4.19,15.18-4,15.28,9.41,5.26,20.57,6,31,4.06,7.77-1.45,16.85-4.11,23-9.61C166.34,90.64,168.3,86,169.47,81.26Z"/><path class="cls-9" d="M178.2,41.3a5.32,5.32,0,0,0,5.79-.75c.44-.37.94.37.5.74a6.18,6.18,0,0,1-6.66.82A.45.45,0,0,1,178.2,41.3Z"/><path class="cls-9" d="M101.69,85.59a24,24,0,0,1,7.33,2,.45.45,0,0,1-.37.82,22.87,22.87,0,0,0-7.11-2C101,86.41,101.12,85.52,101.69,85.59Z"/><path class="cls-9" d="M97.1,88a45.15,45.15,0,0,1,8.83,2c.54.18.16,1-.38.82A43.52,43.52,0,0,0,97,88.85C96.38,88.78,96.53,87.9,97.1,88Z"/><path class="cls-4" d="M101.73,190.54,108.3,192a1.33,1.33,0,0,1,1,1l.61,2.72h0A23.37,23.37,0,0,0,122,194l.37-.16,4.22,11H86.45l15.08-7.91-1.36-4.75A1.32,1.32,0,0,1,101.73,190.54Z"/><path class="cls-11" d="M108.83,198.15c4.09,1.27,6.25-3.86,9.12-5.72a10.66,10.66,0,0,1,6.87-1.62,10.47,10.47,0,0,1,9.12,9.84.45.45,0,0,1-.89.07,9.53,9.53,0,0,0-13.26-8.26c-4,1.72-6.24,8.09-11.33,6.5C107.91,198.79,108.29,198,108.83,198.15Z"/><path class="cls-11" d="M99.16,198c1.35,1,3.25,2,5,1.5.54-.17.85.67.3.84-2.07.65-4.22-.45-5.86-1.65C98.12,198.32,98.69,197.63,99.16,198Z"/><path class="cls-11" d="M101.13,195.9a5.57,5.57,0,0,0,5.47.71c.51-.25.81.6.3.85a6.48,6.48,0,0,1-6.35-.87C100.13,196.2,100.7,195.52,101.13,195.9Z"/><path class="cls-13" d="M111.68,65c8.06-3.38,16.12,3.39,24.17,0V40.81c-8,3.38-16.11-3.39-24.17,0Z"/><path class="cls-14" d="M129.51,59.62c1.06,1.93,1,4.3,1.7,6.33-4.72.13-9.44-1.87-14.16-1.94.25-4.06,1.74-8.19,6.65-7.87A7.19,7.19,0,0,1,129.51,59.62Z"/><path class="cls-3" d="M100.28,37.55a30.61,30.61,0,0,1,23.87-1.81c.55.18.17,1-.37.81a29.6,29.6,0,0,0-23,1.74C100.28,38.55,99.76,37.82,100.28,37.55Z"/><path class="cls-15" d="M187.65,10.53c0,1.91,1.28,3.87,3.33,4,3,.16,4.43-2.9,6.08-4.77a7.36,7.36,0,0,1,6.62-2.43c1.19.13,2.45.51,3.56-.14a2.43,2.43,0,0,0,1-1c1.32-1.24.45-3.31-1-4.3C202.6-1.44,195.49,0,191.5,3.56,189.59,5.26,187.63,7.84,187.65,10.53Z"/><path class="cls-4" d="M118.35,173.82c1.22-3.36,5.57-3.14,8.11-4.8,3.13-2,4.37-6,7.43-8.25,5.72-4.15,12.84-3.81,19.7-4.25,1.66-.11,4.93-.46,4.95-.43a44.21,44.21,0,0,0-19,7.49c-.56.39-1.06.77-1.47,1.11a29.26,29.26,0,0,0-7,8.86c-1.66,3.17-2.38,6.64-3.85,9.88a10.21,10.21,0,0,1-4.73,4.94,9.84,9.84,0,0,1-1.2-2.5q-1.11-3.24-2.2-6.48C118.48,177.63,117.68,175.67,118.35,173.82Z"/><path class="cls-16" d="M124.59,65.15a13,13,0,0,1,0-2.4c0-2.54-.74-5-2.8-6.49a7.37,7.37,0,0,1,1.86-.12,7.19,7.19,0,0,1,5.81,3.48c1.06,1.93,1,4.3,1.7,6.33A28.81,28.81,0,0,1,124.59,65.15Z"/><circle class="cls-7" cx="124.15" cy="53.53" r="3.21"/><path class="cls-8" d="M123.27,46.32l.11,0,.07-.08c.87-1.17,1.18-2.24,2.84-2.51a2.92,2.92,0,0,1,2.77,1A2.42,2.42,0,0,1,128,48.58a4,4,0,0,1-.77,5.83c.54-2.81-2.39-4.36-4.78-3.2A3.11,3.11,0,0,0,121,52.93C120.89,53.28,118.82,48.1,123.27,46.32Z"/><path class="cls-9" d="M123.14,54.21a1.43,1.43,0,0,0,1.94.24c.47-.34,1,.4.51.74a2.33,2.33,0,0,1-3.18-.48C122.05,54.26,122.79,53.76,123.14,54.21Z"/><path class="cls-2" d="M126.44,48.44s2.45-2.61,1-4.67a2.79,2.79,0,0,1,1.6,1A2.42,2.42,0,0,1,128,48.58a4,4,0,0,1-.77,5.83S129,50.69,126.44,48.44Z"/><path class="cls-3" d="M53,159.21a125.27,125.27,0,0,1,41.43,1c3.43.66,6.83,1.48,10.19,2.42a13.6,13.6,0,0,1-1.42-8.21,9.37,9.37,0,0,1,9.76-8.07c5.5.14,10.35,3.36,14.47,6.71,5.28,4.31,9.84,9.41,14.84,14s10.61,8.72,17.19,10.77a22.64,22.64,0,0,0,20-2.84c5.49-3.61,10.24-7.72,16.7-9.55s13.11-1.94,19.72-2.07c12.6-.25,30.06-1.51,35.07-15.65,4-11.19-4.18-22.59-6.24-33.32-.94-4.92-.69-10.19,2-14.53a18.25,18.25,0,0,1,11.49-8,16.77,16.77,0,0,1,7.36,0c.57.13.42,1-.15.88a17.06,17.06,0,0,0-15.7,4.71c-3.89,3.93-5.11,9.32-4.46,14.7,1.2,10,7.46,18.88,7.57,29.07S245,159,235.66,162c-12.26,3.88-25.41.94-37.82,3.95-6.24,1.51-11,4.94-16.16,8.59-4.65,3.3-9.57,5.64-15.39,5.45-11.48-.37-20.7-8.22-28.47-15.87-4.3-4.23-8.52-8.62-13.4-12.2-4.54-3.32-11.94-7-17.18-3-4.67,3.56-3.79,9.44-1.37,14.12,2.71.8,5.39,1.66,8,2.63q5,1.84,9.84,4.12c2.42,1.14,5.46,2.28,6.93,4.68a3.26,3.26,0,0,1-.44,4.23,3.43,3.43,0,0,1-1.51.76c.13-.38.27-.75.4-1.13,1.15-.6,1.57-1.78.81-3.35a7.06,7.06,0,0,0-2.79-2.49A73.73,73.73,0,0,0,118,168.2q-5.25-2.16-10.68-3.83a15.74,15.74,0,0,0-1.55-.44,1.63,1.63,0,0,1-.16.47c-.14-.23-.28-.44-.41-.67-2.71-.78-5.45-1.48-8.21-2.07A124.64,124.64,0,0,0,53,160.1C52.46,160.18,52.38,159.29,53,159.21Z"/><polygon class="cls-17" points="19.33 179.72 79.36 179.51 60.04 157.15 0 157.35 19.33 179.72"/><polygon class="cls-18" points="21.05 168.58 81.08 168.38 61.76 146.02 1.72 146.22 21.05 168.58"/><path class="cls-17" d="M29.38,157.72l5.15-4c.45-.36,1,.36.52.72L30.52,158l5.16,2.17a.45.45,0,0,1-.35.82l-5.86-2.46A.45.45,0,0,1,29.38,157.72Z"/><path class="cls-17" d="M52.25,156.91,47,160.78c-.47.34-1-.4-.51-.74l4.65-3.41L46,154.29a.44.44,0,0,1,.38-.8l5.78,2.65A.45.45,0,0,1,52.25,156.91Z"/><path class="cls-17" d="M38.32,154.31l5.52,5.62c.4.4-.16,1.11-.56.7L37.77,155C37.37,154.61,37.92,153.9,38.32,154.31Z"/><path class="cls-17" d="M35.47,19.21H73.71A8.24,8.24,0,0,1,82,27.45V48.08a8.24,8.24,0,0,1-8.24,8.25h-.43V67.8a2.11,2.11,0,0,1-3.61,1.49l-13-13H35.47a8.25,8.25,0,0,1-8.25-8.25V27.45A8.24,8.24,0,0,1,35.47,19.21Z"/><path class="cls-13" d="M60,111.91a17.29,17.29,0,0,1,2.27-.9c5.38-1.62,7.78,3.37,11.14,6.43,1.26,1.15,2.91,2.27,4.71,2.1s3-1.55,4.19-2.67c1.52-1.41,3.13-2.49,5.29-2.33,5.3.39,7.62,5.79,9.64,9.9,1.59,3.24,4.19,5.26,8.31,4.8,9.59-1.09,12.71,3.68,12.48,7.09H60Z"/><path class="cls-13" d="M105.05,209.16a6.28,6.28,0,1,1-6.28,6.28,6.28,6.28,0,0,1,6.28-6.28m0-.75a7,7,0,1,0,7,7,7,7,0,0,0-7-7Z"/><path class="cls-13" d="M116.8,18.69H93.3a.38.38,0,0,1-.37-.38.37.37,0,0,1,.37-.37h23.5a.37.37,0,0,1,.38.37A.38.38,0,0,1,116.8,18.69Z"/><path class="cls-13" d="M89.16,19.46a1.15,1.15,0,1,1,1.15-1.15A1.15,1.15,0,0,1,89.16,19.46Zm0-1.55a.4.4,0,1,0,.4.4A.4.4,0,0,0,89.16,17.91Z"/><path class="cls-4" d="M235.57,182.06c-4.5-4.14-12.18-3.37-17.75-4.66-7.45-1.72-14.1-7.21-18.46-13.35a31.08,31.08,0,0,1-5.52-17.67c0-.38,0-.77,0-1.16-.61.48-1.23.95-1.88,1.39-6.21,4.22-13.66,6.62-21,8-1.92.35-3.86.61-5.8.82.11.4.22.81.35,1.21,3.38,10.77,11.24,20.82,21.46,28.2,1.09.91,2.22,1.77,3.39,2.6a55.26,55.26,0,0,0,14.55,7.18c7.71,2.56,16.82,5.09,25,3.45,3-.61,6-2.07,7.4-5C238.89,189.62,238.44,184.69,235.57,182.06Z"/><path class="cls-19" d="M262,240.48a.46.46,0,1,0-.46-.46A.46.46,0,0,0,262,240.48Z"/><path class="cls-19" d="M263.86,240.48a.46.46,0,0,0,0-.91.46.46,0,1,0,0,.91Z"/><path class="cls-19" d="M265.7,240.48a.46.46,0,1,0-.45-.46A.45.45,0,0,0,265.7,240.48Z"/><path class="cls-19" d="M266.63,238.71a.45.45,0,0,0,.45-.45.46.46,0,0,0-.45-.46.47.47,0,0,0-.46.46A.46.46,0,0,0,266.63,238.71Z"/><path class="cls-19" d="M264.78,238.71a.46.46,0,0,0,.46-.45.47.47,0,0,0-.46-.46.46.46,0,0,0-.45.46A.45.45,0,0,0,264.78,238.71Z"/><path class="cls-19" d="M262.93,238.71a.45.45,0,0,0,.46-.45.46.46,0,1,0-.91,0A.45.45,0,0,0,262.93,238.71Z"/><path class="cls-19" d="M261.09,238.71a.45.45,0,0,0,.45-.45.46.46,0,1,0-.91,0A.45.45,0,0,0,261.09,238.71Z"/><path class="cls-19" d="M259.24,238.71a.46.46,0,0,0,.46-.45.46.46,0,0,0-.92,0A.46.46,0,0,0,259.24,238.71Z"/><path class="cls-19" d="M254.62,237a.47.47,0,0,0,.46-.46.46.46,0,0,0-.46-.45.45.45,0,0,0-.45.45A.46.46,0,0,0,254.62,237Z"/><path class="cls-19" d="M256.47,237a.46.46,0,0,0,.45-.46.45.45,0,0,0-.45-.45.46.46,0,0,0-.46.45A.47.47,0,0,0,256.47,237Z"/><path class="cls-19" d="M258.32,237a.46.46,0,0,0,.45-.46.46.46,0,0,0-.91,0A.46.46,0,0,0,258.32,237Z"/><path class="cls-19" d="M260.16,237a.46.46,0,0,0,.46-.46.46.46,0,0,0-.91,0A.46.46,0,0,0,260.16,237Z"/><path class="cls-19" d="M262,236a.46.46,0,0,0-.46.45.46.46,0,1,0,.92,0A.46.46,0,0,0,262,236Z"/><path class="cls-19" d="M263.86,236a.46.46,0,0,0-.46.45.47.47,0,0,0,.46.46.46.46,0,0,0,.45-.46A.45.45,0,0,0,263.86,236Z"/><path class="cls-19" d="M265.7,236a.45.45,0,0,0-.45.45.46.46,0,1,0,.91,0A.45.45,0,0,0,265.7,236Z"/><path class="cls-19" d="M267.55,236a.45.45,0,0,0-.45.45.46.46,0,0,0,.45.46.47.47,0,0,0,.46-.46A.46.46,0,0,0,267.55,236Z"/><path class="cls-19" d="M266.63,234.27a.46.46,0,1,0,0,.91.46.46,0,0,0,0-.91Z"/><path class="cls-19" d="M264.78,234.27a.46.46,0,0,0,0,.91.46.46,0,1,0,0-.91Z"/><path class="cls-19" d="M262.93,234.27a.46.46,0,1,0,.46.46A.45.45,0,0,0,262.93,234.27Z"/><path class="cls-19" d="M261.09,234.27a.46.46,0,1,0,.45.46A.45.45,0,0,0,261.09,234.27Z"/><path class="cls-19" d="M259.24,234.27a.46.46,0,1,0,.46.46A.46.46,0,0,0,259.24,234.27Z"/><path class="cls-19" d="M257.39,235.18a.46.46,0,1,0,0-.91.46.46,0,0,0,0,.91Z"/><path class="cls-19" d="M255.54,235.18a.46.46,0,1,0-.45-.45A.45.45,0,0,0,255.54,235.18Z"/><path class="cls-19" d="M253.7,235.18a.46.46,0,0,0,0-.91.46.46,0,1,0,0,.91Z"/><path class="cls-19" d="M251.85,235.18a.46.46,0,1,0-.46-.45A.46.46,0,0,0,251.85,235.18Z"/><path class="cls-19" d="M250,235.18a.46.46,0,1,0,0-.91.46.46,0,0,0,0,.91Z"/><path class="cls-19" d="M247.23,233.42a.46.46,0,0,0,0-.92.46.46,0,0,0,0,.92Z"/><path class="cls-19" d="M249.08,233.42a.46.46,0,1,0-.46-.46A.47.47,0,0,0,249.08,233.42Z"/><path class="cls-19" d="M250.93,233.42a.46.46,0,1,0-.46-.46A.46.46,0,0,0,250.93,233.42Z"/><path class="cls-19" d="M252.77,233.42a.46.46,0,1,0-.45-.46A.46.46,0,0,0,252.77,233.42Z"/><path class="cls-19" d="M254.62,232.5a.46.46,0,0,0,0,.92.46.46,0,1,0,0-.92Z"/><path class="cls-19" d="M256.47,232.5a.46.46,0,0,0,0,.92.46.46,0,0,0,0-.92Z"/><path class="cls-19" d="M258.32,232.5a.46.46,0,1,0,.45.46A.46.46,0,0,0,258.32,232.5Z"/><path class="cls-19" d="M260.16,232.5a.46.46,0,1,0,.46.46A.46.46,0,0,0,260.16,232.5Z"/><path class="cls-19" d="M262,232.5a.46.46,0,1,0,.46.46A.47.47,0,0,0,262,232.5Z"/><path class="cls-19" d="M251.85,230.74a.46.46,0,1,0,.46.45A.46.46,0,0,0,251.85,230.74Z"/><path class="cls-19" d="M250,230.74a.46.46,0,0,0,0,.91.46.46,0,1,0,0-.91Z"/><path class="cls-19" d="M248.16,231.65a.46.46,0,1,0-.46-.46A.45.45,0,0,0,248.16,231.65Z"/><path class="cls-19" d="M246.31,231.65a.46.46,0,0,0,0-.91.46.46,0,1,0,0,.91Z"/><path class="cls-19" d="M257.4,241.33a.46.46,0,1,0,0,.92.46.46,0,0,0,0-.92Z"/><path class="cls-19" d="M255.55,241.33a.46.46,0,1,0,.46.46A.47.47,0,0,0,255.55,241.33Z"/><path class="cls-19" d="M253.7,241.33a.46.46,0,1,0,.46.46A.46.46,0,0,0,253.7,241.33Z"/><path class="cls-19" d="M251.86,241.33a.46.46,0,1,0,.45.46A.46.46,0,0,0,251.86,241.33Z"/><path class="cls-19" d="M250,241.33a.46.46,0,1,0,0,.92.46.46,0,0,0,0-.92Z"/><path class="cls-19" d="M248.16,241.33a.46.46,0,0,0,0,.92.46.46,0,1,0,0-.92Z"/><path class="cls-19" d="M246.31,241.33a.46.46,0,1,0,.46.46A.46.46,0,0,0,246.31,241.33Z"/><circle class="cls-19" cx="244.47" cy="241.79" r="0.46"/><path class="cls-19" d="M236.15,239.57a.46.46,0,1,0,.46.45A.45.45,0,0,0,236.15,239.57Z"/><path class="cls-19" d="M238,239.57a.46.46,0,0,0,0,.91.46.46,0,1,0,0-.91Z"/><path class="cls-19" d="M239.85,239.57a.46.46,0,1,0,0,.91.46.46,0,0,0,0-.91Z"/><path class="cls-19" d="M241.7,239.57a.46.46,0,1,0,.45.45A.45.45,0,0,0,241.7,239.57Z"/><path class="cls-19" d="M243.54,239.57a.46.46,0,1,0,.46.45A.45.45,0,0,0,243.54,239.57Z"/><path class="cls-19" d="M245.39,239.57a.46.46,0,1,0,.46.45A.46.46,0,0,0,245.39,239.57Z"/><path class="cls-19" d="M247.24,239.57a.46.46,0,1,0,0,.91.46.46,0,0,0,0-.91Z"/><path class="cls-19" d="M249.09,239.57a.46.46,0,1,0,.45.45A.45.45,0,0,0,249.09,239.57Z"/><path class="cls-19" d="M250.93,239.57a.46.46,0,0,0,0,.91.46.46,0,1,0,0-.91Z"/><path class="cls-19" d="M252.78,239.57a.46.46,0,1,0,.46.45A.46.46,0,0,0,252.78,239.57Z"/><path class="cls-19" d="M254.63,239.57a.46.46,0,1,0,.45.45A.45.45,0,0,0,254.63,239.57Z"/><path class="cls-19" d="M256.47,239.57a.46.46,0,1,0,.46.45A.45.45,0,0,0,256.47,239.57Z"/><path class="cls-19" d="M258.32,239.57a.46.46,0,0,0,0,.91.46.46,0,1,0,0-.91Z"/><path class="cls-19" d="M260.17,239.57a.46.46,0,1,0,0,.91.46.46,0,0,0,0-.91Z"/><path class="cls-19" d="M257.4,237.8a.47.47,0,0,0-.46.46.46.46,0,0,0,.46.45.45.45,0,0,0,.45-.45A.46.46,0,0,0,257.4,237.8Z"/><path class="cls-19" d="M255.55,237.8a.47.47,0,0,0-.46.46.46.46,0,0,0,.92,0A.47.47,0,0,0,255.55,237.8Z"/><path class="cls-19" d="M253.7,237.8a.46.46,0,0,0-.45.46.46.46,0,0,0,.91,0A.46.46,0,0,0,253.7,237.8Z"/><path class="cls-19" d="M251.86,237.8a.46.46,0,0,0-.46.46.46.46,0,0,0,.91,0A.46.46,0,0,0,251.86,237.8Z"/><path class="cls-19" d="M250,237.8a.47.47,0,0,0-.46.46.46.46,0,0,0,.46.45.45.45,0,0,0,.45-.45A.46.46,0,0,0,250,237.8Z"/><path class="cls-19" d="M248.16,237.8a.46.46,0,0,0-.45.46.45.45,0,0,0,.45.45.46.46,0,0,0,.46-.45A.47.47,0,0,0,248.16,237.8Z"/><path class="cls-19" d="M246.31,237.8a.46.46,0,0,0-.45.46.46.46,0,0,0,.91,0A.46.46,0,0,0,246.31,237.8Z"/><path class="cls-19" d="M244.47,237.8a.46.46,0,0,0-.46.46.46.46,0,0,0,.91,0A.46.46,0,0,0,244.47,237.8Z"/><path class="cls-19" d="M242.62,237.8a.47.47,0,0,0-.46.46.46.46,0,0,0,.92,0A.47.47,0,0,0,242.62,237.8Z"/><path class="cls-19" d="M240.77,237.8a.46.46,0,0,0-.45.46.45.45,0,0,0,.45.45.46.46,0,0,0,.46-.45A.47.47,0,0,0,240.77,237.8Z"/><path class="cls-19" d="M238.92,237.8a.46.46,0,0,0-.45.46.46.46,0,0,0,.91,0A.46.46,0,0,0,238.92,237.8Z"/><path class="cls-19" d="M237.08,237.8a.47.47,0,0,0-.46.46.46.46,0,0,0,.46.45.45.45,0,0,0,.45-.45A.46.46,0,0,0,237.08,237.8Z"/><path class="cls-19" d="M235.23,237.8a.47.47,0,0,0-.46.46.46.46,0,0,0,.92,0A.47.47,0,0,0,235.23,237.8Z"/><path class="cls-19" d="M236.15,236a.45.45,0,0,0-.45.45.46.46,0,1,0,.91,0A.45.45,0,0,0,236.15,236Z"/><path class="cls-19" d="M238,236a.45.45,0,0,0-.45.45.46.46,0,0,0,.45.46.47.47,0,0,0,.46-.46A.46.46,0,0,0,238,236Z"/><path class="cls-19" d="M239.85,236a.46.46,0,0,0-.46.45.47.47,0,0,0,.46.46.46.46,0,0,0,.45-.46A.45.45,0,0,0,239.85,236Z"/><path class="cls-19" d="M241.7,236a.45.45,0,0,0-.46.45.46.46,0,1,0,.91,0A.45.45,0,0,0,241.7,236Z"/><path class="cls-19" d="M243.54,236a.45.45,0,0,0-.45.45.46.46,0,1,0,.91,0A.45.45,0,0,0,243.54,236Z"/><path class="cls-19" d="M245.39,236a.46.46,0,0,0-.46.45.46.46,0,1,0,.92,0A.46.46,0,0,0,245.39,236Z"/><path class="cls-19" d="M247.24,236a.46.46,0,0,0-.46.45.47.47,0,0,0,.46.46.46.46,0,0,0,.45-.46A.45.45,0,0,0,247.24,236Z"/><path class="cls-19" d="M249.09,236a.45.45,0,0,0-.46.45.46.46,0,1,0,.91,0A.45.45,0,0,0,249.09,236Z"/><path class="cls-19" d="M250.93,236a.45.45,0,0,0-.45.45.46.46,0,0,0,.45.46.47.47,0,0,0,.46-.46A.46.46,0,0,0,250.93,236Z"/><path class="cls-19" d="M252.78,236a.46.46,0,0,0-.46.45.46.46,0,1,0,.92,0A.46.46,0,0,0,252.78,236Z"/><path class="cls-19" d="M248.16,234.27a.46.46,0,0,0,0,.91.46.46,0,1,0,0-.91Z"/><path class="cls-19" d="M246.31,234.27a.46.46,0,1,0,.46.46A.45.45,0,0,0,246.31,234.27Z"/><path class="cls-19" d="M244.47,234.27a.46.46,0,1,0,.45.46A.45.45,0,0,0,244.47,234.27Z"/><path class="cls-19" d="M242.62,234.27a.46.46,0,1,0,.46.46A.46.46,0,0,0,242.62,234.27Z"/><path class="cls-19" d="M240.77,234.27a.46.46,0,0,0,0,.91.46.46,0,1,0,0-.91Z"/><path class="cls-19" d="M238.92,234.27a.46.46,0,1,0,.46.46A.45.45,0,0,0,238.92,234.27Z"/><path class="cls-19" d="M237.08,234.27a.46.46,0,1,0,0,.91.46.46,0,0,0,0-.91Z"/><path class="cls-19" d="M241.7,232.5a.46.46,0,1,0,.45.46A.46.46,0,0,0,241.7,232.5Z"/><path class="cls-19" d="M243.54,232.5a.46.46,0,1,0,.46.46A.46.46,0,0,0,243.54,232.5Z"/><path class="cls-19" d="M245.39,232.5a.46.46,0,1,0,.46.46A.47.47,0,0,0,245.39,232.5Z"/><path class="cls-5" d="M224.13,186.92a.46.46,0,0,0,.46-.45.46.46,0,0,0-.92,0A.46.46,0,0,0,224.13,186.92Z"/><path class="cls-5" d="M226,186.92a.45.45,0,0,0,.45-.45A.46.46,0,0,0,226,186a.47.47,0,0,0-.46.46A.46.46,0,0,0,226,186.92Z"/><path class="cls-5" d="M227.82,186.92a.45.45,0,0,0,.46-.45.46.46,0,1,0-.91,0A.45.45,0,0,0,227.82,186.92Z"/><path class="cls-5" d="M229.67,186.92a.46.46,0,0,0,.46-.45.47.47,0,0,0-.46-.46.46.46,0,0,0-.45.46A.45.45,0,0,0,229.67,186.92Z"/><path class="cls-5" d="M231.52,186.92a.45.45,0,0,0,.45-.45.46.46,0,0,0-.45-.46.47.47,0,0,0-.46.46A.46.46,0,0,0,231.52,186.92Z"/><path class="cls-5" d="M233.37,186.92a.45.45,0,0,0,.45-.45.46.46,0,1,0-.91,0A.45.45,0,0,0,233.37,186.92Z"/><path class="cls-5" d="M235.21,186.92a.45.45,0,0,0,.46-.45.46.46,0,1,0-.91,0A.45.45,0,0,0,235.21,186.92Z"/><path class="cls-5" d="M236.14,185.16a.46.46,0,0,0,.45-.46.45.45,0,0,0-.45-.45.46.46,0,0,0-.46.45A.47.47,0,0,0,236.14,185.16Z"/><path class="cls-5" d="M234.29,185.16a.47.47,0,0,0,.46-.46.46.46,0,0,0-.92,0A.47.47,0,0,0,234.29,185.16Z"/><path class="cls-5" d="M232.44,185.16a.47.47,0,0,0,.46-.46.46.46,0,0,0-.46-.45.45.45,0,0,0-.45.45A.46.46,0,0,0,232.44,185.16Z"/><path class="cls-5" d="M230.6,185.16a.46.46,0,0,0,.45-.46.46.46,0,0,0-.91,0A.46.46,0,0,0,230.6,185.16Z"/><path class="cls-5" d="M228.75,185.16a.46.46,0,0,0,.45-.46.45.45,0,0,0-.45-.45.46.46,0,0,0-.46.45A.47.47,0,0,0,228.75,185.16Z"/><path class="cls-5" d="M226.9,185.16a.47.47,0,0,0,.46-.46.46.46,0,0,0-.92,0A.47.47,0,0,0,226.9,185.16Z"/><path class="cls-5" d="M225.05,185.16a.46.46,0,0,0,.46-.46.46.46,0,0,0-.91,0A.46.46,0,0,0,225.05,185.16Z"/><path class="cls-5" d="M223.21,185.16a.46.46,0,0,0,.45-.46.46.46,0,0,0-.91,0A.46.46,0,0,0,223.21,185.16Z"/><path class="cls-5" d="M221.36,185.16a.46.46,0,0,0,.45-.46.45.45,0,0,0-.45-.45.46.46,0,0,0-.46.45A.47.47,0,0,0,221.36,185.16Z"/><path class="cls-5" d="M219.51,185.16a.47.47,0,0,0,.46-.46.46.46,0,0,0-.46-.45.45.45,0,0,0-.45.45A.46.46,0,0,0,219.51,185.16Z"/><path class="cls-5" d="M217.66,185.16a.46.46,0,0,0,.46-.46.46.46,0,0,0-.91,0A.46.46,0,0,0,217.66,185.16Z"/><path class="cls-5" d="M214.89,183.39a.46.46,0,1,0-.45-.45A.45.45,0,0,0,214.89,183.39Z"/><path class="cls-5" d="M216.74,183.39a.46.46,0,1,0-.46-.45A.46.46,0,0,0,216.74,183.39Z"/><path class="cls-5" d="M218.59,183.39a.46.46,0,0,0,0-.91.46.46,0,1,0,0,.91Z"/><path class="cls-5" d="M220.44,183.39a.46.46,0,1,0-.46-.45A.45.45,0,0,0,220.44,183.39Z"/><path class="cls-5" d="M222.28,183.39a.46.46,0,1,0,0-.91.46.46,0,0,0,0,.91Z"/><path class="cls-5" d="M224.13,183.39a.46.46,0,1,0-.46-.45A.46.46,0,0,0,224.13,183.39Z"/><path class="cls-5" d="M226,183.39a.46.46,0,0,0,0-.91.46.46,0,1,0,0,.91Z"/><path class="cls-5" d="M227.82,183.39a.46.46,0,1,0-.45-.45A.45.45,0,0,0,227.82,183.39Z"/><path class="cls-5" d="M229.67,183.39a.46.46,0,1,0,0-.91.46.46,0,0,0,0,.91Z"/><path class="cls-5" d="M231.52,183.39a.46.46,0,0,0,0-.91.46.46,0,1,0,0,.91Z"/><path class="cls-5" d="M233.37,183.39a.46.46,0,1,0-.46-.45A.45.45,0,0,0,233.37,183.39Z"/><path class="cls-5" d="M235.21,183.39a.46.46,0,1,0-.45-.45A.45.45,0,0,0,235.21,183.39Z"/><path class="cls-5" d="M234.29,181.63a.46.46,0,1,0-.46-.46A.47.47,0,0,0,234.29,181.63Z"/><path class="cls-5" d="M232.44,181.63a.46.46,0,1,0,0-.92.46.46,0,0,0,0,.92Z"/><path class="cls-5" d="M230.6,181.63a.46.46,0,1,0-.46-.46A.46.46,0,0,0,230.6,181.63Z"/><path class="cls-5" d="M228.75,181.63a.46.46,0,0,0,0-.92.46.46,0,1,0,0,.92Z"/><path class="cls-5" d="M226.9,181.63a.46.46,0,1,0-.46-.46A.47.47,0,0,0,226.9,181.63Z"/><path class="cls-5" d="M225.05,181.63a.46.46,0,1,0-.45-.46A.46.46,0,0,0,225.05,181.63Z"/><path class="cls-5" d="M223.21,181.63a.46.46,0,1,0-.46-.46A.46.46,0,0,0,223.21,181.63Z"/><path class="cls-5" d="M221.36,181.63a.46.46,0,0,0,0-.92.46.46,0,1,0,0,.92Z"/><path class="cls-5" d="M219.51,181.63a.46.46,0,1,0,0-.92.46.46,0,0,0,0,.92Z"/><path class="cls-5" d="M217.66,181.63a.46.46,0,1,0-.45-.46A.46.46,0,0,0,217.66,181.63Z"/><path class="cls-5" d="M215.82,181.63a.46.46,0,1,0-.46-.46A.46.46,0,0,0,215.82,181.63Z"/><path class="cls-5" d="M214,181.63a.46.46,0,1,0-.46-.46A.47.47,0,0,0,214,181.63Z"/><path class="cls-5" d="M212.12,181.63a.46.46,0,1,0,0-.92.46.46,0,0,0,0,.92Z"/><circle class="cls-5" cx="213.05" cy="179.4" r="0.46"/><circle class="cls-5" cx="214.89" cy="179.4" r="0.46"/><circle class="cls-5" cx="216.74" cy="179.4" r="0.46"/><path class="cls-5" d="M218.59,179.86a.46.46,0,0,0,0-.91.46.46,0,1,0,0,.91Z"/><path class="cls-5" d="M220.44,179.86a.46.46,0,1,0-.46-.46A.45.45,0,0,0,220.44,179.86Z"/><path class="cls-5" d="M222.28,179.86a.46.46,0,1,0,0-.91.46.46,0,0,0,0,.91Z"/><path class="cls-5" d="M224.13,179.86a.46.46,0,1,0-.46-.46A.46.46,0,0,0,224.13,179.86Z"/><path class="cls-5" d="M226,179.86a.46.46,0,0,0,0-.91.46.46,0,1,0,0,.91Z"/><path class="cls-5" d="M227.82,179.86a.46.46,0,1,0-.45-.46A.45.45,0,0,0,227.82,179.86Z"/><path class="cls-5" d="M229.67,179.86a.46.46,0,1,0,0-.91.46.46,0,0,0,0,.91Z"/><path class="cls-5" d="M221.36,178.09a.45.45,0,0,0,.45-.45.46.46,0,0,0-.45-.46.47.47,0,0,0-.46.46A.46.46,0,0,0,221.36,178.09Z"/><path class="cls-5" d="M219.51,178.09a.46.46,0,0,0,.46-.45.47.47,0,0,0-.46-.46.46.46,0,0,0-.45.46A.45.45,0,0,0,219.51,178.09Z"/><path class="cls-5" d="M217.66,178.09a.45.45,0,0,0,.46-.45.46.46,0,1,0-.91,0A.45.45,0,0,0,217.66,178.09Z"/><circle class="cls-5" cx="215.82" cy="177.64" r="0.46"/><circle class="cls-5" cx="213.97" cy="177.64" r="0.46"/><path class="cls-19" d="M130,246.36a.46.46,0,0,0,0-.91.46.46,0,1,0,0,.91Z"/><path class="cls-19" d="M121.72,244.59a.45.45,0,0,0,.45-.45.46.46,0,1,0-.91,0A.45.45,0,0,0,121.72,244.59Z"/><path class="cls-19" d="M123.56,244.59a.45.45,0,0,0,.46-.45.46.46,0,1,0-.91,0A.45.45,0,0,0,123.56,244.59Z"/><path class="cls-19" d="M125.41,244.59a.46.46,0,0,0,.46-.45.46.46,0,0,0-.92,0A.46.46,0,0,0,125.41,244.59Z"/><path class="cls-19" d="M127.26,244.59a.45.45,0,0,0,.45-.45.46.46,0,0,0-.45-.46.47.47,0,0,0-.46.46A.46.46,0,0,0,127.26,244.59Z"/><path class="cls-19" d="M129.11,244.59a.45.45,0,0,0,.45-.45.46.46,0,1,0-.91,0A.45.45,0,0,0,129.11,244.59Z"/><path class="cls-19" d="M130,242.83a.46.46,0,0,0,.45-.46.45.45,0,0,0-.45-.45.46.46,0,0,0-.46.45A.47.47,0,0,0,130,242.83Z"/><path class="cls-19" d="M128.18,242.83a.47.47,0,0,0,.46-.46.46.46,0,0,0-.46-.45.45.45,0,0,0-.45.45A.46.46,0,0,0,128.18,242.83Z"/><path class="cls-19" d="M126.33,242.83a.46.46,0,0,0,.46-.46.46.46,0,0,0-.91,0A.46.46,0,0,0,126.33,242.83Z"/><path class="cls-19" d="M124.49,242.83a.46.46,0,0,0,.45-.46.45.45,0,0,0-.45-.45.46.46,0,0,0-.46.45A.47.47,0,0,0,124.49,242.83Z"/><path class="cls-19" d="M122.64,242.83a.47.47,0,0,0,.46-.46.46.46,0,0,0-.92,0A.47.47,0,0,0,122.64,242.83Z"/><path class="cls-19" d="M120.79,242.83a.47.47,0,0,0,.46-.46.46.46,0,0,0-.46-.45.45.45,0,0,0-.45.45A.46.46,0,0,0,120.79,242.83Z"/><path class="cls-19" d="M119,242.83a.46.46,0,0,0,.45-.46.46.46,0,0,0-.91,0A.46.46,0,0,0,119,242.83Z"/><path class="cls-19" d="M114.33,241.06a.46.46,0,1,0-.46-.45A.45.45,0,0,0,114.33,241.06Z"/><path class="cls-19" d="M116.17,241.06a.46.46,0,1,0-.45-.45A.45.45,0,0,0,116.17,241.06Z"/><path class="cls-19" d="M118,241.06a.46.46,0,1,0,0-.91.46.46,0,0,0,0,.91Z"/><path class="cls-19" d="M119.87,241.06a.46.46,0,0,0,0-.91.46.46,0,1,0,0,.91Z"/><path class="cls-19" d="M121.72,241.06a.46.46,0,1,0-.46-.45A.45.45,0,0,0,121.72,241.06Z"/><path class="cls-19" d="M123.56,241.06a.46.46,0,1,0-.45-.45A.45.45,0,0,0,123.56,241.06Z"/><path class="cls-19" d="M125.41,241.06a.46.46,0,1,0-.46-.45A.46.46,0,0,0,125.41,241.06Z"/><path class="cls-19" d="M127.26,241.06a.46.46,0,0,0,0-.91.46.46,0,1,0,0,.91Z"/><path class="cls-19" d="M129.11,241.06a.46.46,0,1,0-.46-.45A.45.45,0,0,0,129.11,241.06Z"/><path class="cls-19" d="M131,241.06a.46.46,0,1,0,0-.91.46.46,0,0,0,0,.91Z"/><path class="cls-19" d="M131.88,239.3a.46.46,0,1,0-.46-.46A.46.46,0,0,0,131.88,239.3Z"/><path class="cls-19" d="M130,239.3a.46.46,0,0,0,0-.92.46.46,0,0,0,0,.92Z"/><path class="cls-19" d="M128.18,239.3a.46.46,0,0,0,0-.92.46.46,0,0,0,0,.92Z"/><path class="cls-19" d="M126.33,239.3a.46.46,0,1,0-.45-.46A.46.46,0,0,0,126.33,239.3Z"/><path class="cls-19" d="M124.49,239.3a.46.46,0,0,0,0-.92.46.46,0,0,0,0,.92Z"/><path class="cls-19" d="M122.64,239.3a.46.46,0,1,0-.46-.46A.47.47,0,0,0,122.64,239.3Z"/><path class="cls-19" d="M120.79,239.3a.46.46,0,1,0,0-.92.46.46,0,0,0,0,.92Z"/><path class="cls-19" d="M119,239.3a.46.46,0,1,0-.46-.46A.46.46,0,0,0,119,239.3Z"/><path class="cls-19" d="M117.1,239.3a.46.46,0,0,0,0-.92.46.46,0,0,0,0,.92Z"/><path class="cls-19" d="M115.25,239.3a.46.46,0,1,0-.46-.46A.47.47,0,0,0,115.25,239.3Z"/><path class="cls-19" d="M113.4,239.3a.46.46,0,1,0-.45-.46A.46.46,0,0,0,113.4,239.3Z"/><path class="cls-19" d="M111.56,239.3a.46.46,0,1,0-.46-.46A.46.46,0,0,0,111.56,239.3Z"/><path class="cls-19" d="M109.71,239.3a.46.46,0,0,0,0-.92.46.46,0,0,0,0,.92Z"/><path class="cls-19" d="M106.94,237.53a.46.46,0,0,0,0-.91.46.46,0,1,0,0,.91Z"/><path class="cls-19" d="M108.79,237.53a.46.46,0,1,0-.46-.46A.45.45,0,0,0,108.79,237.53Z"/><path class="cls-19" d="M110.63,237.53a.46.46,0,1,0,0-.91.46.46,0,0,0,0,.91Z"/><path class="cls-19" d="M112.48,237.53a.46.46,0,1,0-.46-.46A.46.46,0,0,0,112.48,237.53Z"/><path class="cls-19" d="M114.33,237.53a.46.46,0,1,0-.46-.46A.45.45,0,0,0,114.33,237.53Z"/><path class="cls-19" d="M116.17,237.53a.46.46,0,1,0-.45-.46A.45.45,0,0,0,116.17,237.53Z"/><path class="cls-19" d="M118,237.53a.46.46,0,1,0,0-.91.46.46,0,0,0,0,.91Z"/><path class="cls-19" d="M119.87,237.53a.46.46,0,0,0,0-.91.46.46,0,1,0,0,.91Z"/><path class="cls-19" d="M121.72,237.53a.46.46,0,1,0-.46-.46A.45.45,0,0,0,121.72,237.53Z"/><path class="cls-19" d="M123.56,237.53a.46.46,0,1,0-.45-.46A.45.45,0,0,0,123.56,237.53Z"/><path class="cls-19" d="M125.41,237.53a.46.46,0,1,0-.46-.46A.46.46,0,0,0,125.41,237.53Z"/><path class="cls-19" d="M127.26,237.53a.46.46,0,0,0,0-.91.46.46,0,1,0,0,.91Z"/><path class="cls-19" d="M129.11,237.53a.46.46,0,1,0-.46-.46A.45.45,0,0,0,129.11,237.53Z"/><path class="cls-19" d="M131,237.53a.46.46,0,1,0,0-.91.46.46,0,0,0,0,.91Z"/><path class="cls-19" d="M132.8,237.53a.46.46,0,1,0-.46-.46A.46.46,0,0,0,132.8,237.53Z"/><path class="cls-19" d="M130,235.76a.45.45,0,0,0,.45-.45.46.46,0,0,0-.45-.46.47.47,0,0,0-.46.46A.46.46,0,0,0,130,235.76Z"/><path class="cls-19" d="M128.18,235.76a.46.46,0,0,0,.46-.45.47.47,0,0,0-.46-.46.46.46,0,0,0-.45.46A.45.45,0,0,0,128.18,235.76Z"/><path class="cls-19" d="M126.33,235.76a.45.45,0,0,0,.46-.45.46.46,0,1,0-.91,0A.45.45,0,0,0,126.33,235.76Z"/><path class="cls-19" d="M124.49,235.76a.45.45,0,0,0,.45-.45.46.46,0,0,0-.45-.46.47.47,0,0,0-.46.46A.46.46,0,0,0,124.49,235.76Z"/><path class="cls-19" d="M122.64,235.76a.46.46,0,0,0,.46-.45.46.46,0,0,0-.92,0A.46.46,0,0,0,122.64,235.76Z"/><path class="cls-19" d="M120.79,235.76a.46.46,0,0,0,.46-.45.47.47,0,0,0-.46-.46.46.46,0,0,0-.45.46A.45.45,0,0,0,120.79,235.76Z"/><path class="cls-19" d="M119,235.76a.45.45,0,0,0,.45-.45.46.46,0,1,0-.91,0A.45.45,0,0,0,119,235.76Z"/><path class="cls-19" d="M117.1,235.76a.45.45,0,0,0,.45-.45.46.46,0,0,0-.45-.46.47.47,0,0,0-.46.46A.46.46,0,0,0,117.1,235.76Z"/><path class="cls-19" d="M115.25,235.76a.46.46,0,0,0,.46-.45.46.46,0,0,0-.92,0A.46.46,0,0,0,115.25,235.76Z"/><path class="cls-19" d="M113.4,235.76a.45.45,0,0,0,.46-.45.46.46,0,1,0-.91,0A.45.45,0,0,0,113.4,235.76Z"/><path class="cls-19" d="M111.56,235.76a.45.45,0,0,0,.45-.45.46.46,0,1,0-.91,0A.45.45,0,0,0,111.56,235.76Z"/><path class="cls-19" d="M109.71,235.76a.45.45,0,0,0,.45-.45.46.46,0,0,0-.45-.46.47.47,0,0,0-.46.46A.46.46,0,0,0,109.71,235.76Z"/><path class="cls-19" d="M107.86,235.76a.46.46,0,0,0,.46-.45.47.47,0,0,0-.46-.46.46.46,0,0,0-.45.46A.45.45,0,0,0,107.86,235.76Z"/><path class="cls-19" d="M106,235.76a.45.45,0,0,0,.46-.45.46.46,0,1,0-.91,0A.45.45,0,0,0,106,235.76Z"/><path class="cls-19" d="M104.17,235.76a.45.45,0,0,0,.45-.45.46.46,0,1,0-.91,0A.45.45,0,0,0,104.17,235.76Z"/><path class="cls-19" d="M101.4,234a.46.46,0,0,0,.45-.46.46.46,0,0,0-.91,0A.46.46,0,0,0,101.4,234Z"/><path class="cls-19" d="M103.24,234a.46.46,0,0,0,.46-.46.46.46,0,0,0-.91,0A.46.46,0,0,0,103.24,234Z"/><path class="cls-19" d="M105.09,234a.47.47,0,0,0,.46-.46.46.46,0,0,0-.92,0A.47.47,0,0,0,105.09,234Z"/><path class="cls-19" d="M106.94,234a.46.46,0,0,0,.45-.46.45.45,0,0,0-.45-.45.46.46,0,0,0-.46.45A.47.47,0,0,0,106.94,234Z"/><path class="cls-19" d="M108.79,234a.46.46,0,0,0,.45-.46.46.46,0,0,0-.91,0A.46.46,0,0,0,108.79,234Z"/><path class="cls-19" d="M110.63,234a.47.47,0,0,0,.46-.46.46.46,0,0,0-.46-.45.45.45,0,0,0-.45.45A.46.46,0,0,0,110.63,234Z"/><path class="cls-19" d="M112.48,234a.47.47,0,0,0,.46-.46.46.46,0,0,0-.92,0A.47.47,0,0,0,112.48,234Z"/><path class="cls-19" d="M114.33,234a.46.46,0,0,0,.45-.46.46.46,0,0,0-.91,0A.46.46,0,0,0,114.33,234Z"/><path class="cls-19" d="M116.17,234a.46.46,0,0,0,.46-.46.46.46,0,0,0-.91,0A.46.46,0,0,0,116.17,234Z"/><path class="cls-19" d="M118,234a.47.47,0,0,0,.46-.46.46.46,0,0,0-.46-.45.45.45,0,0,0-.45.45A.46.46,0,0,0,118,234Z"/><path class="cls-19" d="M98.62,232.23a.46.46,0,1,0-.45-.45A.45.45,0,0,0,98.62,232.23Z"/><path class="cls-19" d="M96.78,232.23a.46.46,0,0,0,0-.91.46.46,0,1,0,0,.91Z"/><path class="cls-19" d="M97.71,247.21a.46.46,0,0,0,0,.92.46.46,0,0,0,0-.92Z"/><path class="cls-19" d="M99.55,247.21a.46.46,0,1,0,.46.46A.46.46,0,0,0,99.55,247.21Z"/><path class="cls-19" d="M101.4,247.21a.46.46,0,0,0,0,.92.46.46,0,0,0,0-.92Z"/><path class="cls-19" d="M103.25,247.21a.46.46,0,0,0,0,.92.46.46,0,0,0,0-.92Z"/><path class="cls-19" d="M105.1,247.21a.46.46,0,1,0,.45.46A.46.46,0,0,0,105.1,247.21Z"/><path class="cls-19" d="M106.94,247.21a.46.46,0,1,0,.46.46A.46.46,0,0,0,106.94,247.21Z"/><path class="cls-19" d="M108.79,247.21a.46.46,0,1,0,.46.46A.47.47,0,0,0,108.79,247.21Z"/><path class="cls-19" d="M110.64,247.21a.46.46,0,0,0,0,.92.46.46,0,0,0,0-.92Z"/><path class="cls-19" d="M112.49,247.21a.46.46,0,1,0,.45.46A.46.46,0,0,0,112.49,247.21Z"/><path class="cls-19" d="M114.33,247.21a.46.46,0,0,0,0,.92.46.46,0,1,0,0-.92Z"/><path class="cls-19" d="M116.18,247.21a.46.46,0,1,0,.46.46A.47.47,0,0,0,116.18,247.21Z"/><path class="cls-19" d="M118,247.21a.46.46,0,0,0,0,.92.46.46,0,0,0,0-.92Z"/><path class="cls-19" d="M119.87,247.21a.46.46,0,1,0,.46.46A.46.46,0,0,0,119.87,247.21Z"/><path class="cls-19" d="M121.72,247.21a.46.46,0,0,0,0,.92.46.46,0,1,0,0-.92Z"/><path class="cls-19" d="M123.57,247.21a.46.46,0,1,0,.46.46A.47.47,0,0,0,123.57,247.21Z"/><path class="cls-19" d="M125.42,247.21a.46.46,0,1,0,.45.46A.46.46,0,0,0,125.42,247.21Z"/><path class="cls-19" d="M127.26,247.21a.46.46,0,1,0,.46.46A.46.46,0,0,0,127.26,247.21Z"/><path class="cls-19" d="M129.11,247.21a.46.46,0,1,0,.46.46A.47.47,0,0,0,129.11,247.21Z"/><path class="cls-19" d="M128.19,245.45a.46.46,0,1,0,0,.91.46.46,0,0,0,0-.91Z"/><path class="cls-19" d="M126.34,245.45a.46.46,0,1,0,.46.45A.46.46,0,0,0,126.34,245.45Z"/><path class="cls-19" d="M124.49,245.45a.46.46,0,0,0,0,.91.46.46,0,1,0,0-.91Z"/><path class="cls-19" d="M122.65,245.45a.46.46,0,1,0,.45.45A.45.45,0,0,0,122.65,245.45Z"/><path class="cls-19" d="M120.8,245.45a.46.46,0,1,0,0,.91.46.46,0,0,0,0-.91Z"/><path class="cls-19" d="M119,245.45a.46.46,0,1,0,.46.45A.46.46,0,0,0,119,245.45Z"/><path class="cls-19" d="M117.1,245.45a.46.46,0,1,0,.46.45A.45.45,0,0,0,117.1,245.45Z"/><path class="cls-19" d="M115.26,245.45a.46.46,0,1,0,.45.45A.45.45,0,0,0,115.26,245.45Z"/><path class="cls-19" d="M113.41,245.45a.46.46,0,1,0,.46.45A.46.46,0,0,0,113.41,245.45Z"/><path class="cls-19" d="M111.56,245.45a.46.46,0,0,0,0,.91.46.46,0,1,0,0-.91Z"/><path class="cls-19" d="M109.71,245.45a.46.46,0,1,0,.46.45A.45.45,0,0,0,109.71,245.45Z"/><path class="cls-19" d="M107.87,245.45a.46.46,0,1,0,0,.91.46.46,0,0,0,0-.91Z"/><path class="cls-19" d="M106,245.45a.46.46,0,1,0,.46.45A.46.46,0,0,0,106,245.45Z"/><path class="cls-19" d="M104.17,245.45a.46.46,0,0,0,0,.91.46.46,0,1,0,0-.91Z"/><path class="cls-19" d="M102.33,245.45a.46.46,0,1,0,.45.45A.45.45,0,0,0,102.33,245.45Z"/><path class="cls-19" d="M100.48,245.45a.46.46,0,1,0,0,.91.46.46,0,0,0,0-.91Z"/><path class="cls-19" d="M98.63,245.45a.46.46,0,1,0,.46.45A.46.46,0,0,0,98.63,245.45Z"/><path class="cls-19" d="M96.78,245.45a.46.46,0,1,0,.46.45A.45.45,0,0,0,96.78,245.45Z"/><path class="cls-19" d="M94.94,245.45a.46.46,0,1,0,.45.45A.45.45,0,0,0,94.94,245.45Z"/><path class="cls-19" d="M93.09,245.45a.46.46,0,1,0,0,.91.46.46,0,0,0,0-.91Z"/><path class="cls-19" d="M90.32,243.68a.47.47,0,0,0-.46.46.46.46,0,0,0,.46.45.45.45,0,0,0,.45-.45A.46.46,0,0,0,90.32,243.68Z"/><path class="cls-19" d="M92.17,243.68a.46.46,0,0,0-.46.46.46.46,0,0,0,.91,0A.46.46,0,0,0,92.17,243.68Z"/><path class="cls-19" d="M94,243.68a.46.46,0,0,0-.45.46.45.45,0,0,0,.45.45.46.46,0,0,0,.46-.45A.47.47,0,0,0,94,243.68Z"/><path class="cls-19" d="M95.86,243.68a.47.47,0,0,0-.46.46.46.46,0,0,0,.92,0A.47.47,0,0,0,95.86,243.68Z"/><circle class="cls-19" cx="97.71" cy="244.14" r="0.46"/><circle class="cls-19" cx="99.55" cy="244.14" r="0.46"/><circle class="cls-19" cx="101.4" cy="244.14" r="0.46"/><path class="cls-19" d="M103.25,243.68a.47.47,0,0,0-.46.46.46.46,0,0,0,.46.45.45.45,0,0,0,.45-.45A.46.46,0,0,0,103.25,243.68Z"/><path class="cls-19" d="M105.1,243.68a.46.46,0,0,0-.46.46.46.46,0,0,0,.91,0A.46.46,0,0,0,105.1,243.68Z"/><path class="cls-19" d="M106.94,243.68a.46.46,0,0,0-.45.46.46.46,0,0,0,.91,0A.46.46,0,0,0,106.94,243.68Z"/><path class="cls-19" d="M108.79,243.68a.47.47,0,0,0-.46.46.46.46,0,0,0,.92,0A.47.47,0,0,0,108.79,243.68Z"/><path class="cls-19" d="M110.64,243.68a.47.47,0,0,0-.46.46.46.46,0,0,0,.46.45.45.45,0,0,0,.45-.45A.46.46,0,0,0,110.64,243.68Z"/><path class="cls-19" d="M112.49,243.68a.46.46,0,0,0-.46.46.46.46,0,0,0,.91,0A.46.46,0,0,0,112.49,243.68Z"/><path class="cls-19" d="M114.33,243.68a.46.46,0,0,0-.45.46.45.45,0,0,0,.45.45.46.46,0,0,0,.46-.45A.47.47,0,0,0,114.33,243.68Z"/><path class="cls-19" d="M116.18,243.68a.47.47,0,0,0-.46.46.46.46,0,0,0,.92,0A.47.47,0,0,0,116.18,243.68Z"/><path class="cls-19" d="M118,243.68a.47.47,0,0,0-.46.46.46.46,0,0,0,.46.45.45.45,0,0,0,.45-.45A.46.46,0,0,0,118,243.68Z"/><path class="cls-19" d="M119.87,243.68a.46.46,0,0,0-.45.46.46.46,0,0,0,.91,0A.46.46,0,0,0,119.87,243.68Z"/><path class="cls-19" d="M117.1,241.92a.45.45,0,0,0-.45.45.46.46,0,1,0,.91,0A.45.45,0,0,0,117.1,241.92Z"/><path class="cls-19" d="M115.26,241.92a.45.45,0,0,0-.46.45.46.46,0,1,0,.91,0A.45.45,0,0,0,115.26,241.92Z"/><path class="cls-19" d="M113.41,241.92a.46.46,0,0,0-.46.45.46.46,0,1,0,.92,0A.46.46,0,0,0,113.41,241.92Z"/><path class="cls-19" d="M111.56,241.92a.45.45,0,0,0-.45.45.46.46,0,0,0,.45.46.47.47,0,0,0,.46-.46A.46.46,0,0,0,111.56,241.92Z"/><path class="cls-19" d="M109.71,241.92a.45.45,0,0,0-.45.45.46.46,0,1,0,.91,0A.45.45,0,0,0,109.71,241.92Z"/><path class="cls-19" d="M107.87,241.92a.46.46,0,0,0-.46.45.47.47,0,0,0,.46.46.46.46,0,0,0,.45-.46A.45.45,0,0,0,107.87,241.92Z"/><path class="cls-19" d="M106,241.92a.46.46,0,0,0-.46.45.46.46,0,1,0,.92,0A.46.46,0,0,0,106,241.92Z"/><path class="cls-19" d="M104.17,241.92a.45.45,0,0,0-.45.45.46.46,0,0,0,.45.46.47.47,0,0,0,.46-.46A.46.46,0,0,0,104.17,241.92Z"/><circle class="cls-19" cx="102.33" cy="242.37" r="0.46"/><circle class="cls-19" cx="100.48" cy="242.37" r="0.46"/><circle class="cls-19" cx="98.63" cy="242.37" r="0.46"/><path class="cls-19" d="M96.78,241.92a.45.45,0,0,0-.45.45.46.46,0,1,0,.91,0A.45.45,0,0,0,96.78,241.92Z"/><path class="cls-19" d="M94.94,241.92a.45.45,0,0,0-.46.45.46.46,0,1,0,.91,0A.45.45,0,0,0,94.94,241.92Z"/><path class="cls-19" d="M93.09,241.92a.46.46,0,0,0-.46.45.47.47,0,0,0,.46.46.46.46,0,0,0,.45-.46A.45.45,0,0,0,93.09,241.92Z"/><path class="cls-19" d="M91.24,241.92a.45.45,0,0,0-.45.45.46.46,0,0,0,.45.46.47.47,0,0,0,.46-.46A.46.46,0,0,0,91.24,241.92Z"/><path class="cls-19" d="M89.39,241.92a.45.45,0,0,0-.45.45.46.46,0,1,0,.91,0A.45.45,0,0,0,89.39,241.92Z"/><path class="cls-19" d="M87.55,241.92a.45.45,0,0,0-.46.45.46.46,0,1,0,.91,0A.45.45,0,0,0,87.55,241.92Z"/><path class="cls-19" d="M85.7,241.92a.46.46,0,0,0-.46.45.46.46,0,1,0,.92,0A.46.46,0,0,0,85.7,241.92Z"/><path class="cls-19" d="M82.93,240.15a.46.46,0,1,0,0,.91.46.46,0,0,0,0-.91Z"/><path class="cls-19" d="M84.78,240.15a.46.46,0,1,0,.45.46A.45.45,0,0,0,84.78,240.15Z"/><path class="cls-19" d="M86.62,240.15a.46.46,0,1,0,.46.46A.45.45,0,0,0,86.62,240.15Z"/><path class="cls-19" d="M88.47,240.15a.46.46,0,1,0,.46.46A.46.46,0,0,0,88.47,240.15Z"/><path class="cls-19" d="M90.32,240.15a.46.46,0,1,0,0,.91.46.46,0,0,0,0-.91Z"/><path class="cls-19" d="M92.17,240.15a.46.46,0,1,0,.45.46A.45.45,0,0,0,92.17,240.15Z"/><path class="cls-19" d="M94,240.15a.46.46,0,0,0,0,.91.46.46,0,1,0,0-.91Z"/><path class="cls-19" d="M95.86,240.15a.46.46,0,1,0,.46.46A.46.46,0,0,0,95.86,240.15Z"/><circle class="cls-19" cx="97.71" cy="240.61" r="0.46"/><circle class="cls-19" cx="99.55" cy="240.61" r="0.46"/><circle class="cls-19" cx="101.4" cy="240.61" r="0.46"/><path class="cls-19" d="M103.25,240.15a.46.46,0,1,0,0,.91.46.46,0,0,0,0-.91Z"/><path class="cls-19" d="M105.1,240.15a.46.46,0,1,0,.45.46A.45.45,0,0,0,105.1,240.15Z"/><path class="cls-19" d="M106.94,240.15a.46.46,0,1,0,.46.46A.45.45,0,0,0,106.94,240.15Z"/><path class="cls-19" d="M108.79,240.15a.46.46,0,1,0,.46.46A.46.46,0,0,0,108.79,240.15Z"/><path class="cls-19" d="M110.64,240.15a.46.46,0,1,0,0,.91.46.46,0,0,0,0-.91Z"/><path class="cls-19" d="M112.49,240.15a.46.46,0,1,0,.45.46A.45.45,0,0,0,112.49,240.15Z"/><path class="cls-19" d="M107.87,238.38a.46.46,0,1,0,0,.92.46.46,0,0,0,0-.92Z"/><path class="cls-19" d="M106,238.38a.46.46,0,1,0,.46.46A.47.47,0,0,0,106,238.38Z"/><path class="cls-19" d="M104.17,238.38a.46.46,0,0,0,0,.92.46.46,0,1,0,0-.92Z"/><path class="cls-19" d="M102.33,238.38a.46.46,0,1,0,.45.46A.46.46,0,0,0,102.33,238.38Z"/><path class="cls-19" d="M100.48,238.38a.46.46,0,1,0,0,.92.46.46,0,0,0,0-.92Z"/><path class="cls-19" d="M98.63,238.38a.46.46,0,1,0,.46.46A.47.47,0,0,0,98.63,238.38Z"/><path class="cls-19" d="M96.78,238.38a.46.46,0,1,0,.46.46A.46.46,0,0,0,96.78,238.38Z"/><path class="cls-19" d="M94.94,238.38a.46.46,0,1,0,.45.46A.46.46,0,0,0,94.94,238.38Z"/><path class="cls-19" d="M93.09,238.38a.46.46,0,0,0,0,.92.46.46,0,0,0,0-.92Z"/><path class="cls-19" d="M91.24,238.38a.46.46,0,0,0,0,.92.46.46,0,1,0,0-.92Z"/><path class="cls-19" d="M89.39,238.38a.46.46,0,1,0,.46.46A.46.46,0,0,0,89.39,238.38Z"/><path class="cls-19" d="M87.55,238.38a.46.46,0,1,0,.45.46A.46.46,0,0,0,87.55,238.38Z"/><path class="cls-19" d="M85.7,238.38a.46.46,0,1,0,.46.46A.47.47,0,0,0,85.7,238.38Z"/><path class="cls-19" d="M83.85,238.38a.46.46,0,0,0,0,.92.46.46,0,0,0,0-.92Z"/><path class="cls-19" d="M82,238.38a.46.46,0,1,0,.45.46A.46.46,0,0,0,82,238.38Z"/><path class="cls-19" d="M80.16,238.38a.46.46,0,0,0,0,.92.46.46,0,0,0,0-.92Z"/><path class="cls-19" d="M78.31,238.38a.46.46,0,1,0,.46.46A.47.47,0,0,0,78.31,238.38Z"/><path class="cls-19" d="M70,236.62a.46.46,0,1,0,0,.91.46.46,0,0,0,0-.91Z"/><path class="cls-19" d="M71.84,236.62a.46.46,0,1,0,.46.45A.45.45,0,0,0,71.84,236.62Z"/><path class="cls-19" d="M73.69,236.62a.46.46,0,0,0,0,.91.46.46,0,1,0,0-.91Z"/><path class="cls-19" d="M75.54,236.62a.46.46,0,1,0,.46.45A.46.46,0,0,0,75.54,236.62Z"/><path class="cls-19" d="M77.39,236.62a.46.46,0,1,0,.45.45A.45.45,0,0,0,77.39,236.62Z"/><path class="cls-19" d="M79.23,236.62a.46.46,0,1,0,.46.45A.45.45,0,0,0,79.23,236.62Z"/><path class="cls-19" d="M81.08,236.62a.46.46,0,0,0,0,.91.46.46,0,1,0,0-.91Z"/><path class="cls-19" d="M82.93,236.62a.46.46,0,1,0,0,.91.46.46,0,0,0,0-.91Z"/><path class="cls-19" d="M84.78,236.62a.46.46,0,1,0,.45.45A.45.45,0,0,0,84.78,236.62Z"/><path class="cls-19" d="M86.62,236.62a.46.46,0,1,0,.46.45A.45.45,0,0,0,86.62,236.62Z"/><path class="cls-19" d="M88.47,236.62a.46.46,0,1,0,.46.45A.46.46,0,0,0,88.47,236.62Z"/><path class="cls-19" d="M90.32,236.62a.46.46,0,1,0,0,.91.46.46,0,0,0,0-.91Z"/><path class="cls-19" d="M92.17,236.62a.46.46,0,1,0,.45.45A.45.45,0,0,0,92.17,236.62Z"/><path class="cls-19" d="M94,236.62a.46.46,0,0,0,0,.91.46.46,0,1,0,0-.91Z"/><path class="cls-19" d="M95.86,236.62a.46.46,0,1,0,.46.45A.46.46,0,0,0,95.86,236.62Z"/><path class="cls-19" d="M97.71,236.62a.46.46,0,1,0,0,.91.46.46,0,0,0,0-.91Z"/><path class="cls-19" d="M99.55,236.62a.46.46,0,1,0,.46.45A.45.45,0,0,0,99.55,236.62Z"/><path class="cls-19" d="M101.4,236.62a.46.46,0,0,0,0,.91.46.46,0,1,0,0-.91Z"/><path class="cls-19" d="M103.25,236.62a.46.46,0,1,0,0,.91.46.46,0,0,0,0-.91Z"/><path class="cls-19" d="M105.1,236.62a.46.46,0,1,0,.45.45A.45.45,0,0,0,105.1,236.62Z"/><path class="cls-19" d="M102.33,234.85a.46.46,0,0,0-.46.46.46.46,0,0,0,.91,0A.46.46,0,0,0,102.33,234.85Z"/><path class="cls-19" d="M100.48,234.85a.47.47,0,0,0-.46.46.46.46,0,0,0,.46.45.45.45,0,0,0,.45-.45A.46.46,0,0,0,100.48,234.85Z"/><path class="cls-19" d="M98.63,234.85a.47.47,0,0,0-.46.46.46.46,0,0,0,.92,0A.47.47,0,0,0,98.63,234.85Z"/><path class="cls-19" d="M96.78,234.85a.46.46,0,0,0-.45.46.46.46,0,0,0,.91,0A.46.46,0,0,0,96.78,234.85Z"/><path class="cls-19" d="M94.94,234.85a.46.46,0,0,0-.46.46.46.46,0,0,0,.91,0A.46.46,0,0,0,94.94,234.85Z"/><path class="cls-19" d="M93.09,234.85a.47.47,0,0,0-.46.46.46.46,0,0,0,.46.45.45.45,0,0,0,.45-.45A.46.46,0,0,0,93.09,234.85Z"/><path class="cls-19" d="M91.24,234.85a.46.46,0,0,0-.45.46.45.45,0,0,0,.45.45.46.46,0,0,0,.46-.45A.47.47,0,0,0,91.24,234.85Z"/><path class="cls-19" d="M89.39,234.85a.46.46,0,0,0-.45.46.46.46,0,0,0,.91,0A.46.46,0,0,0,89.39,234.85Z"/><path class="cls-19" d="M87.55,234.85a.46.46,0,0,0-.46.46.46.46,0,0,0,.91,0A.46.46,0,0,0,87.55,234.85Z"/><path class="cls-19" d="M85.7,234.85a.47.47,0,0,0-.46.46.46.46,0,0,0,.92,0A.47.47,0,0,0,85.7,234.85Z"/><path class="cls-19" d="M83.85,234.85a.46.46,0,0,0-.45.46.45.45,0,0,0,.45.45.46.46,0,0,0,.46-.45A.47.47,0,0,0,83.85,234.85Z"/><path class="cls-19" d="M82,234.85a.46.46,0,0,0-.46.46.46.46,0,0,0,.91,0A.46.46,0,0,0,82,234.85Z"/><path class="cls-19" d="M80.16,234.85a.47.47,0,0,0-.46.46.46.46,0,0,0,.46.45.45.45,0,0,0,.45-.45A.46.46,0,0,0,80.16,234.85Z"/><path class="cls-19" d="M78.31,234.85a.47.47,0,0,0-.46.46.46.46,0,0,0,.92,0A.47.47,0,0,0,78.31,234.85Z"/><path class="cls-19" d="M76.46,234.85a.46.46,0,0,0-.45.46.46.46,0,0,0,.91,0A.46.46,0,0,0,76.46,234.85Z"/><path class="cls-19" d="M74.62,234.85a.46.46,0,0,0-.46.46.46.46,0,0,0,.91,0A.46.46,0,0,0,74.62,234.85Z"/><path class="cls-19" d="M72.77,234.85a.47.47,0,0,0-.46.46.46.46,0,0,0,.46.45.45.45,0,0,0,.45-.45A.46.46,0,0,0,72.77,234.85Z"/><path class="cls-19" d="M70.92,234.85a.46.46,0,0,0-.45.46.45.45,0,0,0,.45.45.46.46,0,0,0,.46-.45A.47.47,0,0,0,70.92,234.85Z"/><path class="cls-19" d="M69.07,234.85a.46.46,0,0,0-.45.46.46.46,0,0,0,.91,0A.46.46,0,0,0,69.07,234.85Z"/><path class="cls-19" d="M67.23,234.85a.46.46,0,0,0-.46.46.46.46,0,0,0,.91,0A.46.46,0,0,0,67.23,234.85Z"/><path class="cls-19" d="M75.54,233.09a.46.46,0,0,0-.46.45.46.46,0,1,0,.92,0A.46.46,0,0,0,75.54,233.09Z"/><path class="cls-19" d="M77.39,233.09a.45.45,0,0,0-.46.45.46.46,0,1,0,.91,0A.45.45,0,0,0,77.39,233.09Z"/><path class="cls-19" d="M79.23,233.09a.45.45,0,0,0-.45.45.46.46,0,1,0,.91,0A.45.45,0,0,0,79.23,233.09Z"/><path class="cls-19" d="M81.08,233.09a.45.45,0,0,0-.45.45.46.46,0,0,0,.45.46.47.47,0,0,0,.46-.46A.46.46,0,0,0,81.08,233.09Z"/><path class="cls-19" d="M82.93,233.09a.46.46,0,0,0-.46.45.47.47,0,0,0,.46.46.46.46,0,0,0,.45-.46A.45.45,0,0,0,82.93,233.09Z"/><path class="cls-19" d="M84.78,233.09a.45.45,0,0,0-.46.45.46.46,0,1,0,.91,0A.45.45,0,0,0,84.78,233.09Z"/><path class="cls-19" d="M86.62,233.09a.45.45,0,0,0-.45.45.46.46,0,1,0,.91,0A.45.45,0,0,0,86.62,233.09Z"/><path class="cls-19" d="M88.47,233.09a.46.46,0,0,0-.46.45.46.46,0,1,0,.92,0A.46.46,0,0,0,88.47,233.09Z"/><path class="cls-19" d="M90.32,233.09a.46.46,0,0,0-.46.45.47.47,0,0,0,.46.46.46.46,0,0,0,.45-.46A.45.45,0,0,0,90.32,233.09Z"/><path class="cls-19" d="M92.17,233.09a.45.45,0,0,0-.46.45.46.46,0,1,0,.91,0A.45.45,0,0,0,92.17,233.09Z"/><path class="cls-19" d="M94,233.09a.45.45,0,0,0-.45.45A.46.46,0,0,0,94,234a.47.47,0,0,0,.46-.46A.46.46,0,0,0,94,233.09Z"/><path class="cls-19" d="M95.86,233.09a.46.46,0,0,0-.46.45.46.46,0,1,0,.92,0A.46.46,0,0,0,95.86,233.09Z"/><path class="cls-19" d="M97.71,233.09a.46.46,0,0,0-.46.45.47.47,0,0,0,.46.46.46.46,0,0,0,.45-.46A.45.45,0,0,0,97.71,233.09Z"/><path class="cls-19" d="M99.55,233.09a.45.45,0,0,0-.45.45.46.46,0,1,0,.91,0A.45.45,0,0,0,99.55,233.09Z"/><path class="cls-19" d="M94.94,231.32a.46.46,0,1,0,.45.46A.45.45,0,0,0,94.94,231.32Z"/><path class="cls-19" d="M93.09,231.32a.46.46,0,1,0,0,.91.46.46,0,0,0,0-.91Z"/><path class="cls-19" d="M91.24,231.32a.46.46,0,0,0,0,.91.46.46,0,1,0,0-.91Z"/><path class="cls-19" d="M86.62,247.21a.46.46,0,1,0,.46.46A.46.46,0,0,0,86.62,247.21Z"/><path class="cls-19" d="M88.47,247.21a.46.46,0,1,0,.46.46A.47.47,0,0,0,88.47,247.21Z"/><path class="cls-19" d="M90.32,247.21a.46.46,0,0,0,0,.92.46.46,0,0,0,0-.92Z"/><path class="cls-19" d="M92.17,247.21a.46.46,0,1,0,.45.46A.46.46,0,0,0,92.17,247.21Z"/><path class="cls-19" d="M94,247.21a.46.46,0,0,0,0,.92.46.46,0,0,0,0-.92Z"/><path class="cls-19" d="M95.86,247.21a.46.46,0,1,0,.46.46A.47.47,0,0,0,95.86,247.21Z"/><path class="cls-19" d="M91.24,245.45a.46.46,0,0,0,0,.91.46.46,0,1,0,0-.91Z"/><path class="cls-19" d="M89.39,245.45a.46.46,0,1,0,.46.45A.45.45,0,0,0,89.39,245.45Z"/><path class="cls-19" d="M87.55,245.45a.46.46,0,1,0,.45.45A.45.45,0,0,0,87.55,245.45Z"/><path class="cls-19" d="M85.7,245.45a.46.46,0,1,0,.46.45A.46.46,0,0,0,85.7,245.45Z"/><path class="cls-19" d="M83.85,245.45a.46.46,0,0,0,0,.91.46.46,0,1,0,0-.91Z"/><path class="cls-19" d="M82,245.45a.46.46,0,1,0,.45.45A.45.45,0,0,0,82,245.45Z"/><path class="cls-19" d="M80.16,245.45a.46.46,0,1,0,0,.91.46.46,0,0,0,0-.91Z"/><path class="cls-19" d="M78.31,245.45a.46.46,0,1,0,.46.45A.46.46,0,0,0,78.31,245.45Z"/><path class="cls-19" d="M76.46,245.45a.46.46,0,1,0,.46.45A.45.45,0,0,0,76.46,245.45Z"/><path class="cls-19" d="M74.62,245.45a.46.46,0,1,0,.45.45A.45.45,0,0,0,74.62,245.45Z"/><path class="cls-19" d="M72.77,245.45a.46.46,0,1,0,0,.91.46.46,0,0,0,0-.91Z"/><path class="cls-19" d="M70.92,245.45a.46.46,0,0,0,0,.91.46.46,0,1,0,0-.91Z"/><path class="cls-19" d="M62.61,243.68a.47.47,0,0,0-.46.46.46.46,0,0,0,.46.45.45.45,0,0,0,.45-.45A.46.46,0,0,0,62.61,243.68Z"/><circle class="cls-19" cx="64.46" cy="244.14" r="0.46"/><circle class="cls-19" cx="66.3" cy="244.14" r="0.46"/><circle class="cls-19" cx="68.15" cy="244.14" r="0.46"/><path class="cls-19" d="M70,243.68a.47.47,0,0,0-.46.46.46.46,0,0,0,.46.45.45.45,0,0,0,.45-.45A.46.46,0,0,0,70,243.68Z"/><path class="cls-19" d="M71.84,243.68a.46.46,0,0,0-.45.46.46.46,0,0,0,.91,0A.46.46,0,0,0,71.84,243.68Z"/><path class="cls-19" d="M73.69,243.68a.46.46,0,0,0-.45.46.45.45,0,0,0,.45.45.46.46,0,0,0,.46-.45A.47.47,0,0,0,73.69,243.68Z"/><path class="cls-19" d="M75.54,243.68a.47.47,0,0,0-.46.46.46.46,0,0,0,.92,0A.47.47,0,0,0,75.54,243.68Z"/><path class="cls-19" d="M77.39,243.68a.46.46,0,0,0-.46.46.46.46,0,0,0,.91,0A.46.46,0,0,0,77.39,243.68Z"/><path class="cls-19" d="M79.23,243.68a.46.46,0,0,0-.45.46.46.46,0,0,0,.91,0A.46.46,0,0,0,79.23,243.68Z"/><path class="cls-19" d="M81.08,243.68a.46.46,0,0,0-.45.46.45.45,0,0,0,.45.45.46.46,0,0,0,.46-.45A.47.47,0,0,0,81.08,243.68Z"/><path class="cls-19" d="M82.93,243.68a.47.47,0,0,0-.46.46.46.46,0,0,0,.46.45.45.45,0,0,0,.45-.45A.46.46,0,0,0,82.93,243.68Z"/><path class="cls-19" d="M84.78,243.68a.46.46,0,0,0-.46.46.46.46,0,0,0,.91,0A.46.46,0,0,0,84.78,243.68Z"/><path class="cls-19" d="M86.62,243.68a.46.46,0,0,0-.45.46.46.46,0,0,0,.91,0A.46.46,0,0,0,86.62,243.68Z"/><path class="cls-19" d="M88.47,243.68a.47.47,0,0,0-.46.46.46.46,0,0,0,.92,0A.47.47,0,0,0,88.47,243.68Z"/><path class="cls-19" d="M83.85,241.92a.45.45,0,0,0-.45.45.46.46,0,0,0,.45.46.47.47,0,0,0,.46-.46A.46.46,0,0,0,83.85,241.92Z"/><path class="cls-19" d="M82,241.92a.45.45,0,0,0-.46.45.46.46,0,1,0,.91,0A.45.45,0,0,0,82,241.92Z"/><path class="cls-19" d="M80.16,241.92a.46.46,0,0,0-.46.45.47.47,0,0,0,.46.46.46.46,0,0,0,.45-.46A.45.45,0,0,0,80.16,241.92Z"/><path class="cls-19" d="M78.31,241.92a.46.46,0,0,0-.46.45.46.46,0,1,0,.92,0A.46.46,0,0,0,78.31,241.92Z"/><path class="cls-19" d="M76.46,241.92a.45.45,0,0,0-.45.45.46.46,0,1,0,.91,0A.45.45,0,0,0,76.46,241.92Z"/><path class="cls-19" d="M74.62,241.92a.45.45,0,0,0-.46.45.46.46,0,1,0,.91,0A.45.45,0,0,0,74.62,241.92Z"/><path class="cls-19" d="M72.77,241.92a.46.46,0,0,0-.46.45.47.47,0,0,0,.46.46.46.46,0,0,0,.45-.46A.45.45,0,0,0,72.77,241.92Z"/><path class="cls-19" d="M70.92,241.92a.45.45,0,0,0-.45.45.46.46,0,0,0,.45.46.47.47,0,0,0,.46-.46A.46.46,0,0,0,70.92,241.92Z"/><path class="cls-19" d="M69.07,241.92a.45.45,0,0,0-.45.45.46.46,0,1,0,.91,0A.45.45,0,0,0,69.07,241.92Z"/><circle class="cls-19" cx="67.23" cy="242.37" r="0.46"/><circle class="cls-19" cx="65.38" cy="242.37" r="0.46"/><circle class="cls-19" cx="63.53" cy="242.37" r="0.46"/><path class="cls-19" d="M61.68,241.92a.45.45,0,0,0-.45.45.46.46,0,1,0,.91,0A.45.45,0,0,0,61.68,241.92Z"/><path class="cls-19" d="M60.76,241.06a.46.46,0,1,0,0-.91.46.46,0,0,0,0,.91Z"/><path class="cls-19" d="M62.61,240.15a.46.46,0,1,0,0,.91.46.46,0,0,0,0-.91Z"/><circle class="cls-19" cx="64.46" cy="240.61" r="0.46"/><circle class="cls-19" cx="66.3" cy="240.61" r="0.46"/><circle class="cls-19" cx="68.15" cy="240.61" r="0.46"/><path class="cls-19" d="M70,240.15a.46.46,0,1,0,0,.91.46.46,0,0,0,0-.91Z"/><path class="cls-19" d="M71.84,240.15a.46.46,0,1,0,.46.46A.45.45,0,0,0,71.84,240.15Z"/><path class="cls-19" d="M73.69,240.15a.46.46,0,0,0,0,.91.46.46,0,1,0,0-.91Z"/><path class="cls-19" d="M75.54,240.15a.46.46,0,1,0,.46.46A.46.46,0,0,0,75.54,240.15Z"/><path class="cls-19" d="M77.39,240.15a.46.46,0,1,0,.45.46A.45.45,0,0,0,77.39,240.15Z"/><path class="cls-19" d="M79.23,240.15a.46.46,0,1,0,.46.46A.45.45,0,0,0,79.23,240.15Z"/><path class="cls-19" d="M81.08,240.15a.46.46,0,0,0,0,.91.46.46,0,1,0,0-.91Z"/><path class="cls-19" d="M76.46,238.38a.46.46,0,1,0,.46.46A.46.46,0,0,0,76.46,238.38Z"/><path class="cls-19" d="M74.62,238.38a.46.46,0,1,0,.45.46A.46.46,0,0,0,74.62,238.38Z"/><path class="cls-19" d="M72.77,238.38a.46.46,0,0,0,0,.92.46.46,0,0,0,0-.92Z"/><path class="cls-19" d="M70.92,238.38a.46.46,0,0,0,0,.92.46.46,0,1,0,0-.92Z"/><path class="cls-19" d="M69.07,238.38a.46.46,0,1,0,.46.46A.46.46,0,0,0,69.07,238.38Z"/><path class="cls-19" d="M67.23,238.38a.46.46,0,1,0,.45.46A.46.46,0,0,0,67.23,238.38Z"/><path class="cls-19" d="M65.38,238.38a.46.46,0,1,0,.46.46A.47.47,0,0,0,65.38,238.38Z"/><path class="cls-19" d="M63.53,238.38a.46.46,0,0,0,0,.92.46.46,0,0,0,0-.92Z"/><path class="cls-19" d="M61.68,238.38a.46.46,0,1,0,.46.46A.46.46,0,0,0,61.68,238.38Z"/><path class="cls-19" d="M59.84,239.3a.46.46,0,0,0,0-.92.46.46,0,1,0,0,.92Z"/><path class="cls-19" d="M62.61,236.62a.46.46,0,1,0,0,.91.46.46,0,0,0,0-.91Z"/><path class="cls-19" d="M64.46,236.62a.46.46,0,1,0,.45.45A.45.45,0,0,0,64.46,236.62Z"/><path class="cls-19" d="M66.3,236.62a.46.46,0,1,0,.46.45A.45.45,0,0,0,66.3,236.62Z"/><path class="cls-19" d="M68.15,236.62a.46.46,0,1,0,.46.45A.46.46,0,0,0,68.15,236.62Z"/><path class="cls-19" d="M142,241.06a.46.46,0,1,0-.46-.45A.46.46,0,0,0,142,241.06Z"/><path class="cls-19" d="M143.88,241.06a.46.46,0,0,0,0-.91.46.46,0,1,0,0,.91Z"/><path class="cls-19" d="M145.73,241.06a.46.46,0,1,0-.46-.45A.45.45,0,0,0,145.73,241.06Z"/><path class="cls-19" d="M143,239.3a.46.46,0,1,0-.45-.46A.46.46,0,0,0,143,239.3Z"/><path class="cls-19" d="M141.11,239.3a.46.46,0,1,0-.46-.46A.46.46,0,0,0,141.11,239.3Z"/><path class="cls-19" d="M139.26,239.3a.46.46,0,1,0-.46-.46A.47.47,0,0,0,139.26,239.3Z"/><path class="cls-19" d="M137.41,239.3a.46.46,0,0,0,0-.92.46.46,0,0,0,0,.92Z"/><path class="cls-19" d="M135.57,239.3a.46.46,0,1,0-.46-.46A.46.46,0,0,0,135.57,239.3Z"/><path class="cls-19" d="M133.72,239.3a.46.46,0,0,0,0-.92.46.46,0,0,0,0,.92Z"/><path class="cls-19" d="M134.64,237.53a.46.46,0,1,0,0-.91.46.46,0,0,0,0,.91Z"/><path class="cls-19" d="M136.49,237.53a.46.46,0,0,0,0-.91.46.46,0,1,0,0,.91Z"/><path class="cls-19" d="M138.34,237.53a.46.46,0,1,0-.46-.46A.45.45,0,0,0,138.34,237.53Z"/><path class="cls-19" d="M144.81,245.45a.46.46,0,1,0,0,.91.46.46,0,0,0,0-.91Z"/><path class="cls-19" d="M143,245.45a.46.46,0,1,0,.46.45A.46.46,0,0,0,143,245.45Z"/><path class="cls-19" d="M141.11,245.45a.46.46,0,0,0,0,.91.46.46,0,1,0,0-.91Z"/><path class="cls-19" d="M139.27,245.45a.46.46,0,1,0,.45.45A.45.45,0,0,0,139.27,245.45Z"/><path class="cls-19" d="M137.42,245.45a.46.46,0,1,0,0,.91.46.46,0,0,0,0-.91Z"/><path class="cls-19" d="M135.57,245.45a.46.46,0,1,0,.46.45A.46.46,0,0,0,135.57,245.45Z"/><path class="cls-19" d="M133.72,245.45a.46.46,0,1,0,.46.45A.45.45,0,0,0,133.72,245.45Z"/><path class="cls-19" d="M131.88,246.36a.46.46,0,1,0-.46-.46A.45.45,0,0,0,131.88,246.36Z"/><path class="cls-19" d="M131,244.59a.46.46,0,0,0,.46-.45.47.47,0,0,0-.46-.46.46.46,0,0,0-.45.46A.45.45,0,0,0,131,244.59Z"/><path class="cls-19" d="M132.8,244.59a.46.46,0,0,0,.46-.45.46.46,0,1,0-.92,0A.46.46,0,0,0,132.8,244.59Z"/><path class="cls-19" d="M134.65,243.68a.47.47,0,0,0-.46.46.46.46,0,0,0,.46.45.45.45,0,0,0,.45-.45A.46.46,0,0,0,134.65,243.68Z"/><path class="cls-19" d="M136.49,243.68a.46.46,0,0,0-.45.46.46.46,0,0,0,.91,0A.46.46,0,0,0,136.49,243.68Z"/><path class="cls-19" d="M138.34,243.68a.46.46,0,0,0-.45.46.45.45,0,0,0,.45.45.46.46,0,0,0,.46-.45A.47.47,0,0,0,138.34,243.68Z"/><path class="cls-19" d="M140.19,243.68a.47.47,0,0,0-.46.46.46.46,0,0,0,.92,0A.47.47,0,0,0,140.19,243.68Z"/><path class="cls-19" d="M142,243.68a.46.46,0,0,0-.46.46.46.46,0,0,0,.91,0A.46.46,0,0,0,142,243.68Z"/><path class="cls-19" d="M143.88,243.68a.46.46,0,0,0-.45.46.46.46,0,0,0,.91,0A.46.46,0,0,0,143.88,243.68Z"/><path class="cls-19" d="M145.73,243.68a.47.47,0,0,0-.46.46.46.46,0,0,0,.92,0A.47.47,0,0,0,145.73,243.68Z"/><path class="cls-19" d="M146.65,241.92a.45.45,0,0,0-.45.45.46.46,0,1,0,.91,0A.45.45,0,0,0,146.65,241.92Z"/><path class="cls-19" d="M144.81,241.92a.46.46,0,0,0-.46.45.47.47,0,0,0,.46.46.46.46,0,0,0,.45-.46A.45.45,0,0,0,144.81,241.92Z"/><path class="cls-19" d="M143,241.92a.46.46,0,0,0-.46.45.46.46,0,1,0,.92,0A.46.46,0,0,0,143,241.92Z"/><path class="cls-19" d="M141.11,241.92a.45.45,0,0,0-.45.45.46.46,0,0,0,.45.46.47.47,0,0,0,.46-.46A.46.46,0,0,0,141.11,241.92Z"/><path class="cls-19" d="M139.27,241.92a.45.45,0,0,0-.46.45.46.46,0,1,0,.91,0A.45.45,0,0,0,139.27,241.92Z"/><path class="cls-19" d="M137.42,241.92a.46.46,0,0,0-.46.45.47.47,0,0,0,.46.46.46.46,0,0,0,.45-.46A.45.45,0,0,0,137.42,241.92Z"/><path class="cls-19" d="M135.57,241.92a.46.46,0,0,0-.46.45.46.46,0,0,0,.92,0A.46.46,0,0,0,135.57,241.92Z"/><path class="cls-19" d="M133.72,241.92a.45.45,0,0,0-.45.45.46.46,0,1,0,.91,0A.45.45,0,0,0,133.72,241.92Z"/><path class="cls-19" d="M131.88,242.83a.46.46,0,0,0,.45-.46.46.46,0,0,0-.91,0A.46.46,0,0,0,131.88,242.83Z"/><path class="cls-19" d="M132.8,241.06a.46.46,0,1,0-.46-.45A.46.46,0,0,0,132.8,241.06Z"/><path class="cls-19" d="M134.65,240.15a.46.46,0,1,0,0,.91.46.46,0,0,0,0-.91Z"/><path class="cls-19" d="M136.49,240.15a.46.46,0,1,0,.46.46A.45.45,0,0,0,136.49,240.15Z"/><path class="cls-19" d="M138.34,240.15a.46.46,0,0,0,0,.91.46.46,0,1,0,0-.91Z"/><path class="cls-19" d="M140.19,240.15a.46.46,0,1,0,.46.46A.46.46,0,0,0,140.19,240.15Z"/><path class="cls-4" d="M201.6,116.05a.46.46,0,1,0,.46.46A.47.47,0,0,0,201.6,116.05Z"/><path class="cls-4" d="M203.45,116.05a.46.46,0,0,0,0,.92.46.46,0,0,0,0-.92Z"/><path class="cls-4" d="M204.37,114.29a.46.46,0,1,0,.46.45A.46.46,0,0,0,204.37,114.29Z"/><path class="cls-4" d="M202.52,114.29a.46.46,0,1,0,.46.45A.45.45,0,0,0,202.52,114.29Z"/><path class="cls-4" d="M200.68,114.29a.46.46,0,1,0,.45.45A.45.45,0,0,0,200.68,114.29Z"/><path class="cls-4" d="M198.83,114.29a.46.46,0,1,0,.46.45A.46.46,0,0,0,198.83,114.29Z"/><path class="cls-4" d="M197,114.29a.46.46,0,0,0,0,.91.46.46,0,1,0,0-.91Z"/><path class="cls-4" d="M194.21,112.52a.47.47,0,0,0-.46.46.46.46,0,0,0,.92,0A.47.47,0,0,0,194.21,112.52Z"/><path class="cls-4" d="M196.06,112.52a.47.47,0,0,0-.46.46.46.46,0,0,0,.46.45.45.45,0,0,0,.45-.45A.46.46,0,0,0,196.06,112.52Z"/><path class="cls-4" d="M197.91,112.52a.46.46,0,0,0-.46.46.46.46,0,0,0,.91,0A.46.46,0,0,0,197.91,112.52Z"/><path class="cls-4" d="M199.75,112.52a.46.46,0,0,0-.45.46.45.45,0,0,0,.45.45.46.46,0,0,0,.46-.45A.47.47,0,0,0,199.75,112.52Z"/><circle class="cls-4" cx="201.6" cy="112.98" r="0.46"/><circle class="cls-4" cx="203.45" cy="112.98" r="0.46"/><circle class="cls-4" cx="202.52" cy="111.21" r="0.46"/><path class="cls-4" d="M200.68,110.76a.45.45,0,0,0-.46.45.46.46,0,1,0,.91,0A.45.45,0,0,0,200.68,110.76Z"/><path class="cls-4" d="M198.83,110.76a.46.46,0,0,0-.46.45.46.46,0,1,0,.92,0A.46.46,0,0,0,198.83,110.76Z"/><path class="cls-4" d="M197,110.76a.45.45,0,0,0-.45.45.46.46,0,0,0,.45.46.47.47,0,0,0,.46-.46A.46.46,0,0,0,197,110.76Z"/><path class="cls-4" d="M195.13,110.76a.45.45,0,0,0-.45.45.46.46,0,1,0,.91,0A.45.45,0,0,0,195.13,110.76Z"/><path class="cls-4" d="M193.29,110.76a.46.46,0,0,0-.46.45.47.47,0,0,0,.46.46.46.46,0,0,0,.45-.46A.45.45,0,0,0,193.29,110.76Z"/><path class="cls-4" d="M191.44,110.76a.46.46,0,0,0-.46.45.46.46,0,0,0,.92,0A.46.46,0,0,0,191.44,110.76Z"/><path class="cls-4" d="M197.91,109a.46.46,0,1,0,.45.46A.45.45,0,0,0,197.91,109Z"/><path class="cls-4" d="M199.75,109a.46.46,0,0,0,0,.91.46.46,0,1,0,0-.91Z"/><circle class="cls-4" cx="201.6" cy="109.45" r="0.46"/><path class="cls-4" d="M191.44,121.35a.47.47,0,0,0-.46.46.46.46,0,0,0,.92,0A.47.47,0,0,0,191.44,121.35Z"/><path class="cls-4" d="M189.59,121.35a.46.46,0,0,0-.45.46.45.45,0,0,0,.45.45.46.46,0,0,0,.46-.45A.47.47,0,0,0,189.59,121.35Z"/><path class="cls-4" d="M187.75,121.35a.46.46,0,0,0-.46.46.46.46,0,0,0,.91,0A.46.46,0,0,0,187.75,121.35Z"/><path class="cls-4" d="M185.9,122.26a.45.45,0,0,0,.45-.45.46.46,0,0,0-.45-.46.47.47,0,0,0-.46.46A.46.46,0,0,0,185.9,122.26Z"/><path class="cls-4" d="M184.05,122.26a.46.46,0,0,0,.46-.45.46.46,0,1,0-.92,0A.46.46,0,0,0,184.05,122.26Z"/><path class="cls-4" d="M182.2,122.26a.45.45,0,0,0,.46-.45.46.46,0,1,0-.91,0A.45.45,0,0,0,182.2,122.26Z"/><path class="cls-4" d="M180.36,122.26a.45.45,0,0,0,.45-.45.46.46,0,1,0-.91,0A.45.45,0,0,0,180.36,122.26Z"/><path class="cls-4" d="M172,120.5a.46.46,0,0,0,.46-.46.46.46,0,0,0-.91,0A.46.46,0,0,0,172,120.5Z"/><path class="cls-4" d="M173.89,120.5a.47.47,0,0,0,.46-.46.46.46,0,0,0-.92,0A.47.47,0,0,0,173.89,120.5Z"/><path class="cls-4" d="M175.74,120.5a.46.46,0,0,0,.45-.46.45.45,0,0,0-.45-.45.46.46,0,0,0-.46.45A.47.47,0,0,0,175.74,120.5Z"/><path class="cls-4" d="M177.59,120.5A.46.46,0,0,0,178,120a.46.46,0,0,0-.91,0A.46.46,0,0,0,177.59,120.5Z"/><path class="cls-4" d="M179.43,120.5a.47.47,0,0,0,.46-.46.46.46,0,0,0-.46-.45.45.45,0,0,0-.45.45A.46.46,0,0,0,179.43,120.5Z"/><path class="cls-4" d="M181.28,120.5a.47.47,0,0,0,.46-.46.46.46,0,0,0-.92,0A.47.47,0,0,0,181.28,120.5Z"/><path class="cls-4" d="M183.13,120.5a.46.46,0,0,0,.45-.46.45.45,0,0,0-.45-.45.46.46,0,0,0-.46.45A.47.47,0,0,0,183.13,120.5Z"/><path class="cls-4" d="M185,119.59a.45.45,0,0,0-.45.45.46.46,0,1,0,.91,0A.45.45,0,0,0,185,119.59Z"/><path class="cls-4" d="M186.82,119.59a.45.45,0,0,0-.45.45.46.46,0,0,0,.45.46.47.47,0,0,0,.46-.46A.46.46,0,0,0,186.82,119.59Z"/><path class="cls-4" d="M188.67,119.59a.46.46,0,0,0-.46.45.47.47,0,0,0,.46.46.46.46,0,0,0,.45-.46A.45.45,0,0,0,188.67,119.59Z"/><path class="cls-4" d="M190.52,119.59a.45.45,0,0,0-.46.45.46.46,0,1,0,.91,0A.45.45,0,0,0,190.52,119.59Z"/><path class="cls-4" d="M192.36,119.59a.45.45,0,0,0-.45.45.46.46,0,1,0,.91,0A.45.45,0,0,0,192.36,119.59Z"/><path class="cls-4" d="M194.21,119.59a.46.46,0,0,0-.46.45.46.46,0,0,0,.92,0A.46.46,0,0,0,194.21,119.59Z"/><path class="cls-4" d="M196.06,119.59a.46.46,0,0,0-.46.45.47.47,0,0,0,.46.46.46.46,0,0,0,.45-.46A.45.45,0,0,0,196.06,119.59Z"/><path class="cls-4" d="M197.91,119.59a.45.45,0,0,0-.46.45.46.46,0,1,0,.91,0A.45.45,0,0,0,197.91,119.59Z"/><path class="cls-4" d="M202.52,117.82a.46.46,0,1,0,.46.46A.45.45,0,0,0,202.52,117.82Z"/><path class="cls-4" d="M200.68,117.82a.46.46,0,1,0,.45.46A.45.45,0,0,0,200.68,117.82Z"/><path class="cls-4" d="M198.83,117.82a.46.46,0,1,0,.46.46A.46.46,0,0,0,198.83,117.82Z"/><path class="cls-4" d="M197,117.82a.46.46,0,0,0,0,.91.46.46,0,1,0,0-.91Z"/><path class="cls-4" d="M195.13,117.82a.46.46,0,1,0,.46.46A.45.45,0,0,0,195.13,117.82Z"/><path class="cls-4" d="M193.29,117.82a.46.46,0,1,0,0,.91.46.46,0,0,0,0-.91Z"/><path class="cls-4" d="M191.44,117.82a.46.46,0,1,0,.46.46A.46.46,0,0,0,191.44,117.82Z"/><path class="cls-4" d="M189.59,117.82a.46.46,0,0,0,0,.91.46.46,0,1,0,0-.91Z"/><path class="cls-4" d="M187.75,117.82a.46.46,0,1,0,.45.46A.45.45,0,0,0,187.75,117.82Z"/><path class="cls-4" d="M185.9,117.82a.46.46,0,1,0,0,.91.46.46,0,0,0,0-.91Z"/><path class="cls-4" d="M184.05,117.82a.46.46,0,1,0,.46.46A.46.46,0,0,0,184.05,117.82Z"/><path class="cls-4" d="M182.2,117.82a.46.46,0,1,0,.46.46A.45.45,0,0,0,182.2,117.82Z"/><path class="cls-4" d="M180.36,117.82a.46.46,0,1,0,.45.46A.45.45,0,0,0,180.36,117.82Z"/><path class="cls-4" d="M178.51,118.73a.46.46,0,0,0,0-.91.46.46,0,1,0,0,.91Z"/><path class="cls-4" d="M176.66,118.73a.46.46,0,1,0,0-.91.46.46,0,0,0,0,.91Z"/><path class="cls-4" d="M174.81,118.73a.46.46,0,1,0-.45-.45A.45.45,0,0,0,174.81,118.73Z"/><path class="cls-4" d="M173,118.73a.46.46,0,1,0-.46-.45A.45.45,0,0,0,173,118.73Z"/><path class="cls-4" d="M171.12,118.73a.46.46,0,1,0-.46-.45A.46.46,0,0,0,171.12,118.73Z"/><path class="cls-4" d="M170.2,117a.46.46,0,1,0-.46-.46A.46.46,0,0,0,170.2,117Z"/><path class="cls-4" d="M172,116.05a.46.46,0,1,0,.46.46A.46.46,0,0,0,172,116.05Z"/><path class="cls-4" d="M173.89,116.05a.46.46,0,1,0,.46.46A.47.47,0,0,0,173.89,116.05Z"/><path class="cls-4" d="M175.74,116.05a.46.46,0,1,0,0,.92.46.46,0,0,0,0-.92Z"/><path class="cls-4" d="M177.59,116.05a.46.46,0,1,0,.45.46A.46.46,0,0,0,177.59,116.05Z"/><path class="cls-4" d="M179.43,116.05a.46.46,0,0,0,0,.92.46.46,0,0,0,0-.92Z"/><path class="cls-4" d="M181.28,116.05a.46.46,0,1,0,.46.46A.47.47,0,0,0,181.28,116.05Z"/><path class="cls-4" d="M183.13,116.05a.46.46,0,1,0,0,.92.46.46,0,0,0,0-.92Z"/><path class="cls-4" d="M185,116.05a.46.46,0,1,0,.46.46A.46.46,0,0,0,185,116.05Z"/><path class="cls-4" d="M186.82,116.05a.46.46,0,0,0,0,.92.46.46,0,1,0,0-.92Z"/><path class="cls-4" d="M188.67,116.05a.46.46,0,0,0,0,.92.46.46,0,0,0,0-.92Z"/><path class="cls-4" d="M190.52,116.05a.46.46,0,1,0,.45.46A.46.46,0,0,0,190.52,116.05Z"/><path class="cls-4" d="M192.36,116.05a.46.46,0,1,0,.46.46A.46.46,0,0,0,192.36,116.05Z"/><path class="cls-4" d="M194.21,116.05a.46.46,0,1,0,.46.46A.47.47,0,0,0,194.21,116.05Z"/><path class="cls-4" d="M196.06,116.05a.46.46,0,1,0,0,.92.46.46,0,0,0,0-.92Z"/><path class="cls-4" d="M197.91,116.05a.46.46,0,1,0,.45.46A.46.46,0,0,0,197.91,116.05Z"/><path class="cls-4" d="M199.75,116.05a.46.46,0,0,0,0,.92.46.46,0,1,0,0-.92Z"/><path class="cls-4" d="M195.13,114.29a.46.46,0,1,0,.46.45A.45.45,0,0,0,195.13,114.29Z"/><path class="cls-4" d="M193.29,114.29a.46.46,0,1,0,0,.91.46.46,0,0,0,0-.91Z"/><path class="cls-4" d="M191.44,114.29a.46.46,0,1,0,.46.45A.46.46,0,0,0,191.44,114.29Z"/><path class="cls-4" d="M189.59,114.29a.46.46,0,0,0,0,.91.46.46,0,1,0,0-.91Z"/><path class="cls-4" d="M187.75,114.29a.46.46,0,1,0,.45.45A.45.45,0,0,0,187.75,114.29Z"/><path class="cls-4" d="M185.9,114.29a.46.46,0,1,0,0,.91.46.46,0,0,0,0-.91Z"/><path class="cls-4" d="M184.05,114.29a.46.46,0,1,0,.46.45A.46.46,0,0,0,184.05,114.29Z"/><path class="cls-4" d="M182.2,114.29a.46.46,0,1,0,.46.45A.45.45,0,0,0,182.2,114.29Z"/><path class="cls-4" d="M180.36,114.29a.46.46,0,1,0,.45.45A.45.45,0,0,0,180.36,114.29Z"/><path class="cls-4" d="M178.51,114.29a.46.46,0,1,0,0,.91.46.46,0,0,0,0-.91Z"/><path class="cls-4" d="M176.66,114.29a.46.46,0,0,0,0,.91.46.46,0,1,0,0-.91Z"/><path class="cls-4" d="M174.81,114.29a.46.46,0,1,0,.46.45A.45.45,0,0,0,174.81,114.29Z"/><path class="cls-4" d="M173,114.29a.46.46,0,1,0,.45.45A.45.45,0,0,0,173,114.29Z"/><path class="cls-4" d="M171.12,114.29a.46.46,0,1,0,.46.45A.46.46,0,0,0,171.12,114.29Z"/><circle class="cls-4" cx="170.2" cy="112.98" r="0.46"/><circle class="cls-4" cx="172.04" cy="112.98" r="0.46"/><path class="cls-4" d="M173.89,112.52a.47.47,0,0,0-.46.46.46.46,0,0,0,.92,0A.47.47,0,0,0,173.89,112.52Z"/><path class="cls-4" d="M175.74,112.52a.47.47,0,0,0-.46.46.46.46,0,0,0,.46.45.45.45,0,0,0,.45-.45A.46.46,0,0,0,175.74,112.52Z"/><path class="cls-4" d="M177.59,112.52a.46.46,0,0,0-.46.46.46.46,0,0,0,.91,0A.46.46,0,0,0,177.59,112.52Z"/><path class="cls-4" d="M179.43,112.52a.46.46,0,0,0-.45.46.45.45,0,0,0,.45.45.46.46,0,0,0,.46-.45A.47.47,0,0,0,179.43,112.52Z"/><path class="cls-4" d="M181.28,112.52a.47.47,0,0,0-.46.46.46.46,0,0,0,.92,0A.47.47,0,0,0,181.28,112.52Z"/><path class="cls-4" d="M183.13,112.52a.47.47,0,0,0-.46.46.46.46,0,0,0,.46.45.45.45,0,0,0,.45-.45A.46.46,0,0,0,183.13,112.52Z"/><path class="cls-4" d="M185,112.52a.46.46,0,0,0-.45.46.46.46,0,0,0,.91,0A.46.46,0,0,0,185,112.52Z"/><path class="cls-4" d="M186.82,112.52a.46.46,0,0,0-.45.46.45.45,0,0,0,.45.45.46.46,0,0,0,.46-.45A.47.47,0,0,0,186.82,112.52Z"/><path class="cls-4" d="M188.67,112.52a.47.47,0,0,0-.46.46.46.46,0,0,0,.46.45.45.45,0,0,0,.45-.45A.46.46,0,0,0,188.67,112.52Z"/><path class="cls-4" d="M190.52,112.52a.46.46,0,0,0-.46.46.46.46,0,0,0,.91,0A.46.46,0,0,0,190.52,112.52Z"/><path class="cls-4" d="M192.36,112.52a.46.46,0,0,0-.45.46.46.46,0,0,0,.91,0A.46.46,0,0,0,192.36,112.52Z"/><path class="cls-4" d="M178.51,121.35a.46.46,0,0,0-.45.46.46.46,0,0,0,.91,0A.46.46,0,0,0,178.51,121.35Z"/><path class="cls-4" d="M176.67,121.35a.47.47,0,0,0-.46.46.46.46,0,0,0,.46.45.45.45,0,0,0,.45-.45A.46.46,0,0,0,176.67,121.35Z"/><path class="cls-4" d="M174.82,121.35a.47.47,0,0,0-.46.46.46.46,0,0,0,.92,0A.47.47,0,0,0,174.82,121.35Z"/><path class="cls-11" d="M199.17,67.31c-1.09-5.64-1.55-12.22-6.57-15.26a21.75,21.75,0,0,0-11,1.41c-8.61,3.61-12.31,13-14.2,21.5a156.08,156.08,0,0,0-3.31,36.91,2.77,2.77,0,0,0,.9.27A62.25,62.25,0,0,0,214,100C214.24,99.78,200.36,73.5,199.17,67.31Z"/><path class="cls-12" d="M200.74,58.94a15.35,15.35,0,0,1-6.32.48,14.58,14.58,0,0,1-5.95-2.19c-2.12-1.36-4.62-3.87-7.22-3.62.11,0,.21-.1.32-.15,7.8-3.27,16.58-1.05,23.94,2.82C204.77,57.69,202.07,58.55,200.74,58.94Z"/><path class="cls-11" d="M235.86,78.74c-2.1-7.18-9.51-12.37-15.4-16.35a71.23,71.23,0,0,0-24.58-10.76c-.56-.12-.87.72-.31.84h0a39.2,39.2,0,0,0,1.33,16.71.39.39,0,0,0,.06.11v0A36.17,36.17,0,0,0,208.49,86c5.23,4.25,12.82,8.2,19.74,6.57C234.66,91.06,237.67,84.93,235.86,78.74Z"/><rect class="cls-5" x="188.97" y="43.67" width="22.93" height="11.67" rx="0.99" transform="translate(90.55 224.3) rotate(-71.72)"/><circle class="cls-20" cx="199.41" cy="38.68" r="0.48"/><path class="cls-7" d="M210.51,59c-2.36-4.85-4.58-7.4-4.72-7.26a4.62,4.62,0,0,1-7,.09c-1.2-1.4-1.76-3.32-3.59-4.07s-4.32,1.12-3.13,2.85a3.59,3.59,0,0,0-1.23,4.94c-2.26,1.6-.57,4.45,1.19,5.87,3.4,2.74,9.26,1.46,11.44,5.58C206.61,63.64,208.17,62.9,210.51,59Z"/><path class="cls-9" d="M193.48,57.08A4.09,4.09,0,0,1,191,55.67c-.36-.44-1.09.08-.72.53a5.07,5.07,0,0,0,3,1.76A.44.44,0,0,0,193.48,57.08Z"/><path class="cls-9" d="M194.79,52.36a4,4,0,0,1-2.26-1.64c-.32-.48-1.11-.07-.79.41a5,5,0,0,0,2.78,2.09A.45.45,0,0,0,194.79,52.36Z"/><path class="cls-12" d="M219.8,84.89A51.36,51.36,0,0,1,204,67.39c-.27-.5-1.09-.13-.81.37A52.34,52.34,0,0,0,219.3,85.62.44.44,0,0,0,219.8,84.89Z"/><path class="cls-12" d="M207,85.61l-.87-1.8,0,0-.46-.43c-.53-.48-1.06-1-1.57-1.48s-.76-.74-1.13-1.12-.53-.55-.79-.83c-.79-.83-1.57-1.68-2.33-2.55-1.2-1.39-2.37-2.81-3.47-4.3-.35-.46-1,.12-.69.58,1.35,1.82,2.8,3.56,4.3,5.25a13.93,13.93,0,0,1,1.11,6.52c-.13,1.75-.66,3.57-.19,5.32.41,1.49,1.55,2.34,2.42,3.55,1.7,2.37.2,4.08-.81,6.29a6.6,6.6,0,0,0-.4,4.42,8,8,0,0,0,.78,1.9A61.21,61.21,0,0,0,214,100C214.13,99.87,210.63,93.09,207,85.61Z"/><path class="cls-6" d="M230.13,80.34a.46.46,0,1,0-.45-.46A.46.46,0,0,0,230.13,80.34Z"/><path class="cls-6" d="M232,80.34a.46.46,0,1,0-.46-.46A.47.47,0,0,0,232,80.34Z"/><path class="cls-6" d="M233.83,80.34a.46.46,0,0,0,0-.92.46.46,0,0,0,0,.92Z"/><path class="cls-6" d="M235.68,80.34a.46.46,0,1,0-.46-.46A.46.46,0,0,0,235.68,80.34Z"/><path class="cls-6" d="M237.52,80.34a.46.46,0,1,0,0-.92.46.46,0,0,0,0,.92Z"/><path class="cls-6" d="M236.6,78.57a.46.46,0,0,0,0-.91.46.46,0,1,0,0,.91Z"/><path class="cls-6" d="M234.75,78.57a.46.46,0,1,0,0-.91.46.46,0,0,0,0,.91Z"/><path class="cls-6" d="M232.9,78.57a.46.46,0,1,0-.45-.46A.45.45,0,0,0,232.9,78.57Z"/><path class="cls-6" d="M231.06,78.57a.46.46,0,1,0-.46-.46A.45.45,0,0,0,231.06,78.57Z"/><path class="cls-6" d="M229.21,78.57a.46.46,0,1,0-.46-.46A.46.46,0,0,0,229.21,78.57Z"/><path class="cls-6" d="M227.36,78.57a.46.46,0,1,0,0-.91.46.46,0,0,0,0,.91Z"/><path class="cls-6" d="M226.44,76.8a.45.45,0,0,0,.45-.45.46.46,0,0,0-.45-.46.47.47,0,0,0-.46.46A.46.46,0,0,0,226.44,76.8Z"/><path class="cls-6" d="M228.29,76.8a.45.45,0,0,0,.45-.45.46.46,0,1,0-.91,0A.45.45,0,0,0,228.29,76.8Z"/><path class="cls-6" d="M230.13,75.89a.46.46,0,0,0-.45.46.46.46,0,0,0,.91,0A.46.46,0,0,0,230.13,75.89Z"/><path class="cls-6" d="M232,75.89a.47.47,0,0,0-.46.46.46.46,0,0,0,.92,0A.47.47,0,0,0,232,75.89Z"/><path class="cls-6" d="M233.83,75.89a.47.47,0,0,0-.46.46.46.46,0,0,0,.46.45.45.45,0,0,0,.45-.45A.46.46,0,0,0,233.83,75.89Z"/><path class="cls-6" d="M235.68,75.89a.46.46,0,0,0-.46.46.46.46,0,0,0,.91,0A.46.46,0,0,0,235.68,75.89Z"/><path class="cls-6" d="M234.75,74.13a.45.45,0,0,0-.45.45.46.46,0,0,0,.45.46.47.47,0,0,0,.46-.46A.46.46,0,0,0,234.75,74.13Z"/><path class="cls-6" d="M232.9,74.13a.45.45,0,0,0-.45.45.46.46,0,1,0,.91,0A.45.45,0,0,0,232.9,74.13Z"/><path class="cls-6" d="M231.06,74.13a.45.45,0,0,0-.46.45.46.46,0,1,0,.91,0A.45.45,0,0,0,231.06,74.13Z"/><path class="cls-6" d="M229.21,74.13a.46.46,0,0,0-.46.45.46.46,0,1,0,.92,0A.46.46,0,0,0,229.21,74.13Z"/><path class="cls-6" d="M227.36,74.13a.45.45,0,0,0-.45.45.46.46,0,0,0,.45.46.47.47,0,0,0,.46-.46A.46.46,0,0,0,227.36,74.13Z"/><path class="cls-6" d="M225.52,75a.46.46,0,0,0,.45-.46.46.46,0,0,0-.91,0A.46.46,0,0,0,225.52,75Z"/><path class="cls-6" d="M224.59,72.36a.46.46,0,0,0,0,.91.46.46,0,1,0,0-.91Z"/><path class="cls-6" d="M226.44,72.36a.46.46,0,1,0,0,.91.46.46,0,0,0,0-.91Z"/><path class="cls-6" d="M228.29,72.36a.46.46,0,1,0,.45.46A.45.45,0,0,0,228.29,72.36Z"/><path class="cls-6" d="M230.13,72.36a.46.46,0,1,0,.46.46A.45.45,0,0,0,230.13,72.36Z"/><path class="cls-6" d="M232,72.36a.46.46,0,1,0,.46.46A.46.46,0,0,0,232,72.36Z"/><path class="cls-6" d="M233.83,72.36a.46.46,0,1,0,0,.91.46.46,0,0,0,0-.91Z"/><path class="cls-6" d="M232.9,70.59a.46.46,0,1,0,.46.46A.46.46,0,0,0,232.9,70.59Z"/><path class="cls-6" d="M231.06,70.59a.46.46,0,1,0,.45.46A.46.46,0,0,0,231.06,70.59Z"/><path class="cls-6" d="M229.21,70.59a.46.46,0,1,0,.46.46A.47.47,0,0,0,229.21,70.59Z"/><path class="cls-6" d="M227.36,70.59a.46.46,0,0,0,0,.92.46.46,0,1,0,0-.92Z"/><path class="cls-6" d="M225.52,70.59a.46.46,0,1,0,.45.46A.46.46,0,0,0,225.52,70.59Z"/><path class="cls-6" d="M223.67,70.59a.46.46,0,1,0,0,.92.46.46,0,0,0,0-.92Z"/><path class="cls-6" d="M220.9,68.83a.46.46,0,1,0,.45.45A.45.45,0,0,0,220.9,68.83Z"/><path class="cls-6" d="M222.74,68.83a.46.46,0,1,0,.46.45A.45.45,0,0,0,222.74,68.83Z"/><path class="cls-6" d="M224.59,68.83a.46.46,0,0,0,0,.91.46.46,0,1,0,0-.91Z"/><path class="cls-6" d="M226.44,68.83a.46.46,0,1,0,0,.91.46.46,0,0,0,0-.91Z"/><path class="cls-6" d="M228.29,68.83a.46.46,0,1,0,.45.45A.45.45,0,0,0,228.29,68.83Z"/><path class="cls-6" d="M230.13,68.83a.46.46,0,1,0,.46.45A.45.45,0,0,0,230.13,68.83Z"/><path class="cls-6" d="M229.21,67.06a.47.47,0,0,0-.46.46.46.46,0,0,0,.92,0A.47.47,0,0,0,229.21,67.06Z"/><path class="cls-6" d="M227.36,67.06a.46.46,0,0,0-.45.46.45.45,0,0,0,.45.45.46.46,0,0,0,.46-.45A.47.47,0,0,0,227.36,67.06Z"/><path class="cls-6" d="M225.52,67.06a.46.46,0,0,0-.46.46.46.46,0,0,0,.91,0A.46.46,0,0,0,225.52,67.06Z"/><path class="cls-6" d="M223.67,67.06a.47.47,0,0,0-.46.46.46.46,0,0,0,.46.45.45.45,0,0,0,.45-.45A.46.46,0,0,0,223.67,67.06Z"/><path class="cls-6" d="M221.82,67.06a.47.47,0,0,0-.46.46.46.46,0,0,0,.92,0A.47.47,0,0,0,221.82,67.06Z"/><path class="cls-6" d="M220,67.06a.46.46,0,0,0-.45.46.46.46,0,0,0,.91,0A.46.46,0,0,0,220,67.06Z"/><path class="cls-6" d="M220.9,65.29a.46.46,0,1,0,.45.46A.46.46,0,0,0,220.9,65.29Z"/><path class="cls-6" d="M222.74,65.29a.46.46,0,1,0,.46.46A.46.46,0,0,0,222.74,65.29Z"/><path class="cls-6" d="M224.59,65.29a.46.46,0,0,0,0,.92.46.46,0,0,0,0-.92Z"/><path class="cls-6" d="M226.44,65.29a.46.46,0,1,0,0,.92.46.46,0,0,0,0-.92Z"/><path class="cls-6" d="M223.67,63.53a.46.46,0,1,0,0,.91.46.46,0,0,0,0-.91Z"/><path class="cls-6" d="M221.82,63.53a.46.46,0,1,0,.46.45A.46.46,0,0,0,221.82,63.53Z"/><path class="cls-6" d="M234.76,88.25a.46.46,0,1,0,0,.92.46.46,0,0,0,0-.92Z"/><path class="cls-6" d="M232.91,88.25a.46.46,0,1,0,.46.46A.47.47,0,0,0,232.91,88.25Z"/><path class="cls-6" d="M231.06,88.25a.46.46,0,0,0,0,.92.46.46,0,0,0,0-.92Z"/><path class="cls-6" d="M230.14,86.49a.46.46,0,1,0,.46.45A.46.46,0,0,0,230.14,86.49Z"/><path class="cls-6" d="M232,86.49a.46.46,0,1,0,.45.45A.45.45,0,0,0,232,86.49Z"/><path class="cls-6" d="M233.83,86.49a.46.46,0,1,0,.46.45A.45.45,0,0,0,233.83,86.49Z"/><path class="cls-6" d="M235.68,86.49a.46.46,0,1,0,.46.45A.46.46,0,0,0,235.68,86.49Z"/><path class="cls-6" d="M236.6,84.72a.46.46,0,0,0-.45.46.46.46,0,0,0,.91,0A.46.46,0,0,0,236.6,84.72Z"/><path class="cls-6" d="M234.76,84.72a.47.47,0,0,0-.46.46.46.46,0,0,0,.46.45.45.45,0,0,0,.45-.45A.46.46,0,0,0,234.76,84.72Z"/><path class="cls-6" d="M232.91,84.72a.47.47,0,0,0-.46.46.46.46,0,0,0,.92,0A.47.47,0,0,0,232.91,84.72Z"/><path class="cls-6" d="M231.06,84.72a.46.46,0,0,0-.45.46.45.45,0,0,0,.45.45.46.46,0,0,0,.46-.45A.47.47,0,0,0,231.06,84.72Z"/><path class="cls-6" d="M229.22,84.72a.46.46,0,0,0-.46.46.46.46,0,0,0,.91,0A.46.46,0,0,0,229.22,84.72Z"/><path class="cls-6" d="M228.29,83a.45.45,0,0,0-.45.45.46.46,0,0,0,.45.46.47.47,0,0,0,.46-.46A.46.46,0,0,0,228.29,83Z"/><path class="cls-6" d="M230.14,83a.46.46,0,0,0-.46.45.46.46,0,0,0,.92,0A.46.46,0,0,0,230.14,83Z"/><path class="cls-6" d="M232,83a.45.45,0,0,0-.46.45.46.46,0,1,0,.91,0A.45.45,0,0,0,232,83Z"/><path class="cls-6" d="M233.83,83a.45.45,0,0,0-.45.45.46.46,0,1,0,.91,0A.45.45,0,0,0,233.83,83Z"/><path class="cls-6" d="M235.68,83a.46.46,0,0,0-.46.45.46.46,0,1,0,.92,0A.46.46,0,0,0,235.68,83Z"/><path class="cls-6" d="M237.53,83a.46.46,0,0,0-.46.45.47.47,0,0,0,.46.46.46.46,0,0,0,.45-.46A.45.45,0,0,0,237.53,83Z"/><path class="cls-6" d="M236.6,81.19a.46.46,0,1,0,.46.46A.45.45,0,0,0,236.6,81.19Z"/><path class="cls-6" d="M234.76,81.19a.46.46,0,1,0,0,.91.46.46,0,0,0,0-.91Z"/><path class="cls-6" d="M232.91,81.19a.46.46,0,1,0,.46.46A.46.46,0,0,0,232.91,81.19Z"/><path class="cls-6" d="M231.06,81.19a.46.46,0,0,0,0,.91.46.46,0,1,0,0-.91Z"/><path class="cls-6" d="M229.22,81.19a.46.46,0,1,0,.45.46A.45.45,0,0,0,229.22,81.19Z"/><path class="cls-6" d="M228.29,79.42a.46.46,0,0,0,0,.92.46.46,0,0,0,0-.92Z"/><path class="cls-21" d="M269.28,57.38a.46.46,0,1,0-.45-.46A.46.46,0,0,0,269.28,57.38Z"/><path class="cls-21" d="M272.05,55.61a.46.46,0,1,0-.45-.46A.45.45,0,0,0,272.05,55.61Z"/><path class="cls-21" d="M270.21,55.61a.46.46,0,0,0,0-.91.46.46,0,1,0,0,.91Z"/><path class="cls-21" d="M268.36,55.61a.46.46,0,1,0-.46-.46A.46.46,0,0,0,268.36,55.61Z"/><path class="cls-21" d="M266.51,55.61a.46.46,0,1,0,0-.91.46.46,0,0,0,0,.91Z"/><path class="cls-21" d="M265.59,53.84a.46.46,0,0,0,.46-.45.46.46,0,0,0-.92,0A.46.46,0,0,0,265.59,53.84Z"/><path class="cls-21" d="M267.44,53.84a.45.45,0,0,0,.45-.45.46.46,0,1,0-.91,0A.45.45,0,0,0,267.44,53.84Z"/><path class="cls-21" d="M269.28,53.84a.45.45,0,0,0,.46-.45.46.46,0,1,0-.91,0A.45.45,0,0,0,269.28,53.84Z"/><path class="cls-21" d="M271.13,53.84a.46.46,0,0,0,.46-.45.47.47,0,0,0-.46-.46.46.46,0,0,0-.45.46A.45.45,0,0,0,271.13,53.84Z"/><path class="cls-21" d="M273,53.84a.45.45,0,0,0,.45-.45.46.46,0,0,0-.45-.46.47.47,0,0,0-.46.46A.46.46,0,0,0,273,53.84Z"/><path class="cls-21" d="M273.9,52.08a.47.47,0,0,0,.46-.46.46.46,0,0,0-.46-.45.45.45,0,0,0-.45.45A.46.46,0,0,0,273.9,52.08Z"/><path class="cls-21" d="M272.05,52.08a.46.46,0,0,0,.46-.46.46.46,0,0,0-.91,0A.46.46,0,0,0,272.05,52.08Z"/><path class="cls-21" d="M270.21,52.08a.46.46,0,0,0,.45-.46.45.45,0,0,0-.45-.45.46.46,0,0,0-.46.45A.47.47,0,0,0,270.21,52.08Z"/><path class="cls-21" d="M268.36,52.08a.47.47,0,0,0,.46-.46.46.46,0,0,0-.92,0A.47.47,0,0,0,268.36,52.08Z"/><path class="cls-21" d="M269.28,50.31a.46.46,0,1,0-.45-.45A.45.45,0,0,0,269.28,50.31Z"/><path class="cls-21" d="M271.13,50.31a.46.46,0,1,0,0-.91.46.46,0,0,0,0,.91Z"/><path class="cls-21" d="M273,50.31a.46.46,0,0,0,0-.91.46.46,0,1,0,0,.91Z"/><path class="cls-21" d="M274.83,50.31a.46.46,0,1,0-.46-.45A.45.45,0,0,0,274.83,50.31Z"/><path class="cls-21" d="M275.75,48.55a.46.46,0,1,0-.46-.46A.47.47,0,0,0,275.75,48.55Z"/><path class="cls-21" d="M273.9,48.55a.46.46,0,1,0,0-.92.46.46,0,0,0,0,.92Z"/><path class="cls-21" d="M272.05,48.55a.46.46,0,1,0-.45-.46A.46.46,0,0,0,272.05,48.55Z"/><path class="cls-21" d="M270.21,48.55a.46.46,0,0,0,0-.92.46.46,0,0,0,0,.92Z"/><path class="cls-21" d="M271.13,46.78a.46.46,0,1,0,0-.91.46.46,0,0,0,0,.91Z"/><path class="cls-21" d="M273,46.78a.46.46,0,0,0,0-.91.46.46,0,1,0,0,.91Z"/><path class="cls-21" d="M274.83,46.78a.46.46,0,1,0-.46-.46A.45.45,0,0,0,274.83,46.78Z"/><path class="cls-21" d="M275.75,45a.46.46,0,0,0,.46-.45.46.46,0,1,0-.92,0A.46.46,0,0,0,275.75,45Z"/><path class="cls-21" d="M273.9,45a.46.46,0,0,0,.46-.45.47.47,0,0,0-.46-.46.46.46,0,0,0-.45.46A.45.45,0,0,0,273.9,45Z"/><path class="cls-21" d="M272.05,45a.45.45,0,0,0,.46-.45.46.46,0,1,0-.91,0A.45.45,0,0,0,272.05,45Z"/><path class="cls-21" d="M271.13,43.25a.47.47,0,0,0,.46-.46.46.46,0,0,0-.46-.45.45.45,0,0,0-.45.45A.46.46,0,0,0,271.13,43.25Z"/><path class="cls-21" d="M273,43.25a.46.46,0,0,0,.45-.46.45.45,0,0,0-.45-.45.46.46,0,0,0-.46.45A.47.47,0,0,0,273,43.25Z"/><path class="cls-21" d="M274.83,43.25a.46.46,0,0,0,.45-.46.46.46,0,0,0-.91,0A.46.46,0,0,0,274.83,43.25Z"/><path class="cls-21" d="M273.9,41.48a.46.46,0,1,0,0-.91.46.46,0,0,0,0,.91Z"/><path class="cls-21" d="M272.05,41.48a.46.46,0,1,0-.45-.45A.45.45,0,0,0,272.05,41.48Z"/><path class="cls-21" d="M270.21,41.48a.46.46,0,0,0,0-.91.46.46,0,1,0,0,.91Z"/><path class="cls-21" d="M269.28,39.72a.46.46,0,1,0-.45-.46A.46.46,0,0,0,269.28,39.72Z"/><path class="cls-21" d="M271.13,39.72a.46.46,0,1,0,0-.92.46.46,0,0,0,0,.92Z"/><path class="cls-21" d="M273,39.72a.46.46,0,0,0,0-.92.46.46,0,0,0,0,.92Z"/><path class="cls-21" d="M270.21,38a.46.46,0,0,0,0-.91.46.46,0,1,0,0,.91Z"/><path class="cls-21" d="M268.36,38a.46.46,0,1,0-.46-.46A.46.46,0,0,0,268.36,38Z"/><path class="cls-21" d="M260.05,56.46a.46.46,0,1,0,.46.46A.46.46,0,0,0,260.05,56.46Z"/><path class="cls-21" d="M261.9,56.46a.46.46,0,1,0,.46.46A.47.47,0,0,0,261.9,56.46Z"/><path class="cls-21" d="M263.75,56.46a.46.46,0,0,0,0,.92.46.46,0,0,0,0-.92Z"/><path class="cls-21" d="M265.6,56.46a.46.46,0,1,0,.45.46A.46.46,0,0,0,265.6,56.46Z"/><path class="cls-21" d="M267.44,56.46a.46.46,0,0,0,0,.92.46.46,0,1,0,0-.92Z"/><path class="cls-21" d="M264.67,54.7a.46.46,0,0,0,0,.91.46.46,0,1,0,0-.91Z"/><path class="cls-21" d="M262.82,54.7a.46.46,0,1,0,.46.45A.45.45,0,0,0,262.82,54.7Z"/><path class="cls-21" d="M261,54.7a.46.46,0,1,0,.45.45A.45.45,0,0,0,261,54.7Z"/><path class="cls-21" d="M259.13,54.7a.46.46,0,1,0,.46.45A.46.46,0,0,0,259.13,54.7Z"/><path class="cls-21" d="M257.28,54.7a.46.46,0,0,0,0,.91.46.46,0,1,0,0-.91Z"/><circle class="cls-22" cx="259.6" cy="44.19" r="11.2"/><path class="cls-23" d="M266.62,45.17a7.91,7.91,0,0,1-14-.62c-.26-.52-1.07-.14-.82.37a8.81,8.81,0,0,0,15.55.76C267.66,45.19,266.92,44.68,266.62,45.17Z"/><path class="cls-10" d="M72.76,37.52a.46.46,0,0,0,.46-.45.47.47,0,0,0-.46-.46.46.46,0,0,0-.45.46A.45.45,0,0,0,72.76,37.52Z"/><path class="cls-10" d="M70,35.76a.46.46,0,1,0,0-.92.46.46,0,0,0,0,.92Z"/><path class="cls-10" d="M71.84,35.76a.46.46,0,1,0-.46-.46A.47.47,0,0,0,71.84,35.76Z"/><path class="cls-10" d="M72.76,34a.46.46,0,1,0,0-.91.46.46,0,0,0,0,.91Z"/><path class="cls-10" d="M70.92,34a.46.46,0,1,0-.46-.45A.45.45,0,0,0,70.92,34Z"/><path class="cls-10" d="M69.07,34a.46.46,0,0,0,0-.91.46.46,0,1,0,0,.91Z"/><path class="cls-10" d="M67.22,34a.46.46,0,1,0-.46-.45A.46.46,0,0,0,67.22,34Z"/><path class="cls-10" d="M70,32.23a.46.46,0,1,0,0-.92.46.46,0,0,0,0,.92Z"/><path class="cls-10" d="M71.84,32.23a.46.46,0,1,0-.46-.46A.47.47,0,0,0,71.84,32.23Z"/><path class="cls-10" d="M72.76,30.46a.47.47,0,0,0,.46-.46.46.46,0,0,0-.46-.45.45.45,0,0,0-.45.45A.46.46,0,0,0,72.76,30.46Z"/><path class="cls-10" d="M70.92,30.46a.46.46,0,0,0,.45-.46.46.46,0,0,0-.91,0A.46.46,0,0,0,70.92,30.46Z"/><path class="cls-10" d="M71.84,28.69a.46.46,0,1,0-.46-.45A.46.46,0,0,0,71.84,28.69Z"/><path class="cls-10" d="M72.76,26.93a.46.46,0,1,0,0-.92.46.46,0,0,0,0,.92Z"/><path class="cls-10" d="M70.92,26.93a.46.46,0,1,0-.46-.46A.46.46,0,0,0,70.92,26.93Z"/><path class="cls-10" d="M66.3,49a.46.46,0,1,0,.46.46A.46.46,0,0,0,66.3,49Z"/><path class="cls-10" d="M68.15,49a.46.46,0,1,0,.46.46A.47.47,0,0,0,68.15,49Z"/><path class="cls-10" d="M70,49a.46.46,0,1,0,0,.92A.46.46,0,0,0,70,49Z"/><path class="cls-10" d="M71.84,49a.46.46,0,1,0,.46.46A.46.46,0,0,0,71.84,49Z"/><path class="cls-10" d="M72.77,47.21a.46.46,0,1,0,0,.91.46.46,0,0,0,0-.91Z"/><path class="cls-10" d="M70.92,47.21a.46.46,0,0,0,0,.91.46.46,0,1,0,0-.91Z"/><path class="cls-10" d="M69.07,47.21a.46.46,0,1,0,.46.45A.45.45,0,0,0,69.07,47.21Z"/><path class="cls-10" d="M67.23,47.21a.46.46,0,1,0,.45.45A.45.45,0,0,0,67.23,47.21Z"/><path class="cls-10" d="M65.38,47.21a.46.46,0,1,0,.46.45A.46.46,0,0,0,65.38,47.21Z"/><path class="cls-10" d="M63.53,47.21a.46.46,0,0,0,0,.91.46.46,0,1,0,0-.91Z"/><path class="cls-10" d="M66.3,45.44a.46.46,0,0,0-.45.46.46.46,0,0,0,.91,0A.46.46,0,0,0,66.3,45.44Z"/><path class="cls-10" d="M68.15,45.44a.47.47,0,0,0-.46.46.46.46,0,0,0,.92,0A.47.47,0,0,0,68.15,45.44Z"/><path class="cls-10" d="M70,45.44a.47.47,0,0,0-.46.46.46.46,0,0,0,.46.45.45.45,0,0,0,.45-.45A.46.46,0,0,0,70,45.44Z"/><path class="cls-10" d="M71.84,45.44a.46.46,0,0,0-.45.46.46.46,0,0,0,.91,0A.46.46,0,0,0,71.84,45.44Z"/><path class="cls-10" d="M72.77,43.68a.46.46,0,0,0-.46.45.47.47,0,0,0,.46.46.46.46,0,0,0,.45-.46A.45.45,0,0,0,72.77,43.68Z"/><path class="cls-10" d="M70.92,43.68a.45.45,0,0,0-.45.45.46.46,0,0,0,.45.46.47.47,0,0,0,.46-.46A.46.46,0,0,0,70.92,43.68Z"/><path class="cls-10" d="M69.07,43.68a.45.45,0,0,0-.45.45.46.46,0,1,0,.91,0A.45.45,0,0,0,69.07,43.68Z"/><path class="cls-10" d="M67.23,43.68a.45.45,0,0,0-.46.45.46.46,0,1,0,.91,0A.45.45,0,0,0,67.23,43.68Z"/><path class="cls-10" d="M66.3,41.91a.46.46,0,1,0,.46.46A.45.45,0,0,0,66.3,41.91Z"/><path class="cls-10" d="M68.15,41.91a.46.46,0,1,0,.46.46A.46.46,0,0,0,68.15,41.91Z"/><path class="cls-10" d="M70,41.91a.46.46,0,1,0,0,.91.46.46,0,0,0,0-.91Z"/><path class="cls-10" d="M71.84,41.91a.46.46,0,1,0,.46.46A.45.45,0,0,0,71.84,41.91Z"/><path class="cls-10" d="M72.77,40.14a.46.46,0,1,0,0,.92.46.46,0,0,0,0-.92Z"/><path class="cls-10" d="M70.92,40.14a.46.46,0,0,0,0,.92.46.46,0,0,0,0-.92Z"/><path class="cls-10" d="M69.07,40.14a.46.46,0,1,0,.46.46A.46.46,0,0,0,69.07,40.14Z"/><path class="cls-10" d="M67.23,40.14a.46.46,0,1,0,.45.46A.46.46,0,0,0,67.23,40.14Z"/><path class="cls-10" d="M66.3,38.38a.46.46,0,1,0,.46.45A.45.45,0,0,0,66.3,38.38Z"/><path class="cls-10" d="M68.15,38.38a.46.46,0,1,0,.46.45A.46.46,0,0,0,68.15,38.38Z"/><path class="cls-10" d="M70,38.38a.46.46,0,1,0,0,.91.46.46,0,0,0,0-.91Z"/><path class="cls-10" d="M71.84,38.38a.46.46,0,1,0,.46.45A.45.45,0,0,0,71.84,38.38Z"/><path class="cls-10" d="M70.92,36.61a.46.46,0,0,0-.45.46.45.45,0,0,0,.45.45.46.46,0,0,0,.46-.45A.47.47,0,0,0,70.92,36.61Z"/><path class="cls-10" d="M69.07,36.61a.46.46,0,0,0-.45.46.46.46,0,0,0,.91,0A.46.46,0,0,0,69.07,36.61Z"/><path class="cls-10" d="M67.23,36.61a.46.46,0,0,0-.46.46.46.46,0,0,0,.91,0A.46.46,0,0,0,67.23,36.61Z"/><path class="cls-10" d="M66.3,34.84a.46.46,0,1,0,.46.46A.46.46,0,0,0,66.3,34.84Z"/><path class="cls-10" d="M68.15,34.84a.46.46,0,1,0,.46.46A.47.47,0,0,0,68.15,34.84Z"/><path class="cls-10" d="M46,49a.46.46,0,0,0,0,.92A.46.46,0,0,0,46,49Z"/><path class="cls-10" d="M47.83,49a.46.46,0,1,0,.46.46A.47.47,0,0,0,47.83,49Z"/><path class="cls-10" d="M49.68,49a.46.46,0,0,0,0,.92.46.46,0,0,0,0-.92Z"/><path class="cls-10" d="M51.52,49a.46.46,0,1,0,.46.46A.46.46,0,0,0,51.52,49Z"/><path class="cls-10" d="M53.37,49a.46.46,0,0,0,0,.92.46.46,0,0,0,0-.92Z"/><path class="cls-10" d="M55.22,49a.46.46,0,1,0,.46.46A.47.47,0,0,0,55.22,49Z"/><path class="cls-10" d="M57.07,49a.46.46,0,1,0,.45.46A.46.46,0,0,0,57.07,49Z"/><path class="cls-10" d="M58.91,49a.46.46,0,1,0,.46.46A.46.46,0,0,0,58.91,49Z"/><path class="cls-10" d="M60.76,49a.46.46,0,0,0,0,.92.46.46,0,0,0,0-.92Z"/><path class="cls-10" d="M62.61,49a.46.46,0,1,0,0,.92.46.46,0,0,0,0-.92Z"/><path class="cls-10" d="M64.46,49a.46.46,0,1,0,.45.46A.46.46,0,0,0,64.46,49Z"/><path class="cls-10" d="M61.68,47.21a.46.46,0,1,0,.46.45A.45.45,0,0,0,61.68,47.21Z"/><path class="cls-10" d="M59.84,47.21a.46.46,0,1,0,0,.91.46.46,0,0,0,0-.91Z"/><path class="cls-10" d="M58,47.21a.46.46,0,1,0,.46.45A.46.46,0,0,0,58,47.21Z"/><path class="cls-10" d="M56.14,47.21a.46.46,0,0,0,0,.91.46.46,0,1,0,0-.91Z"/><path class="cls-10" d="M54.3,47.21a.46.46,0,1,0,.45.45A.45.45,0,0,0,54.3,47.21Z"/><path class="cls-10" d="M52.45,47.21a.46.46,0,1,0,0,.91.46.46,0,0,0,0-.91Z"/><path class="cls-10" d="M50.6,47.21a.46.46,0,0,0,0,.91.46.46,0,1,0,0-.91Z"/><path class="cls-10" d="M48.75,47.21a.46.46,0,1,0,.46.45A.45.45,0,0,0,48.75,47.21Z"/><path class="cls-10" d="M46.91,47.21a.46.46,0,1,0,.45.45A.45.45,0,0,0,46.91,47.21Z"/><path class="cls-10" d="M45.06,47.21a.46.46,0,1,0,.46.45A.46.46,0,0,0,45.06,47.21Z"/><rect class="cls-13" x="37.72" y="28.15" width="28.36" height="19.24"/><path class="cls-17" d="M52.64,42.21,39.75,29.39c-.41-.4-1.1.17-.69.58L52,42.79C52.36,43.19,53,42.62,52.64,42.21Z"/><path class="cls-17" d="M52.62,42.88,65.43,30c.41-.41-.16-1.1-.57-.69L52,42.19C51.64,42.6,52.21,43.28,52.62,42.88Z"/><circle class="cls-8" cx="65.2" cy="28.33" r="5.61"/><path class="cls-24" d="M64.75,25.3v5.62c0,.57.89.65.89.08V25.38C65.64,24.81,64.75,24.73,64.75,25.3Z"/></g></g></svg>