<svg xmlns="http://www.w3.org/2000/svg" viewBox="0 0 288.21 246.4"><defs><style>.cls-1{fill:#efaf84;}.cls-2{fill:#d3774f;}.cls-3{fill:#182067;}.cls-4{fill:#009da5;}.cls-5{fill:#1372f5;}.cls-6{fill:#9487fc;}.cls-7{fill:#b6d0ff;}.cls-8{fill:#ef5180;}.cls-9{fill:#ed3561;}.cls-10{fill:#283e96;}.cls-11{fill:#09546d;}.cls-12{fill:#fff;}.cls-13{fill:#e8de46;}.cls-14{fill:#a7c65c;}.cls-15{fill:#b1b6ba;}.cls-16,.cls-17{fill:#ddd;}.cls-16{opacity:0.79;}.cls-18{fill:none;stroke:#fff;stroke-linecap:round;stroke-miterlimit:10;stroke-width:0.25px;}.cls-19{fill:#7047ba;}.cls-20{fill:#ffd654;}.cls-21{fill:#f37645;}.cls-22{fill:#fec2c3;}</style></defs><title>01_</title><g id="Warstwa_2" data-name="Warstwa 2"><g id="_01" data-name="01"><path class="cls-1" d="M224.19,193.74c1.5,2.73,14,3.18,16.63,3.16s6.91.22,7.15-3.18c.14-2.15-.73-4.62-1.12-6.71l-1.32-6.92c.13,0,.27-.06.41-.09.56-.13.25-1-.3-.85l-.41.09a.46.46,0,0,0-.68.15c-2.93,1.51-6.92,2.44-12.55.9-.3-.08-.52.17-.52.48l-.24,8.12C231.2,190.57,223.33,192.18,224.19,193.74Z"/><path class="cls-2" d="M230.54,195.67c-.91.12-1.8.11-2.69.15a.44.44,0,0,1,0-.5c3-4.25,6.13-8.76,6.27-14.17,0-.21.15-.49.41-.48a25.29,25.29,0,0,0,8.84-1.26.45.45,0,0,1,.59.5,23.41,23.41,0,0,1-12.73,15.77A3.38,3.38,0,0,0,230.54,195.67Z"/><path class="cls-3" d="M242.1,179.74l12.4-4.62a2.57,2.57,0,0,1,3.48,2.44l-.41,38.65a2.21,2.21,0,0,1-2.23,2.19h0a2.24,2.24,0,0,1-2-1.21l-8.46-16.54L240.17,202a1.33,1.33,0,0,1-1.64-1.58l1.57-6.55a1.31,1.31,0,0,1,1-1l2.73-.58h0a23.42,23.42,0,0,0-1.59-12.16Z"/><path class="cls-4" d="M254.5,175.12a2.57,2.57,0,0,1,3.48,2.44l-.41,38.65a2.18,2.18,0,0,1-3.61,1.66l.46-42.72Z"/><path class="cls-4" d="M243.89,201a5.59,5.59,0,0,0,.77-5.46c-.24-.52.6-.81.85-.29a6.47,6.47,0,0,1-.94,6.34C244.18,202.05,243.5,201.47,243.89,201Z"/><path class="cls-4" d="M245.94,203c1-1.35,2.08-3.23,1.55-5-.16-.55.68-.84.85-.29.62,2.07-.5,4.21-1.72,5.84C246.28,204.08,245.6,203.5,245.94,203Z"/><path class="cls-4" d="M245.94,192.91c2.66-1.91,4.06-4.13,3.63-7.57-.3-2.37-1.91-4.24-2.31-6.56a8.86,8.86,0,0,1,3.85-8.77c.47-.33,1,.41.5.75a8,8,0,0,0-3.56,7.21c.17,2.33,1.76,4.21,2.26,6.47a9.52,9.52,0,0,1-.4,5.41c-.7,1.82-1.93,2.7-3.47,3.8C246,194,245.47,193.24,245.94,192.91Z"/><path class="cls-3" d="M235.57,180.33c-4.5-4.13-12.18-3.37-17.75-4.66-7.45-1.71-14.1-7.2-18.46-13.35a31.06,31.06,0,0,1-5.52-17.67c0-.38,0-.77,0-1.16.86-7.05-6.53-19-6.53-19l-10.63-15h-6.57l-.48,1.54c-1.26-.12-2.51-.28-3.76-.48l-.15.51a52.08,52.08,0,0,0-1.71,9c-.1.83-.19,1.66-.28,2.5-1.27,4.06,1.43,31.09,1.43,31.09.11.41.22.81.35,1.22,3.38,10.77,11.24,20.81,21.46,28.19,1.09.91,2.22,1.78,3.39,2.6a54.66,54.66,0,0,0,14.55,7.18c7.71,2.57,16.82,5.09,25,3.45,3-.61,6-2.07,7.4-5C238.89,187.89,238.44,183,235.57,180.33Z"/><path class="cls-5" d="M224.13,185.2a.47.47,0,0,0,.46-.46.46.46,0,0,0-.92,0A.47.47,0,0,0,224.13,185.2Z"/><path class="cls-5" d="M226,185.2a.46.46,0,0,0,.45-.46.45.45,0,0,0-.45-.45.46.46,0,0,0-.46.45A.47.47,0,0,0,226,185.2Z"/><path class="cls-5" d="M227.82,185.2a.46.46,0,0,0,.46-.46.46.46,0,0,0-.91,0A.46.46,0,0,0,227.82,185.2Z"/><path class="cls-5" d="M229.67,185.2a.47.47,0,0,0,.46-.46.46.46,0,0,0-.46-.45.45.45,0,0,0-.45.45A.46.46,0,0,0,229.67,185.2Z"/><path class="cls-5" d="M231.52,185.2a.46.46,0,0,0,.45-.46.45.45,0,0,0-.45-.45.46.46,0,0,0-.46.45A.47.47,0,0,0,231.52,185.2Z"/><path class="cls-5" d="M233.37,185.2a.46.46,0,0,0,.45-.46.46.46,0,0,0-.91,0A.46.46,0,0,0,233.37,185.2Z"/><path class="cls-5" d="M235.21,185.2a.46.46,0,0,0,.46-.46.46.46,0,0,0-.91,0A.46.46,0,0,0,235.21,185.2Z"/><path class="cls-5" d="M236.14,183.43a.46.46,0,0,0,0-.91.46.46,0,1,0,0,.91Z"/><path class="cls-5" d="M234.29,183.43a.46.46,0,1,0-.46-.45A.46.46,0,0,0,234.29,183.43Z"/><path class="cls-5" d="M232.44,183.43a.46.46,0,1,0,0-.91.46.46,0,0,0,0,.91Z"/><path class="cls-5" d="M230.6,183.43a.46.46,0,1,0-.46-.45A.45.45,0,0,0,230.6,183.43Z"/><path class="cls-5" d="M228.75,183.43a.46.46,0,0,0,0-.91.46.46,0,1,0,0,.91Z"/><path class="cls-5" d="M226.9,183.43a.46.46,0,1,0-.46-.45A.46.46,0,0,0,226.9,183.43Z"/><path class="cls-5" d="M225.05,183.43a.46.46,0,1,0-.45-.45A.45.45,0,0,0,225.05,183.43Z"/><path class="cls-5" d="M223.21,183.43a.46.46,0,1,0-.46-.45A.45.45,0,0,0,223.21,183.43Z"/><path class="cls-5" d="M221.36,183.43a.46.46,0,0,0,0-.91.46.46,0,1,0,0,.91Z"/><path class="cls-5" d="M219.51,183.43a.46.46,0,1,0,0-.91.46.46,0,0,0,0,.91Z"/><path class="cls-5" d="M217.66,183.43a.46.46,0,1,0-.45-.45A.45.45,0,0,0,217.66,183.43Z"/><path class="cls-5" d="M214.89,181.67a.46.46,0,1,0-.45-.46A.46.46,0,0,0,214.89,181.67Z"/><path class="cls-5" d="M216.74,181.67a.46.46,0,1,0-.46-.46A.47.47,0,0,0,216.74,181.67Z"/><path class="cls-5" d="M218.59,181.67a.46.46,0,0,0,0-.92.46.46,0,0,0,0,.92Z"/><path class="cls-5" d="M220.44,181.67a.46.46,0,1,0-.46-.46A.46.46,0,0,0,220.44,181.67Z"/><path class="cls-5" d="M222.28,181.67a.46.46,0,0,0,0-.92.46.46,0,0,0,0,.92Z"/><path class="cls-5" d="M224.13,181.67a.46.46,0,1,0-.46-.46A.47.47,0,0,0,224.13,181.67Z"/><path class="cls-5" d="M226,181.67a.46.46,0,0,0,0-.92.46.46,0,0,0,0,.92Z"/><path class="cls-5" d="M227.82,181.67a.46.46,0,1,0-.45-.46A.46.46,0,0,0,227.82,181.67Z"/><path class="cls-5" d="M229.67,181.67a.46.46,0,0,0,0-.92.46.46,0,0,0,0,.92Z"/><path class="cls-5" d="M231.52,181.67a.46.46,0,0,0,0-.92.46.46,0,0,0,0,.92Z"/><path class="cls-5" d="M233.37,181.67a.46.46,0,1,0-.46-.46A.46.46,0,0,0,233.37,181.67Z"/><path class="cls-5" d="M235.21,181.67a.46.46,0,1,0-.45-.46A.46.46,0,0,0,235.21,181.67Z"/><path class="cls-5" d="M234.29,179.9a.46.46,0,1,0-.46-.46A.46.46,0,0,0,234.29,179.9Z"/><path class="cls-5" d="M232.44,179.9a.46.46,0,1,0,0-.91.46.46,0,0,0,0,.91Z"/><path class="cls-5" d="M230.6,179.9a.46.46,0,1,0-.46-.46A.45.45,0,0,0,230.6,179.9Z"/><path class="cls-5" d="M228.75,179.9a.46.46,0,0,0,0-.91.46.46,0,1,0,0,.91Z"/><path class="cls-5" d="M226.9,179.9a.46.46,0,1,0-.46-.46A.46.46,0,0,0,226.9,179.9Z"/><path class="cls-5" d="M225.05,179.9a.46.46,0,1,0-.45-.46A.45.45,0,0,0,225.05,179.9Z"/><path class="cls-5" d="M223.21,179.9a.46.46,0,1,0-.46-.46A.45.45,0,0,0,223.21,179.9Z"/><path class="cls-5" d="M221.36,179.9a.46.46,0,0,0,0-.91.46.46,0,1,0,0,.91Z"/><path class="cls-5" d="M219.51,179.9a.46.46,0,1,0,0-.91.46.46,0,0,0,0,.91Z"/><path class="cls-5" d="M217.66,179.9a.46.46,0,1,0-.45-.46A.45.45,0,0,0,217.66,179.9Z"/><path class="cls-5" d="M215.82,179.9a.46.46,0,1,0-.46-.46A.45.45,0,0,0,215.82,179.9Z"/><path class="cls-5" d="M214,179.9a.46.46,0,1,0-.46-.46A.46.46,0,0,0,214,179.9Z"/><path class="cls-5" d="M212.12,179.9a.46.46,0,1,0,0-.91.46.46,0,0,0,0,.91Z"/><circle class="cls-5" cx="213.05" cy="177.68" r="0.46"/><circle class="cls-5" cx="214.89" cy="177.68" r="0.46"/><circle class="cls-5" cx="216.74" cy="177.68" r="0.46"/><path class="cls-5" d="M218.59,178.13a.45.45,0,0,0,.45-.45.46.46,0,0,0-.45-.46.47.47,0,0,0-.46.46A.46.46,0,0,0,218.59,178.13Z"/><path class="cls-5" d="M220.44,178.13a.45.45,0,0,0,.45-.45.46.46,0,1,0-.91,0A.45.45,0,0,0,220.44,178.13Z"/><path class="cls-5" d="M222.28,178.13a.46.46,0,0,0,.46-.45.47.47,0,0,0-.46-.46.46.46,0,0,0-.45.46A.45.45,0,0,0,222.28,178.13Z"/><path class="cls-5" d="M224.13,178.13a.46.46,0,0,0,.46-.45.46.46,0,0,0-.92,0A.46.46,0,0,0,224.13,178.13Z"/><path class="cls-5" d="M226,178.13a.45.45,0,0,0,.45-.45.46.46,0,0,0-.45-.46.47.47,0,0,0-.46.46A.46.46,0,0,0,226,178.13Z"/><path class="cls-5" d="M227.82,178.13a.45.45,0,0,0,.46-.45.46.46,0,1,0-.91,0A.45.45,0,0,0,227.82,178.13Z"/><path class="cls-5" d="M229.67,178.13a.46.46,0,0,0,.46-.45.47.47,0,0,0-.46-.46.46.46,0,0,0-.45.46A.45.45,0,0,0,229.67,178.13Z"/><path class="cls-5" d="M221.36,176.37a.46.46,0,0,0,.45-.46.45.45,0,0,0-.45-.45.46.46,0,0,0-.46.45A.47.47,0,0,0,221.36,176.37Z"/><path class="cls-5" d="M219.51,176.37a.47.47,0,0,0,.46-.46.46.46,0,0,0-.46-.45.45.45,0,0,0-.45.45A.46.46,0,0,0,219.51,176.37Z"/><path class="cls-5" d="M217.66,176.37a.46.46,0,0,0,.46-.46.46.46,0,0,0-.91,0A.46.46,0,0,0,217.66,176.37Z"/><circle class="cls-5" cx="215.82" cy="175.91" r="0.46"/><circle class="cls-5" cx="213.97" cy="175.91" r="0.46"/><path class="cls-6" d="M280,24.79H241.72A8.24,8.24,0,0,0,233.48,33V53.67a8.25,8.25,0,0,0,8.24,8.25h.43V73.38a2.12,2.12,0,0,0,3.61,1.5l13-13H280a8.25,8.25,0,0,0,8.25-8.25V33A8.25,8.25,0,0,0,280,24.79Z"/><path class="cls-6" d="M9.67,100.93c-.2-6.88,9.94-5.64,13.68-8.63,2.44-2,1.91-5.82,4.45-7.63,2.77-2,5.84.7,8.62,1.17,5.78,1,10.11-5.75,15.87-4.61,6,1.19,4.62,9.86,9.88,11.56,2.2.71,4.55-.46,6.79-.2a6.71,6.71,0,0,1,3.64,1.64,14.38,14.38,0,0,1,3.87,6.7Z"/><rect class="cls-5" x="56.54" y="6.16" width="97.03" height="217.55" rx="8.25"/><rect class="cls-7" x="59.97" y="26.75" width="90.16" height="176.38" rx="0.23"/><path class="cls-6" d="M172.31,67.27c-15.83-7.17-33.22,9.67-49.33,1.62-.51-.25-.15-1.07.37-.81C139.5,76.14,157,59,173,66.6Z"/><path class="cls-1" d="M109.29,175.2c-2.73,1.5-3.19,14-3.17,16.64s-.22,6.91,3.18,7.15c2.15.14,4.62-.73,6.71-1.13l6.93-1.31c0,.13,0,.27.09.41.12.56,1,.25.84-.3l-.09-.41a.46.46,0,0,0-.14-.68c-1.52-2.93-2.45-6.92-.91-12.55.08-.3-.17-.52-.48-.52l-8.11-.24C112.45,182.22,110.85,174.35,109.29,175.2Z"/><circle class="cls-1" cx="186.19" cy="34.46" r="12.16"/><path class="cls-8" d="M166.31,26.93c2.3,2.2,5,4.18,8.19,4.67s5.58-1.15,8.57-2c2.82-.81,4.91.44,7.16,2a7.69,7.69,0,0,1,1.77,2c.21.26.39.58.73.71s2.49-.65,3.16,1c.79,1.94-.54,3.55-2.75,3.49-.35,0-.49.44-.33.7,2.13,3.37,5.23,3.93,7.71.56a14.17,14.17,0,0,0,2.53-11.15,9.3,9.3,0,0,1-.56-3.07c.19-1.42,1.57-2.27,2.63-3.09a21.42,21.42,0,0,0,5.14-5.09,11.86,11.86,0,0,0,.25-11.89A11.52,11.52,0,0,0,200.86,0c-3.66-.18-8.34,1-10.49,4.19-1.32,2-1.7,4.42-3,6.45-1.63,2.66-3.36,1.89-6,1.74-3.6-.2-5.93,1.34-6.57,4.86-.3,1.66-.41,4-2.19,4.79-1.37.61-3.2.38-4.66.62C165.34,23.12,164.71,25.41,166.31,26.93Z"/><path class="cls-9" d="M190.21,15.71c2.8,3,6.82,5,11,3.86.56-.15.86.69.31.84-4.45,1.18-8.83-.73-11.87-4C189.25,16,189.82,15.28,190.21,15.71Z"/><path class="cls-8" d="M200.66,23.11a.47.47,0,0,1,.37-.8c4.88.25,12.62.48,14.06-5.55.13-.56,1-.41.88.15-1.58,6.63-9.65,6.56-15.09,6.28l-.09,0,.06,0c2.56,1.94,6.37,3.81,9.3,1.55.46-.35,1,.39.51.74-3.27,2.52-7.49.58-10.39-1.6C199.87,23.58,200.25,23,200.66,23.11Z"/><path class="cls-2" d="M106.84,182.4c-.13-.91-.14-1.8-.19-2.68a.42.42,0,0,1,.5,0c4.3,3,8.87,6,14.27,6,.22,0,.5.14.49.4a25.42,25.42,0,0,0,1.42,8.81.45.45,0,0,1-.49.6,23.37,23.37,0,0,1-16-12.45A2.8,2.8,0,0,0,106.84,182.4Z"/><path class="cls-10" d="M103.61,175.17c.48,5.69,3.61,11.09,9.46,12.4,5.59,1.25,11.65-.38,14.14-5.87,1.47-3.23,2.19-6.71,3.85-9.88a29.51,29.51,0,0,1,7-8.86c.41-.34.91-.71,1.47-1.11a44.41,44.41,0,0,1,21.59-7.8c3.28-.29,6.55-.61,9.78-1.2,7.34-1.34,14.79-3.74,21-8a30,30,0,0,0,12.19-16.65A31.71,31.71,0,0,0,201.24,104a.35.35,0,0,0-.51-.12.42.42,0,0,0-.5-.57c-9.62,3.19-19.92,3.6-29.9,4.88-.2,0-.42.22-.37.44,1.38,7.15-3.05,12.23-8.88,15.67-5.49,3.24-12.15,5.58-18.12,7.74C124.2,138.85,114.28,144,108,156.78,105.28,162.4,103.07,168.83,103.61,175.17Z"/><path class="cls-1" d="M121.15,99.49a20.15,20.15,0,0,0-2.49-1c.91-3.07,2-6.1,2.65-9.24a.46.46,0,0,0,.22-.84l-.17-.1a.51.51,0,0,0-.39-.21c-3.12-1.56-14.83-5.71-17.82-3.83-2.56-.52-4.89-.18-6,2.51,0,0,0,0,0,.08-1.24.15-2.52.58-2.6,1.74-.16,2.24,3.26,2.79,4.75,3a34.74,34.74,0,0,1,4.87.76,31.35,31.35,0,0,1,3.38,1.29,21.28,21.28,0,0,1-3.3,0,3.78,3.78,0,0,0-2.9.64.46.46,0,0,0,0,.64c1.71,1.87,4.77,2.15,7.14,2.46a56.58,56.58,0,0,1,9.2,1.62.46.46,0,0,0,.72.24,21.31,21.31,0,0,1,2.35.94C121.2,100.51,121.67,99.74,121.15,99.49Z"/><path class="cls-11" d="M169.47,79.53c1.15-4.65,2.2-9.36,3.68-13.92a27.12,27.12,0,0,1,5.68-10.41c-1.11.69-2.15,1.45-3.06,2.14-9,6.76-15,16.7-24.34,23-5.1,3.43-11.11,6.34-17.28,7s-12.16-1.65-18-3.28c0-.06-4.19,15.18-4,15.27,9.41,5.26,20.57,6,31,4.06,7.77-1.44,16.85-4.11,23-9.61C166.34,88.91,168.3,84.24,169.47,79.53Z"/><path class="cls-2" d="M178.2,39.57a5.32,5.32,0,0,0,5.79-.75c.44-.37.94.37.5.74a6.18,6.18,0,0,1-6.66.83C177.31,40.14,177.68,39.32,178.2,39.57Z"/><path class="cls-2" d="M101.69,83.86a23.74,23.74,0,0,1,7.33,2,.45.45,0,0,1-.37.81,23.14,23.14,0,0,0-7.11-2C101,84.68,101.12,83.8,101.69,83.86Z"/><path class="cls-2" d="M97.1,86.25a44.44,44.44,0,0,1,8.83,2c.54.18.16,1-.38.81A43.5,43.5,0,0,0,97,87.13C96.38,87.06,96.53,86.18,97.1,86.25Z"/><path class="cls-3" d="M101.73,188.81l6.57,1.5a1.3,1.3,0,0,1,1,1l.61,2.72h0A23.48,23.48,0,0,0,122,192.31l.37-.15,4.22,11H86.45l15.08-7.92-1.36-4.75A1.33,1.33,0,0,1,101.73,188.81Z"/><path class="cls-4" d="M108.83,196.42c4.09,1.28,6.25-3.85,9.12-5.72a10.65,10.65,0,0,1,6.87-1.61,10.46,10.46,0,0,1,9.12,9.83.45.45,0,0,1-.89.08,9.53,9.53,0,0,0-13.26-8.27c-4,1.73-6.24,8.1-11.33,6.5C107.91,197.06,108.29,196.25,108.83,196.42Z"/><path class="cls-4" d="M99.16,196.25c1.35,1,3.25,2,5,1.49.54-.17.85.67.3.85-2.07.64-4.22-.46-5.86-1.66C98.12,196.59,98.69,195.91,99.16,196.25Z"/><path class="cls-4" d="M101.13,194.18a5.62,5.62,0,0,0,5.47.71c.51-.25.81.59.3.84a6.48,6.48,0,0,1-6.35-.87C100.13,194.48,100.7,193.79,101.13,194.18Z"/><path class="cls-12" d="M111.68,63.25c8.06-3.38,16.12,3.39,24.17,0V39.08c-8,3.38-16.11-3.38-24.17,0Z"/><path class="cls-13" d="M129.51,57.9c1.06,1.93,1,4.3,1.7,6.32-4.72.14-9.44-1.87-14.16-1.94.25-4.05,1.74-8.18,6.65-7.87A7.18,7.18,0,0,1,129.51,57.9Z"/><path class="cls-6" d="M100.28,35.83A30.57,30.57,0,0,1,124.15,34c.55.19.17,1-.37.82a29.65,29.65,0,0,0-23,1.73C100.28,36.82,99.76,36.09,100.28,35.83Z"/><path class="cls-3" d="M118.35,172.09c1.22-3.36,5.57-3.14,8.11-4.8,3.13-2,4.37-6,7.43-8.24,5.72-4.15,12.84-3.81,19.7-4.25,1.66-.11,4.93-.47,4.95-.43a44.19,44.19,0,0,0-19,7.48c-.56.4-1.06.77-1.47,1.11a29.51,29.51,0,0,0-7,8.86c-1.66,3.17-2.38,6.65-3.85,9.88a10.12,10.12,0,0,1-4.73,4.94,9.84,9.84,0,0,1-1.2-2.5q-1.11-3.24-2.2-6.48C118.48,175.91,117.68,173.94,118.35,172.09Z"/><path class="cls-14" d="M124.59,63.42a13,13,0,0,1,0-2.4c0-2.54-.74-5-2.8-6.48a6.92,6.92,0,0,1,1.86-.13,7.18,7.18,0,0,1,5.81,3.49c1.06,1.93,1,4.3,1.7,6.32A28.27,28.27,0,0,1,124.59,63.42Z"/><circle class="cls-1" cx="124.15" cy="51.81" r="3.21"/><path class="cls-8" d="M123.27,44.59a.22.22,0,0,1,.11,0l.07-.08c.87-1.18,1.18-2.25,2.84-2.51A2.88,2.88,0,0,1,129.06,43,2.42,2.42,0,0,1,128,46.86a4,4,0,0,1-.77,5.82c.54-2.81-2.39-4.36-4.78-3.2A3.18,3.18,0,0,0,121,51.2C120.89,51.55,118.82,46.38,123.27,44.59Z"/><path class="cls-2" d="M123.14,52.48a1.42,1.42,0,0,0,1.94.24.45.45,0,0,1,.51.74,2.33,2.33,0,0,1-3.18-.47C122.05,52.54,122.79,52,123.14,52.48Z"/><path class="cls-9" d="M126.44,46.71s2.45-2.61,1-4.67a2.8,2.8,0,0,1,1.6,1A2.42,2.42,0,0,1,128,46.86a4,4,0,0,1-.77,5.82S129,49,126.44,46.71Z"/><polygon class="cls-15" points="19.33 177.99 79.36 177.78 60.04 155.42 0 155.63 19.33 177.99"/><polygon class="cls-16" points="21.05 166.85 81.08 166.65 61.76 144.29 1.72 144.5 21.05 166.85"/><path class="cls-15" d="M29.38,156l5.15-4c.45-.36,1,.37.52.72l-4.53,3.55,5.16,2.18a.45.45,0,0,1-.35.82l-5.86-2.47A.45.45,0,0,1,29.38,156Z"/><path class="cls-15" d="M52.25,155.19,47,159.05c-.47.34-1-.4-.51-.74l4.65-3.4L46,152.57a.45.45,0,0,1,.38-.81l5.78,2.65A.46.46,0,0,1,52.25,155.19Z"/><path class="cls-15" d="M38.32,152.58l5.52,5.62c.4.41-.16,1.11-.56.7l-5.51-5.61C37.37,152.88,37.92,152.17,38.32,152.58Z"/><path class="cls-15" d="M35.47,17.48H73.71A8.24,8.24,0,0,1,82,25.73V46.36a8.24,8.24,0,0,1-8.24,8.24h-.43V66.07a2.12,2.12,0,0,1-3.61,1.5l-13-13H35.47a8.24,8.24,0,0,1-8.25-8.24V25.73A8.25,8.25,0,0,1,35.47,17.48Z"/><path class="cls-12" d="M60,110.19a17.34,17.34,0,0,1,2.27-.91c5.38-1.61,7.78,3.37,11.14,6.43,1.26,1.15,2.91,2.28,4.71,2.1s3-1.54,4.19-2.67c1.52-1.41,3.13-2.48,5.29-2.32,5.3.38,7.62,5.78,9.64,9.89,1.59,3.25,4.19,5.27,8.31,4.8,9.59-1.08,12.71,3.68,12.48,7.09H60Z"/><path class="cls-12" d="M105.05,207.44a6.28,6.28,0,1,1-6.28,6.28,6.28,6.28,0,0,1,6.28-6.28m0-.75a7,7,0,1,0,7,7,7,7,0,0,0-7-7Z"/><path class="cls-12" d="M116.8,17H93.3a.38.38,0,0,1,0-.75h23.5a.38.38,0,1,1,0,.75Z"/><path class="cls-12" d="M89.16,17.74a1.16,1.16,0,1,1,1.15-1.15A1.16,1.16,0,0,1,89.16,17.74Zm0-1.56a.41.41,0,1,0,.4.41A.4.4,0,0,0,89.16,16.18Z"/><path class="cls-17" d="M262,238.75a.46.46,0,0,0,.46-.45.46.46,0,0,0-.92,0A.46.46,0,0,0,262,238.75Z"/><path class="cls-17" d="M263.86,238.75a.45.45,0,0,0,.45-.45.46.46,0,0,0-.45-.46.47.47,0,0,0-.46.46A.46.46,0,0,0,263.86,238.75Z"/><path class="cls-17" d="M265.7,238.75a.45.45,0,0,0,.46-.45.46.46,0,1,0-.91,0A.45.45,0,0,0,265.7,238.75Z"/><path class="cls-17" d="M266.63,237a.46.46,0,0,0,.45-.46.45.45,0,0,0-.45-.45.46.46,0,0,0-.46.45A.47.47,0,0,0,266.63,237Z"/><path class="cls-17" d="M264.78,237a.47.47,0,0,0,.46-.46.46.46,0,0,0-.46-.45.45.45,0,0,0-.45.45A.46.46,0,0,0,264.78,237Z"/><path class="cls-17" d="M262.93,237a.46.46,0,0,0,.46-.46.46.46,0,0,0-.91,0A.46.46,0,0,0,262.93,237Z"/><path class="cls-17" d="M261.09,237a.46.46,0,0,0,.45-.46.46.46,0,0,0-.91,0A.46.46,0,0,0,261.09,237Z"/><path class="cls-17" d="M259.24,237a.47.47,0,0,0,.46-.46.46.46,0,0,0-.92,0A.47.47,0,0,0,259.24,237Z"/><path class="cls-17" d="M254.62,235.22a.46.46,0,1,0,0-.91.46.46,0,0,0,0,.91Z"/><path class="cls-17" d="M256.47,235.22a.46.46,0,0,0,0-.91.46.46,0,1,0,0,.91Z"/><path class="cls-17" d="M258.32,235.22a.46.46,0,1,0-.46-.45A.45.45,0,0,0,258.32,235.22Z"/><path class="cls-17" d="M260.16,235.22a.46.46,0,1,0-.45-.45A.45.45,0,0,0,260.16,235.22Z"/><path class="cls-17" d="M262,234.31a.46.46,0,1,0,.46.46A.46.46,0,0,0,262,234.31Z"/><path class="cls-17" d="M263.86,234.31a.46.46,0,1,0,0,.91.46.46,0,0,0,0-.91Z"/><path class="cls-17" d="M265.7,234.31a.46.46,0,1,0,.46.46A.45.45,0,0,0,265.7,234.31Z"/><path class="cls-17" d="M267.55,234.31a.46.46,0,0,0,0,.91.46.46,0,1,0,0-.91Z"/><path class="cls-17" d="M266.63,232.54a.46.46,0,1,0,0,.92.46.46,0,0,0,0-.92Z"/><path class="cls-17" d="M264.78,232.54a.46.46,0,0,0,0,.92.46.46,0,1,0,0-.92Z"/><path class="cls-17" d="M262.93,232.54a.46.46,0,1,0,.46.46A.46.46,0,0,0,262.93,232.54Z"/><path class="cls-17" d="M261.09,232.54a.46.46,0,1,0,.45.46A.46.46,0,0,0,261.09,232.54Z"/><path class="cls-17" d="M259.24,232.54a.46.46,0,1,0,.46.46A.47.47,0,0,0,259.24,232.54Z"/><path class="cls-17" d="M257.39,233.46a.46.46,0,1,0,0-.92.46.46,0,0,0,0,.92Z"/><path class="cls-17" d="M255.54,233.46a.46.46,0,1,0-.45-.46A.46.46,0,0,0,255.54,233.46Z"/><path class="cls-17" d="M253.7,233.46a.46.46,0,0,0,0-.92.46.46,0,1,0,0,.92Z"/><path class="cls-17" d="M251.85,233.46a.46.46,0,1,0-.46-.46A.47.47,0,0,0,251.85,233.46Z"/><path class="cls-17" d="M250,233.46a.46.46,0,0,0,0-.92.46.46,0,0,0,0,.92Z"/><path class="cls-17" d="M247.23,231.69a.46.46,0,1,0,0-.91.46.46,0,0,0,0,.91Z"/><path class="cls-17" d="M249.08,231.69a.46.46,0,1,0-.46-.46A.46.46,0,0,0,249.08,231.69Z"/><path class="cls-17" d="M250.93,231.69a.46.46,0,1,0-.46-.46A.45.45,0,0,0,250.93,231.69Z"/><path class="cls-17" d="M252.77,231.69a.46.46,0,1,0-.45-.46A.45.45,0,0,0,252.77,231.69Z"/><path class="cls-17" d="M254.62,230.78a.46.46,0,0,0,0,.91.46.46,0,1,0,0-.91Z"/><path class="cls-17" d="M256.47,230.78a.46.46,0,1,0,0,.91.46.46,0,0,0,0-.91Z"/><path class="cls-17" d="M258.32,230.78a.46.46,0,1,0,.45.45A.45.45,0,0,0,258.32,230.78Z"/><path class="cls-17" d="M260.16,230.78a.46.46,0,1,0,.46.45A.45.45,0,0,0,260.16,230.78Z"/><path class="cls-17" d="M262,230.78a.46.46,0,1,0,.46.45A.46.46,0,0,0,262,230.78Z"/><path class="cls-17" d="M251.85,229a.47.47,0,0,0-.46.46.46.46,0,0,0,.92,0A.47.47,0,0,0,251.85,229Z"/><path class="cls-17" d="M250,229a.46.46,0,0,0-.45.46.45.45,0,0,0,.45.45.46.46,0,0,0,.46-.45A.47.47,0,0,0,250,229Z"/><path class="cls-17" d="M248.16,229.92a.45.45,0,0,0,.45-.45.46.46,0,1,0-.91,0A.45.45,0,0,0,248.16,229.92Z"/><path class="cls-17" d="M246.31,229.92a.45.45,0,0,0,.45-.45.46.46,0,0,0-.45-.46.47.47,0,0,0-.46.46A.46.46,0,0,0,246.31,229.92Z"/><path class="cls-17" d="M257.4,239.61a.46.46,0,1,0,0,.91.46.46,0,0,0,0-.91Z"/><path class="cls-17" d="M255.55,239.61a.46.46,0,1,0,.46.45A.46.46,0,0,0,255.55,239.61Z"/><path class="cls-17" d="M253.7,239.61a.46.46,0,1,0,.46.45A.45.45,0,0,0,253.7,239.61Z"/><path class="cls-17" d="M251.86,239.61a.46.46,0,1,0,.45.45A.45.45,0,0,0,251.86,239.61Z"/><path class="cls-17" d="M250,239.61a.46.46,0,1,0,0,.91.46.46,0,0,0,0-.91Z"/><path class="cls-17" d="M248.16,239.61a.46.46,0,0,0,0,.91.46.46,0,1,0,0-.91Z"/><path class="cls-17" d="M246.31,239.61a.46.46,0,1,0,.46.45A.45.45,0,0,0,246.31,239.61Z"/><circle class="cls-17" cx="244.47" cy="240.06" r="0.46"/><path class="cls-17" d="M236.15,237.84a.46.46,0,0,0-.45.46.46.46,0,0,0,.91,0A.46.46,0,0,0,236.15,237.84Z"/><path class="cls-17" d="M238,237.84a.46.46,0,0,0-.45.46.45.45,0,0,0,.45.45.46.46,0,0,0,.46-.45A.47.47,0,0,0,238,237.84Z"/><path class="cls-17" d="M239.85,237.84a.47.47,0,0,0-.46.46.46.46,0,0,0,.46.45.45.45,0,0,0,.45-.45A.46.46,0,0,0,239.85,237.84Z"/><path class="cls-17" d="M241.7,237.84a.46.46,0,0,0-.46.46.46.46,0,0,0,.91,0A.46.46,0,0,0,241.7,237.84Z"/><path class="cls-17" d="M243.54,237.84a.46.46,0,0,0-.45.46.46.46,0,0,0,.91,0A.46.46,0,0,0,243.54,237.84Z"/><path class="cls-17" d="M245.39,237.84a.47.47,0,0,0-.46.46.46.46,0,0,0,.92,0A.47.47,0,0,0,245.39,237.84Z"/><path class="cls-17" d="M247.24,237.84a.47.47,0,0,0-.46.46.46.46,0,0,0,.46.45.45.45,0,0,0,.45-.45A.46.46,0,0,0,247.24,237.84Z"/><path class="cls-17" d="M249.09,237.84a.46.46,0,0,0-.46.46.46.46,0,0,0,.91,0A.46.46,0,0,0,249.09,237.84Z"/><path class="cls-17" d="M250.93,237.84a.46.46,0,0,0-.45.46.45.45,0,0,0,.45.45.46.46,0,0,0,.46-.45A.47.47,0,0,0,250.93,237.84Z"/><path class="cls-17" d="M252.78,237.84a.47.47,0,0,0-.46.46.46.46,0,0,0,.92,0A.47.47,0,0,0,252.78,237.84Z"/><path class="cls-17" d="M254.63,237.84a.46.46,0,0,0-.46.46.46.46,0,0,0,.91,0A.46.46,0,0,0,254.63,237.84Z"/><path class="cls-17" d="M256.47,237.84a.46.46,0,0,0-.45.46.46.46,0,0,0,.91,0A.46.46,0,0,0,256.47,237.84Z"/><path class="cls-17" d="M258.32,237.84a.46.46,0,0,0-.45.46.45.45,0,0,0,.45.45.46.46,0,0,0,.46-.45A.47.47,0,0,0,258.32,237.84Z"/><path class="cls-17" d="M260.17,237.84a.47.47,0,0,0-.46.46.46.46,0,0,0,.46.45.45.45,0,0,0,.45-.45A.46.46,0,0,0,260.17,237.84Z"/><path class="cls-17" d="M257.4,236.08a.46.46,0,0,0-.46.45.47.47,0,0,0,.46.46.46.46,0,0,0,.45-.46A.45.45,0,0,0,257.4,236.08Z"/><path class="cls-17" d="M255.55,236.08a.46.46,0,0,0-.46.45.46.46,0,1,0,.92,0A.46.46,0,0,0,255.55,236.08Z"/><path class="cls-17" d="M253.7,236.08a.45.45,0,0,0-.45.45.46.46,0,1,0,.91,0A.45.45,0,0,0,253.7,236.08Z"/><path class="cls-17" d="M251.86,236.08a.45.45,0,0,0-.46.45.46.46,0,1,0,.91,0A.45.45,0,0,0,251.86,236.08Z"/><path class="cls-17" d="M250,236.08a.46.46,0,0,0-.46.45.47.47,0,0,0,.46.46.46.46,0,0,0,.45-.46A.45.45,0,0,0,250,236.08Z"/><path class="cls-17" d="M248.16,236.08a.45.45,0,0,0-.45.45.46.46,0,0,0,.45.46.47.47,0,0,0,.46-.46A.46.46,0,0,0,248.16,236.08Z"/><path class="cls-17" d="M246.31,236.08a.45.45,0,0,0-.45.45.46.46,0,1,0,.91,0A.45.45,0,0,0,246.31,236.08Z"/><path class="cls-17" d="M244.47,236.08a.45.45,0,0,0-.46.45.46.46,0,1,0,.91,0A.45.45,0,0,0,244.47,236.08Z"/><path class="cls-17" d="M242.62,236.08a.46.46,0,0,0-.46.45.46.46,0,0,0,.92,0A.46.46,0,0,0,242.62,236.08Z"/><path class="cls-17" d="M240.77,236.08a.45.45,0,0,0-.45.45.46.46,0,0,0,.45.46.47.47,0,0,0,.46-.46A.46.46,0,0,0,240.77,236.08Z"/><path class="cls-17" d="M238.92,236.08a.45.45,0,0,0-.45.45.46.46,0,1,0,.91,0A.45.45,0,0,0,238.92,236.08Z"/><path class="cls-17" d="M237.08,236.08a.46.46,0,0,0-.46.45.47.47,0,0,0,.46.46.46.46,0,0,0,.45-.46A.45.45,0,0,0,237.08,236.08Z"/><path class="cls-17" d="M235.23,236.08a.46.46,0,0,0-.46.45.46.46,0,0,0,.92,0A.46.46,0,0,0,235.23,236.08Z"/><path class="cls-17" d="M236.15,234.31a.46.46,0,1,0,.46.46A.45.45,0,0,0,236.15,234.31Z"/><path class="cls-17" d="M238,234.31a.46.46,0,0,0,0,.91.46.46,0,1,0,0-.91Z"/><path class="cls-17" d="M239.85,234.31a.46.46,0,1,0,0,.91.46.46,0,0,0,0-.91Z"/><path class="cls-17" d="M241.7,234.31a.46.46,0,1,0,.45.46A.45.45,0,0,0,241.7,234.31Z"/><path class="cls-17" d="M243.54,234.31a.46.46,0,1,0,.46.46A.45.45,0,0,0,243.54,234.31Z"/><path class="cls-17" d="M245.39,234.31a.46.46,0,1,0,.46.46A.46.46,0,0,0,245.39,234.31Z"/><path class="cls-17" d="M247.24,234.31a.46.46,0,1,0,0,.91.46.46,0,0,0,0-.91Z"/><path class="cls-17" d="M249.09,234.31a.46.46,0,1,0,.45.46A.45.45,0,0,0,249.09,234.31Z"/><path class="cls-17" d="M250.93,234.31a.46.46,0,0,0,0,.91.46.46,0,1,0,0-.91Z"/><path class="cls-17" d="M252.78,234.31a.46.46,0,1,0,.46.46A.46.46,0,0,0,252.78,234.31Z"/><path class="cls-17" d="M248.16,232.54a.46.46,0,0,0,0,.92.46.46,0,0,0,0-.92Z"/><path class="cls-17" d="M246.31,232.54a.46.46,0,1,0,.46.46A.46.46,0,0,0,246.31,232.54Z"/><path class="cls-17" d="M244.47,232.54a.46.46,0,1,0,.45.46A.46.46,0,0,0,244.47,232.54Z"/><path class="cls-17" d="M242.62,232.54a.46.46,0,1,0,.46.46A.47.47,0,0,0,242.62,232.54Z"/><path class="cls-17" d="M240.77,232.54a.46.46,0,0,0,0,.92.46.46,0,0,0,0-.92Z"/><path class="cls-17" d="M238.92,232.54a.46.46,0,1,0,.46.46A.46.46,0,0,0,238.92,232.54Z"/><path class="cls-17" d="M237.08,232.54a.46.46,0,0,0,0,.92.46.46,0,0,0,0-.92Z"/><path class="cls-17" d="M241.7,230.78a.46.46,0,1,0,.45.45A.45.45,0,0,0,241.7,230.78Z"/><path class="cls-17" d="M243.54,230.78a.46.46,0,1,0,.46.45A.45.45,0,0,0,243.54,230.78Z"/><path class="cls-17" d="M245.39,230.78a.46.46,0,1,0,.46.45A.46.46,0,0,0,245.39,230.78Z"/><path class="cls-17" d="M130,244.63a.45.45,0,0,0,.45-.45.46.46,0,0,0-.45-.46.47.47,0,0,0-.46.46A.46.46,0,0,0,130,244.63Z"/><path class="cls-17" d="M121.72,242.87a.46.46,0,0,0,.45-.46.46.46,0,0,0-.91,0A.46.46,0,0,0,121.72,242.87Z"/><path class="cls-17" d="M123.56,242.87a.46.46,0,0,0,.46-.46.46.46,0,0,0-.91,0A.46.46,0,0,0,123.56,242.87Z"/><path class="cls-17" d="M125.41,242.87a.47.47,0,0,0,.46-.46.46.46,0,0,0-.92,0A.47.47,0,0,0,125.41,242.87Z"/><path class="cls-17" d="M127.26,242.87a.46.46,0,0,0,.45-.46.45.45,0,0,0-.45-.45.46.46,0,0,0-.46.45A.47.47,0,0,0,127.26,242.87Z"/><path class="cls-17" d="M129.11,242.87a.46.46,0,0,0,.45-.46.46.46,0,0,0-.91,0A.46.46,0,0,0,129.11,242.87Z"/><path class="cls-17" d="M130,241.1a.46.46,0,0,0,0-.91.46.46,0,1,0,0,.91Z"/><path class="cls-17" d="M128.18,241.1a.46.46,0,1,0,0-.91.46.46,0,0,0,0,.91Z"/><path class="cls-17" d="M126.33,241.1a.46.46,0,1,0-.45-.45A.45.45,0,0,0,126.33,241.1Z"/><path class="cls-17" d="M124.49,241.1a.46.46,0,0,0,0-.91.46.46,0,1,0,0,.91Z"/><path class="cls-17" d="M122.64,241.1a.46.46,0,1,0-.46-.45A.46.46,0,0,0,122.64,241.1Z"/><path class="cls-17" d="M120.79,241.1a.46.46,0,1,0,0-.91.46.46,0,0,0,0,.91Z"/><path class="cls-17" d="M119,241.1a.46.46,0,1,0-.46-.45A.45.45,0,0,0,119,241.1Z"/><path class="cls-17" d="M114.33,239.34a.46.46,0,1,0-.46-.46A.46.46,0,0,0,114.33,239.34Z"/><path class="cls-17" d="M116.17,239.34a.46.46,0,1,0-.45-.46A.46.46,0,0,0,116.17,239.34Z"/><path class="cls-17" d="M118,239.34a.46.46,0,0,0,0-.92.46.46,0,0,0,0,.92Z"/><path class="cls-17" d="M119.87,239.34a.46.46,0,0,0,0-.92.46.46,0,0,0,0,.92Z"/><path class="cls-17" d="M121.72,239.34a.46.46,0,1,0-.46-.46A.46.46,0,0,0,121.72,239.34Z"/><path class="cls-17" d="M123.56,239.34a.46.46,0,1,0-.45-.46A.46.46,0,0,0,123.56,239.34Z"/><path class="cls-17" d="M125.41,239.34a.46.46,0,1,0-.46-.46A.47.47,0,0,0,125.41,239.34Z"/><path class="cls-17" d="M127.26,239.34a.46.46,0,0,0,0-.92.46.46,0,0,0,0,.92Z"/><path class="cls-17" d="M129.11,239.34a.46.46,0,1,0-.46-.46A.46.46,0,0,0,129.11,239.34Z"/><path class="cls-17" d="M131,239.34a.46.46,0,0,0,0-.92.46.46,0,0,0,0,.92Z"/><path class="cls-17" d="M131.88,237.57a.46.46,0,1,0-.46-.46A.45.45,0,0,0,131.88,237.57Z"/><path class="cls-17" d="M130,237.57a.46.46,0,0,0,0-.91.46.46,0,1,0,0,.91Z"/><path class="cls-17" d="M128.18,237.57a.46.46,0,1,0,0-.91.46.46,0,0,0,0,.91Z"/><path class="cls-17" d="M126.33,237.57a.46.46,0,1,0-.45-.46A.45.45,0,0,0,126.33,237.57Z"/><path class="cls-17" d="M124.49,237.57a.46.46,0,0,0,0-.91.46.46,0,1,0,0,.91Z"/><path class="cls-17" d="M122.64,237.57a.46.46,0,1,0-.46-.46A.46.46,0,0,0,122.64,237.57Z"/><path class="cls-17" d="M120.79,237.57a.46.46,0,1,0,0-.91.46.46,0,0,0,0,.91Z"/><path class="cls-17" d="M119,237.57a.46.46,0,1,0-.46-.46A.45.45,0,0,0,119,237.57Z"/><path class="cls-17" d="M117.1,237.57a.46.46,0,0,0,0-.91.46.46,0,1,0,0,.91Z"/><path class="cls-17" d="M115.25,237.57a.46.46,0,1,0-.46-.46A.46.46,0,0,0,115.25,237.57Z"/><path class="cls-17" d="M113.4,237.57a.46.46,0,1,0-.45-.46A.45.45,0,0,0,113.4,237.57Z"/><path class="cls-17" d="M111.56,237.57a.46.46,0,1,0-.46-.46A.45.45,0,0,0,111.56,237.57Z"/><path class="cls-17" d="M109.71,237.57a.46.46,0,0,0,0-.91.46.46,0,1,0,0,.91Z"/><path class="cls-17" d="M106.94,235.8a.45.45,0,0,0,.45-.45.46.46,0,0,0-.45-.46.47.47,0,0,0-.46.46A.46.46,0,0,0,106.94,235.8Z"/><path class="cls-17" d="M108.79,235.8a.45.45,0,0,0,.45-.45.46.46,0,1,0-.91,0A.45.45,0,0,0,108.79,235.8Z"/><path class="cls-17" d="M110.63,235.8a.46.46,0,0,0,.46-.45.47.47,0,0,0-.46-.46.46.46,0,0,0-.45.46A.45.45,0,0,0,110.63,235.8Z"/><path class="cls-17" d="M112.48,235.8a.46.46,0,0,0,.46-.45.46.46,0,0,0-.92,0A.46.46,0,0,0,112.48,235.8Z"/><path class="cls-17" d="M114.33,235.8a.45.45,0,0,0,.45-.45.46.46,0,1,0-.91,0A.45.45,0,0,0,114.33,235.8Z"/><path class="cls-17" d="M116.17,235.8a.45.45,0,0,0,.46-.45.46.46,0,1,0-.91,0A.45.45,0,0,0,116.17,235.8Z"/><path class="cls-17" d="M118,235.8a.46.46,0,0,0,.46-.45.47.47,0,0,0-.46-.46.46.46,0,0,0-.45.46A.45.45,0,0,0,118,235.8Z"/><path class="cls-17" d="M119.87,235.8a.45.45,0,0,0,.45-.45.46.46,0,0,0-.45-.46.47.47,0,0,0-.46.46A.46.46,0,0,0,119.87,235.8Z"/><path class="cls-17" d="M121.72,235.8a.45.45,0,0,0,.45-.45.46.46,0,1,0-.91,0A.45.45,0,0,0,121.72,235.8Z"/><path class="cls-17" d="M123.56,235.8a.45.45,0,0,0,.46-.45.46.46,0,1,0-.91,0A.45.45,0,0,0,123.56,235.8Z"/><path class="cls-17" d="M125.41,235.8a.46.46,0,0,0,.46-.45.46.46,0,0,0-.92,0A.46.46,0,0,0,125.41,235.8Z"/><path class="cls-17" d="M127.26,235.8a.45.45,0,0,0,.45-.45.46.46,0,0,0-.45-.46.47.47,0,0,0-.46.46A.46.46,0,0,0,127.26,235.8Z"/><path class="cls-17" d="M129.11,235.8a.45.45,0,0,0,.45-.45.46.46,0,1,0-.91,0A.45.45,0,0,0,129.11,235.8Z"/><path class="cls-17" d="M131,235.8a.46.46,0,0,0,.46-.45.47.47,0,0,0-.46-.46.46.46,0,0,0-.45.46A.45.45,0,0,0,131,235.8Z"/><path class="cls-17" d="M132.8,235.8a.46.46,0,0,0,.46-.45.46.46,0,1,0-.92,0A.46.46,0,0,0,132.8,235.8Z"/><path class="cls-17" d="M130,234a.46.46,0,0,0,.45-.46.45.45,0,0,0-.45-.45.46.46,0,0,0-.46.45A.47.47,0,0,0,130,234Z"/><path class="cls-17" d="M128.18,234a.47.47,0,0,0,.46-.46.46.46,0,0,0-.46-.45.45.45,0,0,0-.45.45A.46.46,0,0,0,128.18,234Z"/><path class="cls-17" d="M126.33,234a.46.46,0,0,0,.46-.46.46.46,0,0,0-.91,0A.46.46,0,0,0,126.33,234Z"/><path class="cls-17" d="M124.49,234a.46.46,0,0,0,.45-.46.45.45,0,0,0-.45-.45.46.46,0,0,0-.46.45A.47.47,0,0,0,124.49,234Z"/><path class="cls-17" d="M122.64,234a.47.47,0,0,0,.46-.46.46.46,0,0,0-.92,0A.47.47,0,0,0,122.64,234Z"/><path class="cls-17" d="M120.79,234a.47.47,0,0,0,.46-.46.46.46,0,0,0-.46-.45.45.45,0,0,0-.45.45A.46.46,0,0,0,120.79,234Z"/><path class="cls-17" d="M119,234a.46.46,0,0,0,.45-.46.46.46,0,0,0-.91,0A.46.46,0,0,0,119,234Z"/><path class="cls-17" d="M117.1,234a.46.46,0,0,0,.45-.46.45.45,0,0,0-.45-.45.46.46,0,0,0-.46.45A.47.47,0,0,0,117.1,234Z"/><path class="cls-17" d="M115.25,234a.47.47,0,0,0,.46-.46.46.46,0,0,0-.92,0A.47.47,0,0,0,115.25,234Z"/><path class="cls-17" d="M113.4,234a.46.46,0,0,0,.46-.46.46.46,0,0,0-.91,0A.46.46,0,0,0,113.4,234Z"/><path class="cls-17" d="M111.56,234a.46.46,0,0,0,.45-.46.46.46,0,0,0-.91,0A.46.46,0,0,0,111.56,234Z"/><path class="cls-17" d="M109.71,234a.46.46,0,0,0,.45-.46.45.45,0,0,0-.45-.45.46.46,0,0,0-.46.45A.47.47,0,0,0,109.71,234Z"/><path class="cls-17" d="M107.86,234a.47.47,0,0,0,.46-.46.46.46,0,0,0-.46-.45.45.45,0,0,0-.45.45A.46.46,0,0,0,107.86,234Z"/><path class="cls-17" d="M106,234a.46.46,0,0,0,.46-.46.46.46,0,0,0-.91,0A.46.46,0,0,0,106,234Z"/><path class="cls-17" d="M104.17,234a.46.46,0,0,0,.45-.46.46.46,0,0,0-.91,0A.46.46,0,0,0,104.17,234Z"/><path class="cls-17" d="M101.4,232.27a.46.46,0,1,0-.46-.45A.45.45,0,0,0,101.4,232.27Z"/><path class="cls-17" d="M103.24,232.27a.46.46,0,1,0-.45-.45A.45.45,0,0,0,103.24,232.27Z"/><path class="cls-17" d="M105.09,232.27a.46.46,0,1,0-.46-.45A.46.46,0,0,0,105.09,232.27Z"/><path class="cls-17" d="M106.94,232.27a.46.46,0,0,0,0-.91.46.46,0,1,0,0,.91Z"/><path class="cls-17" d="M108.79,232.27a.46.46,0,1,0-.46-.45A.45.45,0,0,0,108.79,232.27Z"/><path class="cls-17" d="M110.63,232.27a.46.46,0,1,0,0-.91.46.46,0,0,0,0,.91Z"/><path class="cls-17" d="M112.48,232.27a.46.46,0,1,0-.46-.45A.46.46,0,0,0,112.48,232.27Z"/><path class="cls-17" d="M114.33,232.27a.46.46,0,1,0-.46-.45A.45.45,0,0,0,114.33,232.27Z"/><path class="cls-17" d="M116.17,232.27a.46.46,0,1,0-.45-.45A.45.45,0,0,0,116.17,232.27Z"/><path class="cls-17" d="M118,232.27a.46.46,0,1,0,0-.91.46.46,0,0,0,0,.91Z"/><path class="cls-17" d="M98.62,230.51a.46.46,0,1,0-.45-.46A.46.46,0,0,0,98.62,230.51Z"/><path class="cls-17" d="M96.78,230.51a.46.46,0,0,0,0-.92.46.46,0,0,0,0,.92Z"/><path class="cls-17" d="M97.71,245.49a.46.46,0,1,0,0,.91.46.46,0,0,0,0-.91Z"/><path class="cls-17" d="M99.55,245.49a.46.46,0,1,0,.46.45A.45.45,0,0,0,99.55,245.49Z"/><path class="cls-17" d="M101.4,245.49a.46.46,0,0,0,0,.91.46.46,0,1,0,0-.91Z"/><path class="cls-17" d="M103.25,245.49a.46.46,0,1,0,0,.91.46.46,0,0,0,0-.91Z"/><path class="cls-17" d="M105.1,245.49a.46.46,0,1,0,.45.45A.45.45,0,0,0,105.1,245.49Z"/><path class="cls-17" d="M106.94,245.49a.46.46,0,1,0,.46.45A.45.45,0,0,0,106.94,245.49Z"/><path class="cls-17" d="M108.79,245.49a.46.46,0,1,0,.46.45A.46.46,0,0,0,108.79,245.49Z"/><path class="cls-17" d="M110.64,245.49a.46.46,0,1,0,0,.91.46.46,0,0,0,0-.91Z"/><path class="cls-17" d="M112.49,245.49a.46.46,0,1,0,.45.45A.45.45,0,0,0,112.49,245.49Z"/><path class="cls-17" d="M114.33,245.49a.46.46,0,0,0,0,.91.46.46,0,1,0,0-.91Z"/><path class="cls-17" d="M116.18,245.49a.46.46,0,1,0,.46.45A.46.46,0,0,0,116.18,245.49Z"/><path class="cls-17" d="M118,245.49a.46.46,0,1,0,0,.91.46.46,0,0,0,0-.91Z"/><path class="cls-17" d="M119.87,245.49a.46.46,0,1,0,.46.45A.45.45,0,0,0,119.87,245.49Z"/><path class="cls-17" d="M121.72,245.49a.46.46,0,0,0,0,.91.46.46,0,1,0,0-.91Z"/><path class="cls-17" d="M123.57,245.49a.46.46,0,1,0,.46.45A.46.46,0,0,0,123.57,245.49Z"/><path class="cls-17" d="M125.42,245.49a.46.46,0,1,0,.45.45A.45.45,0,0,0,125.42,245.49Z"/><path class="cls-17" d="M127.26,245.49a.46.46,0,1,0,.46.45A.45.45,0,0,0,127.26,245.49Z"/><path class="cls-17" d="M129.11,245.49a.46.46,0,1,0,.46.45A.46.46,0,0,0,129.11,245.49Z"/><path class="cls-17" d="M128.19,243.72a.47.47,0,0,0-.46.46.46.46,0,0,0,.46.45.45.45,0,0,0,.45-.45A.46.46,0,0,0,128.19,243.72Z"/><path class="cls-17" d="M126.34,243.72a.47.47,0,0,0-.46.46.46.46,0,0,0,.92,0A.47.47,0,0,0,126.34,243.72Z"/><path class="cls-17" d="M124.49,243.72a.46.46,0,0,0-.45.46.45.45,0,0,0,.45.45.46.46,0,0,0,.46-.45A.47.47,0,0,0,124.49,243.72Z"/><path class="cls-17" d="M122.65,243.72a.46.46,0,0,0-.46.46.46.46,0,0,0,.91,0A.46.46,0,0,0,122.65,243.72Z"/><path class="cls-17" d="M120.8,243.72a.47.47,0,0,0-.46.46.46.46,0,0,0,.46.45.45.45,0,0,0,.45-.45A.46.46,0,0,0,120.8,243.72Z"/><path class="cls-17" d="M119,243.72a.47.47,0,0,0-.46.46.46.46,0,0,0,.92,0A.47.47,0,0,0,119,243.72Z"/><path class="cls-17" d="M117.1,243.72a.46.46,0,0,0-.45.46.46.46,0,0,0,.91,0A.46.46,0,0,0,117.1,243.72Z"/><path class="cls-17" d="M115.26,243.72a.46.46,0,0,0-.46.46.46.46,0,0,0,.91,0A.46.46,0,0,0,115.26,243.72Z"/><path class="cls-17" d="M113.41,243.72a.47.47,0,0,0-.46.46.46.46,0,0,0,.92,0A.47.47,0,0,0,113.41,243.72Z"/><path class="cls-17" d="M111.56,243.72a.46.46,0,0,0-.45.46.45.45,0,0,0,.45.45.46.46,0,0,0,.46-.45A.47.47,0,0,0,111.56,243.72Z"/><path class="cls-17" d="M109.71,243.72a.46.46,0,0,0-.45.46.46.46,0,0,0,.91,0A.46.46,0,0,0,109.71,243.72Z"/><path class="cls-17" d="M107.87,243.72a.47.47,0,0,0-.46.46.46.46,0,0,0,.46.45.45.45,0,0,0,.45-.45A.46.46,0,0,0,107.87,243.72Z"/><path class="cls-17" d="M106,243.72a.47.47,0,0,0-.46.46.46.46,0,0,0,.92,0A.47.47,0,0,0,106,243.72Z"/><path class="cls-17" d="M104.17,243.72a.46.46,0,0,0-.45.46.45.45,0,0,0,.45.45.46.46,0,0,0,.46-.45A.47.47,0,0,0,104.17,243.72Z"/><path class="cls-17" d="M102.33,243.72a.46.46,0,0,0-.46.46.46.46,0,0,0,.91,0A.46.46,0,0,0,102.33,243.72Z"/><path class="cls-17" d="M100.48,243.72a.47.47,0,0,0-.46.46.46.46,0,0,0,.46.45.45.45,0,0,0,.45-.45A.46.46,0,0,0,100.48,243.72Z"/><path class="cls-17" d="M98.63,243.72a.47.47,0,0,0-.46.46.46.46,0,0,0,.92,0A.47.47,0,0,0,98.63,243.72Z"/><path class="cls-17" d="M96.78,243.72a.46.46,0,0,0-.45.46.46.46,0,0,0,.91,0A.46.46,0,0,0,96.78,243.72Z"/><path class="cls-17" d="M94.94,243.72a.46.46,0,0,0-.46.46.46.46,0,0,0,.91,0A.46.46,0,0,0,94.94,243.72Z"/><path class="cls-17" d="M93.09,243.72a.47.47,0,0,0-.46.46.46.46,0,0,0,.46.45.45.45,0,0,0,.45-.45A.46.46,0,0,0,93.09,243.72Z"/><path class="cls-17" d="M90.32,242a.46.46,0,0,0-.46.45.47.47,0,0,0,.46.46.46.46,0,0,0,.45-.46A.45.45,0,0,0,90.32,242Z"/><path class="cls-17" d="M92.17,242a.45.45,0,0,0-.46.45.46.46,0,1,0,.91,0A.45.45,0,0,0,92.17,242Z"/><path class="cls-17" d="M94,242a.45.45,0,0,0-.45.45.46.46,0,0,0,.45.46.47.47,0,0,0,.46-.46A.46.46,0,0,0,94,242Z"/><path class="cls-17" d="M95.86,242a.46.46,0,0,0-.46.45.46.46,0,1,0,.92,0A.46.46,0,0,0,95.86,242Z"/><circle class="cls-17" cx="97.71" cy="242.41" r="0.46"/><circle class="cls-17" cx="99.55" cy="242.41" r="0.46"/><circle class="cls-17" cx="101.4" cy="242.41" r="0.46"/><path class="cls-17" d="M103.25,242a.46.46,0,0,0-.46.45.47.47,0,0,0,.46.46.46.46,0,0,0,.45-.46A.45.45,0,0,0,103.25,242Z"/><path class="cls-17" d="M105.1,242a.45.45,0,0,0-.46.45.46.46,0,1,0,.91,0A.45.45,0,0,0,105.1,242Z"/><path class="cls-17" d="M106.94,242a.45.45,0,0,0-.45.45.46.46,0,1,0,.91,0A.45.45,0,0,0,106.94,242Z"/><path class="cls-17" d="M108.79,242a.46.46,0,0,0-.46.45.46.46,0,1,0,.92,0A.46.46,0,0,0,108.79,242Z"/><path class="cls-17" d="M110.64,242a.46.46,0,0,0-.46.45.47.47,0,0,0,.46.46.46.46,0,0,0,.45-.46A.45.45,0,0,0,110.64,242Z"/><path class="cls-17" d="M112.49,242a.45.45,0,0,0-.46.45.46.46,0,1,0,.91,0A.45.45,0,0,0,112.49,242Z"/><path class="cls-17" d="M114.33,242a.45.45,0,0,0-.45.45.46.46,0,0,0,.45.46.47.47,0,0,0,.46-.46A.46.46,0,0,0,114.33,242Z"/><path class="cls-17" d="M116.18,242a.46.46,0,0,0-.46.45.46.46,0,1,0,.92,0A.46.46,0,0,0,116.18,242Z"/><path class="cls-17" d="M118,242a.46.46,0,0,0-.46.45.47.47,0,0,0,.46.46.46.46,0,0,0,.45-.46A.45.45,0,0,0,118,242Z"/><path class="cls-17" d="M119.87,242a.45.45,0,0,0-.45.45.46.46,0,1,0,.91,0A.45.45,0,0,0,119.87,242Z"/><path class="cls-17" d="M117.1,240.19a.46.46,0,1,0,.46.46A.45.45,0,0,0,117.1,240.19Z"/><path class="cls-17" d="M115.26,240.19a.46.46,0,1,0,.45.46A.45.45,0,0,0,115.26,240.19Z"/><path class="cls-17" d="M113.41,240.19a.46.46,0,1,0,.46.46A.46.46,0,0,0,113.41,240.19Z"/><path class="cls-17" d="M111.56,240.19a.46.46,0,0,0,0,.91.46.46,0,1,0,0-.91Z"/><path class="cls-17" d="M109.71,240.19a.46.46,0,1,0,.46.46A.45.45,0,0,0,109.71,240.19Z"/><path class="cls-17" d="M107.87,240.19a.46.46,0,1,0,0,.91.46.46,0,0,0,0-.91Z"/><path class="cls-17" d="M106,240.19a.46.46,0,1,0,.46.46A.46.46,0,0,0,106,240.19Z"/><path class="cls-17" d="M104.17,240.19a.46.46,0,0,0,0,.91.46.46,0,1,0,0-.91Z"/><circle class="cls-17" cx="102.33" cy="240.65" r="0.46"/><circle class="cls-17" cx="100.48" cy="240.65" r="0.46"/><circle class="cls-17" cx="98.63" cy="240.65" r="0.46"/><path class="cls-17" d="M96.78,240.19a.46.46,0,1,0,.46.46A.45.45,0,0,0,96.78,240.19Z"/><path class="cls-17" d="M94.94,240.19a.46.46,0,1,0,.45.46A.45.45,0,0,0,94.94,240.19Z"/><path class="cls-17" d="M93.09,240.19a.46.46,0,1,0,0,.91.46.46,0,0,0,0-.91Z"/><path class="cls-17" d="M91.24,240.19a.46.46,0,0,0,0,.91.46.46,0,1,0,0-.91Z"/><path class="cls-17" d="M89.39,240.19a.46.46,0,1,0,.46.46A.45.45,0,0,0,89.39,240.19Z"/><path class="cls-17" d="M87.55,240.19a.46.46,0,1,0,.45.46A.45.45,0,0,0,87.55,240.19Z"/><path class="cls-17" d="M85.7,240.19a.46.46,0,1,0,.46.46A.46.46,0,0,0,85.7,240.19Z"/><path class="cls-17" d="M82.93,238.42a.46.46,0,0,0,0,.92.46.46,0,0,0,0-.92Z"/><path class="cls-17" d="M84.78,238.42a.46.46,0,1,0,.45.46A.46.46,0,0,0,84.78,238.42Z"/><path class="cls-17" d="M86.62,238.42a.46.46,0,1,0,.46.46A.46.46,0,0,0,86.62,238.42Z"/><path class="cls-17" d="M88.47,238.42a.46.46,0,1,0,.46.46A.47.47,0,0,0,88.47,238.42Z"/><path class="cls-17" d="M90.32,238.42a.46.46,0,0,0,0,.92.46.46,0,0,0,0-.92Z"/><path class="cls-17" d="M92.17,238.42a.46.46,0,1,0,.45.46A.46.46,0,0,0,92.17,238.42Z"/><path class="cls-17" d="M94,238.42a.46.46,0,0,0,0,.92.46.46,0,1,0,0-.92Z"/><path class="cls-17" d="M95.86,238.42a.46.46,0,1,0,.46.46A.47.47,0,0,0,95.86,238.42Z"/><circle class="cls-17" cx="97.71" cy="238.88" r="0.46"/><circle class="cls-17" cx="99.55" cy="238.88" r="0.46"/><circle class="cls-17" cx="101.4" cy="238.88" r="0.46"/><path class="cls-17" d="M103.25,238.42a.46.46,0,0,0,0,.92.46.46,0,0,0,0-.92Z"/><path class="cls-17" d="M105.1,238.42a.46.46,0,1,0,.45.46A.46.46,0,0,0,105.1,238.42Z"/><path class="cls-17" d="M106.94,238.42a.46.46,0,1,0,.46.46A.46.46,0,0,0,106.94,238.42Z"/><path class="cls-17" d="M108.79,238.42a.46.46,0,1,0,.46.46A.47.47,0,0,0,108.79,238.42Z"/><path class="cls-17" d="M110.64,238.42a.46.46,0,0,0,0,.92.46.46,0,0,0,0-.92Z"/><path class="cls-17" d="M112.49,238.42a.46.46,0,1,0,.45.46A.46.46,0,0,0,112.49,238.42Z"/><path class="cls-17" d="M107.87,236.66a.46.46,0,1,0,0,.91.46.46,0,0,0,0-.91Z"/><path class="cls-17" d="M106,236.66a.46.46,0,1,0,.46.45A.46.46,0,0,0,106,236.66Z"/><path class="cls-17" d="M104.17,236.66a.46.46,0,0,0,0,.91.46.46,0,1,0,0-.91Z"/><path class="cls-17" d="M102.33,236.66a.46.46,0,1,0,.45.45A.45.45,0,0,0,102.33,236.66Z"/><path class="cls-17" d="M100.48,236.66a.46.46,0,1,0,0,.91.46.46,0,0,0,0-.91Z"/><path class="cls-17" d="M98.63,236.66a.46.46,0,1,0,.46.45A.46.46,0,0,0,98.63,236.66Z"/><path class="cls-17" d="M96.78,236.66a.46.46,0,1,0,.46.45A.45.45,0,0,0,96.78,236.66Z"/><path class="cls-17" d="M94.94,236.66a.46.46,0,1,0,.45.45A.45.45,0,0,0,94.94,236.66Z"/><path class="cls-17" d="M93.09,236.66a.46.46,0,1,0,0,.91.46.46,0,0,0,0-.91Z"/><path class="cls-17" d="M91.24,236.66a.46.46,0,0,0,0,.91.46.46,0,1,0,0-.91Z"/><path class="cls-17" d="M89.39,236.66a.46.46,0,1,0,.46.45A.45.45,0,0,0,89.39,236.66Z"/><path class="cls-17" d="M87.55,236.66a.46.46,0,1,0,.45.45A.45.45,0,0,0,87.55,236.66Z"/><path class="cls-17" d="M85.7,236.66a.46.46,0,1,0,.46.45A.46.46,0,0,0,85.7,236.66Z"/><path class="cls-17" d="M83.85,236.66a.46.46,0,0,0,0,.91.46.46,0,1,0,0-.91Z"/><path class="cls-17" d="M82,236.66a.46.46,0,1,0,.45.45A.45.45,0,0,0,82,236.66Z"/><path class="cls-17" d="M80.16,236.66a.46.46,0,1,0,0,.91.46.46,0,0,0,0-.91Z"/><path class="cls-17" d="M78.31,236.66a.46.46,0,1,0,.46.45A.46.46,0,0,0,78.31,236.66Z"/><path class="cls-17" d="M70,234.89a.47.47,0,0,0-.46.46.46.46,0,0,0,.46.45.45.45,0,0,0,.45-.45A.46.46,0,0,0,70,234.89Z"/><path class="cls-17" d="M71.84,234.89a.46.46,0,0,0-.45.46.46.46,0,0,0,.91,0A.46.46,0,0,0,71.84,234.89Z"/><path class="cls-17" d="M73.69,234.89a.46.46,0,0,0-.45.46.45.45,0,0,0,.45.45.46.46,0,0,0,.46-.45A.47.47,0,0,0,73.69,234.89Z"/><path class="cls-17" d="M75.54,234.89a.47.47,0,0,0-.46.46.46.46,0,0,0,.92,0A.47.47,0,0,0,75.54,234.89Z"/><path class="cls-17" d="M77.39,234.89a.46.46,0,0,0-.46.46.46.46,0,0,0,.91,0A.46.46,0,0,0,77.39,234.89Z"/><path class="cls-17" d="M79.23,234.89a.46.46,0,0,0-.45.46.46.46,0,0,0,.91,0A.46.46,0,0,0,79.23,234.89Z"/><path class="cls-17" d="M81.08,234.89a.46.46,0,0,0-.45.46.45.45,0,0,0,.45.45.46.46,0,0,0,.46-.45A.47.47,0,0,0,81.08,234.89Z"/><path class="cls-17" d="M82.93,234.89a.47.47,0,0,0-.46.46.46.46,0,0,0,.46.45.45.45,0,0,0,.45-.45A.46.46,0,0,0,82.93,234.89Z"/><path class="cls-17" d="M84.78,234.89a.46.46,0,0,0-.46.46.46.46,0,0,0,.91,0A.46.46,0,0,0,84.78,234.89Z"/><path class="cls-17" d="M86.62,234.89a.46.46,0,0,0-.45.46.46.46,0,0,0,.91,0A.46.46,0,0,0,86.62,234.89Z"/><path class="cls-17" d="M88.47,234.89a.47.47,0,0,0-.46.46.46.46,0,0,0,.92,0A.47.47,0,0,0,88.47,234.89Z"/><path class="cls-17" d="M90.32,234.89a.47.47,0,0,0-.46.46.46.46,0,0,0,.46.45.45.45,0,0,0,.45-.45A.46.46,0,0,0,90.32,234.89Z"/><path class="cls-17" d="M92.17,234.89a.46.46,0,0,0-.46.46.46.46,0,0,0,.91,0A.46.46,0,0,0,92.17,234.89Z"/><path class="cls-17" d="M94,234.89a.46.46,0,0,0-.45.46.45.45,0,0,0,.45.45.46.46,0,0,0,.46-.45A.47.47,0,0,0,94,234.89Z"/><path class="cls-17" d="M95.86,234.89a.47.47,0,0,0-.46.46.46.46,0,0,0,.92,0A.47.47,0,0,0,95.86,234.89Z"/><path class="cls-17" d="M97.71,234.89a.47.47,0,0,0-.46.46.46.46,0,0,0,.46.45.45.45,0,0,0,.45-.45A.46.46,0,0,0,97.71,234.89Z"/><path class="cls-17" d="M99.55,234.89a.46.46,0,0,0-.45.46.46.46,0,0,0,.91,0A.46.46,0,0,0,99.55,234.89Z"/><path class="cls-17" d="M101.4,234.89a.46.46,0,0,0-.45.46.45.45,0,0,0,.45.45.46.46,0,0,0,.46-.45A.47.47,0,0,0,101.4,234.89Z"/><path class="cls-17" d="M103.25,234.89a.47.47,0,0,0-.46.46.46.46,0,0,0,.46.45.45.45,0,0,0,.45-.45A.46.46,0,0,0,103.25,234.89Z"/><path class="cls-17" d="M105.1,234.89a.46.46,0,0,0-.46.46.46.46,0,0,0,.91,0A.46.46,0,0,0,105.1,234.89Z"/><path class="cls-17" d="M102.33,233.13a.45.45,0,0,0-.46.45.46.46,0,1,0,.91,0A.45.45,0,0,0,102.33,233.13Z"/><path class="cls-17" d="M100.48,233.13a.46.46,0,0,0-.46.45.47.47,0,0,0,.46.46.46.46,0,0,0,.45-.46A.45.45,0,0,0,100.48,233.13Z"/><path class="cls-17" d="M98.63,233.13a.46.46,0,0,0-.46.45.46.46,0,0,0,.92,0A.46.46,0,0,0,98.63,233.13Z"/><path class="cls-17" d="M96.78,233.13a.45.45,0,0,0-.45.45.46.46,0,1,0,.91,0A.45.45,0,0,0,96.78,233.13Z"/><path class="cls-17" d="M94.94,233.13a.45.45,0,0,0-.46.45.46.46,0,1,0,.91,0A.45.45,0,0,0,94.94,233.13Z"/><path class="cls-17" d="M93.09,233.13a.46.46,0,0,0-.46.45.47.47,0,0,0,.46.46.46.46,0,0,0,.45-.46A.45.45,0,0,0,93.09,233.13Z"/><path class="cls-17" d="M91.24,233.13a.45.45,0,0,0-.45.45.46.46,0,0,0,.45.46.47.47,0,0,0,.46-.46A.46.46,0,0,0,91.24,233.13Z"/><path class="cls-17" d="M89.39,233.13a.45.45,0,0,0-.45.45.46.46,0,1,0,.91,0A.45.45,0,0,0,89.39,233.13Z"/><path class="cls-17" d="M87.55,233.13a.45.45,0,0,0-.46.45.46.46,0,1,0,.91,0A.45.45,0,0,0,87.55,233.13Z"/><path class="cls-17" d="M85.7,233.13a.46.46,0,0,0-.46.45.46.46,0,1,0,.92,0A.46.46,0,0,0,85.7,233.13Z"/><path class="cls-17" d="M83.85,233.13a.45.45,0,0,0-.45.45.46.46,0,0,0,.45.46.47.47,0,0,0,.46-.46A.46.46,0,0,0,83.85,233.13Z"/><path class="cls-17" d="M82,233.13a.45.45,0,0,0-.46.45.46.46,0,1,0,.91,0A.45.45,0,0,0,82,233.13Z"/><path class="cls-17" d="M80.16,233.13a.46.46,0,0,0-.46.45.47.47,0,0,0,.46.46.46.46,0,0,0,.45-.46A.45.45,0,0,0,80.16,233.13Z"/><path class="cls-17" d="M78.31,233.13a.46.46,0,0,0-.46.45.46.46,0,1,0,.92,0A.46.46,0,0,0,78.31,233.13Z"/><path class="cls-17" d="M76.46,233.13a.45.45,0,0,0-.45.45.46.46,0,1,0,.91,0A.45.45,0,0,0,76.46,233.13Z"/><path class="cls-17" d="M74.62,233.13a.45.45,0,0,0-.46.45.46.46,0,1,0,.91,0A.45.45,0,0,0,74.62,233.13Z"/><path class="cls-17" d="M72.77,233.13a.46.46,0,0,0-.46.45.47.47,0,0,0,.46.46.46.46,0,0,0,.45-.46A.45.45,0,0,0,72.77,233.13Z"/><path class="cls-17" d="M70.92,233.13a.45.45,0,0,0-.45.45.46.46,0,0,0,.45.46.47.47,0,0,0,.46-.46A.46.46,0,0,0,70.92,233.13Z"/><path class="cls-17" d="M69.07,233.13a.45.45,0,0,0-.45.45.46.46,0,1,0,.91,0A.45.45,0,0,0,69.07,233.13Z"/><path class="cls-17" d="M67.23,233.13a.45.45,0,0,0-.46.45.46.46,0,1,0,.91,0A.45.45,0,0,0,67.23,233.13Z"/><path class="cls-17" d="M75.54,231.36a.46.46,0,1,0,.46.46A.46.46,0,0,0,75.54,231.36Z"/><path class="cls-17" d="M77.39,231.36a.46.46,0,1,0,.45.46A.45.45,0,0,0,77.39,231.36Z"/><path class="cls-17" d="M79.23,231.36a.46.46,0,1,0,.46.46A.45.45,0,0,0,79.23,231.36Z"/><path class="cls-17" d="M81.08,231.36a.46.46,0,0,0,0,.91.46.46,0,1,0,0-.91Z"/><path class="cls-17" d="M82.93,231.36a.46.46,0,1,0,0,.91.46.46,0,0,0,0-.91Z"/><path class="cls-17" d="M84.78,231.36a.46.46,0,1,0,.45.46A.45.45,0,0,0,84.78,231.36Z"/><path class="cls-17" d="M86.62,231.36a.46.46,0,1,0,.46.46A.45.45,0,0,0,86.62,231.36Z"/><path class="cls-17" d="M88.47,231.36a.46.46,0,1,0,.46.46A.46.46,0,0,0,88.47,231.36Z"/><path class="cls-17" d="M90.32,231.36a.46.46,0,1,0,0,.91.46.46,0,0,0,0-.91Z"/><path class="cls-17" d="M92.17,231.36a.46.46,0,1,0,.45.46A.45.45,0,0,0,92.17,231.36Z"/><path class="cls-17" d="M94,231.36a.46.46,0,0,0,0,.91.46.46,0,1,0,0-.91Z"/><path class="cls-17" d="M95.86,231.36a.46.46,0,1,0,.46.46A.46.46,0,0,0,95.86,231.36Z"/><path class="cls-17" d="M97.71,231.36a.46.46,0,1,0,0,.91.46.46,0,0,0,0-.91Z"/><path class="cls-17" d="M99.55,231.36a.46.46,0,1,0,.46.46A.45.45,0,0,0,99.55,231.36Z"/><path class="cls-17" d="M94.94,229.59a.46.46,0,1,0,.45.46A.46.46,0,0,0,94.94,229.59Z"/><path class="cls-17" d="M93.09,229.59a.46.46,0,0,0,0,.92.46.46,0,0,0,0-.92Z"/><path class="cls-17" d="M91.24,229.59a.46.46,0,0,0,0,.92.46.46,0,1,0,0-.92Z"/><path class="cls-17" d="M86.62,245.49a.46.46,0,1,0,.46.45A.45.45,0,0,0,86.62,245.49Z"/><path class="cls-17" d="M88.47,245.49a.46.46,0,1,0,.46.45A.46.46,0,0,0,88.47,245.49Z"/><path class="cls-17" d="M90.32,245.49a.46.46,0,1,0,0,.91.46.46,0,0,0,0-.91Z"/><path class="cls-17" d="M92.17,245.49a.46.46,0,1,0,.45.45A.45.45,0,0,0,92.17,245.49Z"/><path class="cls-17" d="M94,245.49a.46.46,0,0,0,0,.91.46.46,0,1,0,0-.91Z"/><path class="cls-17" d="M95.86,245.49a.46.46,0,1,0,.46.45A.46.46,0,0,0,95.86,245.49Z"/><path class="cls-17" d="M91.24,243.72a.46.46,0,0,0-.45.46.45.45,0,0,0,.45.45.46.46,0,0,0,.46-.45A.47.47,0,0,0,91.24,243.72Z"/><path class="cls-17" d="M89.39,243.72a.46.46,0,0,0-.45.46.46.46,0,0,0,.91,0A.46.46,0,0,0,89.39,243.72Z"/><path class="cls-17" d="M87.55,243.72a.46.46,0,0,0-.46.46.46.46,0,0,0,.91,0A.46.46,0,0,0,87.55,243.72Z"/><path class="cls-17" d="M85.7,243.72a.47.47,0,0,0-.46.46.46.46,0,0,0,.92,0A.47.47,0,0,0,85.7,243.72Z"/><path class="cls-17" d="M83.85,243.72a.46.46,0,0,0-.45.46.45.45,0,0,0,.45.45.46.46,0,0,0,.46-.45A.47.47,0,0,0,83.85,243.72Z"/><path class="cls-17" d="M82,243.72a.46.46,0,0,0-.46.46.46.46,0,0,0,.91,0A.46.46,0,0,0,82,243.72Z"/><path class="cls-17" d="M80.16,243.72a.47.47,0,0,0-.46.46.46.46,0,0,0,.46.45.45.45,0,0,0,.45-.45A.46.46,0,0,0,80.16,243.72Z"/><path class="cls-17" d="M78.31,243.72a.47.47,0,0,0-.46.46.46.46,0,0,0,.92,0A.47.47,0,0,0,78.31,243.72Z"/><path class="cls-17" d="M76.46,243.72a.46.46,0,0,0-.45.46.46.46,0,0,0,.91,0A.46.46,0,0,0,76.46,243.72Z"/><path class="cls-17" d="M74.62,243.72a.46.46,0,0,0-.46.46.46.46,0,0,0,.91,0A.46.46,0,0,0,74.62,243.72Z"/><path class="cls-17" d="M72.77,243.72a.47.47,0,0,0-.46.46.46.46,0,0,0,.46.45.45.45,0,0,0,.45-.45A.46.46,0,0,0,72.77,243.72Z"/><path class="cls-17" d="M70.92,243.72a.46.46,0,0,0-.45.46.45.45,0,0,0,.45.45.46.46,0,0,0,.46-.45A.47.47,0,0,0,70.92,243.72Z"/><path class="cls-17" d="M62.61,242a.46.46,0,0,0-.46.45.47.47,0,0,0,.46.46.46.46,0,0,0,.45-.46A.45.45,0,0,0,62.61,242Z"/><circle class="cls-17" cx="64.46" cy="242.41" r="0.46"/><circle class="cls-17" cx="66.3" cy="242.41" r="0.46"/><circle class="cls-17" cx="68.15" cy="242.41" r="0.46"/><path class="cls-17" d="M70,242a.46.46,0,0,0-.46.45.47.47,0,0,0,.46.46.46.46,0,0,0,.45-.46A.45.45,0,0,0,70,242Z"/><path class="cls-17" d="M71.84,242a.45.45,0,0,0-.45.45.46.46,0,1,0,.91,0A.45.45,0,0,0,71.84,242Z"/><path class="cls-17" d="M73.69,242a.45.45,0,0,0-.45.45.46.46,0,0,0,.45.46.47.47,0,0,0,.46-.46A.46.46,0,0,0,73.69,242Z"/><path class="cls-17" d="M75.54,242a.46.46,0,0,0-.46.45.46.46,0,1,0,.92,0A.46.46,0,0,0,75.54,242Z"/><path class="cls-17" d="M77.39,242a.45.45,0,0,0-.46.45.46.46,0,1,0,.91,0A.45.45,0,0,0,77.39,242Z"/><path class="cls-17" d="M79.23,242a.45.45,0,0,0-.45.45.46.46,0,1,0,.91,0A.45.45,0,0,0,79.23,242Z"/><path class="cls-17" d="M81.08,242a.45.45,0,0,0-.45.45.46.46,0,0,0,.45.46.47.47,0,0,0,.46-.46A.46.46,0,0,0,81.08,242Z"/><path class="cls-17" d="M82.93,242a.46.46,0,0,0-.46.45.47.47,0,0,0,.46.46.46.46,0,0,0,.45-.46A.45.45,0,0,0,82.93,242Z"/><path class="cls-17" d="M84.78,242a.45.45,0,0,0-.46.45.46.46,0,1,0,.91,0A.45.45,0,0,0,84.78,242Z"/><path class="cls-17" d="M86.62,242a.45.45,0,0,0-.45.45.46.46,0,1,0,.91,0A.45.45,0,0,0,86.62,242Z"/><path class="cls-17" d="M88.47,242a.46.46,0,0,0-.46.45.46.46,0,1,0,.92,0A.46.46,0,0,0,88.47,242Z"/><path class="cls-17" d="M83.85,240.19a.46.46,0,0,0,0,.91.46.46,0,1,0,0-.91Z"/><path class="cls-17" d="M82,240.19a.46.46,0,1,0,.45.46A.45.45,0,0,0,82,240.19Z"/><path class="cls-17" d="M80.16,240.19a.46.46,0,1,0,0,.91.46.46,0,0,0,0-.91Z"/><path class="cls-17" d="M78.31,240.19a.46.46,0,1,0,.46.46A.46.46,0,0,0,78.31,240.19Z"/><path class="cls-17" d="M76.46,240.19a.46.46,0,1,0,.46.46A.45.45,0,0,0,76.46,240.19Z"/><path class="cls-17" d="M74.62,240.19a.46.46,0,1,0,.45.46A.45.45,0,0,0,74.62,240.19Z"/><path class="cls-17" d="M72.77,240.19a.46.46,0,1,0,0,.91.46.46,0,0,0,0-.91Z"/><path class="cls-17" d="M70.92,240.19a.46.46,0,0,0,0,.91.46.46,0,1,0,0-.91Z"/><path class="cls-17" d="M69.07,240.19a.46.46,0,1,0,.46.46A.45.45,0,0,0,69.07,240.19Z"/><circle class="cls-17" cx="67.23" cy="240.65" r="0.46"/><circle class="cls-17" cx="65.38" cy="240.65" r="0.46"/><circle class="cls-17" cx="63.53" cy="240.65" r="0.46"/><path class="cls-17" d="M61.68,240.19a.46.46,0,1,0,.46.46A.45.45,0,0,0,61.68,240.19Z"/><path class="cls-17" d="M60.76,239.34a.46.46,0,0,0,0-.92.46.46,0,0,0,0,.92Z"/><path class="cls-17" d="M62.61,238.42a.46.46,0,1,0,0,.92.46.46,0,0,0,0-.92Z"/><circle class="cls-17" cx="64.46" cy="238.88" r="0.46"/><circle class="cls-17" cx="66.3" cy="238.88" r="0.46"/><circle class="cls-17" cx="68.15" cy="238.88" r="0.46"/><path class="cls-17" d="M70,238.42a.46.46,0,0,0,0,.92.46.46,0,0,0,0-.92Z"/><path class="cls-17" d="M71.84,238.42a.46.46,0,1,0,.46.46A.46.46,0,0,0,71.84,238.42Z"/><path class="cls-17" d="M73.69,238.42a.46.46,0,0,0,0,.92.46.46,0,0,0,0-.92Z"/><path class="cls-17" d="M75.54,238.42a.46.46,0,1,0,.46.46A.47.47,0,0,0,75.54,238.42Z"/><path class="cls-17" d="M77.39,238.42a.46.46,0,1,0,.45.46A.46.46,0,0,0,77.39,238.42Z"/><path class="cls-17" d="M79.23,238.42a.46.46,0,1,0,.46.46A.46.46,0,0,0,79.23,238.42Z"/><path class="cls-17" d="M81.08,238.42a.46.46,0,0,0,0,.92.46.46,0,0,0,0-.92Z"/><path class="cls-17" d="M76.46,236.66a.46.46,0,1,0,.46.45A.45.45,0,0,0,76.46,236.66Z"/><path class="cls-17" d="M74.62,236.66a.46.46,0,1,0,.45.45A.45.45,0,0,0,74.62,236.66Z"/><path class="cls-17" d="M72.77,236.66a.46.46,0,1,0,0,.91.46.46,0,0,0,0-.91Z"/><path class="cls-17" d="M70.92,236.66a.46.46,0,0,0,0,.91.46.46,0,1,0,0-.91Z"/><path class="cls-17" d="M69.07,236.66a.46.46,0,1,0,.46.45A.45.45,0,0,0,69.07,236.66Z"/><path class="cls-17" d="M67.23,236.66a.46.46,0,1,0,.45.45A.45.45,0,0,0,67.23,236.66Z"/><path class="cls-17" d="M65.38,236.66a.46.46,0,1,0,.46.45A.46.46,0,0,0,65.38,236.66Z"/><path class="cls-17" d="M63.53,236.66a.46.46,0,0,0,0,.91.46.46,0,1,0,0-.91Z"/><path class="cls-17" d="M61.68,236.66a.46.46,0,1,0,.46.45A.45.45,0,0,0,61.68,236.66Z"/><path class="cls-17" d="M59.84,237.57a.46.46,0,0,0,0-.91.46.46,0,1,0,0,.91Z"/><path class="cls-17" d="M62.61,234.89a.47.47,0,0,0-.46.46.46.46,0,0,0,.46.45.45.45,0,0,0,.45-.45A.46.46,0,0,0,62.61,234.89Z"/><path class="cls-17" d="M64.46,234.89a.46.46,0,0,0-.46.46.46.46,0,0,0,.91,0A.46.46,0,0,0,64.46,234.89Z"/><path class="cls-17" d="M66.3,234.89a.46.46,0,0,0-.45.46.46.46,0,0,0,.91,0A.46.46,0,0,0,66.3,234.89Z"/><path class="cls-17" d="M68.15,234.89a.47.47,0,0,0-.46.46.46.46,0,0,0,.92,0A.47.47,0,0,0,68.15,234.89Z"/><path class="cls-17" d="M142,239.34a.46.46,0,1,0-.46-.46A.47.47,0,0,0,142,239.34Z"/><path class="cls-17" d="M143.88,239.34a.46.46,0,0,0,0-.92.46.46,0,0,0,0,.92Z"/><path class="cls-17" d="M145.73,239.34a.46.46,0,1,0-.46-.46A.46.46,0,0,0,145.73,239.34Z"/><path class="cls-17" d="M143,237.57a.46.46,0,1,0-.45-.46A.45.45,0,0,0,143,237.57Z"/><path class="cls-17" d="M141.11,237.57a.46.46,0,1,0-.46-.46A.45.45,0,0,0,141.11,237.57Z"/><path class="cls-17" d="M139.26,237.57a.46.46,0,1,0-.46-.46A.46.46,0,0,0,139.26,237.57Z"/><path class="cls-17" d="M137.41,237.57a.46.46,0,1,0,0-.91.46.46,0,0,0,0,.91Z"/><path class="cls-17" d="M135.57,237.57a.46.46,0,1,0-.46-.46A.45.45,0,0,0,135.57,237.57Z"/><path class="cls-17" d="M133.72,237.57a.46.46,0,0,0,0-.91.46.46,0,1,0,0,.91Z"/><path class="cls-17" d="M134.64,235.8a.46.46,0,0,0,.46-.45.47.47,0,0,0-.46-.46.46.46,0,0,0-.45.46A.45.45,0,0,0,134.64,235.8Z"/><path class="cls-17" d="M136.49,235.8a.45.45,0,0,0,.45-.45.46.46,0,0,0-.45-.46.47.47,0,0,0-.46.46A.46.46,0,0,0,136.49,235.8Z"/><path class="cls-17" d="M138.34,235.8a.45.45,0,0,0,.45-.45.46.46,0,1,0-.91,0A.45.45,0,0,0,138.34,235.8Z"/><path class="cls-17" d="M144.81,243.72a.47.47,0,0,0-.46.46.46.46,0,0,0,.46.45.45.45,0,0,0,.45-.45A.46.46,0,0,0,144.81,243.72Z"/><path class="cls-17" d="M143,243.72a.47.47,0,0,0-.46.46.46.46,0,0,0,.92,0A.47.47,0,0,0,143,243.72Z"/><path class="cls-17" d="M141.11,243.72a.46.46,0,0,0-.45.46.45.45,0,0,0,.45.45.46.46,0,0,0,.46-.45A.47.47,0,0,0,141.11,243.72Z"/><path class="cls-17" d="M139.27,243.72a.46.46,0,0,0-.46.46.46.46,0,0,0,.91,0A.46.46,0,0,0,139.27,243.72Z"/><path class="cls-17" d="M137.42,243.72a.47.47,0,0,0-.46.46.46.46,0,0,0,.46.45.45.45,0,0,0,.45-.45A.46.46,0,0,0,137.42,243.72Z"/><path class="cls-17" d="M135.57,243.72a.47.47,0,0,0-.46.46.46.46,0,0,0,.92,0A.47.47,0,0,0,135.57,243.72Z"/><path class="cls-17" d="M133.72,243.72a.46.46,0,0,0-.45.46.46.46,0,0,0,.91,0A.46.46,0,0,0,133.72,243.72Z"/><path class="cls-17" d="M131.88,244.63a.45.45,0,0,0,.45-.45.46.46,0,1,0-.91,0A.45.45,0,0,0,131.88,244.63Z"/><path class="cls-17" d="M131,242.87a.47.47,0,0,0,.46-.46A.46.46,0,0,0,131,242a.45.45,0,0,0-.45.45A.46.46,0,0,0,131,242.87Z"/><path class="cls-17" d="M132.8,242.87a.47.47,0,0,0,.46-.46.46.46,0,0,0-.92,0A.47.47,0,0,0,132.8,242.87Z"/><path class="cls-17" d="M134.65,242a.46.46,0,0,0-.46.45.47.47,0,0,0,.46.46.46.46,0,0,0,.45-.46A.45.45,0,0,0,134.65,242Z"/><path class="cls-17" d="M136.49,242a.45.45,0,0,0-.45.45.46.46,0,1,0,.91,0A.45.45,0,0,0,136.49,242Z"/><path class="cls-17" d="M138.34,242a.45.45,0,0,0-.45.45.46.46,0,0,0,.45.46.47.47,0,0,0,.46-.46A.46.46,0,0,0,138.34,242Z"/><path class="cls-17" d="M140.19,242a.46.46,0,0,0-.46.45.46.46,0,0,0,.92,0A.46.46,0,0,0,140.19,242Z"/><path class="cls-17" d="M142,242a.45.45,0,0,0-.46.45.46.46,0,1,0,.91,0A.45.45,0,0,0,142,242Z"/><path class="cls-17" d="M143.88,242a.45.45,0,0,0-.45.45.46.46,0,1,0,.91,0A.45.45,0,0,0,143.88,242Z"/><path class="cls-17" d="M145.73,242a.46.46,0,0,0-.46.45.46.46,0,0,0,.92,0A.46.46,0,0,0,145.73,242Z"/><path class="cls-17" d="M146.65,240.19a.46.46,0,1,0,.46.46A.45.45,0,0,0,146.65,240.19Z"/><path class="cls-17" d="M144.81,240.19a.46.46,0,1,0,0,.91.46.46,0,0,0,0-.91Z"/><path class="cls-17" d="M143,240.19a.46.46,0,1,0,.46.46A.46.46,0,0,0,143,240.19Z"/><path class="cls-17" d="M141.11,240.19a.46.46,0,0,0,0,.91.46.46,0,1,0,0-.91Z"/><path class="cls-17" d="M139.27,240.19a.46.46,0,1,0,.45.46A.45.45,0,0,0,139.27,240.19Z"/><path class="cls-17" d="M137.42,240.19a.46.46,0,1,0,0,.91.46.46,0,0,0,0-.91Z"/><path class="cls-17" d="M135.57,240.19a.46.46,0,1,0,.46.46A.46.46,0,0,0,135.57,240.19Z"/><path class="cls-17" d="M133.72,240.19a.46.46,0,1,0,.46.46A.45.45,0,0,0,133.72,240.19Z"/><path class="cls-17" d="M131.88,241.1a.46.46,0,1,0-.46-.45A.45.45,0,0,0,131.88,241.1Z"/><path class="cls-17" d="M132.8,239.34a.46.46,0,1,0-.46-.46A.47.47,0,0,0,132.8,239.34Z"/><path class="cls-17" d="M134.65,238.42a.46.46,0,0,0,0,.92.46.46,0,0,0,0-.92Z"/><path class="cls-17" d="M136.49,238.42a.46.46,0,1,0,.46.46A.46.46,0,0,0,136.49,238.42Z"/><path class="cls-17" d="M138.34,238.42a.46.46,0,0,0,0,.92.46.46,0,0,0,0-.92Z"/><path class="cls-17" d="M140.19,238.42a.46.46,0,1,0,.46.46A.47.47,0,0,0,140.19,238.42Z"/><path class="cls-3" d="M201.6,114.33a.46.46,0,1,0,.46.45A.46.46,0,0,0,201.6,114.33Z"/><path class="cls-3" d="M203.45,114.33a.46.46,0,1,0,0,.91.46.46,0,0,0,0-.91Z"/><path class="cls-3" d="M204.37,112.56a.47.47,0,0,0-.46.46.46.46,0,0,0,.92,0A.47.47,0,0,0,204.37,112.56Z"/><path class="cls-3" d="M202.52,112.56a.46.46,0,0,0-.45.46.46.46,0,0,0,.91,0A.46.46,0,0,0,202.52,112.56Z"/><path class="cls-3" d="M200.68,112.56a.46.46,0,0,0-.46.46.46.46,0,0,0,.91,0A.46.46,0,0,0,200.68,112.56Z"/><path class="cls-3" d="M198.83,112.56a.47.47,0,0,0-.46.46.46.46,0,0,0,.92,0A.47.47,0,0,0,198.83,112.56Z"/><path class="cls-3" d="M197,112.56a.46.46,0,0,0-.45.46.45.45,0,0,0,.45.45.46.46,0,0,0,.46-.45A.47.47,0,0,0,197,112.56Z"/><path class="cls-3" d="M194.21,110.8a.46.46,0,0,0-.46.45.46.46,0,0,0,.92,0A.46.46,0,0,0,194.21,110.8Z"/><path class="cls-3" d="M196.06,110.8a.46.46,0,0,0-.46.45.47.47,0,0,0,.46.46.46.46,0,0,0,.45-.46A.45.45,0,0,0,196.06,110.8Z"/><path class="cls-3" d="M197.91,110.8a.45.45,0,0,0-.46.45.46.46,0,1,0,.91,0A.45.45,0,0,0,197.91,110.8Z"/><path class="cls-3" d="M199.75,110.8a.45.45,0,0,0-.45.45.46.46,0,0,0,.45.46.47.47,0,0,0,.46-.46A.46.46,0,0,0,199.75,110.8Z"/><circle class="cls-3" cx="201.6" cy="111.25" r="0.46"/><circle class="cls-3" cx="203.45" cy="111.25" r="0.46"/><circle class="cls-3" cx="202.52" cy="109.49" r="0.46"/><path class="cls-3" d="M200.68,109a.46.46,0,1,0,.45.46A.45.45,0,0,0,200.68,109Z"/><path class="cls-3" d="M198.83,109a.46.46,0,1,0,.46.46A.46.46,0,0,0,198.83,109Z"/><path class="cls-3" d="M197,109a.46.46,0,0,0,0,.91.46.46,0,1,0,0-.91Z"/><path class="cls-3" d="M195.13,109a.46.46,0,1,0,.46.46A.45.45,0,0,0,195.13,109Z"/><path class="cls-3" d="M193.29,109a.46.46,0,1,0,0,.91.46.46,0,0,0,0-.91Z"/><path class="cls-3" d="M191.44,109a.46.46,0,1,0,.46.46A.46.46,0,0,0,191.44,109Z"/><path class="cls-3" d="M197.91,107.26a.46.46,0,1,0,.45.46A.46.46,0,0,0,197.91,107.26Z"/><path class="cls-3" d="M199.75,107.26a.46.46,0,0,0,0,.92.46.46,0,0,0,0-.92Z"/><circle class="cls-3" cx="201.6" cy="107.72" r="0.46"/><path class="cls-3" d="M191.44,119.63a.46.46,0,0,0-.46.45.46.46,0,0,0,.92,0A.46.46,0,0,0,191.44,119.63Z"/><path class="cls-3" d="M189.59,119.63a.45.45,0,0,0-.45.45.46.46,0,0,0,.45.46.47.47,0,0,0,.46-.46A.46.46,0,0,0,189.59,119.63Z"/><path class="cls-3" d="M187.75,119.63a.45.45,0,0,0-.46.45.46.46,0,1,0,.91,0A.45.45,0,0,0,187.75,119.63Z"/><path class="cls-3" d="M185.9,120.54a.46.46,0,0,0,.45-.46.45.45,0,0,0-.45-.45.46.46,0,0,0-.46.45A.47.47,0,0,0,185.9,120.54Z"/><path class="cls-3" d="M184.05,120.54a.47.47,0,0,0,.46-.46.46.46,0,0,0-.92,0A.47.47,0,0,0,184.05,120.54Z"/><path class="cls-3" d="M182.2,120.54a.46.46,0,0,0,.46-.46.46.46,0,0,0-.91,0A.46.46,0,0,0,182.2,120.54Z"/><path class="cls-3" d="M180.36,120.54a.46.46,0,0,0,.45-.46.46.46,0,0,0-.91,0A.46.46,0,0,0,180.36,120.54Z"/><path class="cls-3" d="M172,118.77a.46.46,0,1,0-.45-.45A.45.45,0,0,0,172,118.77Z"/><path class="cls-3" d="M173.89,118.77a.46.46,0,1,0-.46-.45A.46.46,0,0,0,173.89,118.77Z"/><path class="cls-3" d="M175.74,118.77a.46.46,0,0,0,0-.91.46.46,0,1,0,0,.91Z"/><path class="cls-3" d="M177.59,118.77a.46.46,0,1,0-.46-.45A.45.45,0,0,0,177.59,118.77Z"/><path class="cls-3" d="M179.43,118.77a.46.46,0,1,0,0-.91.46.46,0,0,0,0,.91Z"/><path class="cls-3" d="M181.28,118.77a.46.46,0,1,0-.46-.45A.46.46,0,0,0,181.28,118.77Z"/><path class="cls-3" d="M183.13,118.77a.46.46,0,0,0,0-.91.46.46,0,1,0,0,.91Z"/><path class="cls-3" d="M185,117.86a.46.46,0,1,0,.46.46A.45.45,0,0,0,185,117.86Z"/><path class="cls-3" d="M186.82,117.86a.46.46,0,0,0,0,.91.46.46,0,1,0,0-.91Z"/><path class="cls-3" d="M188.67,117.86a.46.46,0,1,0,0,.91.46.46,0,0,0,0-.91Z"/><path class="cls-3" d="M190.52,117.86a.46.46,0,1,0,.45.46A.45.45,0,0,0,190.52,117.86Z"/><path class="cls-3" d="M192.36,117.86a.46.46,0,1,0,.46.46A.45.45,0,0,0,192.36,117.86Z"/><path class="cls-3" d="M194.21,117.86a.46.46,0,1,0,.46.46A.46.46,0,0,0,194.21,117.86Z"/><path class="cls-3" d="M196.06,117.86a.46.46,0,1,0,0,.91.46.46,0,0,0,0-.91Z"/><path class="cls-3" d="M197.91,117.86a.46.46,0,1,0,.45.46A.45.45,0,0,0,197.91,117.86Z"/><path class="cls-3" d="M202.52,116.09a.46.46,0,1,0,.46.46A.46.46,0,0,0,202.52,116.09Z"/><path class="cls-3" d="M200.68,116.09a.46.46,0,1,0,.45.46A.46.46,0,0,0,200.68,116.09Z"/><path class="cls-3" d="M198.83,116.09a.46.46,0,1,0,.46.46A.47.47,0,0,0,198.83,116.09Z"/><path class="cls-3" d="M197,116.09a.46.46,0,0,0,0,.92.46.46,0,0,0,0-.92Z"/><path class="cls-3" d="M195.13,116.09a.46.46,0,1,0,.46.46A.46.46,0,0,0,195.13,116.09Z"/><path class="cls-3" d="M193.29,116.09a.46.46,0,1,0,0,.92.46.46,0,0,0,0-.92Z"/><path class="cls-3" d="M191.44,116.09a.46.46,0,1,0,.46.46A.47.47,0,0,0,191.44,116.09Z"/><path class="cls-3" d="M189.59,116.09a.46.46,0,0,0,0,.92.46.46,0,0,0,0-.92Z"/><path class="cls-3" d="M187.75,116.09a.46.46,0,1,0,.45.46A.46.46,0,0,0,187.75,116.09Z"/><path class="cls-3" d="M185.9,116.09a.46.46,0,0,0,0,.92.46.46,0,0,0,0-.92Z"/><path class="cls-3" d="M184.05,116.09a.46.46,0,1,0,.46.46A.47.47,0,0,0,184.05,116.09Z"/><path class="cls-3" d="M182.2,116.09a.46.46,0,1,0,.46.46A.46.46,0,0,0,182.2,116.09Z"/><path class="cls-3" d="M180.36,116.09a.46.46,0,1,0,.45.46A.46.46,0,0,0,180.36,116.09Z"/><path class="cls-3" d="M178.51,117a.46.46,0,0,0,0-.92.46.46,0,1,0,0,.92Z"/><path class="cls-3" d="M176.66,117a.46.46,0,0,0,0-.92.46.46,0,0,0,0,.92Z"/><path class="cls-3" d="M174.81,117a.46.46,0,1,0-.45-.46A.46.46,0,0,0,174.81,117Z"/><path class="cls-3" d="M173,117a.46.46,0,1,0-.46-.46A.46.46,0,0,0,173,117Z"/><path class="cls-3" d="M171.12,117a.46.46,0,1,0-.46-.46A.47.47,0,0,0,171.12,117Z"/><path class="cls-3" d="M170.2,115.24a.46.46,0,1,0-.46-.46A.45.45,0,0,0,170.2,115.24Z"/><path class="cls-3" d="M172,114.33a.46.46,0,1,0,.46.45A.45.45,0,0,0,172,114.33Z"/><path class="cls-3" d="M173.89,114.33a.46.46,0,1,0,.46.45A.46.46,0,0,0,173.89,114.33Z"/><path class="cls-3" d="M175.74,114.33a.46.46,0,1,0,0,.91.46.46,0,0,0,0-.91Z"/><path class="cls-3" d="M177.59,114.33a.46.46,0,1,0,.45.45A.45.45,0,0,0,177.59,114.33Z"/><path class="cls-3" d="M179.43,114.33a.46.46,0,0,0,0,.91.46.46,0,1,0,0-.91Z"/><path class="cls-3" d="M181.28,114.33a.46.46,0,1,0,.46.45A.46.46,0,0,0,181.28,114.33Z"/><path class="cls-3" d="M183.13,114.33a.46.46,0,1,0,0,.91.46.46,0,0,0,0-.91Z"/><path class="cls-3" d="M185,114.33a.46.46,0,1,0,.46.45A.45.45,0,0,0,185,114.33Z"/><path class="cls-3" d="M186.82,114.33a.46.46,0,0,0,0,.91.46.46,0,1,0,0-.91Z"/><path class="cls-3" d="M188.67,114.33a.46.46,0,1,0,0,.91.46.46,0,0,0,0-.91Z"/><path class="cls-3" d="M190.52,114.33a.46.46,0,1,0,.45.45A.45.45,0,0,0,190.52,114.33Z"/><path class="cls-3" d="M192.36,114.33a.46.46,0,1,0,.46.45A.45.45,0,0,0,192.36,114.33Z"/><path class="cls-3" d="M194.21,114.33a.46.46,0,1,0,.46.45A.46.46,0,0,0,194.21,114.33Z"/><path class="cls-3" d="M196.06,114.33a.46.46,0,1,0,0,.91.46.46,0,0,0,0-.91Z"/><path class="cls-3" d="M197.91,114.33a.46.46,0,1,0,.45.45A.45.45,0,0,0,197.91,114.33Z"/><path class="cls-3" d="M199.75,114.33a.46.46,0,0,0,0,.91.46.46,0,1,0,0-.91Z"/><path class="cls-3" d="M195.13,112.56a.46.46,0,0,0-.45.46.46.46,0,0,0,.91,0A.46.46,0,0,0,195.13,112.56Z"/><path class="cls-3" d="M193.29,112.56a.47.47,0,0,0-.46.46.46.46,0,0,0,.46.45.45.45,0,0,0,.45-.45A.46.46,0,0,0,193.29,112.56Z"/><path class="cls-3" d="M191.44,112.56a.47.47,0,0,0-.46.46.46.46,0,0,0,.92,0A.47.47,0,0,0,191.44,112.56Z"/><path class="cls-3" d="M189.59,112.56a.46.46,0,0,0-.45.46.45.45,0,0,0,.45.45.46.46,0,0,0,.46-.45A.47.47,0,0,0,189.59,112.56Z"/><path class="cls-3" d="M187.75,112.56a.46.46,0,0,0-.46.46.46.46,0,0,0,.91,0A.46.46,0,0,0,187.75,112.56Z"/><path class="cls-3" d="M185.9,112.56a.47.47,0,0,0-.46.46.46.46,0,0,0,.46.45.45.45,0,0,0,.45-.45A.46.46,0,0,0,185.9,112.56Z"/><path class="cls-3" d="M184.05,112.56a.47.47,0,0,0-.46.46.46.46,0,0,0,.92,0A.47.47,0,0,0,184.05,112.56Z"/><path class="cls-3" d="M182.2,112.56a.46.46,0,0,0-.45.46.46.46,0,0,0,.91,0A.46.46,0,0,0,182.2,112.56Z"/><path class="cls-3" d="M180.36,112.56a.46.46,0,0,0-.46.46.46.46,0,0,0,.91,0A.46.46,0,0,0,180.36,112.56Z"/><path class="cls-3" d="M178.51,112.56a.47.47,0,0,0-.46.46.46.46,0,0,0,.46.45A.45.45,0,0,0,179,113,.46.46,0,0,0,178.51,112.56Z"/><path class="cls-3" d="M176.66,112.56a.46.46,0,0,0-.45.46.45.45,0,0,0,.45.45.46.46,0,0,0,.46-.45A.47.47,0,0,0,176.66,112.56Z"/><path class="cls-3" d="M174.81,112.56a.46.46,0,0,0-.45.46.46.46,0,0,0,.91,0A.46.46,0,0,0,174.81,112.56Z"/><path class="cls-3" d="M173,112.56a.46.46,0,0,0-.46.46.46.46,0,0,0,.91,0A.46.46,0,0,0,173,112.56Z"/><path class="cls-3" d="M171.12,112.56a.47.47,0,0,0-.46.46.46.46,0,0,0,.92,0A.47.47,0,0,0,171.12,112.56Z"/><circle class="cls-3" cx="170.2" cy="111.25" r="0.46"/><circle class="cls-3" cx="172.04" cy="111.25" r="0.46"/><path class="cls-3" d="M173.89,110.8a.46.46,0,0,0-.46.45.46.46,0,1,0,.92,0A.46.46,0,0,0,173.89,110.8Z"/><path class="cls-3" d="M175.74,110.8a.46.46,0,0,0-.46.45.47.47,0,0,0,.46.46.46.46,0,0,0,.45-.46A.45.45,0,0,0,175.74,110.8Z"/><path class="cls-3" d="M177.59,110.8a.45.45,0,0,0-.46.45.46.46,0,1,0,.91,0A.45.45,0,0,0,177.59,110.8Z"/><path class="cls-3" d="M179.43,110.8a.45.45,0,0,0-.45.45.46.46,0,0,0,.45.46.47.47,0,0,0,.46-.46A.46.46,0,0,0,179.43,110.8Z"/><path class="cls-3" d="M181.28,110.8a.46.46,0,0,0-.46.45.46.46,0,0,0,.92,0A.46.46,0,0,0,181.28,110.8Z"/><path class="cls-3" d="M183.13,110.8a.46.46,0,0,0-.46.45.47.47,0,0,0,.46.46.46.46,0,0,0,.45-.46A.45.45,0,0,0,183.13,110.8Z"/><path class="cls-3" d="M185,110.8a.45.45,0,0,0-.45.45.46.46,0,1,0,.91,0A.45.45,0,0,0,185,110.8Z"/><path class="cls-3" d="M186.82,110.8a.45.45,0,0,0-.45.45.46.46,0,0,0,.45.46.47.47,0,0,0,.46-.46A.46.46,0,0,0,186.82,110.8Z"/><path class="cls-3" d="M188.67,110.8a.46.46,0,0,0-.46.45.47.47,0,0,0,.46.46.46.46,0,0,0,.45-.46A.45.45,0,0,0,188.67,110.8Z"/><path class="cls-3" d="M190.52,110.8a.45.45,0,0,0-.46.45.46.46,0,1,0,.91,0A.45.45,0,0,0,190.52,110.8Z"/><path class="cls-3" d="M192.36,110.8a.45.45,0,0,0-.45.45.46.46,0,1,0,.91,0A.45.45,0,0,0,192.36,110.8Z"/><path class="cls-3" d="M178.51,119.63a.45.45,0,0,0-.45.45.46.46,0,1,0,.91,0A.45.45,0,0,0,178.51,119.63Z"/><path class="cls-3" d="M176.67,119.63a.46.46,0,0,0-.46.45.47.47,0,0,0,.46.46.46.46,0,0,0,.45-.46A.45.45,0,0,0,176.67,119.63Z"/><path class="cls-3" d="M174.82,119.63a.46.46,0,0,0-.46.45.46.46,0,0,0,.92,0A.46.46,0,0,0,174.82,119.63Z"/><path class="cls-4" d="M199.17,65.58c-1.09-5.64-1.55-12.21-6.57-15.26a21.86,21.86,0,0,0-11,1.41c-8.61,3.62-12.31,13-14.2,21.5a156.13,156.13,0,0,0-3.31,36.91,2.5,2.5,0,0,0,.9.27,62.22,62.22,0,0,0,49-12.17C214.24,98.05,200.36,71.77,199.17,65.58Z"/><path class="cls-11" d="M200.74,57.22a15.18,15.18,0,0,1-6.32.47,14.71,14.71,0,0,1-5.95-2.18c-2.12-1.36-4.62-3.88-7.22-3.62l.32-.16c7.8-3.27,16.58-1,23.94,2.82C204.77,56,202.07,56.83,200.74,57.22Z"/><path class="cls-4" d="M235.86,77c-2.1-7.19-9.51-12.37-15.4-16.36a71,71,0,0,0-24.58-10.75c-.56-.13-.87.71-.31.84h0a39.16,39.16,0,0,0,1.33,16.7.29.29,0,0,0,.06.11v0a36.12,36.12,0,0,0,11.52,16.67c5.23,4.25,12.82,8.21,19.74,6.58C234.66,89.33,237.67,83.2,235.86,77Z"/><rect class="cls-5" x="188.97" y="41.95" width="22.93" height="11.67" rx="0.99" transform="translate(92.19 223.11) rotate(-71.72)"/><circle class="cls-18" cx="199.41" cy="36.96" r="0.48"/><path class="cls-1" d="M210.51,57.29c-2.36-4.85-4.58-7.41-4.72-7.26a4.62,4.62,0,0,1-7,.09c-1.2-1.41-1.76-3.32-3.59-4.08s-4.32,1.13-3.13,2.85a3.6,3.6,0,0,0-1.23,5c-2.26,1.6-.57,4.45,1.19,5.87,3.4,2.73,9.26,1.45,11.44,5.57C206.61,61.91,208.17,61.18,210.51,57.29Z"/><path class="cls-2" d="M193.48,55.35A4.09,4.09,0,0,1,191,53.94c-.36-.44-1.09.09-.72.53a5,5,0,0,0,3,1.77A.45.45,0,0,0,193.48,55.35Z"/><path class="cls-2" d="M194.79,50.64A4,4,0,0,1,192.53,49c-.32-.47-1.11-.06-.79.42a5,5,0,0,0,2.78,2.08A.45.45,0,0,0,194.79,50.64Z"/><path class="cls-11" d="M219.8,83.16A51.36,51.36,0,0,1,204,65.66c-.27-.5-1.09-.13-.81.37A52.46,52.46,0,0,0,219.3,83.9.45.45,0,0,0,219.8,83.16Z"/><path class="cls-11" d="M207,83.88q-.44-.88-.87-1.8l0,0-.46-.42c-.53-.49-1.06-1-1.57-1.49s-.76-.74-1.13-1.12-.53-.55-.79-.83c-.79-.83-1.57-1.67-2.33-2.55-1.2-1.38-2.37-2.8-3.47-4.29-.35-.47-1,.11-.69.57,1.35,1.82,2.8,3.56,4.3,5.25a14,14,0,0,1,1.11,6.53c-.13,1.75-.66,3.57-.19,5.31.41,1.5,1.55,2.34,2.42,3.55,1.7,2.37.2,4.09-.81,6.3a6.59,6.59,0,0,0-.4,4.42,8.16,8.16,0,0,0,.78,1.9A61.26,61.26,0,0,0,214,98.24C214.13,98.14,210.63,91.36,207,83.88Z"/><path class="cls-7" d="M230.13,78.61a.46.46,0,0,0,.46-.46.46.46,0,0,0-.91,0A.46.46,0,0,0,230.13,78.61Z"/><path class="cls-7" d="M232,78.61a.47.47,0,0,0,.46-.46.46.46,0,0,0-.92,0A.47.47,0,0,0,232,78.61Z"/><path class="cls-7" d="M233.83,78.61a.46.46,0,0,0,.45-.46.45.45,0,0,0-.45-.45.46.46,0,0,0-.46.45A.47.47,0,0,0,233.83,78.61Z"/><path class="cls-7" d="M235.68,78.61a.46.46,0,0,0,.45-.46.46.46,0,0,0-.91,0A.46.46,0,0,0,235.68,78.61Z"/><path class="cls-7" d="M237.52,78.61a.47.47,0,0,0,.46-.46.46.46,0,0,0-.46-.45.45.45,0,0,0-.45.45A.46.46,0,0,0,237.52,78.61Z"/><path class="cls-7" d="M236.6,76.84a.46.46,0,0,0,0-.91.46.46,0,1,0,0,.91Z"/><path class="cls-7" d="M234.75,76.84a.46.46,0,1,0,0-.91.46.46,0,0,0,0,.91Z"/><path class="cls-7" d="M232.9,76.84a.46.46,0,1,0-.45-.45A.45.45,0,0,0,232.9,76.84Z"/><path class="cls-7" d="M231.06,76.84a.46.46,0,1,0-.46-.45A.45.45,0,0,0,231.06,76.84Z"/><path class="cls-7" d="M229.21,76.84a.46.46,0,1,0-.46-.45A.46.46,0,0,0,229.21,76.84Z"/><path class="cls-7" d="M227.36,76.84a.46.46,0,1,0,0-.91.46.46,0,0,0,0,.91Z"/><path class="cls-7" d="M226.44,75.08a.46.46,0,0,0,0-.92.46.46,0,1,0,0,.92Z"/><path class="cls-7" d="M228.29,75.08a.46.46,0,1,0-.46-.46A.46.46,0,0,0,228.29,75.08Z"/><path class="cls-7" d="M230.13,74.16a.46.46,0,1,0,.46.46A.46.46,0,0,0,230.13,74.16Z"/><path class="cls-7" d="M232,74.16a.46.46,0,1,0,.46.46A.47.47,0,0,0,232,74.16Z"/><path class="cls-7" d="M233.83,74.16a.46.46,0,1,0,0,.92.46.46,0,0,0,0-.92Z"/><path class="cls-7" d="M235.68,74.16a.46.46,0,1,0,.45.46A.46.46,0,0,0,235.68,74.16Z"/><path class="cls-7" d="M234.75,72.4a.46.46,0,0,0,0,.91.46.46,0,1,0,0-.91Z"/><path class="cls-7" d="M232.9,72.4a.46.46,0,1,0,.46.45A.45.45,0,0,0,232.9,72.4Z"/><path class="cls-7" d="M231.06,72.4a.46.46,0,1,0,.45.45A.45.45,0,0,0,231.06,72.4Z"/><path class="cls-7" d="M229.21,72.4a.46.46,0,1,0,.46.45A.46.46,0,0,0,229.21,72.4Z"/><path class="cls-7" d="M227.36,72.4a.46.46,0,0,0,0,.91.46.46,0,1,0,0-.91Z"/><path class="cls-7" d="M225.52,73.31a.46.46,0,1,0-.46-.46A.45.45,0,0,0,225.52,73.31Z"/><path class="cls-7" d="M224.59,70.63a.46.46,0,0,0-.45.46.45.45,0,0,0,.45.45.46.46,0,0,0,.46-.45A.47.47,0,0,0,224.59,70.63Z"/><path class="cls-7" d="M226.44,70.63a.47.47,0,0,0-.46.46.46.46,0,0,0,.46.45.45.45,0,0,0,.45-.45A.46.46,0,0,0,226.44,70.63Z"/><path class="cls-7" d="M228.29,70.63a.46.46,0,0,0-.46.46.46.46,0,0,0,.91,0A.46.46,0,0,0,228.29,70.63Z"/><path class="cls-7" d="M230.13,70.63a.46.46,0,0,0-.45.46.46.46,0,0,0,.91,0A.46.46,0,0,0,230.13,70.63Z"/><path class="cls-7" d="M232,70.63a.47.47,0,0,0-.46.46.46.46,0,0,0,.92,0A.47.47,0,0,0,232,70.63Z"/><path class="cls-7" d="M233.83,70.63a.47.47,0,0,0-.46.46.46.46,0,0,0,.46.45.45.45,0,0,0,.45-.45A.46.46,0,0,0,233.83,70.63Z"/><path class="cls-7" d="M232.9,68.87a.45.45,0,0,0-.45.45.46.46,0,1,0,.91,0A.45.45,0,0,0,232.9,68.87Z"/><path class="cls-7" d="M231.06,68.87a.45.45,0,0,0-.46.45.46.46,0,1,0,.91,0A.45.45,0,0,0,231.06,68.87Z"/><path class="cls-7" d="M229.21,68.87a.46.46,0,0,0-.46.45.46.46,0,1,0,.92,0A.46.46,0,0,0,229.21,68.87Z"/><path class="cls-7" d="M227.36,68.87a.45.45,0,0,0-.45.45.46.46,0,0,0,.45.46.47.47,0,0,0,.46-.46A.46.46,0,0,0,227.36,68.87Z"/><path class="cls-7" d="M225.52,68.87a.45.45,0,0,0-.46.45.46.46,0,1,0,.91,0A.45.45,0,0,0,225.52,68.87Z"/><path class="cls-7" d="M223.67,68.87a.46.46,0,0,0-.46.45.47.47,0,0,0,.46.46.46.46,0,0,0,.45-.46A.45.45,0,0,0,223.67,68.87Z"/><path class="cls-7" d="M220.9,67.1a.46.46,0,1,0,.45.46A.45.45,0,0,0,220.9,67.1Z"/><path class="cls-7" d="M222.74,67.1a.46.46,0,1,0,.46.46A.45.45,0,0,0,222.74,67.1Z"/><path class="cls-7" d="M224.59,67.1a.46.46,0,0,0,0,.91.46.46,0,1,0,0-.91Z"/><path class="cls-7" d="M226.44,67.1a.46.46,0,1,0,0,.91.46.46,0,0,0,0-.91Z"/><path class="cls-7" d="M228.29,67.1a.46.46,0,1,0,.45.46A.45.45,0,0,0,228.29,67.1Z"/><path class="cls-7" d="M230.13,67.1a.46.46,0,1,0,.46.46A.45.45,0,0,0,230.13,67.1Z"/><path class="cls-7" d="M229.21,65.33a.46.46,0,1,0,.46.46A.47.47,0,0,0,229.21,65.33Z"/><path class="cls-7" d="M227.36,65.33a.46.46,0,0,0,0,.92.46.46,0,0,0,0-.92Z"/><path class="cls-7" d="M225.52,65.33a.46.46,0,1,0,.45.46A.46.46,0,0,0,225.52,65.33Z"/><path class="cls-7" d="M223.67,65.33a.46.46,0,0,0,0,.92.46.46,0,0,0,0-.92Z"/><path class="cls-7" d="M221.82,65.33a.46.46,0,1,0,.46.46A.47.47,0,0,0,221.82,65.33Z"/><path class="cls-7" d="M220,65.33a.46.46,0,1,0,.46.46A.46.46,0,0,0,220,65.33Z"/><path class="cls-7" d="M220.9,63.57a.46.46,0,1,0,.45.45A.45.45,0,0,0,220.9,63.57Z"/><path class="cls-7" d="M222.74,63.57a.46.46,0,1,0,.46.45A.45.45,0,0,0,222.74,63.57Z"/><path class="cls-7" d="M224.59,63.57a.46.46,0,0,0,0,.91.46.46,0,1,0,0-.91Z"/><path class="cls-7" d="M226.44,63.57a.46.46,0,1,0,0,.91.46.46,0,0,0,0-.91Z"/><path class="cls-7" d="M223.67,61.8a.47.47,0,0,0-.46.46.46.46,0,0,0,.46.45.45.45,0,0,0,.45-.45A.46.46,0,0,0,223.67,61.8Z"/><path class="cls-7" d="M221.82,61.8a.47.47,0,0,0-.46.46.46.46,0,0,0,.92,0A.47.47,0,0,0,221.82,61.8Z"/><path class="cls-7" d="M234.76,86.53a.46.46,0,1,0,0,.91.46.46,0,0,0,0-.91Z"/><path class="cls-7" d="M232.91,86.53a.46.46,0,1,0,.46.45A.46.46,0,0,0,232.91,86.53Z"/><path class="cls-7" d="M231.06,86.53a.46.46,0,0,0,0,.91.46.46,0,1,0,0-.91Z"/><path class="cls-7" d="M230.14,84.76a.47.47,0,0,0-.46.46.46.46,0,0,0,.92,0A.47.47,0,0,0,230.14,84.76Z"/><path class="cls-7" d="M232,84.76a.46.46,0,0,0-.46.46.46.46,0,0,0,.91,0A.46.46,0,0,0,232,84.76Z"/><path class="cls-7" d="M233.83,84.76a.46.46,0,0,0-.45.46.46.46,0,0,0,.91,0A.46.46,0,0,0,233.83,84.76Z"/><path class="cls-7" d="M235.68,84.76a.47.47,0,0,0-.46.46.46.46,0,0,0,.92,0A.47.47,0,0,0,235.68,84.76Z"/><path class="cls-7" d="M236.6,83a.46.46,0,1,0,.46.46A.46.46,0,0,0,236.6,83Z"/><path class="cls-7" d="M234.76,83a.46.46,0,0,0,0,.92.46.46,0,0,0,0-.92Z"/><path class="cls-7" d="M232.91,83a.46.46,0,1,0,.46.46A.47.47,0,0,0,232.91,83Z"/><path class="cls-7" d="M231.06,83a.46.46,0,0,0,0,.92.46.46,0,1,0,0-.92Z"/><path class="cls-7" d="M229.22,83a.46.46,0,1,0,.45.46A.46.46,0,0,0,229.22,83Z"/><path class="cls-7" d="M228.29,81.23a.46.46,0,0,0,0,.91.46.46,0,1,0,0-.91Z"/><path class="cls-7" d="M230.14,81.23a.46.46,0,1,0,.46.46A.46.46,0,0,0,230.14,81.23Z"/><path class="cls-7" d="M232,81.23a.46.46,0,1,0,.45.46A.45.45,0,0,0,232,81.23Z"/><path class="cls-7" d="M233.83,81.23a.46.46,0,1,0,.46.46A.45.45,0,0,0,233.83,81.23Z"/><path class="cls-7" d="M235.68,81.23a.46.46,0,1,0,.46.46A.46.46,0,0,0,235.68,81.23Z"/><path class="cls-7" d="M237.53,81.23a.46.46,0,1,0,0,.91.46.46,0,0,0,0-.91Z"/><path class="cls-7" d="M236.6,79.46a.46.46,0,1,0,.46.46A.46.46,0,0,0,236.6,79.46Z"/><path class="cls-7" d="M234.76,79.46a.46.46,0,0,0,0,.92.46.46,0,0,0,0-.92Z"/><path class="cls-7" d="M232.91,79.46a.46.46,0,1,0,.46.46A.47.47,0,0,0,232.91,79.46Z"/><path class="cls-7" d="M231.06,79.46a.46.46,0,0,0,0,.92.46.46,0,1,0,0-.92Z"/><path class="cls-7" d="M229.22,79.46a.46.46,0,1,0,.45.46A.46.46,0,0,0,229.22,79.46Z"/><path class="cls-7" d="M228.29,77.7a.45.45,0,0,0-.45.45.46.46,0,0,0,.45.46.47.47,0,0,0,.46-.46A.46.46,0,0,0,228.29,77.7Z"/><path class="cls-19" d="M269.28,55.65a.46.46,0,1,0-.45-.46A.45.45,0,0,0,269.28,55.65Z"/><path class="cls-19" d="M272.05,53.88a.45.45,0,0,0,.46-.45.46.46,0,1,0-.91,0A.45.45,0,0,0,272.05,53.88Z"/><path class="cls-19" d="M270.21,53.88a.45.45,0,0,0,.45-.45.46.46,0,0,0-.45-.46.47.47,0,0,0-.46.46A.46.46,0,0,0,270.21,53.88Z"/><path class="cls-19" d="M268.36,53.88a.46.46,0,0,0,.46-.45.46.46,0,0,0-.92,0A.46.46,0,0,0,268.36,53.88Z"/><path class="cls-19" d="M266.51,53.88a.46.46,0,0,0,.46-.45.47.47,0,0,0-.46-.46.46.46,0,0,0-.45.46A.45.45,0,0,0,266.51,53.88Z"/><path class="cls-19" d="M265.59,52.12a.47.47,0,0,0,.46-.46.46.46,0,0,0-.92,0A.47.47,0,0,0,265.59,52.12Z"/><path class="cls-19" d="M267.44,52.12a.46.46,0,0,0,.45-.46.46.46,0,0,0-.91,0A.46.46,0,0,0,267.44,52.12Z"/><path class="cls-19" d="M269.28,52.12a.46.46,0,0,0,.46-.46.46.46,0,0,0-.91,0A.46.46,0,0,0,269.28,52.12Z"/><path class="cls-19" d="M271.13,52.12a.47.47,0,0,0,.46-.46.46.46,0,0,0-.46-.45.45.45,0,0,0-.45.45A.46.46,0,0,0,271.13,52.12Z"/><path class="cls-19" d="M273,52.12a.46.46,0,0,0,.45-.46.45.45,0,0,0-.45-.45.46.46,0,0,0-.46.45A.47.47,0,0,0,273,52.12Z"/><path class="cls-19" d="M273.9,50.35a.46.46,0,1,0,0-.91.46.46,0,0,0,0,.91Z"/><path class="cls-19" d="M272.05,50.35a.46.46,0,1,0-.45-.45A.45.45,0,0,0,272.05,50.35Z"/><path class="cls-19" d="M270.21,50.35a.46.46,0,0,0,0-.91.46.46,0,1,0,0,.91Z"/><path class="cls-19" d="M268.36,50.35a.46.46,0,1,0-.46-.45A.46.46,0,0,0,268.36,50.35Z"/><path class="cls-19" d="M269.28,48.59a.46.46,0,1,0-.45-.46A.46.46,0,0,0,269.28,48.59Z"/><path class="cls-19" d="M271.13,48.59a.46.46,0,1,0,0-.92.46.46,0,0,0,0,.92Z"/><path class="cls-19" d="M273,48.59a.46.46,0,0,0,0-.92.46.46,0,0,0,0,.92Z"/><path class="cls-19" d="M274.83,48.59a.46.46,0,1,0-.46-.46A.46.46,0,0,0,274.83,48.59Z"/><path class="cls-19" d="M275.75,46.82a.46.46,0,1,0-.46-.46A.46.46,0,0,0,275.75,46.82Z"/><path class="cls-19" d="M273.9,46.82a.46.46,0,1,0,0-.91.46.46,0,0,0,0,.91Z"/><path class="cls-19" d="M272.05,46.82a.46.46,0,1,0-.45-.46A.45.45,0,0,0,272.05,46.82Z"/><path class="cls-19" d="M270.21,46.82a.46.46,0,0,0,0-.91.46.46,0,1,0,0,.91Z"/><path class="cls-19" d="M271.13,45.05a.46.46,0,0,0,.46-.45.47.47,0,0,0-.46-.46.46.46,0,0,0-.45.46A.45.45,0,0,0,271.13,45.05Z"/><path class="cls-19" d="M273,45.05a.45.45,0,0,0,.45-.45.46.46,0,0,0-.45-.46.47.47,0,0,0-.46.46A.46.46,0,0,0,273,45.05Z"/><path class="cls-19" d="M274.83,45.05a.45.45,0,0,0,.45-.45.46.46,0,1,0-.91,0A.45.45,0,0,0,274.83,45.05Z"/><path class="cls-19" d="M275.75,43.29a.47.47,0,0,0,.46-.46.46.46,0,0,0-.92,0A.47.47,0,0,0,275.75,43.29Z"/><path class="cls-19" d="M273.9,43.29a.47.47,0,0,0,.46-.46.46.46,0,0,0-.46-.45.45.45,0,0,0-.45.45A.46.46,0,0,0,273.9,43.29Z"/><path class="cls-19" d="M272.05,43.29a.46.46,0,0,0,.46-.46.46.46,0,0,0-.91,0A.46.46,0,0,0,272.05,43.29Z"/><path class="cls-19" d="M271.13,41.52a.46.46,0,1,0,0-.91.46.46,0,0,0,0,.91Z"/><path class="cls-19" d="M273,41.52a.46.46,0,0,0,0-.91.46.46,0,1,0,0,.91Z"/><path class="cls-19" d="M274.83,41.52a.46.46,0,1,0-.46-.45A.45.45,0,0,0,274.83,41.52Z"/><path class="cls-19" d="M273.9,39.76a.46.46,0,0,0,0-.92.46.46,0,0,0,0,.92Z"/><path class="cls-19" d="M272.05,39.76a.46.46,0,1,0-.45-.46A.46.46,0,0,0,272.05,39.76Z"/><path class="cls-19" d="M270.21,39.76a.46.46,0,0,0,0-.92.46.46,0,0,0,0,.92Z"/><path class="cls-19" d="M269.28,38a.46.46,0,1,0-.45-.46A.45.45,0,0,0,269.28,38Z"/><path class="cls-19" d="M271.13,38a.46.46,0,1,0,0-.91.46.46,0,0,0,0,.91Z"/><path class="cls-19" d="M273,38a.46.46,0,0,0,0-.91.46.46,0,1,0,0,.91Z"/><path class="cls-19" d="M270.21,36.22a.45.45,0,0,0,.45-.45.46.46,0,0,0-.45-.46.47.47,0,0,0-.46.46A.46.46,0,0,0,270.21,36.22Z"/><path class="cls-19" d="M268.36,36.22a.46.46,0,0,0,.46-.45.46.46,0,0,0-.92,0A.46.46,0,0,0,268.36,36.22Z"/><path class="cls-19" d="M260.05,54.74a.46.46,0,1,0,.46.45A.45.45,0,0,0,260.05,54.74Z"/><path class="cls-19" d="M261.9,54.74a.46.46,0,1,0,.46.45A.46.46,0,0,0,261.9,54.74Z"/><path class="cls-19" d="M263.75,54.74a.46.46,0,1,0,0,.91.46.46,0,0,0,0-.91Z"/><path class="cls-19" d="M265.6,54.74a.46.46,0,1,0,.45.45A.45.45,0,0,0,265.6,54.74Z"/><path class="cls-19" d="M267.44,54.74a.46.46,0,0,0,0,.91.46.46,0,1,0,0-.91Z"/><path class="cls-19" d="M264.67,53a.46.46,0,0,0-.45.46.45.45,0,0,0,.45.45.46.46,0,0,0,.46-.45A.47.47,0,0,0,264.67,53Z"/><path class="cls-19" d="M262.82,53a.46.46,0,0,0-.45.46.46.46,0,0,0,.91,0A.46.46,0,0,0,262.82,53Z"/><path class="cls-19" d="M261,53a.46.46,0,0,0-.46.46.46.46,0,0,0,.91,0A.46.46,0,0,0,261,53Z"/><path class="cls-19" d="M259.13,53a.47.47,0,0,0-.46.46.46.46,0,0,0,.92,0A.47.47,0,0,0,259.13,53Z"/><path class="cls-19" d="M257.28,53a.46.46,0,0,0-.45.46.45.45,0,0,0,.45.45.46.46,0,0,0,.46-.45A.47.47,0,0,0,257.28,53Z"/><circle class="cls-20" cx="259.6" cy="42.46" r="11.2"/><path class="cls-21" d="M266.62,43.44a7.91,7.91,0,0,1-14-.61c-.26-.52-1.07-.15-.82.37a8.81,8.81,0,0,0,15.55.75C267.66,43.46,266.92,43,266.62,43.44Z"/><path class="cls-10" d="M72.76,35.8a.46.46,0,0,0,0-.92.46.46,0,0,0,0,.92Z"/><path class="cls-10" d="M70,34a.46.46,0,1,0,0-.91A.46.46,0,0,0,70,34Z"/><path class="cls-10" d="M71.84,34a.46.46,0,1,0-.46-.46A.46.46,0,0,0,71.84,34Z"/><path class="cls-10" d="M72.76,32.26a.46.46,0,0,0,.46-.45.47.47,0,0,0-.46-.46.46.46,0,0,0-.45.46A.45.45,0,0,0,72.76,32.26Z"/><path class="cls-10" d="M70.92,32.26a.45.45,0,0,0,.45-.45.46.46,0,1,0-.91,0A.45.45,0,0,0,70.92,32.26Z"/><path class="cls-10" d="M69.07,32.26a.45.45,0,0,0,.45-.45.46.46,0,0,0-.45-.46.47.47,0,0,0-.46.46A.46.46,0,0,0,69.07,32.26Z"/><path class="cls-10" d="M67.22,32.26a.46.46,0,0,0,.46-.45.46.46,0,1,0-.92,0A.46.46,0,0,0,67.22,32.26Z"/><path class="cls-10" d="M70,30.5a.47.47,0,0,0,.46-.46.46.46,0,0,0-.46-.45.45.45,0,0,0-.45.45A.46.46,0,0,0,70,30.5Z"/><path class="cls-10" d="M71.84,30.5A.47.47,0,0,0,72.3,30a.46.46,0,0,0-.92,0A.47.47,0,0,0,71.84,30.5Z"/><path class="cls-10" d="M72.76,28.73a.46.46,0,1,0,0-.91.46.46,0,0,0,0,.91Z"/><path class="cls-10" d="M70.92,28.73a.46.46,0,1,0-.46-.45A.45.45,0,0,0,70.92,28.73Z"/><path class="cls-10" d="M71.84,27a.46.46,0,1,0-.46-.46A.47.47,0,0,0,71.84,27Z"/><path class="cls-10" d="M72.76,25.2a.46.46,0,1,0,0-.91.46.46,0,0,0,0,.91Z"/><path class="cls-10" d="M70.92,25.2a.46.46,0,1,0-.46-.46A.45.45,0,0,0,70.92,25.2Z"/><path class="cls-10" d="M66.3,47.25a.46.46,0,1,0,.46.45A.45.45,0,0,0,66.3,47.25Z"/><path class="cls-10" d="M68.15,47.25a.46.46,0,1,0,.46.45A.46.46,0,0,0,68.15,47.25Z"/><path class="cls-10" d="M70,47.25a.46.46,0,1,0,0,.91.46.46,0,0,0,0-.91Z"/><path class="cls-10" d="M71.84,47.25a.46.46,0,1,0,.46.45A.45.45,0,0,0,71.84,47.25Z"/><path class="cls-10" d="M72.77,45.48a.47.47,0,0,0-.46.46.46.46,0,0,0,.46.45.45.45,0,0,0,.45-.45A.46.46,0,0,0,72.77,45.48Z"/><path class="cls-10" d="M70.92,45.48a.46.46,0,0,0-.45.46.45.45,0,0,0,.45.45.46.46,0,0,0,.46-.45A.47.47,0,0,0,70.92,45.48Z"/><path class="cls-10" d="M69.07,45.48a.46.46,0,0,0-.45.46.46.46,0,0,0,.91,0A.46.46,0,0,0,69.07,45.48Z"/><path class="cls-10" d="M67.23,45.48a.46.46,0,0,0-.46.46.46.46,0,0,0,.91,0A.46.46,0,0,0,67.23,45.48Z"/><path class="cls-10" d="M65.38,45.48a.47.47,0,0,0-.46.46.46.46,0,0,0,.92,0A.47.47,0,0,0,65.38,45.48Z"/><path class="cls-10" d="M63.53,45.48a.46.46,0,0,0-.45.46.45.45,0,0,0,.45.45.46.46,0,0,0,.46-.45A.47.47,0,0,0,63.53,45.48Z"/><path class="cls-10" d="M66.3,43.71a.46.46,0,1,0,.46.46A.46.46,0,0,0,66.3,43.71Z"/><path class="cls-10" d="M68.15,43.71a.46.46,0,1,0,.46.46A.47.47,0,0,0,68.15,43.71Z"/><path class="cls-10" d="M70,43.71a.46.46,0,1,0,0,.92.46.46,0,0,0,0-.92Z"/><path class="cls-10" d="M71.84,43.71a.46.46,0,1,0,.46.46A.46.46,0,0,0,71.84,43.71Z"/><path class="cls-10" d="M72.77,42a.46.46,0,1,0,0,.91.46.46,0,0,0,0-.91Z"/><path class="cls-10" d="M70.92,42a.46.46,0,0,0,0,.91.46.46,0,1,0,0-.91Z"/><path class="cls-10" d="M69.07,42a.46.46,0,1,0,.46.45A.45.45,0,0,0,69.07,42Z"/><path class="cls-10" d="M67.23,42a.46.46,0,1,0,.45.45A.45.45,0,0,0,67.23,42Z"/><path class="cls-10" d="M66.3,40.18a.46.46,0,1,0,.46.46A.46.46,0,0,0,66.3,40.18Z"/><path class="cls-10" d="M68.15,40.18a.46.46,0,1,0,.46.46A.47.47,0,0,0,68.15,40.18Z"/><path class="cls-10" d="M70,40.18a.46.46,0,1,0,0,.92.46.46,0,0,0,0-.92Z"/><path class="cls-10" d="M71.84,40.18a.46.46,0,1,0,.46.46A.46.46,0,0,0,71.84,40.18Z"/><path class="cls-10" d="M72.77,38.42a.46.46,0,0,0-.46.45.47.47,0,0,0,.46.46.46.46,0,0,0,.45-.46A.45.45,0,0,0,72.77,38.42Z"/><path class="cls-10" d="M70.92,38.42a.45.45,0,0,0-.45.45.46.46,0,0,0,.45.46.47.47,0,0,0,.46-.46A.46.46,0,0,0,70.92,38.42Z"/><path class="cls-10" d="M69.07,38.42a.45.45,0,0,0-.45.45.46.46,0,1,0,.91,0A.45.45,0,0,0,69.07,38.42Z"/><path class="cls-10" d="M67.23,38.42a.45.45,0,0,0-.46.45.46.46,0,1,0,.91,0A.45.45,0,0,0,67.23,38.42Z"/><path class="cls-10" d="M66.3,36.65a.46.46,0,1,0,.46.46A.45.45,0,0,0,66.3,36.65Z"/><path class="cls-10" d="M68.15,36.65a.46.46,0,1,0,.46.46A.46.46,0,0,0,68.15,36.65Z"/><path class="cls-10" d="M70,36.65a.46.46,0,1,0,0,.91.46.46,0,0,0,0-.91Z"/><path class="cls-10" d="M71.84,36.65a.46.46,0,1,0,.46.46A.45.45,0,0,0,71.84,36.65Z"/><path class="cls-10" d="M70.92,34.88a.46.46,0,0,0,0,.92.46.46,0,0,0,0-.92Z"/><path class="cls-10" d="M69.07,34.88a.46.46,0,1,0,.46.46A.46.46,0,0,0,69.07,34.88Z"/><path class="cls-10" d="M67.23,34.88a.46.46,0,1,0,.45.46A.46.46,0,0,0,67.23,34.88Z"/><path class="cls-10" d="M66.3,33.12a.46.46,0,1,0,.46.45A.45.45,0,0,0,66.3,33.12Z"/><path class="cls-10" d="M68.15,33.12a.46.46,0,1,0,.46.45A.46.46,0,0,0,68.15,33.12Z"/><path class="cls-10" d="M46,47.25a.46.46,0,0,0,0,.91.46.46,0,1,0,0-.91Z"/><path class="cls-10" d="M47.83,47.25a.46.46,0,1,0,.46.45A.46.46,0,0,0,47.83,47.25Z"/><path class="cls-10" d="M49.68,47.25a.46.46,0,1,0,0,.91.46.46,0,0,0,0-.91Z"/><path class="cls-10" d="M51.52,47.25a.46.46,0,1,0,.46.45A.45.45,0,0,0,51.52,47.25Z"/><path class="cls-10" d="M53.37,47.25a.46.46,0,0,0,0,.91.46.46,0,1,0,0-.91Z"/><path class="cls-10" d="M55.22,47.25a.46.46,0,1,0,.46.45A.46.46,0,0,0,55.22,47.25Z"/><path class="cls-10" d="M57.07,47.25a.46.46,0,1,0,.45.45A.45.45,0,0,0,57.07,47.25Z"/><path class="cls-10" d="M58.91,47.25a.46.46,0,1,0,.46.45A.45.45,0,0,0,58.91,47.25Z"/><path class="cls-10" d="M60.76,47.25a.46.46,0,0,0,0,.91.46.46,0,1,0,0-.91Z"/><path class="cls-10" d="M62.61,47.25a.46.46,0,1,0,0,.91.46.46,0,0,0,0-.91Z"/><path class="cls-10" d="M64.46,47.25a.46.46,0,1,0,.45.45A.45.45,0,0,0,64.46,47.25Z"/><path class="cls-10" d="M61.68,45.48a.46.46,0,0,0-.45.46.46.46,0,0,0,.91,0A.46.46,0,0,0,61.68,45.48Z"/><path class="cls-10" d="M59.84,45.48a.47.47,0,0,0-.46.46.46.46,0,0,0,.46.45.45.45,0,0,0,.45-.45A.46.46,0,0,0,59.84,45.48Z"/><path class="cls-10" d="M58,45.48a.47.47,0,0,0-.46.46.46.46,0,0,0,.92,0A.47.47,0,0,0,58,45.48Z"/><path class="cls-10" d="M56.14,45.48a.46.46,0,0,0-.45.46.45.45,0,0,0,.45.45.46.46,0,0,0,.46-.45A.47.47,0,0,0,56.14,45.48Z"/><path class="cls-10" d="M54.3,45.48a.46.46,0,0,0-.46.46.46.46,0,0,0,.91,0A.46.46,0,0,0,54.3,45.48Z"/><path class="cls-10" d="M52.45,45.48a.47.47,0,0,0-.46.46.46.46,0,0,0,.46.45.45.45,0,0,0,.45-.45A.46.46,0,0,0,52.45,45.48Z"/><path class="cls-10" d="M50.6,45.48a.46.46,0,0,0-.45.46.45.45,0,0,0,.45.45.46.46,0,0,0,.46-.45A.47.47,0,0,0,50.6,45.48Z"/><path class="cls-10" d="M48.75,45.48a.46.46,0,0,0-.45.46.46.46,0,0,0,.91,0A.46.46,0,0,0,48.75,45.48Z"/><path class="cls-10" d="M46.91,45.48a.46.46,0,0,0-.46.46.46.46,0,0,0,.91,0A.46.46,0,0,0,46.91,45.48Z"/><path class="cls-10" d="M45.06,45.48a.47.47,0,0,0-.46.46.46.46,0,0,0,.92,0A.47.47,0,0,0,45.06,45.48Z"/><rect class="cls-12" x="37.72" y="26.42" width="28.36" height="19.24"/><path class="cls-15" d="M52.64,40.48,39.75,27.67c-.41-.41-1.1.16-.69.57L52,41.06C52.36,41.46,53,40.89,52.64,40.48Z"/><path class="cls-15" d="M52.62,41.15,65.43,28.26c.41-.4-.16-1.09-.57-.68L52,40.46C51.64,40.87,52.21,41.56,52.62,41.15Z"/><circle class="cls-8" cx="65.2" cy="26.61" r="5.61"/><path class="cls-22" d="M64.75,23.58v5.61c0,.57.89.66.89.08V23.66C65.64,23.08,64.75,23,64.75,23.58Z"/><path class="cls-6" d="M177.29,174.54a22.46,22.46,0,0,1-17.88,1.6c-6.58-2-12.17-6.14-17.19-10.77s-9.56-9.71-14.84-14c-4.12-3.36-9-6.57-14.47-6.72a9.38,9.38,0,0,0-9.76,8.07,13.63,13.63,0,0,0,1.42,8.22q-5-1.42-10.19-2.43a125.54,125.54,0,0,0-41.43-1c-.56.08-.49,1,.08.89a124.64,124.64,0,0,1,43.91,1.56q4.14.9,8.21,2.07c.13.23.27.45.41.67a1.57,1.57,0,0,0,.16-.46,15.2,15.2,0,0,1,1.55.43q5.43,1.68,10.68,3.83a73.73,73.73,0,0,1,9.19,4.28,7.14,7.14,0,0,1,2.79,2.49c.76,1.58.34,2.76-.81,3.35-.13.38-.27.75-.4,1.13a3.43,3.43,0,0,0,1.51-.76,3.26,3.26,0,0,0,.44-4.23c-1.47-2.4-4.51-3.53-6.93-4.67q-4.83-2.28-9.84-4.12c-2.64-1-5.32-1.84-8-2.63-2.42-4.69-3.3-10.57,1.37-14.12,5.24-4,12.64-.33,17.18,3,4.88,3.58,9.1,8,13.4,12.2,7.77,7.64,17,15.5,28.47,15.87a22.08,22.08,0,0,0,11.62-3.06Z"/><path class="cls-6" d="M265.49,90.23a16.92,16.92,0,0,0-7.36,0,18.25,18.25,0,0,0-11.49,8c-2.71,4.34-3,9.61-2,14.53,2.06,10.73,10.2,22.14,6.24,33.32-5,14.14-22.47,15.4-35.07,15.65a96.35,96.35,0,0,0-16,1.22l.59.78c11.66-2.1,23.86.2,35.29-3.42,9.32-2.95,17.21-10.36,17.09-20.66s-6.37-19.08-7.57-29.08c-.65-5.37.57-10.77,4.46-14.7a17,17,0,0,1,15.7-4.7C265.91,91.24,266.06,90.36,265.49,90.23Z"/><path class="cls-9" d="M204.86,7.5a.46.46,0,0,0,0-.91.46.46,0,1,0,0,.91Z"/><path class="cls-9" d="M206.71,7.5a.46.46,0,1,0-.46-.45A.45.45,0,0,0,206.71,7.5Z"/><path class="cls-9" d="M208.55,7.5a.46.46,0,1,0,0-.91.46.46,0,0,0,0,.91Z"/><path class="cls-9" d="M210.4,7.5a.46.46,0,1,0-.46-.45A.46.46,0,0,0,210.4,7.5Z"/><path class="cls-9" d="M209.48,5.74a.46.46,0,1,0-.46-.46A.46.46,0,0,0,209.48,5.74Z"/><path class="cls-9" d="M207.63,5.74a.46.46,0,1,0-.46-.46A.47.47,0,0,0,207.63,5.74Z"/><path class="cls-9" d="M205.78,5.74a.46.46,0,0,0,0-.92.46.46,0,0,0,0,.92Z"/><path class="cls-9" d="M203.93,5.74a.46.46,0,1,0-.45-.46A.46.46,0,0,0,203.93,5.74Z"/><path class="cls-9" d="M202.09,5.74a.46.46,0,0,0,0-.92.46.46,0,1,0,0,.92Z"/><path class="cls-9" d="M199.32,4a.46.46,0,1,0-.46-.46A.45.45,0,0,0,199.32,4Z"/><path class="cls-9" d="M201.16,4a.46.46,0,1,0-.45-.46A.45.45,0,0,0,201.16,4Z"/><path class="cls-9" d="M203,4a.46.46,0,1,0-.46-.46A.46.46,0,0,0,203,4Z"/><path class="cls-9" d="M204.86,4a.46.46,0,0,0,0-.91.46.46,0,1,0,0,.91Z"/><path class="cls-9" d="M206.71,4a.46.46,0,1,0-.46-.46A.45.45,0,0,0,206.71,4Z"/><path class="cls-9" d="M203.93,2.2a.45.45,0,0,0,.46-.45.46.46,0,1,0-.91,0A.45.45,0,0,0,203.93,2.2Z"/><path class="cls-9" d="M202.09,2.2a.45.45,0,0,0,.45-.45.46.46,0,0,0-.45-.46.47.47,0,0,0-.46.46A.46.46,0,0,0,202.09,2.2Z"/><path class="cls-9" d="M200.24,2.2a.46.46,0,0,0,.46-.45.46.46,0,0,0-.92,0A.46.46,0,0,0,200.24,2.2Z"/><path class="cls-9" d="M198.39,2.2a.46.46,0,0,0,.46-.45.47.47,0,0,0-.46-.46.46.46,0,0,0-.45.46A.45.45,0,0,0,198.39,2.2Z"/><path class="cls-9" d="M196.55,2.2a.45.45,0,0,0,.45-.45.46.46,0,1,0-.91,0A.45.45,0,0,0,196.55,2.2Z"/><path class="cls-9" d="M194.7,2.2a.45.45,0,0,0,.45-.45.46.46,0,0,0-.45-.46.47.47,0,0,0-.46.46A.46.46,0,0,0,194.7,2.2Z"/><path class="cls-9" d="M191.93,10.12a.46.46,0,0,0-.45.46.45.45,0,0,0,.45.45.46.46,0,0,0,.46-.45A.47.47,0,0,0,191.93,10.12Z"/><path class="cls-9" d="M193.78,10.12a.47.47,0,0,0-.46.46.46.46,0,0,0,.92,0A.47.47,0,0,0,193.78,10.12Z"/><path class="cls-9" d="M196.55,8.36a.46.46,0,0,0-.46.45.46.46,0,1,0,.92,0A.46.46,0,0,0,196.55,8.36Z"/><path class="cls-9" d="M194.7,8.36a.45.45,0,0,0-.45.45.46.46,0,1,0,.91,0A.45.45,0,0,0,194.7,8.36Z"/><path class="cls-9" d="M192.86,8.36a.45.45,0,0,0-.46.45.46.46,0,1,0,.91,0A.45.45,0,0,0,192.86,8.36Z"/><path class="cls-9" d="M191,8.36a.46.46,0,0,0-.46.45.46.46,0,0,0,.92,0A.46.46,0,0,0,191,8.36Z"/><path class="cls-9" d="M189.16,8.36a.45.45,0,0,0-.45.45.46.46,0,0,0,.45.46.47.47,0,0,0,.46-.46A.46.46,0,0,0,189.16,8.36Z"/><path class="cls-9" d="M190.09,6.59a.46.46,0,1,0,.45.46A.45.45,0,0,0,190.09,6.59Z"/><path class="cls-9" d="M191.93,6.59a.46.46,0,0,0,0,.91.46.46,0,1,0,0-.91Z"/><path class="cls-9" d="M193.78,6.59a.46.46,0,1,0,.46.46A.46.46,0,0,0,193.78,6.59Z"/><path class="cls-9" d="M195.63,6.59a.46.46,0,1,0,0,.91.46.46,0,0,0,0-.91Z"/><path class="cls-9" d="M197.47,6.59a.46.46,0,1,0,.46.46A.45.45,0,0,0,197.47,6.59Z"/><path class="cls-9" d="M200.25,4.82a.46.46,0,1,0,.45.46A.46.46,0,0,0,200.25,4.82Z"/><path class="cls-9" d="M198.4,4.82a.46.46,0,1,0,0,.92.46.46,0,0,0,0-.92Z"/><path class="cls-9" d="M196.55,4.82a.46.46,0,1,0,.46.46A.47.47,0,0,0,196.55,4.82Z"/><path class="cls-9" d="M194.7,4.82a.46.46,0,1,0,.46.46A.46.46,0,0,0,194.7,4.82Z"/><path class="cls-9" d="M192.86,4.82a.46.46,0,1,0,.45.46A.46.46,0,0,0,192.86,4.82Z"/><path class="cls-9" d="M191,4.82a.46.46,0,1,0,.46.46A.47.47,0,0,0,191,4.82Z"/><path class="cls-9" d="M191.93,3.06a.46.46,0,0,0,0,.91.46.46,0,1,0,0-.91Z"/><path class="cls-9" d="M193.78,3.06a.46.46,0,1,0,.46.45A.46.46,0,0,0,193.78,3.06Z"/><path class="cls-9" d="M195.63,3.06a.46.46,0,1,0,0,.91.46.46,0,0,0,0-.91Z"/><path class="cls-9" d="M197.47,3.06a.46.46,0,1,0,.46.45A.45.45,0,0,0,197.47,3.06Z"/></g></g></svg>