<svg xmlns="http://www.w3.org/2000/svg" viewBox="0 0 243.64 251.36"><defs><style>.cls-1{fill:#283e96;}.cls-2{fill:#1372f5;}.cls-3{fill:#fff;}.cls-4{fill:#b6d0ff;}.cls-5{fill:#182067;}.cls-6{fill:#d7e7ff;}.cls-7{fill:#efaf84;}.cls-8{fill:#9487fc;}.cls-9{fill:#d3774f;}.cls-10{fill:#09546d;}.cls-11{fill:#ddd;}.cls-12{fill:#009da5;}.cls-13{fill:#cc3d1b;}.cls-14{fill:#f37645;}</style></defs><title>02_</title><g id="Warstwa_2" data-name="Warstwa 2"><g id="_02" data-name="02"><path class="cls-1" d="M206,217.12a5.09,5.09,0,0,0-1.58-1.66L101.53,142.13a8.61,8.61,0,0,0-2.21-1.1,14.54,14.54,0,0,0-2.75-.63,16.94,16.94,0,0,0-2.94-.14,13.12,13.12,0,0,0-2.79.41l-63.68,17a8.25,8.25,0,0,0-2.3,1A3.5,3.5,0,0,0,23.62,160a1.9,1.9,0,0,0-.2.86s0,0,0-.07l-.21,6.08a1.66,1.66,0,0,0,.06.54,2,2,0,0,0,.22.54,2.6,2.6,0,0,0,.38.53,4.59,4.59,0,0,0,.55.52l99.12,79.27a9.81,9.81,0,0,0,2.58,1.43,15.29,15.29,0,0,0,3.18.82c.3,0,.59.05.89.08h0c.39,0,.77.06,1.16.07a11.79,11.79,0,0,0,1.33,0,14.41,14.41,0,0,0,1.64-.2,12.39,12.39,0,0,0,1.54-.39l66.61-22.24a6.72,6.72,0,0,0,1.26-.55,4.62,4.62,0,0,0,.94-.67,3.08,3.08,0,0,0,.61-.77,2.38,2.38,0,0,0,.28-.84l.77-6.29s0,0,0,.07A2.49,2.49,0,0,0,206,217.12Z"/><path class="cls-2" d="M52.5,156.71h-.24l-.11,0-.09,0-.05-.06a.13.13,0,0,1,0-.06l0-.05.1,0,.11,0h.12l.11,0,.08,0a.13.13,0,0,1,.05.06.06.06,0,0,1,0,.06l0,0Z"/><path class="cls-3" d="M51.69,156.09a1.93,1.93,0,0,1,.43-.07,3.39,3.39,0,0,1,.45,0,2.24,2.24,0,0,1,.41.1,1.28,1.28,0,0,1,.33.17.52.52,0,0,1,.17.21.22.22,0,0,1,0,.21.44.44,0,0,1-.17.19,1.26,1.26,0,0,1-.33.15,3.11,3.11,0,0,1-.44.06,2.26,2.26,0,0,1-.45,0,1.89,1.89,0,0,1-.41-.1,1,1,0,0,1-.33-.17.52.52,0,0,1-.17-.21.26.26,0,0,1,0-.21.5.5,0,0,1,.17-.19A1,1,0,0,1,51.69,156.09Zm.81.62.09,0,0,0a.06.06,0,0,0,0-.06.13.13,0,0,0-.05-.06l-.08,0-.11,0h-.12l-.11,0-.1,0,0,.05a.13.13,0,0,0,0,.06l.05.06.09,0,.11,0h.24"/><path class="cls-1" d="M23.2,166.82l.21-6.08a2.48,2.48,0,0,0,.06.54,2.45,2.45,0,0,0,.22.54,3,3,0,0,0,.39.53,4.63,4.63,0,0,0,.55.52L24.41,169a4.59,4.59,0,0,1-.55-.52,2.6,2.6,0,0,1-.38-.53,2,2,0,0,1-.22-.54A1.66,1.66,0,0,1,23.2,166.82Z"/><polygon class="cls-4" points="105.39 147.64 193.58 210.55 119.46 234.74 34 167.28 105.39 147.64"/><path class="cls-2" d="M160,224.46a9.62,9.62,0,0,1,2.33-.42,12.35,12.35,0,0,1,2.5.11,11,11,0,0,1,2.39.59,8,8,0,0,1,2,1,3.92,3.92,0,0,1,1.16,1.3,2,2,0,0,1,.18,1.33,2.38,2.38,0,0,1-.78,1.19,4.9,4.9,0,0,1-1.71.9,9.08,9.08,0,0,1-2.34.43,12.65,12.65,0,0,1-2.53-.11,11.71,11.71,0,0,1-2.4-.6,7.83,7.83,0,0,1-2-1.05,3.53,3.53,0,0,1-1.15-1.31,1.87,1.87,0,0,1-.15-1.32,2.3,2.3,0,0,1,.8-1.18A4.93,4.93,0,0,1,160,224.46Z"/><path class="cls-3" d="M159.44,224a10.8,10.8,0,0,1,2.66-.47,13.73,13.73,0,0,1,2.86.12,13.2,13.2,0,0,1,2.72.67,8.86,8.86,0,0,1,2.25,1.18,4.3,4.3,0,0,1,1.33,1.49,2.19,2.19,0,0,1,.2,1.51,2.61,2.61,0,0,1-.89,1.36,5.61,5.61,0,0,1-1.94,1,10.8,10.8,0,0,1-2.68.48,14,14,0,0,1-2.89-.12,13.41,13.41,0,0,1-2.74-.69,8.8,8.8,0,0,1-2.26-1.19,4.35,4.35,0,0,1-1.31-1.5,2.24,2.24,0,0,1-.17-1.51,2.67,2.67,0,0,1,.92-1.35A5.79,5.79,0,0,1,159.44,224Zm8.61,6.46a4.9,4.9,0,0,0,1.71-.9,2.38,2.38,0,0,0,.78-1.19,2,2,0,0,0-.18-1.33,3.92,3.92,0,0,0-1.16-1.3,8,8,0,0,0-2-1,11,11,0,0,0-2.39-.59,12.35,12.35,0,0,0-2.5-.11,9.62,9.62,0,0,0-2.33.42,4.93,4.93,0,0,0-1.7.89,2.3,2.3,0,0,0-.8,1.18,1.87,1.87,0,0,0,.15,1.32,3.53,3.53,0,0,0,1.15,1.31,7.83,7.83,0,0,0,2,1.05,11.71,11.71,0,0,0,2.4.6,12.65,12.65,0,0,0,2.53.11,9.08,9.08,0,0,0,2.34-.43"/><path class="cls-2" d="M206,217.12a5.09,5.09,0,0,0-1.58-1.66L101.53,142.13a8.61,8.61,0,0,0-2.21-1.1,14.54,14.54,0,0,0-2.75-.63,16.94,16.94,0,0,0-2.94-.14,13.12,13.12,0,0,0-2.79.41l-63.68,17a8.25,8.25,0,0,0-2.3,1A3.5,3.5,0,0,0,23.62,160a1.9,1.9,0,0,0-.11,1.46,3.18,3.18,0,0,0,1.12,1.46l99.45,78.87a9.57,9.57,0,0,0,2.59,1.42,14.78,14.78,0,0,0,3.19.82,16.87,16.87,0,0,0,3.4.14,12.53,12.53,0,0,0,3.18-.59l66.79-22.06a6,6,0,0,0,2.14-1.15,2.79,2.79,0,0,0,.93-1.52A2.52,2.52,0,0,0,206,217.12ZM55.22,155.62a.46.46,0,0,1,.07-.07.33.33,0,0,1,.12-.05l18.63-5a.8.8,0,0,1,.15,0h.16l.15,0a.23.23,0,0,1,.12.06.23.23,0,0,1,.07.07.11.11,0,0,1,0,.08.19.19,0,0,1-.06.07.33.33,0,0,1-.12,0l-18.63,5-.16,0h-.16a.76.76,0,0,1-.16,0l-.12-.07a.19.19,0,0,1-.06-.07.11.11,0,0,1,0-.08m-4,.8a.5.5,0,0,1,.17-.19,1,1,0,0,1,.34-.14,1.93,1.93,0,0,1,.43-.07,3.39,3.39,0,0,1,.45,0,2.24,2.24,0,0,1,.41.1,1.28,1.28,0,0,1,.33.17.52.52,0,0,1,.17.21.22.22,0,0,1,0,.21.44.44,0,0,1-.17.19,1.26,1.26,0,0,1-.33.15,3.11,3.11,0,0,1-.44.06,2.26,2.26,0,0,1-.45,0,1.76,1.76,0,0,1-.41-.1,1,1,0,0,1-.33-.17.52.52,0,0,1-.17-.21.26.26,0,0,1,0-.21m120.28,72.11a2.61,2.61,0,0,1-.89,1.36,5.61,5.61,0,0,1-1.94,1,10.8,10.8,0,0,1-2.68.48,14,14,0,0,1-2.89-.12,13.41,13.41,0,0,1-2.74-.69,8.8,8.8,0,0,1-2.26-1.19,4.35,4.35,0,0,1-1.31-1.5,2.24,2.24,0,0,1-.17-1.51,2.67,2.67,0,0,1,.92-1.35,5.79,5.79,0,0,1,1.94-1,10.8,10.8,0,0,1,2.66-.47,13.73,13.73,0,0,1,2.86.12,13.2,13.2,0,0,1,2.72.67,8.86,8.86,0,0,1,2.25,1.18,4.3,4.3,0,0,1,1.33,1.49,2.19,2.19,0,0,1,.2,1.51m-14.26-6.17-37.74,12.38-.3-.2L74.85,199.43,34,167.28l0,.07,36.41-10.1,35.24-9.5v-.07l42,30.15,45.87,32.72"/><path class="cls-3" d="M74,150.47a.8.8,0,0,1,.15,0h.16l.15,0a.23.23,0,0,1,.12.06.23.23,0,0,1,.07.07.11.11,0,0,1,0,.08.19.19,0,0,1-.06.07.33.33,0,0,1-.12,0l-18.63,5-.16,0h-.16a.76.76,0,0,1-.16,0l-.12-.07a.19.19,0,0,1-.06-.07.11.11,0,0,1,0-.08.46.46,0,0,1,.07-.07.33.33,0,0,1,.12-.05Z"/><path class="cls-3" d="M55.56,155.87h.16l.16,0L74,151l0-.48-18.63,5,0,.33h0A.76.76,0,0,0,55.56,155.87Z"/><polygon class="cls-1" points="124.08 241.74 123.53 248.22 24.41 168.95 24.63 162.87 124.08 241.74"/><path class="cls-1" d="M136.44,243.53l-.59,6.49a12.9,12.9,0,0,1-3.18.59,16.67,16.67,0,0,1-3.38-.14,15.29,15.29,0,0,1-3.18-.82,9.81,9.81,0,0,1-2.58-1.43l.55-6.48a9.57,9.57,0,0,0,2.59,1.42,14.72,14.72,0,0,0,3.2.82,16.74,16.74,0,0,0,3.39.14A12.53,12.53,0,0,0,136.44,243.53Z"/><path class="cls-5" d="M206.05,219.49a3.08,3.08,0,0,1-.61.77,5,5,0,0,1-.94.67,8,8,0,0,1-1.27.54l-66.79,22.06a12.53,12.53,0,0,1-3.18.59,15.88,15.88,0,0,1-3.08-.11v6.54a16,16,0,0,0,2.49.06,12.9,12.9,0,0,0,3.18-.59h0l66.61-22.24a6.72,6.72,0,0,0,1.26-.55,4.62,4.62,0,0,0,.94-.67,3.08,3.08,0,0,0,.61-.77,2.38,2.38,0,0,0,.28-.84l.77-6.29A2.19,2.19,0,0,1,206.05,219.49Z"/><polygon class="cls-6" points="119.46 234.74 105.64 147.83 34.03 167.27 119.46 234.74"/><circle class="cls-2" cx="148.02" cy="210.58" r="0.46"/><circle class="cls-2" cx="149.86" cy="210.58" r="0.46"/><circle class="cls-2" cx="151.71" cy="210.58" r="0.46"/><circle class="cls-2" cx="153.56" cy="210.58" r="0.46"/><circle class="cls-2" cx="139.7" cy="208.82" r="0.46"/><circle class="cls-2" cx="141.55" cy="208.82" r="0.46"/><circle class="cls-2" cx="143.4" cy="208.82" r="0.46"/><circle class="cls-2" cx="145.25" cy="208.82" r="0.46"/><circle class="cls-2" cx="147.09" cy="208.82" r="0.46"/><circle class="cls-2" cx="148.02" cy="207.05" r="0.46"/><circle class="cls-2" cx="146.17" cy="207.05" r="0.46"/><circle class="cls-2" cx="144.32" cy="207.05" r="0.46"/><circle class="cls-2" cx="142.48" cy="207.05" r="0.46"/><circle class="cls-2" cx="140.63" cy="207.05" r="0.46"/><circle class="cls-2" cx="138.78" cy="207.05" r="0.46"/><circle class="cls-2" cx="136.93" cy="207.05" r="0.46"/><circle class="cls-2" cx="132.32" cy="205.29" r="0.46"/><circle class="cls-2" cx="134.16" cy="205.29" r="0.46"/><circle class="cls-2" cx="136.01" cy="205.29" r="0.46"/><circle class="cls-2" cx="137.86" cy="205.29" r="0.46"/><circle class="cls-2" cx="139.7" cy="205.29" r="0.46"/><circle class="cls-2" cx="141.55" cy="205.29" r="0.46"/><circle class="cls-2" cx="143.4" cy="205.29" r="0.46"/><circle class="cls-2" cx="145.25" cy="205.29" r="0.46"/><circle class="cls-2" cx="147.09" cy="205.29" r="0.46"/><circle class="cls-2" cx="148.94" cy="205.29" r="0.46"/><circle class="cls-2" cx="149.86" cy="203.52" r="0.46"/><circle class="cls-2" cx="148.02" cy="203.52" r="0.46"/><circle class="cls-2" cx="146.17" cy="203.52" r="0.46"/><circle class="cls-2" cx="144.32" cy="203.52" r="0.46"/><circle class="cls-2" cx="142.48" cy="203.52" r="0.46"/><circle class="cls-2" cx="140.63" cy="203.52" r="0.46"/><circle class="cls-2" cx="138.78" cy="203.52" r="0.46"/><circle class="cls-2" cx="136.93" cy="203.52" r="0.46"/><circle class="cls-2" cx="135.09" cy="203.52" r="0.46"/><circle class="cls-2" cx="133.24" cy="203.52" r="0.46"/><circle class="cls-2" cx="131.39" cy="203.52" r="0.46"/><circle class="cls-2" cx="129.54" cy="203.52" r="0.46"/><circle class="cls-2" cx="127.7" cy="203.52" r="0.46"/><circle class="cls-2" cx="124.93" cy="201.75" r="0.46"/><circle class="cls-2" cx="126.77" cy="201.75" r="0.46"/><circle class="cls-2" cx="128.62" cy="201.75" r="0.46"/><circle class="cls-2" cx="130.47" cy="201.75" r="0.46"/><circle class="cls-2" cx="132.32" cy="201.75" r="0.46"/><circle class="cls-2" cx="134.16" cy="201.75" r="0.46"/><circle class="cls-2" cx="136.01" cy="201.75" r="0.46"/><circle class="cls-2" cx="137.86" cy="201.75" r="0.46"/><circle class="cls-2" cx="139.7" cy="201.75" r="0.46"/><circle class="cls-2" cx="141.55" cy="201.75" r="0.46"/><circle class="cls-2" cx="143.4" cy="201.75" r="0.46"/><circle class="cls-2" cx="145.25" cy="201.75" r="0.46"/><circle class="cls-2" cx="147.09" cy="201.75" r="0.46"/><circle class="cls-2" cx="148.94" cy="201.75" r="0.46"/><circle class="cls-2" cx="150.79" cy="201.75" r="0.46"/><circle class="cls-2" cx="151.71" cy="199.99" r="0.46"/><circle class="cls-2" cx="149.86" cy="199.99" r="0.46"/><circle class="cls-2" cx="148.02" cy="199.99" r="0.46"/><circle class="cls-2" cx="146.17" cy="199.99" r="0.46"/><circle class="cls-2" cx="144.32" cy="199.99" r="0.46"/><circle class="cls-2" cx="142.48" cy="199.99" r="0.46"/><circle class="cls-2" cx="140.63" cy="199.99" r="0.46"/><circle class="cls-2" cx="138.78" cy="199.99" r="0.46"/><circle class="cls-2" cx="136.93" cy="199.99" r="0.46"/><circle class="cls-2" cx="135.09" cy="199.99" r="0.46"/><circle class="cls-2" cx="133.24" cy="199.99" r="0.46"/><circle class="cls-2" cx="131.39" cy="199.99" r="0.46"/><circle class="cls-2" cx="129.54" cy="199.99" r="0.46"/><circle class="cls-2" cx="127.7" cy="199.99" r="0.46"/><circle class="cls-2" cx="125.85" cy="199.99" r="0.46"/><circle class="cls-2" cx="124" cy="199.99" r="0.46"/><circle class="cls-2" cx="122.16" cy="199.99" r="0.46"/><circle class="cls-2" cx="119.38" cy="198.22" r="0.46"/><circle class="cls-2" cx="121.23" cy="198.22" r="0.46"/><circle class="cls-2" cx="123.08" cy="198.22" r="0.46"/><circle class="cls-2" cx="124.93" cy="198.22" r="0.46"/><circle class="cls-2" cx="126.77" cy="198.22" r="0.46"/><circle class="cls-2" cx="128.62" cy="198.22" r="0.46"/><circle class="cls-2" cx="130.47" cy="198.22" r="0.46"/><circle class="cls-2" cx="132.32" cy="198.22" r="0.46"/><circle class="cls-2" cx="134.16" cy="198.22" r="0.46"/><circle class="cls-2" cx="136.01" cy="198.22" r="0.46"/><circle class="cls-2" cx="137.86" cy="198.22" r="0.46"/><circle class="cls-2" cx="139.7" cy="198.22" r="0.46"/><circle class="cls-2" cx="141.55" cy="198.22" r="0.46"/><circle class="cls-2" cx="143.4" cy="198.22" r="0.46"/><circle class="cls-2" cx="145.25" cy="198.22" r="0.46"/><circle class="cls-2" cx="147.09" cy="198.22" r="0.46"/><circle class="cls-2" cx="148.94" cy="198.22" r="0.46"/><circle class="cls-2" cx="150.79" cy="198.22" r="0.46"/><circle class="cls-2" cx="152.64" cy="198.22" r="0.46"/><circle class="cls-2" cx="153.56" cy="196.46" r="0.46"/><circle class="cls-2" cx="151.71" cy="196.46" r="0.46"/><circle class="cls-2" cx="149.86" cy="196.46" r="0.46"/><circle class="cls-2" cx="148.02" cy="196.46" r="0.46"/><circle class="cls-2" cx="146.17" cy="196.46" r="0.46"/><circle class="cls-2" cx="144.32" cy="196.46" r="0.46"/><circle class="cls-2" cx="142.48" cy="196.46" r="0.46"/><circle class="cls-2" cx="140.63" cy="196.46" r="0.46"/><circle class="cls-2" cx="138.78" cy="196.46" r="0.46"/><circle class="cls-2" cx="136.93" cy="196.46" r="0.46"/><circle class="cls-2" cx="135.09" cy="196.46" r="0.46"/><circle class="cls-2" cx="133.24" cy="196.46" r="0.46"/><circle class="cls-2" cx="131.39" cy="196.46" r="0.46"/><circle class="cls-2" cx="129.54" cy="196.46" r="0.46"/><circle class="cls-2" cx="127.7" cy="196.46" r="0.46"/><circle class="cls-2" cx="125.85" cy="196.46" r="0.46"/><circle class="cls-2" cx="124" cy="196.46" r="0.46"/><circle class="cls-2" cx="122.16" cy="196.46" r="0.46"/><circle class="cls-2" cx="120.31" cy="196.46" r="0.46"/><circle class="cls-2" cx="118.46" cy="196.46" r="0.46"/><circle class="cls-2" cx="116.61" cy="196.46" r="0.46"/><circle class="cls-2" cx="114.77" cy="196.46" r="0.46"/><circle class="cls-2" cx="111.99" cy="194.69" r="0.46"/><circle class="cls-2" cx="113.84" cy="194.69" r="0.46"/><circle class="cls-2" cx="115.69" cy="194.69" r="0.46"/><circle class="cls-2" cx="117.54" cy="194.69" r="0.46"/><circle class="cls-2" cx="119.38" cy="194.69" r="0.46"/><circle class="cls-2" cx="121.23" cy="194.69" r="0.46"/><circle class="cls-2" cx="123.08" cy="194.69" r="0.46"/><circle class="cls-2" cx="124.93" cy="194.69" r="0.46"/><circle class="cls-2" cx="126.77" cy="194.69" r="0.46"/><circle class="cls-2" cx="128.62" cy="194.69" r="0.46"/><circle class="cls-2" cx="130.47" cy="194.69" r="0.46"/><circle class="cls-2" cx="132.32" cy="194.69" r="0.46"/><circle class="cls-2" cx="134.16" cy="194.69" r="0.46"/><circle class="cls-2" cx="136.01" cy="194.69" r="0.46"/><circle class="cls-2" cx="137.86" cy="194.69" r="0.46"/><circle class="cls-2" cx="139.7" cy="194.69" r="0.46"/><circle class="cls-2" cx="141.55" cy="194.69" r="0.46"/><circle class="cls-2" cx="143.4" cy="194.69" r="0.46"/><circle class="cls-2" cx="145.25" cy="194.69" r="0.46"/><circle class="cls-2" cx="147.09" cy="194.69" r="0.46"/><circle class="cls-2" cx="148.94" cy="194.69" r="0.46"/><circle class="cls-2" cx="150.79" cy="194.69" r="0.46"/><circle class="cls-2" cx="148.02" cy="192.92" r="0.46"/><circle class="cls-2" cx="146.17" cy="192.92" r="0.46"/><circle class="cls-2" cx="144.32" cy="192.92" r="0.46"/><circle class="cls-2" cx="142.48" cy="192.92" r="0.46"/><circle class="cls-2" cx="140.63" cy="192.92" r="0.46"/><circle class="cls-2" cx="138.78" cy="192.92" r="0.46"/><circle class="cls-2" cx="136.93" cy="192.92" r="0.46"/><circle class="cls-2" cx="135.09" cy="192.92" r="0.46"/><circle class="cls-2" cx="133.24" cy="192.92" r="0.46"/><circle class="cls-2" cx="131.39" cy="192.92" r="0.46"/><circle class="cls-2" cx="129.54" cy="192.92" r="0.46"/><circle class="cls-2" cx="127.7" cy="192.92" r="0.46"/><circle class="cls-2" cx="125.85" cy="192.92" r="0.46"/><circle class="cls-2" cx="124" cy="192.92" r="0.46"/><circle class="cls-2" cx="122.16" cy="192.92" r="0.46"/><circle class="cls-2" cx="120.31" cy="192.92" r="0.46"/><circle class="cls-2" cx="118.46" cy="192.92" r="0.46"/><circle class="cls-2" cx="116.61" cy="192.92" r="0.46"/><circle class="cls-2" cx="114.77" cy="192.92" r="0.46"/><circle class="cls-2" cx="112.92" cy="192.92" r="0.46"/><circle class="cls-2" cx="111.07" cy="192.92" r="0.46"/><circle class="cls-2" cx="109.22" cy="192.92" r="0.46"/><circle class="cls-2" cx="107.38" cy="192.92" r="0.46"/><circle class="cls-2" cx="104.61" cy="191.16" r="0.46"/><circle class="cls-2" cx="106.45" cy="191.16" r="0.46"/><circle class="cls-2" cx="108.3" cy="191.16" r="0.46"/><circle class="cls-2" cx="110.15" cy="191.16" r="0.46"/><circle class="cls-2" cx="111.99" cy="191.16" r="0.46"/><circle class="cls-2" cx="113.84" cy="191.16" r="0.46"/><circle class="cls-2" cx="115.69" cy="191.16" r="0.46"/><circle class="cls-2" cx="117.54" cy="191.16" r="0.46"/><circle class="cls-2" cx="119.38" cy="191.16" r="0.46"/><circle class="cls-2" cx="121.23" cy="191.16" r="0.46"/><circle class="cls-2" cx="123.08" cy="191.16" r="0.46"/><circle class="cls-2" cx="124.93" cy="191.16" r="0.46"/><circle class="cls-2" cx="126.77" cy="191.16" r="0.46"/><circle class="cls-2" cx="128.62" cy="191.16" r="0.46"/><circle class="cls-2" cx="130.47" cy="191.16" r="0.46"/><circle class="cls-2" cx="132.32" cy="191.16" r="0.46"/><circle class="cls-2" cx="134.16" cy="191.16" r="0.46"/><circle class="cls-2" cx="136.01" cy="191.16" r="0.46"/><circle class="cls-2" cx="137.86" cy="191.16" r="0.46"/><circle class="cls-2" cx="139.7" cy="191.16" r="0.46"/><circle class="cls-2" cx="141.55" cy="191.16" r="0.46"/><circle class="cls-2" cx="143.4" cy="191.16" r="0.46"/><circle class="cls-2" cx="145.25" cy="191.16" r="0.46"/><circle class="cls-2" cx="142.48" cy="189.39" r="0.46"/><circle class="cls-2" cx="140.63" cy="189.39" r="0.46"/><circle class="cls-2" cx="138.78" cy="189.39" r="0.46"/><circle class="cls-2" cx="136.93" cy="189.39" r="0.46"/><circle class="cls-2" cx="135.09" cy="189.39" r="0.46"/><circle class="cls-2" cx="133.24" cy="189.39" r="0.46"/><circle class="cls-2" cx="131.39" cy="189.39" r="0.46"/><circle class="cls-2" cx="129.54" cy="189.39" r="0.46"/><circle class="cls-2" cx="127.7" cy="189.39" r="0.46"/><circle class="cls-2" cx="125.85" cy="189.39" r="0.46"/><circle class="cls-2" cx="124" cy="189.39" r="0.46"/><circle class="cls-2" cx="122.16" cy="189.39" r="0.46"/><circle class="cls-2" cx="120.31" cy="189.39" r="0.46"/><circle class="cls-2" cx="118.46" cy="189.39" r="0.46"/><circle class="cls-2" cx="116.61" cy="189.39" r="0.46"/><circle class="cls-2" cx="114.77" cy="189.39" r="0.46"/><circle class="cls-2" cx="112.92" cy="189.39" r="0.46"/><circle class="cls-2" cx="111.07" cy="189.39" r="0.46"/><circle class="cls-2" cx="109.22" cy="189.39" r="0.46"/><circle class="cls-2" cx="107.38" cy="189.39" r="0.46"/><circle class="cls-2" cx="105.53" cy="189.39" r="0.46"/><circle class="cls-2" cx="103.68" cy="189.39" r="0.46"/><circle class="cls-2" cx="101.83" cy="189.39" r="0.46"/><circle class="cls-2" cx="99.99" cy="189.39" r="0.46"/><circle class="cls-2" cx="91.67" cy="187.63" r="0.46"/><circle class="cls-2" cx="93.52" cy="187.63" r="0.46"/><circle class="cls-2" cx="95.37" cy="187.63" r="0.46"/><circle class="cls-2" cx="97.22" cy="187.63" r="0.46"/><circle class="cls-2" cx="99.06" cy="187.63" r="0.46"/><circle class="cls-2" cx="100.91" cy="187.63" r="0.46"/><circle class="cls-2" cx="102.76" cy="187.63" r="0.46"/><circle class="cls-2" cx="104.61" cy="187.63" r="0.46"/><circle class="cls-2" cx="106.45" cy="187.63" r="0.46"/><circle class="cls-2" cx="108.3" cy="187.63" r="0.46"/><circle class="cls-2" cx="110.15" cy="187.63" r="0.46"/><circle class="cls-2" cx="111.99" cy="187.63" r="0.46"/><circle class="cls-2" cx="113.84" cy="187.63" r="0.46"/><circle class="cls-2" cx="115.69" cy="187.63" r="0.46"/><circle class="cls-2" cx="117.54" cy="187.63" r="0.46"/><circle class="cls-2" cx="119.38" cy="187.63" r="0.46"/><circle class="cls-2" cx="121.23" cy="187.63" r="0.46"/><circle class="cls-2" cx="123.08" cy="187.63" r="0.46"/><circle class="cls-2" cx="124.93" cy="187.63" r="0.46"/><circle class="cls-2" cx="126.77" cy="187.63" r="0.46"/><circle class="cls-2" cx="128.62" cy="187.63" r="0.46"/><circle class="cls-2" cx="130.47" cy="187.63" r="0.46"/><circle class="cls-2" cx="132.32" cy="187.63" r="0.46"/><circle class="cls-2" cx="134.16" cy="187.63" r="0.46"/><circle class="cls-2" cx="136.01" cy="187.63" r="0.46"/><circle class="cls-2" cx="137.86" cy="187.63" r="0.46"/><circle class="cls-2" cx="133.24" cy="185.86" r="0.46"/><circle class="cls-2" cx="131.39" cy="185.86" r="0.46"/><circle class="cls-2" cx="129.54" cy="185.86" r="0.46"/><circle class="cls-2" cx="127.7" cy="185.86" r="0.46"/><circle class="cls-2" cx="125.85" cy="185.86" r="0.46"/><circle class="cls-2" cx="124" cy="185.86" r="0.46"/><circle class="cls-2" cx="122.16" cy="185.86" r="0.46"/><circle class="cls-2" cx="120.31" cy="185.86" r="0.46"/><circle class="cls-2" cx="118.46" cy="185.86" r="0.46"/><circle class="cls-2" cx="116.61" cy="185.86" r="0.46"/><circle class="cls-2" cx="114.77" cy="185.86" r="0.46"/><circle class="cls-2" cx="112.92" cy="185.86" r="0.46"/><circle class="cls-2" cx="111.07" cy="185.86" r="0.46"/><circle class="cls-2" cx="109.22" cy="185.86" r="0.46"/><circle class="cls-2" cx="107.38" cy="185.86" r="0.46"/><circle class="cls-2" cx="105.53" cy="185.86" r="0.46"/><circle class="cls-2" cx="103.68" cy="185.86" r="0.46"/><circle class="cls-2" cx="101.83" cy="185.86" r="0.46"/><circle class="cls-2" cx="99.99" cy="185.86" r="0.46"/><circle class="cls-2" cx="98.14" cy="185.86" r="0.46"/><circle class="cls-2" cx="96.29" cy="185.86" r="0.46"/><circle class="cls-2" cx="94.45" cy="185.86" r="0.46"/><circle class="cls-2" cx="92.6" cy="185.86" r="0.46"/><circle class="cls-2" cx="90.75" cy="185.86" r="0.46"/><circle class="cls-2" cx="88.9" cy="185.86" r="0.46"/><circle class="cls-2" cx="87.06" cy="185.86" r="0.46"/><circle class="cls-2" cx="85.21" cy="185.86" r="0.46"/><circle class="cls-2" cx="83.36" cy="185.86" r="0.46"/><circle class="cls-2" cx="81.51" cy="185.86" r="0.46"/><circle class="cls-2" cx="79.67" cy="185.86" r="0.46"/><circle class="cls-2" cx="77.82" cy="185.86" r="0.46"/><circle class="cls-2" cx="75.97" cy="185.86" r="0.46"/><circle class="cls-2" cx="71.35" cy="184.09" r="0.46"/><circle class="cls-2" cx="73.2" cy="184.09" r="0.46"/><circle class="cls-2" cx="75.05" cy="184.09" r="0.46"/><circle class="cls-2" cx="76.9" cy="184.09" r="0.46"/><circle class="cls-2" cx="78.74" cy="184.09" r="0.46"/><circle class="cls-2" cx="80.59" cy="184.09" r="0.46"/><circle class="cls-2" cx="82.44" cy="184.09" r="0.46"/><circle class="cls-2" cx="84.29" cy="184.09" r="0.46"/><circle class="cls-2" cx="86.13" cy="184.09" r="0.46"/><circle class="cls-2" cx="87.98" cy="184.09" r="0.46"/><circle class="cls-2" cx="89.83" cy="184.09" r="0.46"/><circle class="cls-2" cx="91.67" cy="184.09" r="0.46"/><circle class="cls-2" cx="93.52" cy="184.09" r="0.46"/><circle class="cls-2" cx="95.37" cy="184.09" r="0.46"/><circle class="cls-2" cx="97.22" cy="184.09" r="0.46"/><circle class="cls-2" cx="99.06" cy="184.09" r="0.46"/><circle class="cls-2" cx="100.91" cy="184.09" r="0.46"/><circle class="cls-2" cx="102.76" cy="184.09" r="0.46"/><circle class="cls-2" cx="104.61" cy="184.09" r="0.46"/><circle class="cls-2" cx="106.45" cy="184.09" r="0.46"/><circle class="cls-2" cx="108.3" cy="184.09" r="0.46"/><circle class="cls-2" cx="110.15" cy="184.09" r="0.46"/><circle class="cls-2" cx="111.99" cy="184.09" r="0.46"/><circle class="cls-2" cx="113.84" cy="184.09" r="0.46"/><circle class="cls-2" cx="115.69" cy="184.09" r="0.46"/><circle class="cls-2" cx="117.54" cy="184.09" r="0.46"/><circle class="cls-2" cx="119.38" cy="184.09" r="0.46"/><circle class="cls-2" cx="121.23" cy="184.09" r="0.46"/><circle class="cls-2" cx="123.08" cy="184.09" r="0.46"/><circle class="cls-2" cx="124.93" cy="184.09" r="0.46"/><circle class="cls-2" cx="126.77" cy="184.09" r="0.46"/><circle class="cls-2" cx="128.62" cy="184.09" r="0.46"/><circle class="cls-2" cx="124" cy="182.33" r="0.46"/><circle class="cls-2" cx="122.16" cy="182.33" r="0.46"/><circle class="cls-2" cx="120.31" cy="182.33" r="0.46"/><circle class="cls-2" cx="118.46" cy="182.33" r="0.46"/><circle class="cls-2" cx="116.61" cy="182.33" r="0.46"/><circle class="cls-2" cx="114.77" cy="182.33" r="0.46"/><circle class="cls-2" cx="112.92" cy="182.33" r="0.46"/><circle class="cls-2" cx="111.07" cy="182.33" r="0.46"/><circle class="cls-2" cx="109.22" cy="182.33" r="0.46"/><circle class="cls-2" cx="107.38" cy="182.33" r="0.46"/><circle class="cls-2" cx="105.53" cy="182.33" r="0.46"/><circle class="cls-2" cx="103.68" cy="182.33" r="0.46"/><circle class="cls-2" cx="101.83" cy="182.33" r="0.46"/><circle class="cls-2" cx="99.99" cy="182.33" r="0.46"/><circle class="cls-2" cx="98.14" cy="182.33" r="0.46"/><circle class="cls-2" cx="96.29" cy="182.33" r="0.46"/><circle class="cls-2" cx="94.45" cy="182.33" r="0.46"/><circle class="cls-2" cx="92.6" cy="182.33" r="0.46"/><circle class="cls-2" cx="90.75" cy="182.33" r="0.46"/><circle class="cls-2" cx="88.9" cy="182.33" r="0.46"/><circle class="cls-2" cx="87.06" cy="182.33" r="0.46"/><circle class="cls-2" cx="85.21" cy="182.33" r="0.46"/><circle class="cls-2" cx="83.36" cy="182.33" r="0.46"/><circle class="cls-2" cx="81.51" cy="182.33" r="0.46"/><circle class="cls-2" cx="79.67" cy="182.33" r="0.46"/><circle class="cls-2" cx="75.97" cy="182.33" r="0.46"/><circle class="cls-2" cx="74.13" cy="182.33" r="0.46"/><circle class="cls-2" cx="72.28" cy="182.33" r="0.46"/><circle class="cls-2" cx="70.43" cy="182.33" r="0.46"/><circle class="cls-2" cx="68.58" cy="182.33" r="0.46"/><circle class="cls-2" cx="67.66" cy="180.56" r="0.46"/><circle class="cls-2" cx="69.51" cy="180.56" r="0.46"/><circle class="cls-2" cx="71.35" cy="180.56" r="0.46"/><circle class="cls-2" cx="73.2" cy="180.56" r="0.46"/><circle class="cls-2" cx="82.44" cy="180.56" r="0.46"/><circle class="cls-2" cx="84.29" cy="180.56" r="0.46"/><circle class="cls-2" cx="86.13" cy="180.56" r="0.46"/><circle class="cls-2" cx="87.98" cy="180.56" r="0.46"/><circle class="cls-2" cx="89.83" cy="180.56" r="0.46"/><circle class="cls-2" cx="91.67" cy="180.56" r="0.46"/><circle class="cls-2" cx="93.52" cy="180.56" r="0.46"/><circle class="cls-2" cx="95.37" cy="180.56" r="0.46"/><circle class="cls-2" cx="97.22" cy="180.56" r="0.46"/><circle class="cls-2" cx="99.06" cy="180.56" r="0.46"/><circle class="cls-2" cx="100.91" cy="180.56" r="0.46"/><circle class="cls-2" cx="102.76" cy="180.56" r="0.46"/><circle class="cls-2" cx="104.61" cy="180.56" r="0.46"/><circle class="cls-2" cx="106.45" cy="180.56" r="0.46"/><circle class="cls-2" cx="108.3" cy="180.56" r="0.46"/><circle class="cls-2" cx="110.15" cy="180.56" r="0.46"/><circle class="cls-2" cx="111.99" cy="180.56" r="0.46"/><circle class="cls-2" cx="113.84" cy="180.56" r="0.46"/><circle class="cls-2" cx="115.69" cy="180.56" r="0.46"/><circle class="cls-2" cx="117.54" cy="180.56" r="0.46"/><circle class="cls-2" cx="112.92" cy="178.8" r="0.46"/><circle class="cls-2" cx="111.07" cy="178.8" r="0.46"/><circle class="cls-2" cx="109.22" cy="178.8" r="0.46"/><circle class="cls-2" cx="107.38" cy="178.8" r="0.46"/><circle class="cls-2" cx="105.53" cy="178.8" r="0.46"/><circle class="cls-2" cx="103.68" cy="178.8" r="0.46"/><circle class="cls-2" cx="101.83" cy="178.8" r="0.46"/><circle class="cls-2" cx="99.99" cy="178.8" r="0.46"/><circle class="cls-2" cx="98.14" cy="178.8" r="0.46"/><circle class="cls-2" cx="96.29" cy="178.8" r="0.46"/><circle class="cls-2" cx="94.45" cy="178.8" r="0.46"/><circle class="cls-2" cx="92.6" cy="178.8" r="0.46"/><circle class="cls-2" cx="90.75" cy="178.8" r="0.46"/><circle class="cls-2" cx="88.9" cy="178.8" r="0.46"/><circle class="cls-2" cx="87.06" cy="178.8" r="0.46"/><circle class="cls-2" cx="85.21" cy="178.8" r="0.46"/><circle class="cls-2" cx="83.36" cy="178.8" r="0.46"/><circle class="cls-2" cx="72.28" cy="178.8" r="0.46"/><circle class="cls-2" cx="70.43" cy="178.8" r="0.46"/><circle class="cls-2" cx="68.58" cy="178.8" r="0.46"/><circle class="cls-2" cx="66.74" cy="178.8" r="0.46"/><circle class="cls-2" cx="65.81" cy="177.03" r="0.46"/><circle class="cls-2" cx="67.66" cy="177.03" r="0.46"/><circle class="cls-2" cx="69.51" cy="177.03" r="0.46"/><circle class="cls-2" cx="71.35" cy="177.03" r="0.46"/><circle class="cls-2" cx="84.29" cy="177.03" r="0.46"/><circle class="cls-2" cx="86.13" cy="177.03" r="0.46"/><circle class="cls-2" cx="87.98" cy="177.03" r="0.46"/><circle class="cls-2" cx="89.83" cy="177.03" r="0.46"/><circle class="cls-2" cx="91.67" cy="177.03" r="0.46"/><circle class="cls-2" cx="93.52" cy="177.03" r="0.46"/><circle class="cls-2" cx="95.37" cy="177.03" r="0.46"/><circle class="cls-2" cx="97.22" cy="177.03" r="0.46"/><circle class="cls-2" cx="99.06" cy="177.03" r="0.46"/><circle class="cls-2" cx="100.91" cy="177.03" r="0.46"/><circle class="cls-2" cx="102.76" cy="177.03" r="0.46"/><circle class="cls-2" cx="104.61" cy="177.03" r="0.46"/><circle class="cls-2" cx="106.45" cy="177.03" r="0.46"/><circle class="cls-2" cx="108.3" cy="177.03" r="0.46"/><circle class="cls-2" cx="103.68" cy="175.26" r="0.46"/><circle class="cls-2" cx="101.83" cy="175.26" r="0.46"/><circle class="cls-2" cx="99.99" cy="175.26" r="0.46"/><circle class="cls-2" cx="98.14" cy="175.26" r="0.46"/><circle class="cls-2" cx="96.29" cy="175.26" r="0.46"/><circle class="cls-2" cx="94.45" cy="175.26" r="0.46"/><circle class="cls-2" cx="92.6" cy="175.26" r="0.46"/><circle class="cls-2" cx="90.75" cy="175.26" r="0.46"/><circle class="cls-2" cx="88.9" cy="175.26" r="0.46"/><circle class="cls-2" cx="87.06" cy="175.26" r="0.46"/><circle class="cls-2" cx="85.21" cy="175.26" r="0.46"/><circle class="cls-2" cx="83.36" cy="175.26" r="0.46"/><circle class="cls-2" cx="70.43" cy="175.26" r="0.46"/><circle class="cls-2" cx="68.58" cy="175.26" r="0.46"/><circle class="cls-2" cx="66.74" cy="175.26" r="0.46"/><circle class="cls-2" cx="67.66" cy="173.5" r="0.46"/><circle class="cls-2" cx="69.51" cy="173.5" r="0.46"/><circle class="cls-2" cx="84.29" cy="173.5" r="0.46"/><circle class="cls-2" cx="86.13" cy="173.5" r="0.46"/><circle class="cls-2" cx="87.98" cy="173.5" r="0.46"/><circle class="cls-2" cx="89.83" cy="173.5" r="0.46"/><circle class="cls-2" cx="91.67" cy="173.5" r="0.46"/><circle class="cls-2" cx="93.52" cy="173.5" r="0.46"/><circle class="cls-2" cx="95.37" cy="173.5" r="0.46"/><circle class="cls-2" cx="97.22" cy="173.5" r="0.46"/><circle class="cls-2" cx="99.06" cy="173.5" r="0.46"/><circle class="cls-2" cx="94.45" cy="171.73" r="0.46"/><circle class="cls-2" cx="92.6" cy="171.73" r="0.46"/><circle class="cls-2" cx="90.75" cy="171.73" r="0.46"/><circle class="cls-2" cx="88.9" cy="171.73" r="0.46"/><circle class="cls-2" cx="87.06" cy="171.73" r="0.46"/><circle class="cls-2" cx="85.21" cy="171.73" r="0.46"/><circle class="cls-2" cx="83.36" cy="171.73" r="0.46"/><circle class="cls-2" cx="68.58" cy="171.73" r="0.46"/><circle class="cls-2" cx="84.29" cy="169.97" r="0.46"/><circle class="cls-2" cx="86.13" cy="169.97" r="0.46"/><circle class="cls-2" cx="87.98" cy="169.97" r="0.46"/><circle class="cls-2" cx="89.83" cy="169.97" r="0.46"/><circle class="cls-2" cx="85.21" cy="168.2" r="0.46"/><circle class="cls-2" cx="83.36" cy="168.2" r="0.46"/><path class="cls-4" d="M167.37,151.71c-.23-7.84,11.35-6.43,15.61-9.84,2.8-2.23,2.19-6.65,5.09-8.71,3.16-2.25,6.67.8,9.84,1.33,6.61,1.11,11.54-6.56,18.12-5.26,6.86,1.36,5.28,11.25,11.29,13.2,2.51.81,5.19-.52,7.74-.23a7.62,7.62,0,0,1,4.16,1.87,16.42,16.42,0,0,1,4.42,7.64Z"/><path class="cls-2" d="M82.11,234.13c-.67-2.5-1.79-4.94-4.13-6.14-5.77-2.94-11.72,4.44-16-3.29-2.44-4.38-2.9-9-7.79-11.55a11.42,11.42,0,0,0-11.67.81c-2.07,1.44-3.08,3.65-4.9,5.33-3.24,3-7,1.2-10.55.11-4.76-1.46-9.63-1.32-13.87,1.55a15,15,0,0,0-4,4c-.9,1.33-1.41,4.67-2.52,5.47s-2.71.46-3.87,1.39a5.76,5.76,0,0,0-1.73,2.32Z"/><path class="cls-7" d="M222.63,97.88c-5.5-3-12-3.49-18.13-3.82.14-.54-.72-.73-.88-.18,0,.06,0,.13-.05.19a.44.44,0,0,0-.16.56q-1.5,5.3-2.51,10.71h-.57a.45.45,0,0,0,0,.9h.37c0,.51.78.66.88.12a.69.69,0,0,1,0-.13,24.24,24.24,0,0,1,7.32,1.06c2.95.92,5.13,2.47,7.71,4.07,1.12.7,2.84,1.51,4,.25a1.58,1.58,0,0,0,.43-1.11,2.14,2.14,0,0,0,2.5-2.31,1.91,1.91,0,0,0,2.15-2.54,2.31,2.31,0,0,0,1.95-2.26C227.81,100.79,224.55,98.93,222.63,97.88Z"/><path class="cls-5" d="M78.86,183s4.73-1.68,4.43-5.72S78,176.06,78,176.06l-.3,6.21Z"/><path class="cls-5" d="M71.08,147.3s-14.29,3.86-6.62,17.95S75.75,184.33,78.86,183s1.86-5.09,1.28-21S71.08,147.3,71.08,147.3Z"/><path class="cls-8" d="M68.49,142.79s-8.74,7-1.08,21.08,10.66,18.67,13.77,17.31,2.49-4.69,1.92-20.58S68.49,142.79,68.49,142.79Z"/><path class="cls-5" d="M81.34,162.85a13.39,13.39,0,0,1-7.16.2c-.55-.14-.86.7-.3.84a14.15,14.15,0,0,0,7.61-.16C82,163.57,81.89,162.69,81.34,162.85Z"/><path class="cls-5" d="M71.12,158.34c-2.59,2.4-6.09,5.53-9.92,4.11-3.27-1.22-3.58-5.29-4.92-8a10.64,10.64,0,0,0-11.7-5.56c-.56.12-.42,1,.15.88a9.84,9.84,0,0,1,9.65,3.32c1.91,2.36,2,5.55,3.76,8,3.76,5.38,10.06,1.18,13.56-2.05C72.12,158.64,71.55,158,71.12,158.34Z"/><path class="cls-7" d="M166.44,186.32l-8-1.48c-.31-.06-.6.1-.58.41.31,5.83-1.44,9.53-3.54,12.08a.45.45,0,0,0-.28.63c-.06.13-.11.26-.17.38-.25.52.51,1,.76.48l.17-.39,6.49,2.75c2,.83,4.19,2.2,6.33,2.51,3.36.49,4.07-3.86,4.61-6.31s2.77-14.89.42-16.93C171.32,179.28,168.09,186.63,166.44,186.32Z"/><path class="cls-9" d="M173.22,187.06c.3-.85.49-1.73.71-2.59a.43.43,0,0,0-.49-.09c-4.8,2.07-9.86,4.14-15.17,3.15-.22,0-.52,0-.56.29a25.41,25.41,0,0,1-3.1,8.37.46.46,0,0,0,.36.69c7.14-.13,14.43-1.63,18.74-7.23C175.13,188.78,173.14,187.28,173.22,187.06Z"/><path class="cls-8" d="M155.21,195l-7.14,11.14a2.58,2.58,0,0,0,1.65,3.92l37.87,7.75a2.22,2.22,0,0,0,2.61-1.72h0a2.22,2.22,0,0,0-.77-2.16l-14.38-11.76,2.28-4.38a1.32,1.32,0,0,0-1.2-1.93l-6.73.15a1.31,1.31,0,0,0-1.17.78l-1.14,2.55h0a23.58,23.58,0,0,1-11.56-4.12Z"/><path class="cls-5" d="M148.07,206.15a2.58,2.58,0,0,0,1.65,3.92l37.87,7.75a2.19,2.19,0,0,0,2.39-3.18l-41.86-8.56Z"/><path class="cls-5" d="M175.65,201.25a5.58,5.58,0,0,1-5.5-.4c-.46-.35-.92.42-.46.77a6.46,6.46,0,0,0,6.39.42C176.57,201.75,176.15,201,175.65,201.25Z"/><path class="cls-5" d="M177.17,203.67c-1.53.7-3.6,1.35-5.18.47-.5-.28-1,.49-.47.77,1.9,1.05,4.23.4,6.07-.45C178.12,204.22,177.69,203.44,177.17,203.67Z"/><path class="cls-5" d="M151.55,193.8c-4.15,1.25-7.84,3.74-12.07,4.74s-10.08-.3-11-5.34a.45.45,0,0,0-.88.15c1.21,6.9,9.41,7.18,14.65,5.25C146.76,197,151.05,194,156,194a9.55,9.55,0,0,1,9.46,8.45c.07.58,1,.42.88-.15C165.39,194.84,158.2,191.81,151.55,193.8Z"/><path class="cls-10" d="M182.72,156.93a79.27,79.27,0,0,0-11.12-27.34c-9.42-14.41-22.52-20.51-38.41-26.17-4.15-1.47-11.9-4.57-14.6-8.28-2.3-3.15-3.28-7-4.12-10.8l0,0a.38.38,0,0,0-.19-.61l-.06-.23a.45.45,0,0,0-.87.19c0,.17.07.33.11.49l-12.64,16c-2.32,2.95-5.19,6.13-6.13,9.8a27.07,27.07,0,0,1-3.42.56,30,30,0,0,0,1.18,4.44,31.94,31.94,0,0,0,17,18.32c9.52,4.25,20.76,2.14,29.77,7.83,8.05,5.09,12.91,14.41,14.15,23.69,1.05,7.93-1.25,18.61,5.7,24.48,6.3,5.32,15.54,2.46,20.22-3.51C185.69,177.61,184.67,166.41,182.72,156.93Z"/><path class="cls-11" d="M9.76,155.16l8.75,3.44c.53.21.94-.59.4-.8l-8.75-3.44C9.63,154.15,9.23,155,9.76,155.16Z"/><path class="cls-11" d="M8.92,162.51l9.4,0c.57,0,.65-.9.07-.89l-9.4,0C8.42,161.62,8.34,162.51,8.92,162.51Z"/><path class="cls-11" d="M15.32,148.08l5.51,7.62c.33.46,1.1,0,.76-.46l-5.51-7.62C15.75,147.16,15,147.61,15.32,148.08Z"/><path class="cls-12" d="M131.78,125.41c-3.54-7-9.21-12.78-15.25-17.73-5.6-4.58-12.79-9.77-13.17-17.65l1.8.47c.55.14.86-.7.3-.84a111.53,111.53,0,0,1-26.52-10.3l0,0c-.45-.24-.9-.47-1.35-.73s-1,.46-.51.74l.81.44C68.64,85.14,64.74,96.88,67,107.05s9.55,18.27,18.15,24c-8.23.44-16.06,2.06-20.8,9.3-3.17,4.86-3.26,10.91.58,15.42,4.42,5.2,11.49,6.45,17.91,7.15A123.43,123.43,0,0,0,108,163c6.45-.62,13.29-1.65,18.65-5.58C136.63,150.1,136.93,135.67,131.78,125.41Z"/><path class="cls-8" d="M181.14,234.9c.7,9.08-8.72,16-17.42,15.49-11-.7-19.19-9.47-24.69-18.25-5.15-8.21-9-17.29-15.42-24.66-6.25-7.19-14.47-11.1-23.83-12.45-21.42-3.08-43,4.06-64.4.36-9.72-1.67-19.48-5.61-26.16-13.11-6-6.72-9.69-16.17-7.84-25.22,2.12-10.32,11.9-17.27,11.78-28.33A23.57,23.57,0,0,0,.72,108.2c-.5-.26-1,.47-.51.73a22.7,22.7,0,0,1,11.88,22.72C10.83,141.48,1.9,148.12.33,157.92-1,166.27,2.1,174.85,7.27,181.35c5.94,7.48,14.8,11.93,24,14.1,22,5.21,44.13-2.15,66.22.2a42.17,42.17,0,0,1,16.18,4.68,37.75,37.75,0,0,1,11.55,10.53c6.18,8.22,10,17.91,16.08,26.18S157.15,252.86,168,251.1c7.75-1.25,14.67-8.52,14-16.49Z"/><path class="cls-8" d="M191.31,206.12l.77.55a26.59,26.59,0,0,0-3.86-25.62C182.58,174,174,170.57,165,171c-9.39.42-18.26,4.15-27.31,6.34-9.89,2.4-19.92,2.41-28.64-3.45a33.47,33.47,0,0,1-9.85-10.33l-1,0c5.48,9.3,15.47,16,26.53,16.27,18.58.52,38.52-15.24,56.28-4.05A25.61,25.61,0,0,1,191.31,206.12Z"/><path class="cls-9" d="M221.23,110.67a20.31,20.31,0,0,0-5.29-4.44c-.5-.28-1,.45-.51.74a19.3,19.3,0,0,1,5.11,4.28A.45.45,0,0,0,221.23,110.67Z"/><path class="cls-9" d="M223.94,108.25a12.35,12.35,0,0,0-5.94-4c-.55-.16-.86.68-.3.85a11.39,11.39,0,0,1,5.55,3.69A.45.45,0,0,0,223.94,108.25Z"/><path class="cls-9" d="M226.06,105.54a10.26,10.26,0,0,0-6.12-3.39c-.57-.09-.64.8-.08.89a9.29,9.29,0,0,1,5.52,3.08C225.76,106.55,226.44,106,226.06,105.54Z"/><path class="cls-9" d="M220.78,96.7c-.26-.51-1.08-.14-.81.37a2.53,2.53,0,0,1,.2,1.88c-.23.47-1.31.71-1.79.66a7.78,7.78,0,0,1-2.5-1,5.7,5.7,0,0,0-3-.74c-.58,0-.42.92.15.88,2.37-.15,4.21,2.45,6.65,1.61C221.34,99.77,221.53,98.15,220.78,96.7Z"/><path class="cls-7" d="M24.29,26.61a14.52,14.52,0,0,1-4.77-8,13.93,13.93,0,0,1-.2-4.46,7,7,0,0,0,.17-2.6,2.27,2.27,0,0,0-3.09-1.43,3.15,3.15,0,0,0-1.71,1.51C14.57,8.92,14,5.67,11.88,5c-1.64-.51-2.53.38-3,1.64a3.5,3.5,0,0,0-.24-.3,2.34,2.34,0,0,0-2.9-.52C4.78,6.49,4.71,7.91,4.6,9c-.06.6-.1,1.21-.13,1.82-.45-.95-1.1-1.59-2-1.4C-.38,9.93.83,15.25,1.17,17a25.49,25.49,0,0,0,12.19,17.1.45.45,0,0,0,.37,0l1.63.93A.45.45,0,0,0,16,35a32.1,32.1,0,0,1,7.24-8.17c.19.18.37.35.57.52C24.22,27.72,24.73,27,24.29,26.61Z"/><path class="cls-5" d="M210.05,92.55A100.74,100.74,0,0,1,165.89,79.2c-12.91-7.49-23-18.36-34.43-27.75A83.59,83.59,0,0,0,117,41.64a4.87,4.87,0,0,1-.21.53A3.87,3.87,0,0,1,111.88,44l.35.13c-.23-.09-.47-.16-.71-.23q.42,12.26.82,24.52a.45.45,0,0,0,.54.43,123.07,123.07,0,0,0,70.54,37.6,118.72,118.72,0,0,0,23.82,1.38C207.56,107.84,210.09,92.55,210.05,92.55Z"/><circle class="cls-7" cx="120.37" cy="27.31" r="12.16"/><path class="cls-9" d="M128,33a5.3,5.3,0,0,1-5.71-1.17c-.42-.4-1,.3-.56.7a6.2,6.2,0,0,0,6.58,1.31A.45.45,0,0,0,128,33Z"/><path class="cls-13" d="M142.7,13.66a12.08,12.08,0,0,1-10.12,8.12c.36-.12.72-.23,1.07-.37.11,0,.2-.08.31-.12l.34-.14a10,10,0,0,0,1.82-1,.32.32,0,0,0,.08-.09A10.53,10.53,0,0,0,139,17.33a11,11,0,0,0-3.47-15.78,11.18,11.18,0,0,0-8.77-1.1c-3.81,1.1-6.88,3.91-10.7,5s-7.51.49-10.61,3.44a14.28,14.28,0,0,0-4.12,8.71,17.7,17.7,0,0,0,9.5,17.52l.43.3c1,.64,1.73-.29.94-1.35a9.26,9.26,0,0,1-2.12-6.2A4.21,4.21,0,0,1,111.3,25c1.34-1.21,3.75-.85,4.21,1,.12.39.47.71,1,.18a7.9,7.9,0,0,1,2.31-2c1.81-1.07,5.17-2,10.39-1.64A12.62,12.62,0,0,0,143.52,14C143.71,13.49,142.89,13.12,142.7,13.66Z"/><path class="cls-13" d="M104.8,12.39l-.37-.13a.36.36,0,0,0,0-.55,4.4,4.4,0,0,0-6.12-.46c-.43.37.09,1.1.53.72a3.49,3.49,0,0,1,4.68.1,4.86,4.86,0,0,0-5.51,5.3.45.45,0,0,0,.89-.08,4,4,0,0,1,5.48-4.09C105,13.41,105.34,12.6,104.8,12.39Z"/><path class="cls-9" d="M6.35,16.41A13.19,13.19,0,0,1,4.57,9.7c0-.58-.89-.66-.89-.08a14.15,14.15,0,0,0,1.86,7.16C5.82,17.27,6.63,16.91,6.35,16.41Z"/><path class="cls-9" d="M10.47,13.16A11.4,11.4,0,0,1,9.31,6.3c.08-.58-.81-.65-.89-.08a12.29,12.29,0,0,0,1.24,7.32C9.92,14.05,10.74,13.68,10.47,13.16Z"/><path class="cls-8" d="M69.56,135.06c-9.55-4.16-20.77-5.92-28.86-12.3-8.45-6.66-9.82-17.22-6.36-27S45.24,78.37,51.08,70c5.5-7.92,10.55-18.17,7.89-28-2-7.65-8.74-14.37-17-13.93-.57,0-.42.91.15.88,9.72-.51,16.53,9.2,16.68,18.13C58.92,57.2,53,66.16,47.07,74,41.28,81.6,34.9,89.23,32.51,98.73c-2,7.83-.85,16.15,4.83,22.17,8.24,8.74,20.66,10.24,31.31,14.81C69,135.48,69.25,135.27,69.56,135.06Z"/><path class="cls-10" d="M106.36,139.18A46.57,46.57,0,0,1,85,131c-8.19.45-16,2.09-20.69,9.3-.18.27-.34.55-.5.83a10.71,10.71,0,0,1,10.32-3c3.61.92,6.63,3.38,10.3,4.16C99.25,145.38,106.56,139.13,106.36,139.18Z"/><circle class="cls-14" cx="135.1" cy="12.82" r="0.46"/><circle class="cls-14" cx="136.95" cy="12.82" r="0.46"/><circle class="cls-14" cx="138.8" cy="12.82" r="0.46"/><circle class="cls-14" cx="139.72" cy="11.05" r="0.46"/><circle class="cls-14" cx="137.87" cy="11.05" r="0.46"/><circle class="cls-14" cx="136.03" cy="11.05" r="0.46"/><circle class="cls-14" cx="134.18" cy="11.05" r="0.46"/><circle class="cls-14" cx="131.41" cy="9.29" r="0.46"/><circle class="cls-14" cx="133.26" cy="9.29" r="0.46"/><circle class="cls-14" cx="135.1" cy="9.29" r="0.46"/><circle class="cls-14" cx="136.95" cy="9.29" r="0.46"/><circle class="cls-14" cx="138.8" cy="9.29" r="0.46"/><circle class="cls-14" cx="139.72" cy="7.52" r="0.46"/><circle class="cls-14" cx="137.87" cy="7.52" r="0.46"/><circle class="cls-14" cx="136.03" cy="7.52" r="0.46"/><circle class="cls-14" cx="134.18" cy="7.52" r="0.46"/><circle class="cls-14" cx="132.33" cy="7.52" r="0.46"/><circle class="cls-14" cx="130.48" cy="7.52" r="0.46"/><circle class="cls-14" cx="128.64" cy="7.52" r="0.46"/><circle class="cls-14" cx="126.79" cy="7.52" r="0.46"/><circle class="cls-14" cx="124.94" cy="7.52" r="0.46"/><circle class="cls-14" cx="123.1" cy="7.52" r="0.46"/><circle class="cls-14" cx="121.25" cy="7.52" r="0.46"/><circle class="cls-14" cx="119.4" cy="7.52" r="0.46"/><circle class="cls-14" cx="117.55" cy="7.52" r="0.46"/><circle class="cls-14" cx="115.71" cy="7.52" r="0.46"/><circle class="cls-14" cx="116.63" cy="5.75" r="0.46"/><circle class="cls-14" cx="118.48" cy="5.75" r="0.46"/><circle class="cls-14" cx="120.32" cy="5.75" r="0.46"/><circle class="cls-14" cx="122.17" cy="5.75" r="0.46"/><circle class="cls-14" cx="124.02" cy="5.75" r="0.46"/><circle class="cls-14" cx="125.87" cy="5.75" r="0.46"/><circle class="cls-14" cx="127.71" cy="5.75" r="0.46"/><circle class="cls-14" cx="129.56" cy="5.75" r="0.46"/><circle class="cls-14" cx="131.41" cy="5.75" r="0.46"/><circle class="cls-14" cx="133.26" cy="5.75" r="0.46"/><circle class="cls-14" cx="135.1" cy="5.75" r="0.46"/><circle class="cls-14" cx="136.95" cy="5.75" r="0.46"/><circle class="cls-14" cx="138.8" cy="5.75" r="0.46"/><circle class="cls-14" cx="137.87" cy="3.99" r="0.46"/><circle class="cls-14" cx="136.03" cy="3.99" r="0.46"/><circle class="cls-14" cx="134.18" cy="3.99" r="0.46"/><circle class="cls-14" cx="132.33" cy="3.99" r="0.46"/><circle class="cls-14" cx="130.48" cy="3.99" r="0.46"/><circle class="cls-14" cx="128.64" cy="3.99" r="0.46"/><circle class="cls-14" cx="126.79" cy="3.99" r="0.46"/><circle class="cls-14" cx="124.94" cy="3.99" r="0.46"/><circle class="cls-14" cx="123.1" cy="3.99" r="0.46"/><circle class="cls-14" cx="121.25" cy="3.99" r="0.46"/><circle class="cls-14" cx="124.02" cy="2.22" r="0.46"/><circle class="cls-14" cx="125.87" cy="2.22" r="0.46"/><circle class="cls-14" cx="127.71" cy="2.22" r="0.46"/><circle class="cls-14" cx="129.56" cy="2.22" r="0.46"/><circle class="cls-14" cx="131.41" cy="2.22" r="0.46"/><circle class="cls-14" cx="133.26" cy="2.22" r="0.46"/><circle class="cls-14" cx="135.1" cy="2.22" r="0.46"/><circle class="cls-14" cx="130.48" cy="0.46" r="0.46"/><circle class="cls-14" cx="128.64" cy="0.46" r="0.46"/><circle class="cls-4" cx="126.77" cy="148.19" r="0.46"/><circle class="cls-4" cx="128.62" cy="148.19" r="0.46"/><circle class="cls-4" cx="130.47" cy="148.19" r="0.46"/><circle class="cls-4" cx="132.32" cy="148.19" r="0.46"/><circle class="cls-4" cx="133.24" cy="146.43" r="0.46"/><circle class="cls-4" cx="131.39" cy="146.43" r="0.46"/><circle class="cls-4" cx="129.54" cy="146.43" r="0.46"/><circle class="cls-4" cx="127.7" cy="146.43" r="0.46"/><circle class="cls-4" cx="125.85" cy="146.43" r="0.46"/><circle class="cls-4" cx="124" cy="146.43" r="0.46"/><circle class="cls-4" cx="123.08" cy="144.66" r="0.46"/><circle class="cls-4" cx="124.93" cy="144.66" r="0.46"/><circle class="cls-4" cx="126.77" cy="144.66" r="0.46"/><circle class="cls-4" cx="128.62" cy="144.66" r="0.46"/><circle class="cls-4" cx="130.47" cy="144.66" r="0.46"/><circle class="cls-4" cx="132.32" cy="144.66" r="0.46"/><circle class="cls-4" cx="134.16" cy="144.66" r="0.46"/><circle class="cls-4" cx="135.09" cy="142.9" r="0.46"/><circle class="cls-4" cx="133.24" cy="142.9" r="0.46"/><circle class="cls-4" cx="131.39" cy="142.9" r="0.46"/><circle class="cls-4" cx="129.54" cy="142.9" r="0.46"/><circle class="cls-4" cx="127.7" cy="142.9" r="0.46"/><circle class="cls-4" cx="125.85" cy="142.9" r="0.46"/><circle class="cls-4" cx="124" cy="142.9" r="0.46"/><circle class="cls-4" cx="122.16" cy="142.9" r="0.46"/><circle class="cls-4" cx="120.31" cy="142.9" r="0.46"/><circle class="cls-4" cx="119.38" cy="141.13" r="0.46"/><circle class="cls-4" cx="121.23" cy="141.13" r="0.46"/><circle class="cls-4" cx="123.08" cy="141.13" r="0.46"/><circle class="cls-4" cx="124.93" cy="141.13" r="0.46"/><circle class="cls-4" cx="126.77" cy="141.13" r="0.46"/><circle class="cls-4" cx="128.62" cy="141.13" r="0.46"/><circle class="cls-4" cx="130.47" cy="141.13" r="0.46"/><circle class="cls-4" cx="132.32" cy="141.13" r="0.46"/><circle class="cls-4" cx="134.16" cy="141.13" r="0.46"/><circle class="cls-4" cx="136.01" cy="141.13" r="0.46"/><circle class="cls-4" cx="135.09" cy="139.36" r="0.46"/><circle class="cls-4" cx="133.24" cy="139.36" r="0.46"/><circle class="cls-4" cx="131.39" cy="139.36" r="0.46"/><circle class="cls-4" cx="129.54" cy="139.36" r="0.46"/><circle class="cls-4" cx="127.7" cy="139.36" r="0.46"/><circle class="cls-4" cx="125.85" cy="139.36" r="0.46"/><circle class="cls-4" cx="124" cy="139.36" r="0.46"/><circle class="cls-4" cx="122.16" cy="139.36" r="0.46"/><circle class="cls-4" cx="120.31" cy="139.36" r="0.46"/><circle class="cls-4" cx="119.38" cy="137.6" r="0.46"/><circle class="cls-4" cx="121.23" cy="137.6" r="0.46"/><circle class="cls-4" cx="123.08" cy="137.6" r="0.46"/><circle class="cls-4" cx="124.93" cy="137.6" r="0.46"/><circle class="cls-4" cx="126.77" cy="137.6" r="0.46"/><circle class="cls-4" cx="128.62" cy="137.6" r="0.46"/><circle class="cls-4" cx="130.47" cy="137.6" r="0.46"/><circle class="cls-4" cx="132.32" cy="137.6" r="0.46"/><circle class="cls-4" cx="134.16" cy="137.6" r="0.46"/><circle class="cls-4" cx="136.01" cy="137.6" r="0.46"/><circle class="cls-4" cx="135.09" cy="135.83" r="0.46"/><circle class="cls-4" cx="133.24" cy="135.83" r="0.46"/><circle class="cls-4" cx="131.39" cy="135.83" r="0.46"/><circle class="cls-4" cx="129.54" cy="135.83" r="0.46"/><circle class="cls-4" cx="127.7" cy="135.83" r="0.46"/><circle class="cls-4" cx="125.85" cy="135.83" r="0.46"/><circle class="cls-4" cx="124" cy="135.83" r="0.46"/><circle class="cls-4" cx="122.16" cy="135.83" r="0.46"/><circle class="cls-4" cx="120.31" cy="135.83" r="0.46"/><circle class="cls-4" cx="118.46" cy="135.83" r="0.46"/><circle class="cls-4" cx="119.38" cy="134.07" r="0.46"/><circle class="cls-4" cx="121.23" cy="134.07" r="0.46"/><circle class="cls-4" cx="123.08" cy="134.07" r="0.46"/><circle class="cls-4" cx="124.93" cy="134.07" r="0.46"/><circle class="cls-4" cx="126.77" cy="134.07" r="0.46"/><circle class="cls-4" cx="128.62" cy="134.07" r="0.46"/><circle class="cls-4" cx="130.47" cy="134.07" r="0.46"/><circle class="cls-4" cx="132.32" cy="134.07" r="0.46"/><circle class="cls-4" cx="134.16" cy="134.07" r="0.46"/><circle class="cls-4" cx="136.01" cy="134.07" r="0.46"/><circle class="cls-4" cx="135.09" cy="132.3" r="0.46"/><circle class="cls-4" cx="133.24" cy="132.3" r="0.46"/><circle class="cls-4" cx="131.39" cy="132.3" r="0.46"/><circle class="cls-4" cx="129.54" cy="132.3" r="0.46"/><circle class="cls-4" cx="127.7" cy="132.3" r="0.46"/><circle class="cls-4" cx="125.85" cy="132.3" r="0.46"/><circle class="cls-4" cx="124" cy="132.3" r="0.46"/><circle class="cls-4" cx="122.16" cy="132.3" r="0.46"/><circle class="cls-4" cx="120.31" cy="132.3" r="0.46"/><circle class="cls-4" cx="121.23" cy="130.53" r="0.46"/><circle class="cls-4" cx="123.08" cy="130.53" r="0.46"/><circle class="cls-4" cx="124.93" cy="130.53" r="0.46"/><circle class="cls-4" cx="126.77" cy="130.53" r="0.46"/><circle class="cls-4" cx="128.62" cy="130.53" r="0.46"/><circle class="cls-4" cx="130.47" cy="130.53" r="0.46"/><circle class="cls-4" cx="132.32" cy="130.53" r="0.46"/><circle class="cls-4" cx="134.16" cy="130.53" r="0.46"/><circle class="cls-4" cx="133.24" cy="128.77" r="0.46"/><circle class="cls-4" cx="131.39" cy="128.77" r="0.46"/><circle class="cls-4" cx="129.54" cy="128.77" r="0.46"/><circle class="cls-4" cx="127.7" cy="128.77" r="0.46"/><circle class="cls-4" cx="125.85" cy="128.77" r="0.46"/><circle class="cls-4" cx="124" cy="128.77" r="0.46"/><circle class="cls-4" cx="122.16" cy="128.77" r="0.46"/><circle class="cls-4" cx="126.77" cy="127" r="0.46"/><circle class="cls-4" cx="128.62" cy="127" r="0.46"/><circle class="cls-4" cx="130.47" cy="127" r="0.46"/><circle class="cls-10" cx="104.86" cy="100.82" r="0.46"/><circle class="cls-10" cx="103.01" cy="100.82" r="0.46"/><circle class="cls-10" cx="101.16" cy="100.82" r="0.46"/><circle class="cls-10" cx="99.31" cy="100.82" r="0.46"/><circle class="cls-10" cx="97.47" cy="100.82" r="0.46"/><circle class="cls-10" cx="91" cy="99.05" r="0.46"/><circle class="cls-10" cx="92.85" cy="99.05" r="0.46"/><circle class="cls-10" cx="94.7" cy="99.05" r="0.46"/><circle class="cls-10" cx="96.54" cy="99.05" r="0.46"/><circle class="cls-10" cx="98.39" cy="99.05" r="0.46"/><circle class="cls-10" cx="100.24" cy="99.05" r="0.46"/><circle class="cls-10" cx="102.08" cy="99.05" r="0.46"/><circle class="cls-10" cx="103.93" cy="99.05" r="0.46"/><circle class="cls-10" cx="105.78" cy="99.05" r="0.46"/><circle class="cls-10" cx="104.86" cy="97.29" r="0.46"/><circle class="cls-10" cx="103.01" cy="97.29" r="0.46"/><circle class="cls-10" cx="101.16" cy="97.29" r="0.46"/><circle class="cls-10" cx="99.31" cy="97.29" r="0.46"/><circle class="cls-10" cx="97.47" cy="97.29" r="0.46"/><circle class="cls-10" cx="95.62" cy="97.29" r="0.46"/><circle class="cls-10" cx="93.77" cy="97.29" r="0.46"/><circle class="cls-10" cx="91.92" cy="97.29" r="0.46"/><circle class="cls-10" cx="90.08" cy="97.29" r="0.46"/><circle class="cls-10" cx="88.23" cy="97.29" r="0.46"/><circle class="cls-10" cx="86.38" cy="97.29" r="0.46"/><circle class="cls-10" cx="84.54" cy="97.29" r="0.46"/><circle class="cls-10" cx="82.69" cy="97.29" r="0.46"/><circle class="cls-10" cx="68.83" cy="95.52" r="0.46"/><circle class="cls-10" cx="70.68" cy="95.52" r="0.46"/><circle class="cls-10" cx="72.53" cy="95.52" r="0.46"/><circle class="cls-10" cx="74.38" cy="95.52" r="0.46"/><circle class="cls-10" cx="76.22" cy="95.52" r="0.46"/><circle class="cls-10" cx="78.07" cy="95.52" r="0.46"/><circle class="cls-10" cx="79.92" cy="95.52" r="0.46"/><circle class="cls-10" cx="81.76" cy="95.52" r="0.46"/><circle class="cls-10" cx="83.61" cy="95.52" r="0.46"/><circle class="cls-10" cx="85.46" cy="95.52" r="0.46"/><circle class="cls-10" cx="87.31" cy="95.52" r="0.46"/><circle class="cls-10" cx="89.15" cy="95.52" r="0.46"/><circle class="cls-10" cx="91" cy="95.52" r="0.46"/><circle class="cls-10" cx="92.85" cy="95.52" r="0.46"/><circle class="cls-10" cx="94.7" cy="95.52" r="0.46"/><circle class="cls-10" cx="96.54" cy="95.52" r="0.46"/><circle class="cls-10" cx="98.39" cy="95.52" r="0.46"/><circle class="cls-10" cx="100.24" cy="95.52" r="0.46"/><circle class="cls-10" cx="102.08" cy="95.52" r="0.46"/><circle class="cls-10" cx="103.93" cy="95.52" r="0.46"/><circle class="cls-10" cx="97.47" cy="93.76" r="0.46"/><circle class="cls-10" cx="95.62" cy="93.76" r="0.46"/><circle class="cls-10" cx="93.77" cy="93.76" r="0.46"/><circle class="cls-10" cx="91.92" cy="93.76" r="0.46"/><circle class="cls-10" cx="90.08" cy="93.76" r="0.46"/><circle class="cls-10" cx="88.23" cy="93.76" r="0.46"/><circle class="cls-10" cx="86.38" cy="93.76" r="0.46"/><circle class="cls-10" cx="84.54" cy="93.76" r="0.46"/><circle class="cls-10" cx="82.69" cy="93.76" r="0.46"/><circle class="cls-10" cx="80.84" cy="93.76" r="0.46"/><circle class="cls-10" cx="78.99" cy="93.76" r="0.46"/><circle class="cls-10" cx="77.15" cy="93.76" r="0.46"/><circle class="cls-10" cx="75.3" cy="93.76" r="0.46"/><circle class="cls-10" cx="73.45" cy="93.76" r="0.46"/><circle class="cls-10" cx="71.6" cy="93.76" r="0.46"/><circle class="cls-10" cx="69.76" cy="93.76" r="0.46"/><circle class="cls-10" cx="67.91" cy="93.76" r="0.46"/><circle class="cls-10" cx="68.83" cy="91.99" r="0.46"/><circle class="cls-10" cx="70.68" cy="91.99" r="0.46"/><circle class="cls-10" cx="72.53" cy="91.99" r="0.46"/><circle class="cls-10" cx="74.38" cy="91.99" r="0.46"/><circle class="cls-10" cx="76.22" cy="91.99" r="0.46"/><circle class="cls-10" cx="78.07" cy="91.99" r="0.46"/><circle class="cls-10" cx="79.92" cy="91.99" r="0.46"/><circle class="cls-10" cx="81.76" cy="91.99" r="0.46"/><circle class="cls-10" cx="83.61" cy="91.99" r="0.46"/><circle class="cls-10" cx="85.46" cy="91.99" r="0.46"/><circle class="cls-10" cx="87.31" cy="91.99" r="0.46"/><circle class="cls-10" cx="89.15" cy="91.99" r="0.46"/><circle class="cls-10" cx="91" cy="91.99" r="0.46"/><circle class="cls-10" cx="92.85" cy="91.99" r="0.46"/><circle class="cls-10" cx="88.23" cy="90.22" r="0.46"/><circle class="cls-10" cx="86.38" cy="90.22" r="0.46"/><circle class="cls-10" cx="84.54" cy="90.22" r="0.46"/><circle class="cls-10" cx="82.69" cy="90.22" r="0.46"/><circle class="cls-10" cx="80.84" cy="90.22" r="0.46"/><circle class="cls-10" cx="78.99" cy="90.22" r="0.46"/><circle class="cls-10" cx="77.15" cy="90.22" r="0.46"/><circle class="cls-10" cx="75.3" cy="90.22" r="0.46"/><circle class="cls-10" cx="73.45" cy="90.22" r="0.46"/><circle class="cls-10" cx="71.6" cy="90.22" r="0.46"/><circle class="cls-10" cx="69.76" cy="90.22" r="0.46"/><circle class="cls-10" cx="70.68" cy="88.46" r="0.46"/><circle class="cls-10" cx="72.53" cy="88.46" r="0.46"/><circle class="cls-10" cx="74.38" cy="88.46" r="0.46"/><circle class="cls-10" cx="76.22" cy="88.46" r="0.46"/><circle class="cls-10" cx="78.07" cy="88.46" r="0.46"/><circle class="cls-10" cx="79.92" cy="88.46" r="0.46"/><circle class="cls-10" cx="81.76" cy="88.46" r="0.46"/><circle class="cls-10" cx="83.61" cy="88.46" r="0.46"/><circle class="cls-10" cx="80.84" cy="86.69" r="0.46"/><circle class="cls-10" cx="78.99" cy="86.69" r="0.46"/><circle class="cls-10" cx="77.15" cy="86.69" r="0.46"/><circle class="cls-10" cx="75.3" cy="86.69" r="0.46"/><circle class="cls-10" cx="73.45" cy="86.69" r="0.46"/><circle class="cls-10" cx="71.6" cy="86.69" r="0.46"/><circle class="cls-10" cx="72.53" cy="84.93" r="0.46"/><circle class="cls-10" cx="74.38" cy="84.93" r="0.46"/><circle class="cls-10" cx="76.22" cy="84.93" r="0.46"/><circle class="cls-10" cx="78.07" cy="84.93" r="0.46"/><circle class="cls-10" cx="77.15" cy="83.16" r="0.46"/><circle class="cls-10" cx="75.3" cy="83.16" r="0.46"/><circle class="cls-10" cx="73.45" cy="83.16" r="0.46"/><path class="cls-1" d="M126.15,57.6c-.64-5.69-5.28-14.33-9.28-16.17-1.62-1-3.09-1.1-6.35-2-6-1.53-11.22-1.31-17.34-.4-9.13,1.37-18.1,3.8-27.42,3.36A60.32,60.32,0,0,1,42.14,36.3,59.73,59.73,0,0,1,21.59,19.79c.15-.43-9.1,15.42-9,15.57C29.41,56.8,57.23,64.54,83.45,64.71c1.15,0,2.31,0,3.47,0A71.25,71.25,0,0,1,70.43,76a.46.46,0,0,0-.12.71A58.07,58.07,0,0,0,119,96a.42.42,0,0,0,.33-.3,107.84,107.84,0,0,0,5.49-19.22C126,70.3,126.86,63.86,126.15,57.6Z"/><path class="cls-5" d="M118.82,42.64c-.59-.34-6.28-5.06-19.35-4.23-.43,2.71,3,4.46,5.37,4.91a49.51,49.51,0,0,0,7.4.54c1.59.06,3.94.52,5.38-.42C118,43.16,118.79,42.71,118.82,42.64Z"/><path class="cls-5" d="M80.11,78c1.49-1.44,3.55-2.09,5.21-3.31A5.91,5.91,0,0,0,87.77,71c.35-1.6.38-3.24,1.58-4.49a11.38,11.38,0,0,1,3.41-2.17.44.44,0,0,0-.26-.84c-1.74.32-3.84.92-5.58,1.16A82.38,82.38,0,0,1,70.43,76a.46.46,0,0,0-.12.71,55.89,55.89,0,0,0,8.13,7.56A6.44,6.44,0,0,1,80.11,78Z"/><circle class="cls-2" cx="158.12" cy="83.61" r="0.46"/><circle class="cls-2" cx="159.97" cy="83.61" r="0.46"/><circle class="cls-2" cx="161.82" cy="83.61" r="0.46"/><circle class="cls-2" cx="163.66" cy="83.61" r="0.46"/><circle class="cls-2" cx="165.51" cy="83.61" r="0.46"/><circle class="cls-2" cx="168.28" cy="81.85" r="0.46"/><circle class="cls-2" cx="166.44" cy="81.85" r="0.46"/><circle class="cls-2" cx="164.59" cy="81.85" r="0.46"/><circle class="cls-2" cx="162.74" cy="81.85" r="0.46"/><circle class="cls-2" cx="160.89" cy="81.85" r="0.46"/><circle class="cls-2" cx="159.05" cy="81.85" r="0.46"/><circle class="cls-2" cx="157.2" cy="81.85" r="0.46"/><circle class="cls-2" cx="155.35" cy="81.85" r="0.46"/><circle class="cls-2" cx="153.5" cy="81.85" r="0.46"/><circle class="cls-2" cx="150.73" cy="80.08" r="0.46"/><circle class="cls-2" cx="152.58" cy="80.08" r="0.46"/><circle class="cls-2" cx="154.43" cy="80.08" r="0.46"/><circle class="cls-2" cx="156.28" cy="80.08" r="0.46"/><circle class="cls-2" cx="158.12" cy="80.08" r="0.46"/><circle class="cls-2" cx="159.97" cy="80.08" r="0.46"/><circle class="cls-2" cx="161.82" cy="80.08" r="0.46"/><circle class="cls-2" cx="163.66" cy="80.08" r="0.46"/><circle class="cls-2" cx="165.51" cy="80.08" r="0.46"/><circle class="cls-2" cx="167.36" cy="80.08" r="0.46"/><circle class="cls-2" cx="164.59" cy="78.31" r="0.46"/><circle class="cls-2" cx="162.74" cy="78.31" r="0.46"/><circle class="cls-2" cx="160.89" cy="78.31" r="0.46"/><circle class="cls-2" cx="159.05" cy="78.31" r="0.46"/><circle class="cls-2" cx="157.2" cy="78.31" r="0.46"/><circle class="cls-2" cx="155.35" cy="78.31" r="0.46"/><circle class="cls-2" cx="153.5" cy="78.31" r="0.46"/><circle class="cls-2" cx="151.66" cy="78.31" r="0.46"/><circle class="cls-2" cx="149.81" cy="78.31" r="0.46"/><circle class="cls-2" cx="147.04" cy="76.55" r="0.46"/><circle class="cls-2" cx="148.89" cy="76.55" r="0.46"/><circle class="cls-2" cx="150.73" cy="76.55" r="0.46"/><circle class="cls-2" cx="152.58" cy="76.55" r="0.46"/><circle class="cls-2" cx="154.43" cy="76.55" r="0.46"/><circle class="cls-2" cx="156.28" cy="76.55" r="0.46"/><circle class="cls-2" cx="158.12" cy="76.55" r="0.46"/><circle class="cls-2" cx="159.97" cy="76.55" r="0.46"/><circle class="cls-2" cx="161.82" cy="76.55" r="0.46"/><circle class="cls-2" cx="160.89" cy="74.78" r="0.46"/><circle class="cls-2" cx="159.05" cy="74.78" r="0.46"/><circle class="cls-2" cx="157.2" cy="74.78" r="0.46"/><circle class="cls-2" cx="155.35" cy="74.78" r="0.46"/><circle class="cls-2" cx="153.5" cy="74.78" r="0.46"/><circle class="cls-2" cx="151.66" cy="74.78" r="0.46"/><circle class="cls-2" cx="149.81" cy="74.78" r="0.46"/><circle class="cls-2" cx="147.96" cy="74.78" r="0.46"/><circle class="cls-2" cx="146.12" cy="74.78" r="0.46"/><circle class="cls-2" cx="145.19" cy="73.02" r="0.46"/><circle class="cls-2" cx="147.04" cy="73.02" r="0.46"/><circle class="cls-2" cx="148.89" cy="73.02" r="0.46"/><circle class="cls-2" cx="150.73" cy="73.02" r="0.46"/><circle class="cls-2" cx="152.58" cy="73.02" r="0.46"/><circle class="cls-2" cx="154.43" cy="73.02" r="0.46"/><circle class="cls-2" cx="156.28" cy="73.02" r="0.46"/><circle class="cls-2" cx="158.12" cy="73.02" r="0.46"/><circle class="cls-2" cx="155.35" cy="71.25" r="0.46"/><circle class="cls-2" cx="153.5" cy="71.25" r="0.46"/><circle class="cls-2" cx="151.66" cy="71.25" r="0.46"/><circle class="cls-2" cx="149.81" cy="71.25" r="0.46"/><circle class="cls-2" cx="147.96" cy="71.25" r="0.46"/><circle class="cls-2" cx="146.12" cy="71.25" r="0.46"/><circle class="cls-2" cx="144.27" cy="71.25" r="0.46"/><circle class="cls-2" cx="143.34" cy="69.48" r="0.46"/><circle class="cls-2" cx="145.19" cy="69.48" r="0.46"/><circle class="cls-2" cx="147.04" cy="69.48" r="0.46"/><circle class="cls-2" cx="148.89" cy="69.48" r="0.46"/><circle class="cls-2" cx="150.73" cy="69.48" r="0.46"/><circle class="cls-2" cx="152.58" cy="69.48" r="0.46"/><circle class="cls-2" cx="151.66" cy="67.72" r="0.46"/><circle class="cls-2" cx="149.81" cy="67.72" r="0.46"/><circle class="cls-2" cx="147.96" cy="67.72" r="0.46"/><circle class="cls-2" cx="146.12" cy="67.72" r="0.46"/><circle class="cls-2" cx="144.27" cy="67.72" r="0.46"/><circle class="cls-2" cx="142.42" cy="67.72" r="0.46"/><circle class="cls-2" cx="141.5" cy="65.95" r="0.46"/><circle class="cls-2" cx="143.34" cy="65.95" r="0.46"/><circle class="cls-2" cx="145.19" cy="65.95" r="0.46"/><circle class="cls-2" cx="147.04" cy="65.95" r="0.46"/><circle class="cls-2" cx="148.89" cy="65.95" r="0.46"/><circle class="cls-2" cx="147.96" cy="64.19" r="0.46"/><circle class="cls-2" cx="146.12" cy="64.19" r="0.46"/><circle class="cls-2" cx="144.27" cy="64.19" r="0.46"/><circle class="cls-2" cx="142.42" cy="64.19" r="0.46"/><circle class="cls-2" cx="140.57" cy="64.19" r="0.46"/><circle class="cls-2" cx="139.65" cy="62.42" r="0.46"/><circle class="cls-2" cx="141.5" cy="62.42" r="0.46"/><circle class="cls-2" cx="143.34" cy="62.42" r="0.46"/><circle class="cls-2" cx="145.19" cy="62.42" r="0.46"/><circle class="cls-2" cx="142.42" cy="60.65" r="0.46"/><circle class="cls-2" cx="140.57" cy="60.65" r="0.46"/><circle class="cls-2" cx="138.73" cy="60.65" r="0.46"/><circle class="cls-2" cx="139.65" cy="58.89" r="0.46"/><circle class="cls-5" cx="48.84" cy="58.15" r="0.46"/><circle class="cls-5" cx="46.99" cy="58.15" r="0.46"/><circle class="cls-5" cx="42.38" cy="56.38" r="0.46"/><circle class="cls-5" cx="44.22" cy="56.38" r="0.46"/><circle class="cls-5" cx="46.07" cy="56.38" r="0.46"/><circle class="cls-5" cx="47.92" cy="56.38" r="0.46"/><circle class="cls-5" cx="49.76" cy="56.38" r="0.46"/><circle class="cls-5" cx="50.69" cy="54.62" r="0.46"/><circle class="cls-5" cx="48.84" cy="54.62" r="0.46"/><circle class="cls-5" cx="46.99" cy="54.62" r="0.46"/><circle class="cls-5" cx="45.15" cy="54.62" r="0.46"/><circle class="cls-5" cx="43.3" cy="54.62" r="0.46"/><circle class="cls-5" cx="41.45" cy="54.62" r="0.46"/><circle class="cls-5" cx="39.6" cy="54.62" r="0.46"/><circle class="cls-5" cx="37.76" cy="54.62" r="0.46"/><circle class="cls-5" cx="34.99" cy="52.85" r="0.46"/><circle class="cls-5" cx="36.83" cy="52.85" r="0.46"/><circle class="cls-5" cx="38.68" cy="52.85" r="0.46"/><circle class="cls-5" cx="40.53" cy="52.85" r="0.46"/><circle class="cls-5" cx="42.38" cy="52.85" r="0.46"/><circle class="cls-5" cx="44.22" cy="52.85" r="0.46"/><circle class="cls-5" cx="46.07" cy="52.85" r="0.46"/><circle class="cls-5" cx="47.92" cy="52.85" r="0.46"/><circle class="cls-5" cx="49.76" cy="52.85" r="0.46"/><circle class="cls-5" cx="46.99" cy="51.08" r="0.46"/><circle class="cls-5" cx="45.15" cy="51.08" r="0.46"/><circle class="cls-5" cx="43.3" cy="51.08" r="0.46"/><circle class="cls-5" cx="41.45" cy="51.08" r="0.46"/><circle class="cls-5" cx="39.6" cy="51.08" r="0.46"/><circle class="cls-5" cx="37.76" cy="51.08" r="0.46"/><circle class="cls-5" cx="35.91" cy="51.08" r="0.46"/><circle class="cls-5" cx="34.06" cy="51.08" r="0.46"/><circle class="cls-5" cx="32.22" cy="51.08" r="0.46"/><circle class="cls-5" cx="29.44" cy="49.32" r="0.46"/><circle class="cls-5" cx="31.29" cy="49.32" r="0.46"/><circle class="cls-5" cx="33.14" cy="49.32" r="0.46"/><circle class="cls-5" cx="34.99" cy="49.32" r="0.46"/><circle class="cls-5" cx="36.83" cy="49.32" r="0.46"/><circle class="cls-5" cx="38.68" cy="49.32" r="0.46"/><circle class="cls-5" cx="40.53" cy="49.32" r="0.46"/><circle class="cls-5" cx="42.38" cy="49.32" r="0.46"/><circle class="cls-5" cx="44.22" cy="49.32" r="0.46"/><circle class="cls-5" cx="41.45" cy="47.55" r="0.46"/><circle class="cls-5" cx="39.6" cy="47.55" r="0.46"/><circle class="cls-5" cx="37.76" cy="47.55" r="0.46"/><circle class="cls-5" cx="35.91" cy="47.55" r="0.46"/><circle class="cls-5" cx="34.06" cy="47.55" r="0.46"/><circle class="cls-5" cx="32.22" cy="47.55" r="0.46"/><circle class="cls-5" cx="30.37" cy="47.55" r="0.46"/><circle class="cls-5" cx="28.52" cy="47.55" r="0.46"/><circle class="cls-5" cx="26.67" cy="47.55" r="0.46"/><circle class="cls-5" cx="23.9" cy="45.79" r="0.46"/><circle class="cls-5" cx="25.75" cy="45.79" r="0.46"/><circle class="cls-5" cx="27.6" cy="45.79" r="0.46"/><circle class="cls-5" cx="29.44" cy="45.79" r="0.46"/><circle class="cls-5" cx="31.29" cy="45.79" r="0.46"/><circle class="cls-5" cx="33.14" cy="45.79" r="0.46"/><circle class="cls-5" cx="34.99" cy="45.79" r="0.46"/><circle class="cls-5" cx="36.83" cy="45.79" r="0.46"/><circle class="cls-5" cx="38.68" cy="45.79" r="0.46"/><circle class="cls-5" cx="35.91" cy="44.02" r="0.46"/><circle class="cls-5" cx="34.06" cy="44.02" r="0.46"/><circle class="cls-5" cx="32.22" cy="44.02" r="0.46"/><circle class="cls-5" cx="30.37" cy="44.02" r="0.46"/><circle class="cls-5" cx="28.52" cy="44.02" r="0.46"/><circle class="cls-5" cx="26.67" cy="44.02" r="0.46"/><circle class="cls-5" cx="24.83" cy="44.02" r="0.46"/><circle class="cls-5" cx="22.98" cy="44.02" r="0.46"/><circle class="cls-5" cx="20.21" cy="42.25" r="0.46"/><circle class="cls-5" cx="22.06" cy="42.25" r="0.46"/><circle class="cls-5" cx="23.9" cy="42.25" r="0.46"/><circle class="cls-5" cx="25.75" cy="42.25" r="0.46"/><circle class="cls-5" cx="27.6" cy="42.25" r="0.46"/><circle class="cls-5" cx="29.44" cy="42.25" r="0.46"/><circle class="cls-5" cx="31.29" cy="42.25" r="0.46"/><circle class="cls-5" cx="33.14" cy="42.25" r="0.46"/><circle class="cls-5" cx="30.37" cy="40.49" r="0.46"/><circle class="cls-5" cx="28.52" cy="40.49" r="0.46"/><circle class="cls-5" cx="26.67" cy="40.49" r="0.46"/><circle class="cls-5" cx="24.83" cy="40.49" r="0.46"/><circle class="cls-5" cx="22.98" cy="40.49" r="0.46"/><circle class="cls-5" cx="21.13" cy="40.49" r="0.46"/><circle class="cls-5" cx="19.28" cy="40.49" r="0.46"/><circle class="cls-5" cx="16.51" cy="38.72" r="0.46"/><circle class="cls-5" cx="18.36" cy="38.72" r="0.46"/><circle class="cls-5" cx="20.21" cy="38.72" r="0.46"/><circle class="cls-5" cx="22.06" cy="38.72" r="0.46"/><circle class="cls-5" cx="23.9" cy="38.72" r="0.46"/><circle class="cls-5" cx="25.75" cy="38.72" r="0.46"/><circle class="cls-5" cx="27.6" cy="38.72" r="0.46"/><circle class="cls-5" cx="26.67" cy="36.95" r="0.46"/><circle class="cls-5" cx="24.83" cy="36.95" r="0.46"/><circle class="cls-5" cx="22.98" cy="36.95" r="0.46"/><circle class="cls-5" cx="21.13" cy="36.95" r="0.46"/><circle class="cls-5" cx="19.28" cy="36.95" r="0.46"/><circle class="cls-5" cx="17.44" cy="36.95" r="0.46"/><circle class="cls-5" cx="18.36" cy="35.19" r="0.46"/><circle class="cls-5" cx="20.21" cy="35.19" r="0.46"/><circle class="cls-5" cx="22.06" cy="35.19" r="0.46"/><circle class="cls-5" cx="23.9" cy="35.19" r="0.46"/></g></g></svg>