<svg xmlns="http://www.w3.org/2000/svg" viewBox="0 0 331 188.61"><defs><style>.cls-1{fill:#ddd;}.cls-2{fill:#b1b6ba;}.cls-3{fill:#b6d0ff;}.cls-4{fill:#9487fc;}.cls-5{fill:#efaf84;}.cls-6{fill:#d3774f;}.cls-7{fill:#182067;}.cls-8{fill:#09546d;}.cls-9{fill:#1372f5;}.cls-10{fill:#009da5;}.cls-11{fill:#ef5180;}.cls-12{fill:#e8de46;}.cls-13{fill:#2c1b29;}.cls-14{fill:#fff;}.cls-15{fill:#283e96;}.cls-16{fill:#a7c65c;}.cls-17{fill:#f37645;}.cls-18{fill:#ffd654;}</style></defs><title>03_</title><g id="Warstwa_2" data-name="Warstwa 2"><g id="_03" data-name="03"><path class="cls-1" d="M277.71,140.13l3.58,38.55c0,1,6.55,1.81,14.64,1.81s14.64-.81,14.64-1.81l3.58-38.55Z"/><ellipse class="cls-2" cx="295.93" cy="140.13" rx="18.22" ry="2.07"/><circle class="cls-2" cx="286.7" cy="181.47" r="0.46"/><circle class="cls-2" cx="288.55" cy="181.47" r="0.46"/><circle class="cls-2" cx="290.4" cy="181.47" r="0.46"/><circle class="cls-2" cx="292.24" cy="181.47" r="0.46"/><circle class="cls-2" cx="294.09" cy="181.47" r="0.46"/><circle class="cls-2" cx="295.94" cy="181.47" r="0.46"/><circle class="cls-2" cx="297.79" cy="181.47" r="0.46"/><circle class="cls-2" cx="299.63" cy="181.47" r="0.46"/><circle class="cls-2" cx="300.56" cy="179.7" r="0.46"/><circle class="cls-2" cx="298.71" cy="179.7" r="0.46"/><circle class="cls-2" cx="296.86" cy="179.7" r="0.46"/><circle class="cls-2" cx="295.02" cy="179.7" r="0.46"/><circle class="cls-2" cx="293.17" cy="179.7" r="0.46"/><circle class="cls-2" cx="291.32" cy="179.7" r="0.46"/><circle class="cls-2" cx="289.47" cy="179.7" r="0.46"/><circle class="cls-2" cx="287.63" cy="179.7" r="0.46"/><circle class="cls-2" cx="285.78" cy="179.7" r="0.46"/><circle class="cls-2" cx="283.93" cy="179.7" r="0.46"/><circle class="cls-2" cx="282.08" cy="179.7" r="0.46"/><circle class="cls-2" cx="280.24" cy="179.7" r="0.46"/><circle class="cls-2" cx="283.01" cy="177.93" r="0.46"/><circle class="cls-2" cx="284.86" cy="177.93" r="0.46"/><circle class="cls-2" cx="286.7" cy="177.93" r="0.46"/><circle class="cls-2" cx="288.55" cy="177.93" r="0.46"/><circle class="cls-2" cx="290.4" cy="177.93" r="0.46"/><circle class="cls-2" cx="292.24" cy="177.93" r="0.46"/><circle class="cls-2" cx="294.09" cy="177.93" r="0.46"/><circle class="cls-2" cx="295.94" cy="177.93" r="0.46"/><circle class="cls-2" cx="297.79" cy="177.93" r="0.46"/><circle class="cls-2" cx="299.63" cy="177.93" r="0.46"/><circle class="cls-2" cx="300.56" cy="176.17" r="0.46"/><circle class="cls-2" cx="298.71" cy="176.17" r="0.46"/><circle class="cls-2" cx="296.86" cy="176.17" r="0.46"/><circle class="cls-2" cx="295.02" cy="176.17" r="0.46"/><circle class="cls-2" cx="293.17" cy="176.17" r="0.46"/><circle class="cls-2" cx="291.32" cy="176.17" r="0.46"/><circle class="cls-2" cx="289.47" cy="176.17" r="0.46"/><circle class="cls-2" cx="287.63" cy="176.17" r="0.46"/><circle class="cls-2" cx="285.78" cy="176.17" r="0.46"/><circle class="cls-2" cx="283.93" cy="176.17" r="0.46"/><circle class="cls-2" cx="284.86" cy="174.4" r="0.46"/><circle class="cls-2" cx="286.7" cy="174.4" r="0.46"/><circle class="cls-2" cx="288.55" cy="174.4" r="0.46"/><circle class="cls-2" cx="290.4" cy="174.4" r="0.46"/><circle class="cls-2" cx="292.24" cy="174.4" r="0.46"/><circle class="cls-2" cx="294.09" cy="174.4" r="0.46"/><circle class="cls-2" cx="295.94" cy="174.4" r="0.46"/><circle class="cls-2" cx="297.79" cy="174.4" r="0.46"/><circle class="cls-2" cx="299.63" cy="174.4" r="0.46"/><circle class="cls-2" cx="298.71" cy="172.64" r="0.46"/><circle class="cls-2" cx="296.86" cy="172.64" r="0.46"/><circle class="cls-2" cx="295.02" cy="172.64" r="0.46"/><circle class="cls-2" cx="293.17" cy="172.64" r="0.46"/><circle class="cls-2" cx="291.32" cy="172.64" r="0.46"/><circle class="cls-2" cx="289.47" cy="172.64" r="0.46"/><circle class="cls-2" cx="287.63" cy="172.64" r="0.46"/><circle class="cls-2" cx="285.78" cy="172.64" r="0.46"/><circle class="cls-2" cx="286.7" cy="170.87" r="0.46"/><circle class="cls-2" cx="288.55" cy="170.87" r="0.46"/><circle class="cls-2" cx="290.4" cy="170.87" r="0.46"/><circle class="cls-2" cx="292.24" cy="170.87" r="0.46"/><circle class="cls-2" cx="294.09" cy="170.87" r="0.46"/><circle class="cls-2" cx="295.94" cy="170.87" r="0.46"/><circle class="cls-2" cx="297.79" cy="170.87" r="0.46"/><circle class="cls-2" cx="296.86" cy="169.1" r="0.46"/><circle class="cls-2" cx="295.02" cy="169.1" r="0.46"/><circle class="cls-2" cx="293.17" cy="169.1" r="0.46"/><circle class="cls-2" cx="291.32" cy="169.1" r="0.46"/><circle class="cls-2" cx="289.47" cy="169.1" r="0.46"/><circle class="cls-2" cx="287.63" cy="169.1" r="0.46"/><circle class="cls-2" cx="285.78" cy="169.1" r="0.46"/><circle class="cls-2" cx="286.7" cy="167.34" r="0.46"/><circle class="cls-2" cx="288.55" cy="167.34" r="0.46"/><circle class="cls-2" cx="290.4" cy="167.34" r="0.46"/><circle class="cls-2" cx="292.24" cy="167.34" r="0.46"/><circle class="cls-2" cx="294.09" cy="167.34" r="0.46"/><circle class="cls-2" cx="295.94" cy="167.34" r="0.46"/><circle class="cls-2" cx="295.02" cy="165.57" r="0.46"/><circle class="cls-2" cx="293.17" cy="165.57" r="0.46"/><circle class="cls-2" cx="291.32" cy="165.57" r="0.46"/><circle class="cls-2" cx="289.47" cy="165.57" r="0.46"/><circle class="cls-2" cx="287.63" cy="165.57" r="0.46"/><circle class="cls-2" cx="286.7" cy="163.81" r="0.46"/><circle class="cls-2" cx="288.55" cy="163.81" r="0.46"/><circle class="cls-2" cx="290.4" cy="163.81" r="0.46"/><circle class="cls-2" cx="292.24" cy="163.81" r="0.46"/><circle class="cls-2" cx="294.09" cy="163.81" r="0.46"/><circle class="cls-2" cx="293.17" cy="162.04" r="0.46"/><circle class="cls-2" cx="291.32" cy="162.04" r="0.46"/><circle class="cls-2" cx="289.47" cy="162.04" r="0.46"/><circle class="cls-2" cx="287.63" cy="162.04" r="0.46"/><circle class="cls-2" cx="287.63" cy="162.04" r="0.46"/><circle class="cls-2" cx="289.47" cy="162.04" r="0.46"/><circle class="cls-2" cx="291.32" cy="162.04" r="0.46"/><circle class="cls-2" cx="293.17" cy="162.04" r="0.46"/><circle class="cls-2" cx="286.7" cy="160.27" r="0.46"/><circle class="cls-2" cx="288.55" cy="160.27" r="0.46"/><circle class="cls-2" cx="290.4" cy="160.27" r="0.46"/><circle class="cls-2" cx="292.24" cy="160.27" r="0.46"/><circle class="cls-2" cx="291.32" cy="158.51" r="0.46"/><circle class="cls-2" cx="289.47" cy="158.51" r="0.46"/><circle class="cls-2" cx="287.63" cy="158.51" r="0.46"/><circle class="cls-2" cx="285.78" cy="158.51" r="0.46"/><circle class="cls-2" cx="286.7" cy="156.74" r="0.46"/><circle class="cls-2" cx="288.55" cy="156.74" r="0.46"/><circle class="cls-2" cx="290.4" cy="156.74" r="0.46"/><circle class="cls-2" cx="289.47" cy="154.98" r="0.46"/><circle class="cls-2" cx="287.63" cy="154.98" r="0.46"/><circle class="cls-2" cx="285.78" cy="154.98" r="0.46"/><circle class="cls-2" cx="284.86" cy="153.21" r="0.46"/><circle class="cls-2" cx="286.7" cy="153.21" r="0.46"/><circle class="cls-2" cx="288.55" cy="153.21" r="0.46"/><circle class="cls-2" cx="287.63" cy="151.44" r="0.46"/><circle class="cls-2" cx="285.78" cy="151.44" r="0.46"/><circle class="cls-2" cx="283.93" cy="151.44" r="0.46"/><circle class="cls-2" cx="283.01" cy="149.68" r="0.46"/><circle class="cls-2" cx="284.86" cy="149.68" r="0.46"/><circle class="cls-2" cx="286.7" cy="149.68" r="0.46"/><circle class="cls-2" cx="285.78" cy="147.91" r="0.46"/><circle class="cls-2" cx="283.93" cy="147.91" r="0.46"/><circle class="cls-2" cx="283.01" cy="146.15" r="0.46"/><circle class="cls-2" cx="284.86" cy="146.15" r="0.46"/><circle class="cls-2" cx="283.93" cy="144.38" r="0.46"/><circle class="cls-2" cx="282.08" cy="144.38" r="0.46"/><circle class="cls-2" cx="281.16" cy="142.61" r="0.46"/><circle class="cls-2" cx="283.01" cy="142.61" r="0.46"/><circle class="cls-1" cx="33.75" cy="187.3" r="0.46"/><circle class="cls-1" cx="35.6" cy="187.3" r="0.46"/><circle class="cls-1" cx="37.44" cy="187.3" r="0.46"/><circle class="cls-1" cx="39.29" cy="187.3" r="0.46"/><circle class="cls-1" cx="41.14" cy="187.3" r="0.46"/><circle class="cls-1" cx="42.98" cy="187.3" r="0.46"/><circle class="cls-1" cx="44.83" cy="187.3" r="0.46"/><circle class="cls-1" cx="46.68" cy="187.3" r="0.46"/><circle class="cls-1" cx="48.53" cy="187.3" r="0.46"/><circle class="cls-1" cx="50.37" cy="187.3" r="0.46"/><circle class="cls-1" cx="52.22" cy="187.3" r="0.46"/><circle class="cls-1" cx="54.07" cy="187.3" r="0.46"/><circle class="cls-1" cx="55.92" cy="187.3" r="0.46"/><circle class="cls-1" cx="57.76" cy="187.3" r="0.46"/><circle class="cls-1" cx="59.61" cy="187.3" r="0.46"/><circle class="cls-1" cx="61.46" cy="187.3" r="0.46"/><circle class="cls-1" cx="63.31" cy="187.3" r="0.46"/><circle class="cls-1" cx="65.15" cy="187.3" r="0.46"/><circle class="cls-1" cx="67" cy="187.3" r="0.46"/><circle class="cls-1" cx="68.85" cy="187.3" r="0.46"/><circle class="cls-1" cx="70.69" cy="187.3" r="0.46"/><circle class="cls-1" cx="72.54" cy="187.3" r="0.46"/><circle class="cls-1" cx="74.39" cy="187.3" r="0.46"/><circle class="cls-1" cx="76.24" cy="187.3" r="0.46"/><circle class="cls-1" cx="78.08" cy="187.3" r="0.46"/><circle class="cls-1" cx="79.93" cy="187.3" r="0.46"/><circle class="cls-1" cx="93.79" cy="185.54" r="0.46"/><circle class="cls-1" cx="91.94" cy="185.54" r="0.46"/><circle class="cls-1" cx="90.09" cy="185.54" r="0.46"/><circle class="cls-1" cx="88.24" cy="185.54" r="0.46"/><circle class="cls-1" cx="86.4" cy="185.54" r="0.46"/><circle class="cls-1" cx="84.55" cy="185.54" r="0.46"/><circle class="cls-1" cx="82.7" cy="185.54" r="0.46"/><circle class="cls-1" cx="80.85" cy="185.54" r="0.46"/><circle class="cls-1" cx="79.01" cy="185.54" r="0.46"/><circle class="cls-1" cx="77.16" cy="185.54" r="0.46"/><circle class="cls-1" cx="75.31" cy="185.54" r="0.46"/><circle class="cls-1" cx="73.47" cy="185.54" r="0.46"/><circle class="cls-1" cx="71.62" cy="185.54" r="0.46"/><circle class="cls-1" cx="69.77" cy="185.54" r="0.46"/><circle class="cls-1" cx="67.92" cy="185.54" r="0.46"/><circle class="cls-1" cx="66.08" cy="185.54" r="0.46"/><circle class="cls-1" cx="64.23" cy="185.54" r="0.46"/><circle class="cls-1" cx="62.38" cy="185.54" r="0.46"/><circle class="cls-1" cx="60.53" cy="185.54" r="0.46"/><circle class="cls-1" cx="58.69" cy="185.54" r="0.46"/><circle class="cls-1" cx="56.84" cy="185.54" r="0.46"/><circle class="cls-1" cx="54.99" cy="185.54" r="0.46"/><circle class="cls-1" cx="53.15" cy="185.54" r="0.46"/><circle class="cls-1" cx="51.3" cy="185.54" r="0.46"/><circle class="cls-1" cx="49.45" cy="185.54" r="0.46"/><circle class="cls-1" cx="47.6" cy="185.54" r="0.46"/><circle class="cls-1" cx="45.76" cy="185.54" r="0.46"/><circle class="cls-1" cx="43.91" cy="185.54" r="0.46"/><circle class="cls-1" cx="42.06" cy="185.54" r="0.46"/><circle class="cls-1" cx="40.21" cy="185.54" r="0.46"/><circle class="cls-1" cx="38.37" cy="185.54" r="0.46"/><circle class="cls-1" cx="36.52" cy="185.54" r="0.46"/><circle class="cls-1" cx="34.67" cy="185.54" r="0.46"/><circle class="cls-1" cx="32.82" cy="185.54" r="0.46"/><circle class="cls-1" cx="30.98" cy="185.54" r="0.46"/><circle class="cls-1" cx="29.13" cy="185.54" r="0.46"/><circle class="cls-1" cx="27.28" cy="185.54" r="0.46"/><circle class="cls-1" cx="25.44" cy="185.54" r="0.46"/><circle class="cls-1" cx="23.59" cy="185.54" r="0.46"/><circle class="cls-1" cx="21.74" cy="185.54" r="0.46"/><circle class="cls-1" cx="19.89" cy="185.54" r="0.46"/><circle class="cls-1" cx="18.97" cy="183.77" r="0.46"/><circle class="cls-1" cx="20.82" cy="183.77" r="0.46"/><circle class="cls-1" cx="22.66" cy="183.77" r="0.46"/><circle class="cls-1" cx="24.51" cy="183.77" r="0.46"/><circle class="cls-1" cx="26.36" cy="183.77" r="0.46"/><circle class="cls-1" cx="28.21" cy="183.77" r="0.46"/><circle class="cls-1" cx="30.05" cy="183.77" r="0.46"/><circle class="cls-1" cx="31.9" cy="183.77" r="0.46"/><circle class="cls-1" cx="33.75" cy="183.77" r="0.46"/><circle class="cls-1" cx="35.6" cy="183.77" r="0.46"/><circle class="cls-1" cx="37.44" cy="183.77" r="0.46"/><circle class="cls-1" cx="39.29" cy="183.77" r="0.46"/><circle class="cls-1" cx="41.14" cy="183.77" r="0.46"/><circle class="cls-1" cx="42.98" cy="183.77" r="0.46"/><circle class="cls-1" cx="44.83" cy="183.77" r="0.46"/><circle class="cls-1" cx="46.68" cy="183.77" r="0.46"/><circle class="cls-1" cx="48.53" cy="183.77" r="0.46"/><circle class="cls-1" cx="50.37" cy="183.77" r="0.46"/><circle class="cls-1" cx="52.22" cy="183.77" r="0.46"/><circle class="cls-1" cx="54.07" cy="183.77" r="0.46"/><circle class="cls-1" cx="55.92" cy="183.77" r="0.46"/><circle class="cls-1" cx="57.76" cy="183.77" r="0.46"/><circle class="cls-1" cx="59.61" cy="183.77" r="0.46"/><circle class="cls-1" cx="61.46" cy="183.77" r="0.46"/><circle class="cls-1" cx="63.31" cy="183.77" r="0.46"/><circle class="cls-1" cx="65.15" cy="183.77" r="0.46"/><circle class="cls-1" cx="67" cy="183.77" r="0.46"/><circle class="cls-1" cx="68.85" cy="183.77" r="0.46"/><circle class="cls-1" cx="70.69" cy="183.77" r="0.46"/><circle class="cls-1" cx="72.54" cy="183.77" r="0.46"/><circle class="cls-1" cx="74.39" cy="183.77" r="0.46"/><circle class="cls-1" cx="76.24" cy="183.77" r="0.46"/><circle class="cls-1" cx="78.08" cy="183.77" r="0.46"/><circle class="cls-1" cx="79.93" cy="183.77" r="0.46"/><circle class="cls-1" cx="81.78" cy="183.77" r="0.46"/><circle class="cls-1" cx="83.63" cy="183.77" r="0.46"/><circle class="cls-1" cx="85.47" cy="183.77" r="0.46"/><circle class="cls-1" cx="87.32" cy="183.77" r="0.46"/><circle class="cls-1" cx="89.17" cy="183.77" r="0.46"/><circle class="cls-1" cx="91.01" cy="183.77" r="0.46"/><circle class="cls-1" cx="92.86" cy="183.77" r="0.46"/><circle class="cls-1" cx="94.71" cy="183.77" r="0.46"/><circle class="cls-1" cx="96.56" cy="183.77" r="0.46"/><circle class="cls-1" cx="98.4" cy="183.77" r="0.46"/><circle class="cls-1" cx="100.25" cy="183.77" r="0.46"/><circle class="cls-1" cx="101.17" cy="182" r="0.46"/><circle class="cls-1" cx="99.33" cy="182" r="0.46"/><circle class="cls-1" cx="97.48" cy="182" r="0.46"/><circle class="cls-1" cx="95.63" cy="182" r="0.46"/><circle class="cls-1" cx="93.79" cy="182" r="0.46"/><circle class="cls-1" cx="91.94" cy="182" r="0.46"/><circle class="cls-1" cx="90.09" cy="182" r="0.46"/><circle class="cls-1" cx="88.24" cy="182" r="0.46"/><circle class="cls-1" cx="86.4" cy="182" r="0.46"/><circle class="cls-1" cx="84.55" cy="182" r="0.46"/><circle class="cls-1" cx="82.7" cy="182" r="0.46"/><circle class="cls-1" cx="80.85" cy="182" r="0.46"/><circle class="cls-1" cx="79.01" cy="182" r="0.46"/><circle class="cls-1" cx="77.16" cy="182" r="0.46"/><circle class="cls-1" cx="75.31" cy="182" r="0.46"/><circle class="cls-1" cx="73.47" cy="182" r="0.46"/><circle class="cls-1" cx="71.62" cy="182" r="0.46"/><circle class="cls-1" cx="69.77" cy="182" r="0.46"/><circle class="cls-1" cx="67.92" cy="182" r="0.46"/><circle class="cls-1" cx="66.08" cy="182" r="0.46"/><circle class="cls-1" cx="64.23" cy="182" r="0.46"/><circle class="cls-1" cx="62.38" cy="182" r="0.46"/><circle class="cls-1" cx="60.53" cy="182" r="0.46"/><circle class="cls-1" cx="58.69" cy="182" r="0.46"/><circle class="cls-1" cx="56.84" cy="182" r="0.46"/><circle class="cls-1" cx="54.99" cy="182" r="0.46"/><circle class="cls-1" cx="53.15" cy="182" r="0.46"/><circle class="cls-1" cx="51.3" cy="182" r="0.46"/><circle class="cls-1" cx="49.45" cy="182" r="0.46"/><circle class="cls-1" cx="47.6" cy="182" r="0.46"/><circle class="cls-1" cx="45.76" cy="182" r="0.46"/><circle class="cls-1" cx="43.91" cy="182" r="0.46"/><circle class="cls-1" cx="42.06" cy="182" r="0.46"/><circle class="cls-1" cx="40.21" cy="182" r="0.46"/><circle class="cls-1" cx="38.37" cy="182" r="0.46"/><circle class="cls-1" cx="36.52" cy="182" r="0.46"/><circle class="cls-1" cx="34.67" cy="182" r="0.46"/><circle class="cls-1" cx="32.82" cy="182" r="0.46"/><circle class="cls-1" cx="30.98" cy="182" r="0.46"/><circle class="cls-1" cx="29.13" cy="182" r="0.46"/><circle class="cls-1" cx="27.28" cy="182" r="0.46"/><circle class="cls-1" cx="25.44" cy="182" r="0.46"/><circle class="cls-1" cx="23.59" cy="182" r="0.46"/><circle class="cls-1" cx="21.74" cy="182" r="0.46"/><circle class="cls-1" cx="19.89" cy="182" r="0.46"/><circle class="cls-1" cx="18.05" cy="182" r="0.46"/><circle class="cls-1" cx="18.97" cy="180.24" r="0.46"/><circle class="cls-1" cx="20.82" cy="180.24" r="0.46"/><circle class="cls-1" cx="22.66" cy="180.24" r="0.46"/><circle class="cls-1" cx="24.51" cy="180.24" r="0.46"/><circle class="cls-1" cx="26.36" cy="180.24" r="0.46"/><circle class="cls-1" cx="28.21" cy="180.24" r="0.46"/><circle class="cls-1" cx="30.05" cy="180.24" r="0.46"/><circle class="cls-1" cx="31.9" cy="180.24" r="0.46"/><circle class="cls-1" cx="33.75" cy="180.24" r="0.46"/><circle class="cls-1" cx="35.6" cy="180.24" r="0.46"/><circle class="cls-1" cx="37.44" cy="180.24" r="0.46"/><circle class="cls-1" cx="39.29" cy="180.24" r="0.46"/><circle class="cls-1" cx="41.14" cy="180.24" r="0.46"/><circle class="cls-1" cx="42.98" cy="180.24" r="0.46"/><circle class="cls-1" cx="44.83" cy="180.24" r="0.46"/><circle class="cls-1" cx="46.68" cy="180.24" r="0.46"/><circle class="cls-1" cx="45.76" cy="178.47" r="0.46"/><circle class="cls-1" cx="43.91" cy="178.47" r="0.46"/><circle class="cls-1" cx="42.06" cy="178.47" r="0.46"/><circle class="cls-1" cx="40.21" cy="178.47" r="0.46"/><circle class="cls-1" cx="38.37" cy="178.47" r="0.46"/><circle class="cls-1" cx="36.52" cy="178.47" r="0.46"/><circle class="cls-1" cx="34.67" cy="178.47" r="0.46"/><circle class="cls-1" cx="32.82" cy="178.47" r="0.46"/><circle class="cls-1" cx="30.98" cy="178.47" r="0.46"/><circle class="cls-1" cx="29.13" cy="178.47" r="0.46"/><circle class="cls-1" cx="27.28" cy="178.47" r="0.46"/><circle class="cls-1" cx="25.44" cy="178.47" r="0.46"/><circle class="cls-1" cx="23.59" cy="178.47" r="0.46"/><circle class="cls-1" cx="21.74" cy="178.47" r="0.46"/><circle class="cls-1" cx="26.36" cy="176.71" r="0.46"/><circle class="cls-1" cx="28.21" cy="176.71" r="0.46"/><circle class="cls-1" cx="30.05" cy="176.71" r="0.46"/><circle class="cls-1" cx="31.9" cy="176.71" r="0.46"/><circle class="cls-1" cx="33.75" cy="176.71" r="0.46"/><circle class="cls-1" cx="35.6" cy="176.71" r="0.46"/><circle class="cls-1" cx="37.44" cy="176.71" r="0.46"/><circle class="cls-1" cx="39.29" cy="176.71" r="0.46"/><circle class="cls-1" cx="41.14" cy="176.71" r="0.46"/><circle class="cls-1" cx="42.98" cy="176.71" r="0.46"/><circle class="cls-1" cx="44.83" cy="176.71" r="0.46"/><circle class="cls-1" cx="46.68" cy="176.71" r="0.46"/><circle class="cls-1" cx="45.76" cy="174.94" r="0.46"/><circle class="cls-1" cx="43.91" cy="174.94" r="0.46"/><circle class="cls-1" cx="42.06" cy="174.94" r="0.46"/><circle class="cls-1" cx="40.21" cy="174.94" r="0.46"/><circle class="cls-1" cx="38.37" cy="174.94" r="0.46"/><circle class="cls-1" cx="36.52" cy="174.94" r="0.46"/><circle class="cls-1" cx="34.67" cy="174.94" r="0.46"/><circle class="cls-1" cx="32.82" cy="174.94" r="0.46"/><circle class="cls-1" cx="42.98" cy="173.17" r="0.46"/><circle class="cls-1" cx="44.83" cy="173.17" r="0.46"/><circle class="cls-1" cx="46.68" cy="173.17" r="0.46"/><path class="cls-3" d="M26.21,89.27c25,3.91,57.52-8.17,76.5,14.42,4.28,5.08,7.6,11,12.66,15.41a32.71,32.71,0,0,0,15.24,7.22c12.66,2.49,25.3-1.08,36.76-6.36,13.6-6.26,26.24-14.8,40.87-18.59,7.48-1.94,15.38-2.58,22.95-.72,6.39,1.57,12.29,4.61,18.39,7,5.52,2.17,11.47,3.92,17.45,2.95A22.62,22.62,0,0,0,279,104.36c7-6.69,10.9-15.89,17.25-23.14,3.36-3.82,7.44-6.93,12.46-8.13,6.18-1.48,13.58-.43,18.46-5.26,3.07-3,4.74-8.2,1.07-11.49-3.95-3.53-10.64-2-15.34-1.49l-.33,0a36.68,36.68,0,0,1-30.24-11.14l-.12-.13c-4.25-4.44-8.75-8.9-14.31-11.68-5.81-2.9-12.19-3.33-18.58-2.75-7.06.63-14,2.28-21.15,2.22-6.82-.06-13-2.25-19-5.43-10.64-5.67-20.66-13.78-33.25-14.14-13.81-.39-26.41,7.36-36.93,15.54-11.13,8.64-21.8,18.81-35.48,23.26C76.84,59.3,49.19,45.18,22.18,50,12.54,51.73-.86,57.47,0,69.38,1,81.91,15.7,87.62,26.21,89.27Z"/><path class="cls-4" d="M158.61,121.91c-.54-.22-.84.62-.31.84,4.28,1.79,7,6.65,5.61,11.21a9.65,9.65,0,0,1-10.37,6.65c-3.87-.37-7.7-2-11.58-.75-3.22,1.06-5.66,3.69-7.48,6.45-2.25,3.39-3.65,7.3-6.14,10.55a17,17,0,0,1-11.49,6.36c-9.32,1.27-17.94-3.18-26.58-5.91a62.32,62.32,0,0,0-26.55-2.42c-9.36,1.2-18.17,5.46-27.64,5.88-8.68.38-19.91-4.14-19.68-14.48.19-9,10.25-12.5,17.53-14,8.14-1.74,16.27-3.45,21.08-10.93,4.09-6.37,4.88-14.46,3.46-21.76a.45.45,0,0,0-.88.15c1.55,8,.4,17.17-5.11,23.5C46.22,130.4,36.41,130,28,132.84,21.57,135,14.86,140,15.55,147.58c.72,7.85,8,12.85,15.24,13.87,10,1.39,19.38-3.11,29-5a62.14,62.14,0,0,1,32.13,2.35c8.41,2.86,17,6.81,26.11,5.16a17.57,17.57,0,0,0,10.08-5.38c2.87-3.2,4.38-7.28,6.6-10.91a18.71,18.71,0,0,1,4.91-5.6c2.62-1.85,5.55-2,8.63-1.48,4.34.75,8.53,1.9,12.45-.8A10.24,10.24,0,0,0,158.61,121.91Z"/><polygon class="cls-5" points="129.57 180.75 142.82 181.14 145.94 166.22 127.86 164.21 126.23 171.59 129.57 180.75"/><path class="cls-6" d="M126,176.42s6.4-3.06,12.7-6.5,3,8.17,3,8.17l-4.53,3.35-7.59-.69Z"/><path class="cls-3" d="M20.06,35.69c.64-2.4,1.71-4.74,4-5.88,5.53-2.82,11.23,4.26,15.36-3.16,2.34-4.2,2.78-8.65,7.46-11.06A10.91,10.91,0,0,1,58,16.36c2,1.38,3,3.5,4.7,5.11,3.11,2.87,6.71,1.15,10.12.1,4.56-1.4,9.22-1.26,13.28,1.49a14.24,14.24,0,0,1,3.82,3.84c.85,1.27,1.34,4.47,2.41,5.24s2.6.44,3.7,1.33a5.56,5.56,0,0,1,1.67,2.22Z"/><path class="cls-6" d="M192.6,110.74c-.43-.18-.87-.34-1.3-.48a32.58,32.58,0,0,0,1.88-7.82.45.45,0,0,0-.36-.49.46.46,0,0,0-.2-.09c-7.41-1.37-14.75-6.1-22.49-4-1,.27-6,2.11-4.46,3.89.65.72,2.45.17,3.24.09l4.62-.44c-2.82,1.28-5.64,2.93-7.1,5.65-.39.72-.68,1.71.14,2.28a1.6,1.6,0,0,0,1.67.09,2,2,0,0,0,.07.76,1.42,1.42,0,0,0,1.86,1,1.62,1.62,0,0,0,.33,1.1c1.07,1.44,3,.52,4.22-.08a22.55,22.55,0,0,1,16.34,1.11.45.45,0,0,0,.36-.82l-.91-.39c.16-.36.31-.72.46-1.07.42.14.85.29,1.27.46S193.13,111,192.6,110.74Z"/><path class="cls-7" d="M224.81,128.15c2.56-2.48,5.6-4.5,8-7.1,3.73-4,1.56-7.24-1.14-10.56-.22.23-.43.47-.64.7a88,88,0,0,0-40.87-10.9c-.19-.25-3.38,13.55-3.38,13.55s3.87.86,5.39,1.24a59.47,59.47,0,0,1,16.39,6.71,60.08,60.08,0,0,1,9,6.58c1.33,1.18,2.6,2.48,3.94,3.68A24.46,24.46,0,0,1,224.81,128.15Z"/><path class="cls-8" d="M250.82,182.7a136.6,136.6,0,0,0-22.69-22.4l1.82-.05c.57,0,.66-.9.08-.89l-3,.07-.72-.56c-.41-.31-.85.23-.63.6-14.84.36-29.67.79-44.46,2-8.09.66-16.15,1.56-24.17,2.8-4.06.63-8.14,1.29-12.16,2.18-2.5.55-5.09,1.41-6.63,3.58a5.25,5.25,0,0,0,.62,6.85,9,9,0,0,0,6,2.5.38.38,0,0,0,.37.52h97a32.66,32.66,0,0,0,8.05,3.51A.45.45,0,0,0,250.82,182.7Z"/><circle class="cls-5" cx="244.69" cy="85.2" r="12.16"/><path class="cls-6" d="M236.7,90.31a5.3,5.3,0,0,0,5.78-.75c.45-.37,1,.37.51.73a6.16,6.16,0,0,1-6.66.83A.45.45,0,0,1,236.7,90.31Z"/><polygon class="cls-5" points="172.56 171.64 176.8 167.19 163.95 161.47 156.05 168.93 165.37 174.21 172.56 171.64"/><path class="cls-6" d="M164,161.47l-3.46,3.27c2.94,2.13,7.45,7.24,8.32,8.24l3.75-1.34,4.24-4.45Z"/><circle class="cls-9" cx="77.37" cy="98.51" r="27.25"/><path class="cls-10" d="M286.22,159.82a.45.45,0,0,0-.87,0q-15.24-1.38-30.36-3.88h0c-7.95-6.74-21.15-16.58-30.79-23.63a21.46,21.46,0,0,0-24.85-.33c-14.15,9.75-36.39,23.1-36.1,31.45.22,6.26,8.44,6.12,17.09,2.94a197.6,197.6,0,0,0,27-11.77c8.85,12.91,18.95,22.41,33.3,29.66,12.53,6.33,29.58,6.64,39.59-4.52A23.53,23.53,0,0,0,286.22,159.82Z"/><path class="cls-11" d="M176.05,179.94a2.58,2.58,0,0,1-2.41,3.51H135a2.21,2.21,0,0,1-2.21-2.21h0a2.22,2.22,0,0,1,1.19-2l16.44-8.64-1.35-4.75a1.32,1.32,0,0,1,1.56-1.65l6.56,1.5a1.31,1.31,0,0,1,1,1l.61,2.72h0c4.12.52,10,3.82,13.77,2.18Z"/><path class="cls-7" d="M176.05,179.94a2.58,2.58,0,0,1-2.41,3.5H135a2.19,2.19,0,0,1-1.7-3.59H176Z"/><path class="cls-12" d="M150,169.61a5.6,5.6,0,0,0,5.47.71c.52-.25.82.59.3.84a6.43,6.43,0,0,1-6.34-.86C149,169.91,149.58,169.22,150,169.61Z"/><path class="cls-12" d="M148,171.68c1.36,1,3.25,2,5,1.5.55-.17.85.67.3.84-2.06.65-4.21-.46-5.85-1.66C147,172,147.58,171.34,148,171.68Z"/><path class="cls-11" d="M117.37,181.47a2.58,2.58,0,0,1-3.5-2.4V140.41a2.21,2.21,0,0,1,2.21-2.21h0a2.23,2.23,0,0,1,2,1.19l8.63,16.44,4.75-1.35a1.32,1.32,0,0,1,1.65,1.56l-1.49,6.56a1.34,1.34,0,0,1-1,1l-2.73.61h0c-.51,4.12.08,12.72,1.72,16.54Z"/><path class="cls-7" d="M117.37,181.47a2.58,2.58,0,0,1-3.5-2.4V140.41a2.21,2.21,0,0,1,2.21-2.21,2.23,2.23,0,0,1,1.38.51v42.73Z"/><path class="cls-12" d="M127.71,155.43a5.57,5.57,0,0,0-.71,5.47c.25.52-.6.82-.85.3a6.46,6.46,0,0,1,.87-6.34C127.4,154.43,128.09,155,127.71,155.43Z"/><path class="cls-12" d="M125.64,153.46c-1,1.36-2,3.25-1.5,5,.17.55-.67.85-.84.3-.65-2.06.45-4.21,1.65-5.85C125.29,152.42,126,153,125.64,153.46Z"/><path class="cls-13" d="M255,68.16A12.82,12.82,0,0,0,247.16,67a11.38,11.38,0,0,0-3.74,1.37c-1.73,1-3.11,2.48-5.19,2.69-2.76.28-6.22-1.85-8.61.42-1.48,1.41-1.26,3.76-.23,5.35,1.62,2.48,4.86,3,7.55,3.41,3.28.55,10.55.47,11.68,4.5a.45.45,0,0,0,.89,0c.27-2.24,3-2.58,4.4-1.16a4.2,4.2,0,0,1,1,2.92,9.24,9.24,0,0,1-2.56,6c-.86,1-.17,2,.84,1.41,4.7-2.63,8.48-7.1,8.9-12.58C262.52,76.06,259.83,70.55,255,68.16Z"/><rect class="cls-1" x="46.47" y="169.29" width="58.14" height="12.18" rx="1.58"/><rect class="cls-1" x="46.47" y="157.12" width="58.14" height="12.18" rx="1.58"/><rect class="cls-1" x="46.47" y="144.94" width="58.14" height="12.18" rx="1.58"/><rect class="cls-14" x="48.7" y="171.47" width="53.68" height="7.83" rx="0.67"/><rect class="cls-14" x="48.7" y="159.29" width="53.68" height="7.83" rx="0.67"/><rect class="cls-14" x="48.7" y="147.11" width="53.68" height="7.83" rx="0.67"/><rect class="cls-15" x="142.82" y="116.25" width="34.84" height="2.24"/><polygon class="cls-15" points="142.83 118.49 128.97 83.71 129.81 83.38 144.9 117.63 142.83 118.49"/><path class="cls-15" d="M77.37,128.32a29.81,29.81,0,0,1-21.09-50.9l.53.53a29.08,29.08,0,0,0,41.12,41.12l.53.53A29.73,29.73,0,0,1,77.37,128.32Z"/><path class="cls-15" d="M97.61,144.94A9.17,9.17,0,0,0,89,138.86a11.62,11.62,0,0,1-11.6-11H73.7a11.62,11.62,0,0,1-11.59,11,9.2,9.2,0,0,0-8.64,6.08Z"/><path class="cls-5" d="M188.13,106.06c0-.27-15.13-7.07-22.92-5.12-1,.24-6.1,2-4.56,3.77.63.74,2.44.24,3.23.18l4.63-.33c-2.85,1.21-5.7,2.79-7.24,5.47-.41.72-.72,1.7.09,2.29a1.61,1.61,0,0,0,1.66.13,2,2,0,0,0,0,.76,1.43,1.43,0,0,0,1.84,1.07,1.55,1.55,0,0,0,.3,1.1c1,1.47,3,.6,4.22,0a22.53,22.53,0,0,1,15.38,1.09C185.12,116.65,187.76,108.76,188.13,106.06Z"/><path class="cls-6" d="M170.93,106.62a13.28,13.28,0,0,0-8.47,5.52c-.33.47.36,1,.68.57a12.34,12.34,0,0,1,7.86-5.19C171.56,107.41,171.49,106.51,170.93,106.62Z"/><path class="cls-6" d="M172.41,109.82a13,13,0,0,0-7.87,4.39c-.38.43.31,1,.69.57a12,12,0,0,1,7.25-4.07C173.05,110.62,173,109.72,172.41,109.82Z"/><path class="cls-8" d="M276.71,163.26c.45,2.67.31,5.38-1.37,7.63-.95,1.27-2.37,2.05-3.41,3.23a9.22,9.22,0,0,0-1.83,3.74c-1.08,3.8-2.54,6.72-6.26,8.55-3.26,1.6-6.92,1.81-10.51,1.8,9.8,1.41,20-.83,26.93-8.52a24.74,24.74,0,0,0,6-12.1C282.61,168.81,279.47,165.49,276.71,163.26Z"/><path class="cls-14" d="M146,73.5l-2.57,9c-.15.55.68.88.84.32l2.56-9C147,73.27,146.18,72.94,146,73.5Z"/><path class="cls-14" d="M138.63,73.38l1,9.35c.06.57.95.56.89,0l-1-9.35C139.46,72.8,138.57,72.81,138.63,73.38Z"/><path class="cls-14" d="M153.62,78.33l-7,6.23c-.43.38.1,1.1.54.72l7-6.24C154.58,78.67,154.05,77.94,153.62,78.33Z"/><path class="cls-14" d="M209.45,79.45a4.77,4.77,0,0,0-2.19-3.25c-3-1.56-6.2,2.35-8.48-1.74-1.29-2.32-1.54-4.78-4.12-6.11a6,6,0,0,0-6.18.42c-1.1.77-1.63,1.94-2.59,2.83-1.72,1.58-3.71.63-5.59.05a8.31,8.31,0,0,0-7.34.82,8,8,0,0,0-2.1,2.12c-.48.7-.75,2.47-1.34,2.9s-1.43.24-2,.73a3,3,0,0,0-.92,1.23Z"/><path class="cls-16" d="M278.73,103l2.6,3.36L278.62,105c-.06.94-.09,1.89-.06,2.83,0,.38.06.75.1,1.12l7,6.41-6.11-2.45c2.5,6.95,8.92,12.73,11.87,19.39,0,.18,1.82,6.22,1.14,9.87h.84a22.18,22.18,0,0,0-1.12-9.69,62.85,62.85,0,0,0-17.37-61.73h0l-.09-.08c-.37-.33-1.16,13.41-.09,18.9.53,2.69,2.32,4.87,3.28,7.39A14.71,14.71,0,0,1,278.73,103Z"/><path class="cls-16" d="M331,81.92c-16.6,9.35-23.91,26.41-28.39,44-.07.13-2.4,10.6-3.53,16.25l.91,0c1-5.17,2.09-10.52,3.43-15.82,4.12-6.92,14.27-6,19.63-11.67,3-3.15,3.2-7.38,3.2-11.49-1.47,0-4.27.09-5.55.83a15.21,15.21,0,0,1,5.56-3.23c0-.66,0-1.33.07-2l-3,.57L326.47,97A40.55,40.55,0,0,1,331,81.92Z"/><path class="cls-12" d="M294.57,119.71c3.17,7.12,2,15,.83,22.48h.9c.86-5.27,1.69-10.77,1-16.1a.38.38,0,0,0,.12-.13c2.23-4.14,7-5.92,9.52-9.9,2.61-4.15,3-9.17,2.69-14-.44-6.1-1.67-12.15-2.32-18.24-.7-6.64-1.88-20.66-2.16-20.27-4,5.52-7.68,11.51-9.44,18.17-1.87,7,0,14.51-3.29,21.19-1.32,2.7-2.26,5.18-1.59,8.21S293.31,116.88,294.57,119.71Z"/><path class="cls-17" d="M303.88,75.61c-4.94,13.46,1.41,28.78-5.28,41.76-.26.5.47,1,.74.51,6.76-13.12.4-28.42,5.38-42A.45.45,0,0,0,303.88,75.61Z"/><path class="cls-18" d="M321.35,95.3a75.61,75.61,0,0,0-14.09,22.63c-.21.53.63.84.84.3a75.13,75.13,0,0,1,14-22.42C322.47,95.38,321.73,94.88,321.35,95.3Z"/><path class="cls-18" d="M287.81,100a45.21,45.21,0,0,0-7.69-17.37c-.33-.47-1,.11-.68.57a44.27,44.27,0,0,1,7.49,16.95C287,100.66,287.93,100.51,287.81,100Z"/><path class="cls-2" d="M247,28.27l-9.85,6.8-9.85-6.8a14.34,14.34,0,0,1-4.47-10.41V0h28.65V17.86A14.35,14.35,0,0,1,247,28.27Z"/><path class="cls-2" d="M100.65,156.67H50.51c-.57,0-.65.89-.07.89h50.13C101.14,157.56,101.22,156.67,100.65,156.67Z"/><path class="cls-2" d="M100.65,168.83H50.51c-.57,0-.65.89-.07.89h50.13C101.14,169.72,101.22,168.83,100.65,168.83Z"/><circle class="cls-16" cx="52.69" cy="151.03" r="1.52"/><circle class="cls-16" cx="58.06" cy="151.03" r="1.52"/><circle class="cls-12" cx="63.43" cy="151.03" r="1.52"/><circle class="cls-16" cx="52.69" cy="163.2" r="1.52"/><circle class="cls-17" cx="58.06" cy="163.2" r="1.52"/><circle class="cls-17" cx="63.43" cy="163.2" r="1.52"/><circle class="cls-4" cx="52.69" cy="175.38" r="1.52"/><circle class="cls-4" cx="58.06" cy="175.38" r="1.52"/><circle class="cls-12" cx="63.43" cy="175.38" r="1.52"/><path class="cls-8" d="M215,148.16a26.27,26.27,0,0,1-7.69,6.26c-.51.27-.14,1.08.37.81a27.62,27.62,0,0,0,8.06-6.56C216.08,148.23,215.35,147.72,215,148.16Z"/><path class="cls-15" d="M287.59,166.59v-.05c-2.54-16.21-9.27-31.25-16.45-45.86-2.92-5.93-5.58-13.32-11.18-17.29-5.07-3.61-11.85-3.51-17.51-1.46-6.53,2.37-11.59,7.34-16.23,12.41a87.76,87.76,0,0,0-40.86-10.9C185.16,103.18,182,117,182,117s3.87.87,5.4,1.25a59.2,59.2,0,0,1,25.35,13.28c2.53,2.26,4.83,4.91,7.84,6.54,3.47,1.88,7.18,1.54,10.58.23l15.1,12.35,7.56,6.18c2,1.64,4,3.56,6.42,4.59,5.31,2.25,10.71-2.44,15.75,1.28,3.21,2.37,7,7.06,11.4,4.39A.46.46,0,0,0,287.59,166.59Z"/><path class="cls-7" d="M269.7,161.29a10.08,10.08,0,0,1-7.19-5c-1.78-3.22-1.09-7.2-3-10.37a53.29,53.29,0,0,0-3.66-4.42,13,13,0,0,1-2.51-6.23,22.71,22.71,0,0,1,.83-8.9q-10.84,6.75-22.25,12.49l14.36,11.75,7.56,6.18c2,1.64,4,3.56,6.42,4.59C263.38,162.74,266.57,161.63,269.7,161.29Z"/><path class="cls-7" d="M259.46,121.94A287.16,287.16,0,0,1,231.1,138.3l0,0,.76.62a285.5,285.5,0,0,0,28-16.16C260.33,122.43,259.94,121.62,259.46,121.94Z"/><path class="cls-4" d="M287.83,33.34c-3.41-6.05-11.57-7.3-17.8-6C261.11,29.18,253.34,35,245,38.39a111.73,111.73,0,0,1-26.84,7.12,112,112,0,0,1-54.85-6.13c-15-5.71-34.53-16.39-49.53-4.63-7.6,6-10.25,15.78-13.35,24.47-2,5.48-4.78,11.62-9,15.92l.78.49a26.87,26.87,0,0,0,4-4.93c4.59-7.26,6.21-15.84,9.72-23.6,3.81-8.43,10-14.73,19.44-16.23,9.07-1.45,18,1.37,26.32,4.72S168,42.4,176.76,44.45a113.11,113.11,0,0,0,25.2,3,113.23,113.23,0,0,0,48.92-10.68c8.51-4,17.3-10.55,27.24-8.7,4.59.85,8.94,3.72,10,8.49.77,3.55-.23,7.54-3.24,9.59l.69.6C289.59,43.81,290.26,37.65,287.83,33.34Z"/><circle class="cls-15" cx="237.02" cy="34.58" r="0.46"/><circle class="cls-15" cx="239.79" cy="32.81" r="0.46"/><circle class="cls-15" cx="237.95" cy="32.81" r="0.46"/><circle class="cls-15" cx="236.1" cy="32.81" r="0.46"/><circle class="cls-15" cx="234.25" cy="32.81" r="0.46"/><circle class="cls-15" cx="231.48" cy="31.05" r="0.46"/><circle class="cls-15" cx="233.33" cy="31.05" r="0.46"/><circle class="cls-15" cx="235.18" cy="31.05" r="0.46"/><circle class="cls-15" cx="237.02" cy="31.05" r="0.46"/><circle class="cls-15" cx="238.87" cy="31.05" r="0.46"/><circle class="cls-15" cx="240.72" cy="31.05" r="0.46"/><circle class="cls-15" cx="242.56" cy="31.05" r="0.46"/><circle class="cls-15" cx="245.34" cy="29.28" r="0.46"/><circle class="cls-15" cx="243.49" cy="29.28" r="0.46"/><circle class="cls-15" cx="241.64" cy="29.28" r="0.46"/><circle class="cls-15" cx="239.79" cy="29.28" r="0.46"/><circle class="cls-15" cx="237.95" cy="29.28" r="0.46"/><circle class="cls-15" cx="236.1" cy="29.28" r="0.46"/><circle class="cls-15" cx="234.25" cy="29.28" r="0.46"/><circle class="cls-15" cx="232.4" cy="29.28" r="0.46"/><circle class="cls-15" cx="230.56" cy="29.28" r="0.46"/><circle class="cls-15" cx="228.71" cy="29.28" r="0.46"/><circle class="cls-15" cx="227.79" cy="27.52" r="0.46"/><circle class="cls-15" cx="229.63" cy="27.52" r="0.46"/><circle class="cls-15" cx="231.48" cy="27.52" r="0.46"/><circle class="cls-15" cx="233.33" cy="27.52" r="0.46"/><circle class="cls-15" cx="235.18" cy="27.52" r="0.46"/><circle class="cls-15" cx="237.02" cy="27.52" r="0.46"/><circle class="cls-15" cx="238.87" cy="27.52" r="0.46"/><circle class="cls-15" cx="240.72" cy="27.52" r="0.46"/><circle class="cls-15" cx="242.56" cy="27.52" r="0.46"/><circle class="cls-15" cx="244.41" cy="27.52" r="0.46"/><circle class="cls-15" cx="246.26" cy="27.52" r="0.46"/><circle class="cls-15" cx="248.11" cy="27.52" r="0.46"/><circle class="cls-15" cx="249.03" cy="25.75" r="0.46"/><circle class="cls-15" cx="247.18" cy="25.75" r="0.46"/><circle class="cls-15" cx="245.34" cy="25.75" r="0.46"/><circle class="cls-15" cx="243.49" cy="25.75" r="0.46"/><circle class="cls-15" cx="241.64" cy="25.75" r="0.46"/><circle class="cls-15" cx="239.79" cy="25.75" r="0.46"/><circle class="cls-15" cx="237.95" cy="25.75" r="0.46"/><circle class="cls-15" cx="236.1" cy="25.75" r="0.46"/><circle class="cls-15" cx="234.25" cy="25.75" r="0.46"/><circle class="cls-15" cx="232.4" cy="25.75" r="0.46"/><circle class="cls-15" cx="230.56" cy="25.75" r="0.46"/><circle class="cls-15" cx="228.71" cy="25.75" r="0.46"/><circle class="cls-15" cx="226.86" cy="25.75" r="0.46"/><circle class="cls-15" cx="227.79" cy="23.98" r="0.46"/><circle class="cls-15" cx="229.63" cy="23.98" r="0.46"/><circle class="cls-15" cx="231.48" cy="23.98" r="0.46"/><circle class="cls-15" cx="233.33" cy="23.98" r="0.46"/><circle class="cls-15" cx="235.18" cy="23.98" r="0.46"/><circle class="cls-15" cx="237.02" cy="23.98" r="0.46"/><circle class="cls-15" cx="238.87" cy="23.98" r="0.46"/><circle class="cls-15" cx="240.72" cy="23.98" r="0.46"/><circle class="cls-15" cx="242.56" cy="23.98" r="0.46"/><circle class="cls-15" cx="244.41" cy="23.98" r="0.46"/><circle class="cls-15" cx="246.26" cy="23.98" r="0.46"/><circle class="cls-15" cx="248.11" cy="23.98" r="0.46"/><circle class="cls-15" cx="249.95" cy="23.98" r="0.46"/><circle class="cls-15" cx="250.88" cy="22.22" r="0.46"/><circle class="cls-15" cx="249.03" cy="22.22" r="0.46"/><circle class="cls-15" cx="247.18" cy="22.22" r="0.46"/><circle class="cls-15" cx="245.34" cy="22.22" r="0.46"/><circle class="cls-15" cx="243.49" cy="22.22" r="0.46"/><circle class="cls-15" cx="241.64" cy="22.22" r="0.46"/><circle class="cls-15" cx="239.79" cy="22.22" r="0.46"/><circle class="cls-15" cx="237.95" cy="22.22" r="0.46"/><circle class="cls-15" cx="236.1" cy="22.22" r="0.46"/><circle class="cls-15" cx="234.25" cy="22.22" r="0.46"/><circle class="cls-15" cx="232.4" cy="22.22" r="0.46"/><circle class="cls-15" cx="230.56" cy="22.22" r="0.46"/><circle class="cls-15" cx="242.56" cy="20.45" r="0.46"/><circle class="cls-15" cx="244.41" cy="20.45" r="0.46"/><circle class="cls-15" cx="246.26" cy="20.45" r="0.46"/><circle class="cls-15" cx="248.11" cy="20.45" r="0.46"/><circle class="cls-15" cx="249.95" cy="20.45" r="0.46"/><circle class="cls-15" cx="250.88" cy="18.69" r="0.46"/><circle class="cls-15" cx="249.03" cy="18.69" r="0.46"/><circle class="cls-15" cx="247.18" cy="18.69" r="0.46"/><circle class="cls-15" cx="245.34" cy="18.69" r="0.46"/><circle class="cls-15" cx="243.49" cy="18.69" r="0.46"/><circle class="cls-15" cx="242.56" cy="16.92" r="0.46"/><circle class="cls-15" cx="244.41" cy="16.92" r="0.46"/><circle class="cls-15" cx="246.26" cy="16.92" r="0.46"/><circle class="cls-15" cx="248.11" cy="16.92" r="0.46"/><circle class="cls-15" cx="249.95" cy="16.92" r="0.46"/><circle class="cls-15" cx="251.8" cy="16.92" r="0.46"/><circle class="cls-15" cx="250.88" cy="15.15" r="0.46"/><circle class="cls-15" cx="249.03" cy="15.15" r="0.46"/><circle class="cls-15" cx="247.18" cy="15.15" r="0.46"/><circle class="cls-15" cx="245.34" cy="15.15" r="0.46"/><circle class="cls-15" cx="243.49" cy="15.15" r="0.46"/><circle class="cls-15" cx="242.56" cy="13.39" r="0.46"/><circle class="cls-15" cx="244.41" cy="13.39" r="0.46"/><circle class="cls-15" cx="246.26" cy="13.39" r="0.46"/><circle class="cls-15" cx="248.11" cy="13.39" r="0.46"/><circle class="cls-15" cx="249.95" cy="13.39" r="0.46"/><circle class="cls-15" cx="251.8" cy="13.39" r="0.46"/><circle class="cls-15" cx="250.88" cy="11.62" r="0.46"/><circle class="cls-15" cx="249.03" cy="11.62" r="0.46"/><circle class="cls-15" cx="247.18" cy="11.62" r="0.46"/><circle class="cls-15" cx="245.34" cy="11.62" r="0.46"/><circle class="cls-15" cx="246.26" cy="9.86" r="0.46"/><circle class="cls-15" cx="248.11" cy="9.86" r="0.46"/><circle class="cls-15" cx="249.95" cy="9.86" r="0.46"/><circle class="cls-15" cx="251.8" cy="9.86" r="0.46"/><circle class="cls-15" cx="250.88" cy="8.09" r="0.46"/><circle class="cls-15" cx="249.03" cy="8.09" r="0.46"/><circle class="cls-15" cx="247.18" cy="8.09" r="0.46"/><circle class="cls-15" cx="245.34" cy="8.09" r="0.46"/><circle class="cls-15" cx="246.26" cy="6.32" r="0.46"/><circle class="cls-15" cx="248.11" cy="6.32" r="0.46"/><circle class="cls-15" cx="249.95" cy="6.32" r="0.46"/><circle class="cls-15" cx="251.8" cy="6.32" r="0.46"/><circle class="cls-15" cx="250.88" cy="4.56" r="0.46"/><circle class="cls-15" cx="249.03" cy="4.56" r="0.46"/><circle class="cls-15" cx="247.18" cy="4.56" r="0.46"/><circle class="cls-15" cx="249.95" cy="2.79" r="0.46"/><circle class="cls-15" cx="251.8" cy="2.79" r="0.46"/><circle class="cls-15" cx="250.88" cy="1.03" r="0.46"/><circle class="cls-7" cx="225.7" cy="138.06" r="0.46"/><circle class="cls-7" cx="223.86" cy="138.06" r="0.46"/><circle class="cls-7" cx="222.01" cy="138.06" r="0.46"/><circle class="cls-7" cx="219.24" cy="136.29" r="0.46"/><circle class="cls-7" cx="221.08" cy="136.29" r="0.46"/><circle class="cls-7" cx="222.93" cy="136.29" r="0.46"/><circle class="cls-7" cx="224.78" cy="136.29" r="0.46"/><circle class="cls-7" cx="223.86" cy="134.53" r="0.46"/><circle class="cls-7" cx="222.01" cy="134.53" r="0.46"/><circle class="cls-7" cx="220.16" cy="134.53" r="0.46"/><circle class="cls-7" cx="218.31" cy="134.53" r="0.46"/><circle class="cls-7" cx="216.47" cy="134.53" r="0.46"/><circle class="cls-7" cx="215.54" cy="132.76" r="0.46"/><circle class="cls-7" cx="217.39" cy="132.76" r="0.46"/><circle class="cls-7" cx="219.24" cy="132.76" r="0.46"/><circle class="cls-7" cx="221.08" cy="132.76" r="0.46"/><circle class="cls-7" cx="222.93" cy="132.76" r="0.46"/><circle class="cls-7" cx="222.01" cy="131" r="0.46"/><circle class="cls-7" cx="220.16" cy="131" r="0.46"/><circle class="cls-7" cx="218.31" cy="131" r="0.46"/><circle class="cls-7" cx="216.47" cy="131" r="0.46"/><circle class="cls-7" cx="214.62" cy="131" r="0.46"/><circle class="cls-7" cx="212.77" cy="131" r="0.46"/><circle class="cls-7" cx="211.85" cy="129.23" r="0.46"/><circle class="cls-7" cx="213.7" cy="129.23" r="0.46"/><circle class="cls-7" cx="215.54" cy="129.23" r="0.46"/><circle class="cls-7" cx="217.39" cy="129.23" r="0.46"/><circle class="cls-7" cx="219.24" cy="129.23" r="0.46"/><circle class="cls-7" cx="218.31" cy="127.46" r="0.46"/><circle class="cls-7" cx="216.47" cy="127.46" r="0.46"/><circle class="cls-7" cx="214.62" cy="127.46" r="0.46"/><circle class="cls-7" cx="212.77" cy="127.46" r="0.46"/><circle class="cls-7" cx="210.92" cy="127.46" r="0.46"/><circle class="cls-7" cx="209.08" cy="127.46" r="0.46"/><circle class="cls-7" cx="206.31" cy="125.7" r="0.46"/><circle class="cls-7" cx="208.15" cy="125.7" r="0.46"/><circle class="cls-7" cx="210" cy="125.7" r="0.46"/><circle class="cls-7" cx="211.85" cy="125.7" r="0.46"/><circle class="cls-7" cx="213.7" cy="125.7" r="0.46"/><circle class="cls-7" cx="215.54" cy="125.7" r="0.46"/><circle class="cls-7" cx="214.62" cy="123.93" r="0.46"/><circle class="cls-7" cx="212.77" cy="123.93" r="0.46"/><circle class="cls-7" cx="210.92" cy="123.93" r="0.46"/><circle class="cls-7" cx="209.08" cy="123.93" r="0.46"/><circle class="cls-7" cx="207.23" cy="123.93" r="0.46"/><circle class="cls-7" cx="205.38" cy="123.93" r="0.46"/><circle class="cls-7" cx="203.54" cy="123.93" r="0.46"/><circle class="cls-7" cx="203.54" cy="123.93" r="0.46"/><circle class="cls-7" cx="205.38" cy="123.93" r="0.46"/><circle class="cls-7" cx="207.23" cy="123.93" r="0.46"/><circle class="cls-7" cx="209.08" cy="123.93" r="0.46"/><circle class="cls-7" cx="210.92" cy="123.93" r="0.46"/><circle class="cls-7" cx="212.77" cy="123.93" r="0.46"/><circle class="cls-7" cx="214.62" cy="123.93" r="0.46"/><circle class="cls-7" cx="200.76" cy="122.17" r="0.46"/><circle class="cls-7" cx="202.61" cy="122.17" r="0.46"/><circle class="cls-7" cx="204.46" cy="122.17" r="0.46"/><circle class="cls-7" cx="206.31" cy="122.17" r="0.46"/><circle class="cls-7" cx="208.15" cy="122.17" r="0.46"/><circle class="cls-7" cx="210" cy="122.17" r="0.46"/><circle class="cls-7" cx="211.85" cy="122.17" r="0.46"/><circle class="cls-7" cx="209.08" cy="120.4" r="0.46"/><circle class="cls-7" cx="207.23" cy="120.4" r="0.46"/><circle class="cls-7" cx="205.38" cy="120.4" r="0.46"/><circle class="cls-7" cx="203.54" cy="120.4" r="0.46"/><circle class="cls-7" cx="201.69" cy="120.4" r="0.46"/><circle class="cls-7" cx="199.84" cy="120.4" r="0.46"/><circle class="cls-7" cx="197.99" cy="120.4" r="0.46"/><circle class="cls-7" cx="196.15" cy="120.4" r="0.46"/><circle class="cls-7" cx="191.53" cy="118.63" r="0.46"/><circle class="cls-7" cx="193.38" cy="118.63" r="0.46"/><circle class="cls-7" cx="195.22" cy="118.63" r="0.46"/><circle class="cls-7" cx="197.07" cy="118.63" r="0.46"/><circle class="cls-7" cx="198.92" cy="118.63" r="0.46"/><circle class="cls-7" cx="200.76" cy="118.63" r="0.46"/><circle class="cls-7" cx="202.61" cy="118.63" r="0.46"/><circle class="cls-7" cx="204.46" cy="118.63" r="0.46"/><circle class="cls-7" cx="206.31" cy="118.63" r="0.46"/><circle class="cls-7" cx="201.69" cy="116.87" r="0.46"/><circle class="cls-7" cx="199.84" cy="116.87" r="0.46"/><circle class="cls-7" cx="197.99" cy="116.87" r="0.46"/><circle class="cls-7" cx="196.15" cy="116.87" r="0.46"/><circle class="cls-7" cx="194.3" cy="116.87" r="0.46"/><circle class="cls-7" cx="192.45" cy="116.87" r="0.46"/><circle class="cls-7" cx="190.6" cy="116.87" r="0.46"/><circle class="cls-7" cx="188.76" cy="116.87" r="0.46"/><circle class="cls-7" cx="186.91" cy="116.87" r="0.46"/><circle class="cls-7" cx="185.06" cy="116.87" r="0.46"/><circle class="cls-7" cx="183.22" cy="116.87" r="0.46"/><circle class="cls-7" cx="184.14" cy="115.1" r="0.46"/><circle class="cls-7" cx="185.99" cy="115.1" r="0.46"/><circle class="cls-7" cx="187.83" cy="115.1" r="0.46"/><circle class="cls-7" cx="189.68" cy="115.1" r="0.46"/><circle class="cls-7" cx="191.53" cy="115.1" r="0.46"/><circle class="cls-7" cx="193.38" cy="115.1" r="0.46"/><circle class="cls-7" cx="195.22" cy="115.1" r="0.46"/><circle class="cls-7" cx="197.07" cy="115.1" r="0.46"/><circle class="cls-7" cx="198.92" cy="115.1" r="0.46"/><circle class="cls-7" cx="194.3" cy="113.33" r="0.46"/><circle class="cls-7" cx="192.45" cy="113.33" r="0.46"/><circle class="cls-7" cx="190.6" cy="113.33" r="0.46"/><circle class="cls-7" cx="188.76" cy="113.33" r="0.46"/><circle class="cls-7" cx="186.91" cy="113.33" r="0.46"/><circle class="cls-7" cx="185.06" cy="113.33" r="0.46"/><circle class="cls-7" cx="183.22" cy="113.33" r="0.46"/><circle class="cls-7" cx="185.99" cy="111.57" r="0.46"/><circle class="cls-7" cx="187.83" cy="111.57" r="0.46"/><circle class="cls-7" cx="189.68" cy="111.57" r="0.46"/><circle class="cls-8" cx="251.37" cy="187.22" r="0.46"/><circle class="cls-8" cx="253.22" cy="187.22" r="0.46"/><circle class="cls-8" cx="255.06" cy="187.22" r="0.46"/><circle class="cls-8" cx="257.83" cy="185.45" r="0.46"/><circle class="cls-8" cx="255.99" cy="185.45" r="0.46"/><circle class="cls-8" cx="254.14" cy="185.45" r="0.46"/><circle class="cls-8" cx="252.29" cy="185.45" r="0.46"/><circle class="cls-8" cx="250.44" cy="185.45" r="0.46"/><circle class="cls-8" cx="248.6" cy="185.45" r="0.46"/><circle class="cls-8" cx="246.75" cy="185.45" r="0.46"/><circle class="cls-8" cx="244.9" cy="185.45" r="0.46"/><circle class="cls-8" cx="242.13" cy="183.69" r="0.46"/><circle class="cls-8" cx="243.98" cy="183.69" r="0.46"/><circle class="cls-8" cx="245.83" cy="183.69" r="0.46"/><circle class="cls-8" cx="247.67" cy="183.69" r="0.46"/><circle class="cls-8" cx="249.52" cy="183.69" r="0.46"/><circle class="cls-8" cx="251.37" cy="183.69" r="0.46"/><circle class="cls-8" cx="253.22" cy="183.69" r="0.46"/><circle class="cls-8" cx="255.06" cy="183.69" r="0.46"/><circle class="cls-8" cx="256.91" cy="183.69" r="0.46"/><circle class="cls-8" cx="258.76" cy="183.69" r="0.46"/><circle class="cls-8" cx="257.83" cy="181.92" r="0.46"/><circle class="cls-8" cx="255.99" cy="181.92" r="0.46"/><circle class="cls-8" cx="254.14" cy="181.92" r="0.46"/><circle class="cls-8" cx="252.29" cy="181.92" r="0.46"/><circle class="cls-8" cx="250.44" cy="181.92" r="0.46"/><circle class="cls-8" cx="248.6" cy="181.92" r="0.46"/><circle class="cls-8" cx="246.75" cy="181.92" r="0.46"/><circle class="cls-8" cx="244.9" cy="181.92" r="0.46"/><circle class="cls-8" cx="243.06" cy="181.92" r="0.46"/><circle class="cls-8" cx="241.21" cy="181.92" r="0.46"/><circle class="cls-8" cx="239.36" cy="181.92" r="0.46"/><circle class="cls-8" cx="234.74" cy="180.16" r="0.46"/><circle class="cls-8" cx="236.59" cy="180.16" r="0.46"/><circle class="cls-8" cx="238.44" cy="180.16" r="0.46"/><circle class="cls-8" cx="240.28" cy="180.16" r="0.46"/><circle class="cls-8" cx="242.13" cy="180.16" r="0.46"/><circle class="cls-8" cx="243.98" cy="180.16" r="0.46"/><circle class="cls-8" cx="245.83" cy="180.16" r="0.46"/><circle class="cls-8" cx="247.67" cy="180.16" r="0.46"/><circle class="cls-8" cx="249.52" cy="180.16" r="0.46"/><circle class="cls-8" cx="251.37" cy="180.16" r="0.46"/><circle class="cls-8" cx="253.22" cy="180.16" r="0.46"/><circle class="cls-8" cx="255.06" cy="180.16" r="0.46"/><circle class="cls-8" cx="256.91" cy="180.16" r="0.46"/><circle class="cls-8" cx="255.99" cy="178.39" r="0.46"/><circle class="cls-8" cx="254.14" cy="178.39" r="0.46"/><circle class="cls-8" cx="252.29" cy="178.39" r="0.46"/><circle class="cls-8" cx="250.44" cy="178.39" r="0.46"/><circle class="cls-8" cx="248.6" cy="178.39" r="0.46"/><circle class="cls-8" cx="246.75" cy="178.39" r="0.46"/><circle class="cls-8" cx="244.9" cy="178.39" r="0.46"/><circle class="cls-8" cx="243.06" cy="178.39" r="0.46"/><circle class="cls-8" cx="241.21" cy="178.39" r="0.46"/><circle class="cls-8" cx="239.36" cy="178.39" r="0.46"/><circle class="cls-8" cx="237.51" cy="178.39" r="0.46"/><circle class="cls-8" cx="235.67" cy="178.39" r="0.46"/><circle class="cls-8" cx="233.82" cy="178.39" r="0.46"/><circle class="cls-8" cx="231.97" cy="178.39" r="0.46"/><circle class="cls-8" cx="230.12" cy="178.39" r="0.46"/><circle class="cls-8" cx="229.2" cy="176.62" r="0.46"/><circle class="cls-8" cx="231.05" cy="176.62" r="0.46"/><circle class="cls-8" cx="232.9" cy="176.62" r="0.46"/><circle class="cls-8" cx="234.74" cy="176.62" r="0.46"/><circle class="cls-8" cx="236.59" cy="176.62" r="0.46"/><circle class="cls-8" cx="238.44" cy="176.62" r="0.46"/><circle class="cls-8" cx="240.28" cy="176.62" r="0.46"/><circle class="cls-8" cx="242.13" cy="176.62" r="0.46"/><circle class="cls-8" cx="243.98" cy="176.62" r="0.46"/><circle class="cls-8" cx="245.83" cy="176.62" r="0.46"/><circle class="cls-8" cx="247.67" cy="176.62" r="0.46"/><circle class="cls-8" cx="249.52" cy="176.62" r="0.46"/><circle class="cls-8" cx="251.37" cy="176.62" r="0.46"/><circle class="cls-8" cx="253.22" cy="176.62" r="0.46"/><circle class="cls-8" cx="248.6" cy="174.86" r="0.46"/><circle class="cls-8" cx="246.75" cy="174.86" r="0.46"/><circle class="cls-8" cx="244.9" cy="174.86" r="0.46"/><circle class="cls-8" cx="243.06" cy="174.86" r="0.46"/><circle class="cls-8" cx="241.21" cy="174.86" r="0.46"/><circle class="cls-8" cx="239.36" cy="174.86" r="0.46"/><circle class="cls-8" cx="237.51" cy="174.86" r="0.46"/><circle class="cls-8" cx="235.67" cy="174.86" r="0.46"/><circle class="cls-8" cx="233.82" cy="174.86" r="0.46"/><circle class="cls-8" cx="231.97" cy="174.86" r="0.46"/><circle class="cls-8" cx="230.12" cy="174.86" r="0.46"/><circle class="cls-8" cx="228.28" cy="174.86" r="0.46"/><circle class="cls-8" cx="226.43" cy="174.86" r="0.46"/><circle class="cls-8" cx="223.66" cy="173.09" r="0.46"/><circle class="cls-8" cx="225.51" cy="173.09" r="0.46"/><circle class="cls-8" cx="227.35" cy="173.09" r="0.46"/><circle class="cls-8" cx="229.2" cy="173.09" r="0.46"/><circle class="cls-8" cx="231.05" cy="173.09" r="0.46"/><circle class="cls-8" cx="232.9" cy="173.09" r="0.46"/><circle class="cls-8" cx="234.74" cy="173.09" r="0.46"/><circle class="cls-8" cx="236.59" cy="173.09" r="0.46"/><circle class="cls-8" cx="238.44" cy="173.09" r="0.46"/><circle class="cls-8" cx="240.28" cy="173.09" r="0.46"/><circle class="cls-8" cx="242.13" cy="173.09" r="0.46"/><circle class="cls-8" cx="243.98" cy="173.09" r="0.46"/><circle class="cls-8" cx="245.83" cy="173.09" r="0.46"/><circle class="cls-8" cx="243.06" cy="171.33" r="0.46"/><circle class="cls-8" cx="241.21" cy="171.33" r="0.46"/><circle class="cls-8" cx="239.36" cy="171.33" r="0.46"/><circle class="cls-8" cx="237.51" cy="171.33" r="0.46"/><circle class="cls-8" cx="235.67" cy="171.33" r="0.46"/><circle class="cls-8" cx="233.82" cy="171.33" r="0.46"/><circle class="cls-8" cx="231.97" cy="171.33" r="0.46"/><circle class="cls-8" cx="230.12" cy="171.33" r="0.46"/><circle class="cls-8" cx="228.28" cy="171.33" r="0.46"/><circle class="cls-8" cx="226.43" cy="171.33" r="0.46"/><circle class="cls-8" cx="224.58" cy="171.33" r="0.46"/><circle class="cls-8" cx="222.74" cy="171.33" r="0.46"/><circle class="cls-8" cx="219.96" cy="169.56" r="0.46"/><circle class="cls-8" cx="221.81" cy="169.56" r="0.46"/><circle class="cls-8" cx="223.66" cy="169.56" r="0.46"/><circle class="cls-8" cx="225.51" cy="169.56" r="0.46"/><circle class="cls-8" cx="227.35" cy="169.56" r="0.46"/><circle class="cls-8" cx="229.2" cy="169.56" r="0.46"/><circle class="cls-8" cx="231.05" cy="169.56" r="0.46"/><circle class="cls-8" cx="232.9" cy="169.56" r="0.46"/><circle class="cls-8" cx="234.74" cy="169.56" r="0.46"/><circle class="cls-8" cx="236.59" cy="169.56" r="0.46"/><circle class="cls-8" cx="238.44" cy="169.56" r="0.46"/><circle class="cls-8" cx="240.28" cy="169.56" r="0.46"/><circle class="cls-8" cx="237.51" cy="167.79" r="0.46"/><circle class="cls-8" cx="235.67" cy="167.79" r="0.46"/><circle class="cls-8" cx="233.82" cy="167.79" r="0.46"/><circle class="cls-8" cx="231.97" cy="167.79" r="0.46"/><circle class="cls-8" cx="230.12" cy="167.79" r="0.46"/><circle class="cls-8" cx="228.28" cy="167.79" r="0.46"/><circle class="cls-8" cx="226.43" cy="167.79" r="0.46"/><circle class="cls-8" cx="224.58" cy="167.79" r="0.46"/><circle class="cls-8" cx="222.74" cy="167.79" r="0.46"/><circle class="cls-8" cx="220.89" cy="167.79" r="0.46"/><circle class="cls-8" cx="219.04" cy="167.79" r="0.46"/><circle class="cls-8" cx="217.19" cy="167.79" r="0.46"/><circle class="cls-8" cx="217.19" cy="167.79" r="0.46"/><circle class="cls-8" cx="219.04" cy="167.79" r="0.46"/><circle class="cls-8" cx="220.89" cy="167.79" r="0.46"/><circle class="cls-8" cx="222.74" cy="167.79" r="0.46"/><circle class="cls-8" cx="224.58" cy="167.79" r="0.46"/><circle class="cls-8" cx="226.43" cy="167.79" r="0.46"/><circle class="cls-8" cx="228.28" cy="167.79" r="0.46"/><circle class="cls-8" cx="230.12" cy="167.79" r="0.46"/><circle class="cls-8" cx="231.97" cy="167.79" r="0.46"/><circle class="cls-8" cx="233.82" cy="167.79" r="0.46"/><circle class="cls-8" cx="235.67" cy="167.79" r="0.46"/><circle class="cls-8" cx="237.51" cy="167.79" r="0.46"/><circle class="cls-8" cx="216.27" cy="166.03" r="0.46"/><circle class="cls-8" cx="218.12" cy="166.03" r="0.46"/><circle class="cls-8" cx="219.96" cy="166.03" r="0.46"/><circle class="cls-8" cx="221.81" cy="166.03" r="0.46"/><circle class="cls-8" cx="223.66" cy="166.03" r="0.46"/><circle class="cls-8" cx="225.51" cy="166.03" r="0.46"/><circle class="cls-8" cx="227.35" cy="166.03" r="0.46"/><circle class="cls-8" cx="229.2" cy="166.03" r="0.46"/><circle class="cls-8" cx="231.05" cy="166.03" r="0.46"/><circle class="cls-8" cx="232.9" cy="166.03" r="0.46"/><circle class="cls-8" cx="234.74" cy="166.03" r="0.46"/><circle class="cls-8" cx="231.97" cy="164.26" r="0.46"/><circle class="cls-8" cx="230.12" cy="164.26" r="0.46"/><circle class="cls-8" cx="228.28" cy="164.26" r="0.46"/><circle class="cls-8" cx="226.43" cy="164.26" r="0.46"/><circle class="cls-8" cx="224.58" cy="164.26" r="0.46"/><circle class="cls-8" cx="222.74" cy="164.26" r="0.46"/><circle class="cls-8" cx="220.89" cy="164.26" r="0.46"/><circle class="cls-8" cx="219.04" cy="164.26" r="0.46"/><circle class="cls-8" cx="217.19" cy="164.26" r="0.46"/><circle class="cls-8" cx="215.35" cy="164.26" r="0.46"/><circle class="cls-8" cx="214.42" cy="162.5" r="0.46"/><circle class="cls-8" cx="216.27" cy="162.5" r="0.46"/><circle class="cls-8" cx="218.12" cy="162.5" r="0.46"/><circle class="cls-8" cx="219.96" cy="162.5" r="0.46"/><circle class="cls-8" cx="221.81" cy="162.5" r="0.46"/><circle class="cls-8" cx="223.66" cy="162.5" r="0.46"/><circle class="cls-8" cx="225.51" cy="162.5" r="0.46"/><circle class="cls-8" cx="227.35" cy="162.5" r="0.46"/><circle class="cls-8" cx="229.2" cy="162.5" r="0.46"/><circle class="cls-8" cx="228.28" cy="160.73" r="0.46"/><circle class="cls-8" cx="226.43" cy="160.73" r="0.46"/><circle class="cls-8" cx="224.58" cy="160.73" r="0.46"/><circle class="cls-8" cx="222.74" cy="160.73" r="0.46"/><circle class="cls-8" cx="220.89" cy="160.73" r="0.46"/><circle class="cls-8" cx="219.04" cy="160.73" r="0.46"/><circle class="cls-8" cx="217.19" cy="160.73" r="0.46"/><circle class="cls-8" cx="215.35" cy="160.73" r="0.46"/><circle class="cls-8" cx="213.5" cy="160.73" r="0.46"/><circle class="cls-8" cx="211.65" cy="160.73" r="0.46"/><circle class="cls-8" cx="212.58" cy="158.96" r="0.46"/><circle class="cls-8" cx="214.42" cy="158.96" r="0.46"/><circle class="cls-8" cx="216.27" cy="158.96" r="0.46"/><circle class="cls-8" cx="218.12" cy="158.96" r="0.46"/><circle class="cls-8" cx="219.96" cy="158.96" r="0.46"/><circle class="cls-8" cx="221.81" cy="158.96" r="0.46"/><circle class="cls-8" cx="223.66" cy="158.96" r="0.46"/><circle class="cls-8" cx="225.51" cy="158.96" r="0.46"/><circle class="cls-8" cx="222.74" cy="157.2" r="0.46"/><circle class="cls-8" cx="220.89" cy="157.2" r="0.46"/><circle class="cls-8" cx="219.04" cy="157.2" r="0.46"/><circle class="cls-8" cx="217.19" cy="157.2" r="0.46"/><circle class="cls-8" cx="215.35" cy="157.2" r="0.46"/><circle class="cls-8" cx="213.5" cy="157.2" r="0.46"/><circle class="cls-8" cx="211.65" cy="157.2" r="0.46"/><circle class="cls-8" cx="212.58" cy="155.43" r="0.46"/><circle class="cls-8" cx="214.42" cy="155.43" r="0.46"/><circle class="cls-8" cx="216.27" cy="155.43" r="0.46"/><circle class="cls-8" cx="218.12" cy="155.43" r="0.46"/><circle class="cls-8" cx="219.96" cy="155.43" r="0.46"/><circle class="cls-8" cx="217.19" cy="153.67" r="0.46"/><circle class="cls-8" cx="215.35" cy="153.67" r="0.46"/><circle class="cls-3" cx="166.13" cy="163.24" r="0.46"/><circle class="cls-3" cx="168.9" cy="161.47" r="0.46"/><circle class="cls-3" cx="167.06" cy="161.47" r="0.46"/><circle class="cls-3" cx="165.21" cy="161.47" r="0.46"/><circle class="cls-3" cx="163.36" cy="161.47" r="0.46"/><circle class="cls-3" cx="164.29" cy="159.71" r="0.46"/><circle class="cls-3" cx="166.13" cy="159.71" r="0.46"/><circle class="cls-3" cx="167.98" cy="159.71" r="0.46"/><circle class="cls-3" cx="169.83" cy="159.71" r="0.46"/><circle class="cls-3" cx="171.68" cy="159.71" r="0.46"/><circle class="cls-3" cx="176.29" cy="157.94" r="0.46"/><circle class="cls-3" cx="174.45" cy="157.94" r="0.46"/><circle class="cls-3" cx="172.6" cy="157.94" r="0.46"/><circle class="cls-3" cx="170.75" cy="157.94" r="0.46"/><circle class="cls-3" cx="168.9" cy="157.94" r="0.46"/><circle class="cls-3" cx="167.06" cy="157.94" r="0.46"/><circle class="cls-3" cx="165.21" cy="157.94" r="0.46"/><circle class="cls-3" cx="166.13" cy="156.17" r="0.46"/><circle class="cls-3" cx="167.98" cy="156.17" r="0.46"/><circle class="cls-3" cx="169.83" cy="156.17" r="0.46"/><circle class="cls-3" cx="171.68" cy="156.17" r="0.46"/><circle class="cls-3" cx="173.52" cy="156.17" r="0.46"/><circle class="cls-3" cx="175.37" cy="156.17" r="0.46"/><circle class="cls-3" cx="177.22" cy="156.17" r="0.46"/><circle class="cls-3" cx="179.99" cy="154.41" r="0.46"/><circle class="cls-3" cx="178.14" cy="154.41" r="0.46"/><circle class="cls-3" cx="176.29" cy="154.41" r="0.46"/><circle class="cls-3" cx="174.45" cy="154.41" r="0.46"/><circle class="cls-3" cx="172.6" cy="154.41" r="0.46"/><circle class="cls-3" cx="170.75" cy="154.41" r="0.46"/><circle class="cls-3" cx="168.9" cy="154.41" r="0.46"/><circle class="cls-3" cx="167.06" cy="154.41" r="0.46"/><circle class="cls-3" cx="169.83" cy="152.64" r="0.46"/><circle class="cls-3" cx="171.68" cy="152.64" r="0.46"/><circle class="cls-3" cx="173.52" cy="152.64" r="0.46"/><circle class="cls-3" cx="175.37" cy="152.64" r="0.46"/><circle class="cls-3" cx="177.22" cy="152.64" r="0.46"/><circle class="cls-3" cx="179.06" cy="152.64" r="0.46"/><circle class="cls-3" cx="180.91" cy="152.64" r="0.46"/><circle class="cls-3" cx="182.76" cy="152.64" r="0.46"/><circle class="cls-3" cx="185.53" cy="150.88" r="0.46"/><circle class="cls-3" cx="183.68" cy="150.88" r="0.46"/><circle class="cls-3" cx="181.84" cy="150.88" r="0.46"/><circle class="cls-3" cx="179.99" cy="150.88" r="0.46"/><circle class="cls-3" cx="178.14" cy="150.88" r="0.46"/><circle class="cls-3" cx="176.29" cy="150.88" r="0.46"/><circle class="cls-3" cx="174.45" cy="150.88" r="0.46"/><circle class="cls-3" cx="172.6" cy="150.88" r="0.46"/><circle class="cls-3" cx="170.75" cy="150.88" r="0.46"/><circle class="cls-3" cx="173.52" cy="149.11" r="0.46"/><circle class="cls-3" cx="175.37" cy="149.11" r="0.46"/><circle class="cls-3" cx="177.22" cy="149.11" r="0.46"/><circle class="cls-3" cx="179.06" cy="149.11" r="0.46"/><circle class="cls-3" cx="180.91" cy="149.11" r="0.46"/><circle class="cls-3" cx="182.76" cy="149.11" r="0.46"/><circle class="cls-3" cx="184.61" cy="149.11" r="0.46"/><circle class="cls-3" cx="186.45" cy="149.11" r="0.46"/><circle class="cls-3" cx="188.3" cy="149.11" r="0.46"/><circle class="cls-3" cx="189.22" cy="147.34" r="0.46"/><circle class="cls-3" cx="187.38" cy="147.34" r="0.46"/><circle class="cls-3" cx="185.53" cy="147.34" r="0.46"/><circle class="cls-3" cx="183.68" cy="147.34" r="0.46"/><circle class="cls-3" cx="181.84" cy="147.34" r="0.46"/><circle class="cls-3" cx="179.99" cy="147.34" r="0.46"/><circle class="cls-3" cx="178.14" cy="147.34" r="0.46"/><circle class="cls-3" cx="176.29" cy="147.34" r="0.46"/><circle class="cls-3" cx="177.22" cy="145.58" r="0.46"/><circle class="cls-3" cx="179.06" cy="145.58" r="0.46"/><circle class="cls-3" cx="180.91" cy="145.58" r="0.46"/><circle class="cls-3" cx="182.76" cy="145.58" r="0.46"/><circle class="cls-3" cx="184.61" cy="145.58" r="0.46"/><circle class="cls-3" cx="186.45" cy="145.58" r="0.46"/><circle class="cls-3" cx="188.3" cy="145.58" r="0.46"/><circle class="cls-3" cx="190.15" cy="145.58" r="0.46"/><circle class="cls-3" cx="192" cy="145.58" r="0.46"/><circle class="cls-3" cx="192.92" cy="143.81" r="0.46"/><circle class="cls-3" cx="191.07" cy="143.81" r="0.46"/><circle class="cls-3" cx="189.22" cy="143.81" r="0.46"/><circle class="cls-3" cx="187.38" cy="143.81" r="0.46"/><circle class="cls-3" cx="185.53" cy="143.81" r="0.46"/><circle class="cls-3" cx="183.68" cy="143.81" r="0.46"/><circle class="cls-3" cx="181.84" cy="143.81" r="0.46"/><circle class="cls-3" cx="179.99" cy="143.81" r="0.46"/><circle class="cls-3" cx="182.76" cy="142.05" r="0.46"/><circle class="cls-3" cx="184.61" cy="142.05" r="0.46"/><circle class="cls-3" cx="186.45" cy="142.05" r="0.46"/><circle class="cls-3" cx="188.3" cy="142.05" r="0.46"/><circle class="cls-3" cx="190.15" cy="142.05" r="0.46"/><circle class="cls-3" cx="192" cy="142.05" r="0.46"/><circle class="cls-3" cx="191.07" cy="140.28" r="0.46"/><circle class="cls-3" cx="189.22" cy="140.28" r="0.46"/><circle class="cls-3" cx="187.38" cy="140.28" r="0.46"/><circle class="cls-3" cx="185.53" cy="140.28" r="0.46"/><circle class="cls-3" cx="187.38" cy="140.28" r="0.46"/><circle class="cls-3" cx="189.22" cy="140.28" r="0.46"/><circle class="cls-3" cx="191.07" cy="140.28" r="0.46"/><circle class="cls-8" cx="82.94" cy="126.36" r="0.46"/><circle class="cls-8" cx="81.1" cy="126.36" r="0.46"/><circle class="cls-8" cx="79.25" cy="126.36" r="0.46"/><circle class="cls-8" cx="77.4" cy="126.36" r="0.46"/><circle class="cls-8" cx="75.55" cy="126.36" r="0.46"/><circle class="cls-8" cx="73.71" cy="126.36" r="0.46"/><circle class="cls-8" cx="71.86" cy="126.36" r="0.46"/><circle class="cls-8" cx="70.01" cy="126.36" r="0.46"/><circle class="cls-8" cx="65.39" cy="124.6" r="0.46"/><circle class="cls-8" cx="67.24" cy="124.6" r="0.46"/><circle class="cls-8" cx="69.09" cy="124.6" r="0.46"/><circle class="cls-8" cx="70.94" cy="124.6" r="0.46"/><circle class="cls-8" cx="72.78" cy="124.6" r="0.46"/><circle class="cls-8" cx="74.63" cy="124.6" r="0.46"/><circle class="cls-8" cx="76.48" cy="124.6" r="0.46"/><circle class="cls-8" cx="78.33" cy="124.6" r="0.46"/><circle class="cls-8" cx="80.17" cy="124.6" r="0.46"/><circle class="cls-8" cx="82.02" cy="124.6" r="0.46"/><circle class="cls-8" cx="83.87" cy="124.6" r="0.46"/><circle class="cls-8" cx="85.71" cy="124.6" r="0.46"/><circle class="cls-8" cx="87.56" cy="124.6" r="0.46"/><circle class="cls-8" cx="88.49" cy="122.83" r="0.46"/><circle class="cls-8" cx="86.64" cy="122.83" r="0.46"/><circle class="cls-8" cx="84.79" cy="122.83" r="0.46"/><circle class="cls-8" cx="82.94" cy="122.83" r="0.46"/><circle class="cls-8" cx="81.1" cy="122.83" r="0.46"/><circle class="cls-8" cx="79.25" cy="122.83" r="0.46"/><circle class="cls-8" cx="77.4" cy="122.83" r="0.46"/><circle class="cls-8" cx="75.55" cy="122.83" r="0.46"/><circle class="cls-8" cx="73.71" cy="122.83" r="0.46"/><circle class="cls-8" cx="71.86" cy="122.83" r="0.46"/><circle class="cls-8" cx="70.01" cy="122.83" r="0.46"/><circle class="cls-8" cx="68.17" cy="122.83" r="0.46"/><circle class="cls-8" cx="66.32" cy="122.83" r="0.46"/><circle class="cls-8" cx="64.47" cy="122.83" r="0.46"/><circle class="cls-8" cx="62.62" cy="122.83" r="0.46"/><circle class="cls-8" cx="60.78" cy="122.83" r="0.46"/><circle class="cls-8" cx="59.85" cy="121.06" r="0.46"/><circle class="cls-8" cx="61.7" cy="121.06" r="0.46"/><circle class="cls-8" cx="63.55" cy="121.06" r="0.46"/><circle class="cls-8" cx="65.39" cy="121.06" r="0.46"/><circle class="cls-8" cx="67.24" cy="121.06" r="0.46"/><circle class="cls-8" cx="69.09" cy="121.06" r="0.46"/><circle class="cls-8" cx="70.94" cy="121.06" r="0.46"/><circle class="cls-8" cx="72.78" cy="121.06" r="0.46"/><circle class="cls-8" cx="74.63" cy="121.06" r="0.46"/><circle class="cls-8" cx="76.48" cy="121.06" r="0.46"/><circle class="cls-8" cx="78.33" cy="121.06" r="0.46"/><circle class="cls-8" cx="80.17" cy="121.06" r="0.46"/><circle class="cls-8" cx="82.02" cy="121.06" r="0.46"/><circle class="cls-8" cx="83.87" cy="121.06" r="0.46"/><circle class="cls-8" cx="85.71" cy="121.06" r="0.46"/><circle class="cls-8" cx="87.56" cy="121.06" r="0.46"/><circle class="cls-8" cx="86.64" cy="119.3" r="0.46"/><circle class="cls-8" cx="84.79" cy="119.3" r="0.46"/><circle class="cls-8" cx="82.94" cy="119.3" r="0.46"/><circle class="cls-8" cx="81.1" cy="119.3" r="0.46"/><circle class="cls-8" cx="79.25" cy="119.3" r="0.46"/><circle class="cls-8" cx="77.4" cy="119.3" r="0.46"/><circle class="cls-8" cx="75.55" cy="119.3" r="0.46"/><circle class="cls-8" cx="73.71" cy="119.3" r="0.46"/><circle class="cls-8" cx="71.86" cy="119.3" r="0.46"/><circle class="cls-8" cx="70.01" cy="119.3" r="0.46"/><circle class="cls-8" cx="68.17" cy="119.3" r="0.46"/><circle class="cls-8" cx="66.32" cy="119.3" r="0.46"/><circle class="cls-8" cx="64.47" cy="119.3" r="0.46"/><circle class="cls-8" cx="62.62" cy="119.3" r="0.46"/><circle class="cls-8" cx="60.78" cy="119.3" r="0.46"/><circle class="cls-8" cx="58.93" cy="119.3" r="0.46"/><circle class="cls-8" cx="57.08" cy="119.3" r="0.46"/><circle class="cls-8" cx="56.16" cy="117.53" r="0.46"/><circle class="cls-8" cx="58.01" cy="117.53" r="0.46"/><circle class="cls-8" cx="59.85" cy="117.53" r="0.46"/><circle class="cls-8" cx="61.7" cy="117.53" r="0.46"/><circle class="cls-8" cx="63.55" cy="117.53" r="0.46"/><circle class="cls-8" cx="65.39" cy="117.53" r="0.46"/><circle class="cls-8" cx="67.24" cy="117.53" r="0.46"/><circle class="cls-8" cx="69.09" cy="117.53" r="0.46"/><circle class="cls-8" cx="70.94" cy="117.53" r="0.46"/><circle class="cls-8" cx="72.78" cy="117.53" r="0.46"/><circle class="cls-8" cx="74.63" cy="117.53" r="0.46"/><circle class="cls-8" cx="76.48" cy="117.53" r="0.46"/><circle class="cls-8" cx="78.33" cy="117.53" r="0.46"/><circle class="cls-8" cx="80.17" cy="117.53" r="0.46"/><circle class="cls-8" cx="82.02" cy="117.53" r="0.46"/><circle class="cls-8" cx="83.87" cy="117.53" r="0.46"/><circle class="cls-8" cx="85.71" cy="117.53" r="0.46"/><circle class="cls-8" cx="81.1" cy="115.77" r="0.46"/><circle class="cls-8" cx="79.25" cy="115.77" r="0.46"/><circle class="cls-8" cx="77.4" cy="115.77" r="0.46"/><circle class="cls-8" cx="75.55" cy="115.77" r="0.46"/><circle class="cls-8" cx="73.71" cy="115.77" r="0.46"/><circle class="cls-8" cx="71.86" cy="115.77" r="0.46"/><circle class="cls-8" cx="70.01" cy="115.77" r="0.46"/><circle class="cls-8" cx="68.17" cy="115.77" r="0.46"/><circle class="cls-8" cx="66.32" cy="115.77" r="0.46"/><circle class="cls-8" cx="64.47" cy="115.77" r="0.46"/><circle class="cls-8" cx="62.62" cy="115.77" r="0.46"/><circle class="cls-8" cx="60.78" cy="115.77" r="0.46"/><circle class="cls-8" cx="58.93" cy="115.77" r="0.46"/><circle class="cls-8" cx="57.08" cy="115.77" r="0.46"/><circle class="cls-8" cx="55.23" cy="115.77" r="0.46"/><circle class="cls-8" cx="54.31" cy="114" r="0.46"/><circle class="cls-8" cx="56.16" cy="114" r="0.46"/><circle class="cls-8" cx="58.01" cy="114" r="0.46"/><circle class="cls-8" cx="59.85" cy="114" r="0.46"/><circle class="cls-8" cx="61.7" cy="114" r="0.46"/><circle class="cls-8" cx="63.55" cy="114" r="0.46"/><circle class="cls-8" cx="65.39" cy="114" r="0.46"/><circle class="cls-8" cx="67.24" cy="114" r="0.46"/><circle class="cls-8" cx="69.09" cy="114" r="0.46"/><circle class="cls-8" cx="70.94" cy="114" r="0.46"/><circle class="cls-8" cx="72.78" cy="114" r="0.46"/><circle class="cls-8" cx="74.63" cy="114" r="0.46"/><circle class="cls-8" cx="76.48" cy="114" r="0.46"/><circle class="cls-8" cx="71.86" cy="112.23" r="0.46"/><circle class="cls-8" cx="70.01" cy="112.23" r="0.46"/><circle class="cls-8" cx="68.17" cy="112.23" r="0.46"/><circle class="cls-8" cx="66.32" cy="112.23" r="0.46"/><circle class="cls-8" cx="64.47" cy="112.23" r="0.46"/><circle class="cls-8" cx="62.62" cy="112.23" r="0.46"/><circle class="cls-8" cx="60.78" cy="112.23" r="0.46"/><circle class="cls-8" cx="58.93" cy="112.23" r="0.46"/><circle class="cls-8" cx="57.08" cy="112.23" r="0.46"/><circle class="cls-8" cx="55.23" cy="112.23" r="0.46"/><circle class="cls-8" cx="53.39" cy="112.23" r="0.46"/><circle class="cls-8" cx="52.46" cy="110.47" r="0.46"/><circle class="cls-8" cx="54.31" cy="110.47" r="0.46"/><circle class="cls-8" cx="56.16" cy="110.47" r="0.46"/><circle class="cls-8" cx="58.01" cy="110.47" r="0.46"/><circle class="cls-8" cx="59.85" cy="110.47" r="0.46"/><circle class="cls-8" cx="61.7" cy="110.47" r="0.46"/><circle class="cls-8" cx="62.62" cy="108.7" r="0.46"/><circle class="cls-8" cx="60.78" cy="108.7" r="0.46"/><circle class="cls-8" cx="58.93" cy="108.7" r="0.46"/><circle class="cls-8" cx="57.08" cy="108.7" r="0.46"/><circle class="cls-8" cx="55.23" cy="108.7" r="0.46"/><circle class="cls-8" cx="53.39" cy="108.7" r="0.46"/><circle class="cls-8" cx="51.54" cy="108.7" r="0.46"/><circle class="cls-8" cx="50.62" cy="106.94" r="0.46"/><circle class="cls-8" cx="52.46" cy="106.94" r="0.46"/><circle class="cls-8" cx="54.31" cy="106.94" r="0.46"/><circle class="cls-8" cx="56.16" cy="106.94" r="0.46"/><circle class="cls-8" cx="58.01" cy="106.94" r="0.46"/><circle class="cls-8" cx="59.85" cy="106.94" r="0.46"/><circle class="cls-8" cx="61.7" cy="106.94" r="0.46"/><circle class="cls-8" cx="63.55" cy="106.94" r="0.46"/><circle class="cls-8" cx="62.62" cy="105.17" r="0.46"/><circle class="cls-8" cx="60.78" cy="105.17" r="0.46"/><circle class="cls-8" cx="58.93" cy="105.17" r="0.46"/><circle class="cls-8" cx="57.08" cy="105.17" r="0.46"/><circle class="cls-8" cx="55.23" cy="105.17" r="0.46"/><circle class="cls-8" cx="53.39" cy="105.17" r="0.46"/><circle class="cls-8" cx="51.54" cy="105.17" r="0.46"/><circle class="cls-8" cx="49.69" cy="105.17" r="0.46"/><circle class="cls-8" cx="49.69" cy="105.17" r="0.46"/><circle class="cls-8" cx="51.54" cy="105.17" r="0.46"/><circle class="cls-8" cx="53.39" cy="105.17" r="0.46"/><circle class="cls-8" cx="55.23" cy="105.17" r="0.46"/><circle class="cls-8" cx="57.08" cy="105.17" r="0.46"/><circle class="cls-8" cx="58.93" cy="105.17" r="0.46"/><circle class="cls-8" cx="60.78" cy="105.17" r="0.46"/><circle class="cls-8" cx="62.62" cy="105.17" r="0.46"/><circle class="cls-8" cx="48.77" cy="103.4" r="0.46"/><circle class="cls-8" cx="50.62" cy="103.4" r="0.46"/><circle class="cls-8" cx="52.46" cy="103.4" r="0.46"/><circle class="cls-8" cx="54.31" cy="103.4" r="0.46"/><circle class="cls-8" cx="56.16" cy="103.4" r="0.46"/><circle class="cls-8" cx="58.01" cy="103.4" r="0.46"/><circle class="cls-8" cx="59.85" cy="103.4" r="0.46"/><circle class="cls-8" cx="61.7" cy="103.4" r="0.46"/><circle class="cls-8" cx="60.78" cy="101.64" r="0.46"/><circle class="cls-8" cx="58.93" cy="101.64" r="0.46"/><circle class="cls-8" cx="57.08" cy="101.64" r="0.46"/><circle class="cls-8" cx="55.23" cy="101.64" r="0.46"/><circle class="cls-8" cx="53.39" cy="101.64" r="0.46"/><circle class="cls-8" cx="51.54" cy="101.64" r="0.46"/><circle class="cls-8" cx="49.69" cy="101.64" r="0.46"/><circle class="cls-8" cx="48.77" cy="99.87" r="0.46"/><circle class="cls-8" cx="50.62" cy="99.87" r="0.46"/><circle class="cls-8" cx="52.46" cy="99.87" r="0.46"/><circle class="cls-8" cx="54.31" cy="99.87" r="0.46"/><circle class="cls-8" cx="56.16" cy="99.87" r="0.46"/><circle class="cls-8" cx="58.01" cy="99.87" r="0.46"/><circle class="cls-8" cx="59.85" cy="99.87" r="0.46"/><circle class="cls-8" cx="58.93" cy="98.1" r="0.46"/><circle class="cls-8" cx="57.08" cy="98.1" r="0.46"/><circle class="cls-8" cx="55.23" cy="98.1" r="0.46"/><circle class="cls-8" cx="53.39" cy="98.1" r="0.46"/><circle class="cls-8" cx="51.54" cy="98.1" r="0.46"/><circle class="cls-8" cx="49.69" cy="98.1" r="0.46"/><circle class="cls-8" cx="50.62" cy="96.34" r="0.46"/><circle class="cls-8" cx="52.46" cy="96.34" r="0.46"/><circle class="cls-8" cx="54.31" cy="96.34" r="0.46"/><circle class="cls-8" cx="56.16" cy="96.34" r="0.46"/><circle class="cls-8" cx="58.01" cy="96.34" r="0.46"/><circle class="cls-8" cx="59.85" cy="96.34" r="0.46"/><circle class="cls-8" cx="58.93" cy="94.57" r="0.46"/><circle class="cls-8" cx="57.08" cy="94.57" r="0.46"/><circle class="cls-8" cx="55.23" cy="94.57" r="0.46"/><circle class="cls-8" cx="53.39" cy="94.57" r="0.46"/><circle class="cls-8" cx="51.54" cy="94.57" r="0.46"/><circle class="cls-8" cx="49.69" cy="94.57" r="0.46"/><circle class="cls-8" cx="50.62" cy="92.81" r="0.46"/><circle class="cls-8" cx="52.46" cy="92.81" r="0.46"/><circle class="cls-8" cx="54.31" cy="92.81" r="0.46"/><circle class="cls-8" cx="56.16" cy="92.81" r="0.46"/><circle class="cls-8" cx="58.01" cy="92.81" r="0.46"/><circle class="cls-8" cx="57.08" cy="91.04" r="0.46"/><circle class="cls-8" cx="55.23" cy="91.04" r="0.46"/><circle class="cls-8" cx="53.39" cy="91.04" r="0.46"/><circle class="cls-8" cx="51.54" cy="91.04" r="0.46"/><circle class="cls-8" cx="52.46" cy="89.27" r="0.46"/><circle class="cls-8" cx="54.31" cy="89.27" r="0.46"/><circle class="cls-8" cx="56.16" cy="89.27" r="0.46"/><circle class="cls-8" cx="53.39" cy="87.51" r="0.46"/><path class="cls-7" d="M81.49,119.32c-1.82.19-3.11,1.54-4.23,2.85a15,15,0,0,1-3.93,3.28,26.87,26.87,0,0,0,4,.3A27.28,27.28,0,0,0,85,124.67c.15-1.38.38-2.78-.44-4A3.1,3.1,0,0,0,81.49,119.32Z"/><path class="cls-7" d="M98.74,105.55c1.5,1.28,3.37.43,4-1.3,1.19-3.22-2.67-5.22-2.66-8.2,0-2.48,1.85-2.64,3.25-4a5.2,5.2,0,0,0,.38-.44,27.26,27.26,0,0,0-7.73-13,4.35,4.35,0,0,0-2.27.84c-.31.23-.54.57-.85.79a3,3,0,0,1-3.44.39c-.75-.49-1.37-1.17-2.09-1.71a4.54,4.54,0,0,0-3.79-1.12c-2.3.58-2.49,2.78-1.23,4.44.52.67,1.46,1.41,1.57,2.29.29,2.44-2.91,2.3-4.26,1.77-2.15-.83-3.67-2.75-5.53-4a6.52,6.52,0,0,0-5.25-1.22c-2.58-.14-5.35-.09-7.53,1.4-1.86,1.26-3.24,3.83-2.5,6.08.39,1.2,1.32,1.8,2.12,2.71,1.68,1.93.55,3.48-.36,5.42-1.16,2.49-.33,4.13,1.18,6.23a5.73,5.73,0,0,1,1.11,5.51,4.53,4.53,0,0,0,.1,3.36c1.08,1.87,3.72,2,5.47,1.14,2.91-1.5,3.83-5,6.25-7s6.56-.68,8.24-3.45a4.7,4.7,0,0,0,.33-3.18c-.16-1.26-.57-2.86.94-3.67,1.7-.9,3.45.51,4.18,1.94,1.15,2.27.37,6.6,3.56,7.42a2.23,2.23,0,0,0,2.13-.46c.15-.14.21-.35.38-.48l.25-.45,2-.44C97.49,103.41,98.11,105,98.74,105.55Z"/><path class="cls-1" d="M237.1,4.86a5.74,5.74,0,0,0-5.73,5.73V24.13h11.46V10.59A5.73,5.73,0,0,0,237.1,4.86Zm-4.83,7.81V10.59a4.84,4.84,0,0,1,9.67,0v2.08Z"/><path class="cls-2" d="M238.59,17.16a1.49,1.49,0,1,0-2.31,1.24l-.43,2.74h2.5l-.42-2.74A1.5,1.5,0,0,0,238.59,17.16Z"/></g></g></svg>