<svg xmlns="http://www.w3.org/2000/svg" viewBox="0 0 324.39 229.21"><defs><style>.cls-1{fill:#e8de46;}.cls-2{fill:#a7c65c;}.cls-3{fill:#efaf84;}.cls-4{fill:#d3774f;}.cls-5{fill:#182067;}.cls-6{fill:#b6d0ff;}.cls-7{fill:#1372f5;}.cls-8{fill:#09546d;}.cls-9{fill:#ddd;}.cls-10{fill:#b1b6ba;}.cls-11{fill:#009da5;}.cls-12{fill:#894b30;}.cls-13{fill:#283e96;}.cls-14{fill:#f37645;}.cls-15{fill:#9487fc;}.cls-16{fill:#cc3d1b;}</style></defs><title>04_</title><g id="Warstwa_2" data-name="Warstwa 2"><g id="_04" data-name="04"><path class="cls-1" d="M210.21,67.7C208,64.78,204,65.52,201,66.47A37.17,37.17,0,0,0,186.75,75c2.25-3.06,4.4-6.18,6.34-9.45,1.59-2.66,3.84-5.86,3.82-9.1,0-2.48-1.52-4.74-4.1-5-6.13-.64-10.19,8.43-11.86,13.06a52.92,52.92,0,0,0-2.62,11.74,133.21,133.21,0,0,0-.79-13.7c-.29-2.71-.79-5.57-2.82-7.57a5.41,5.41,0,0,0-6.39-1.12C162.58,56.7,164.15,64,166,68.77c2.5,6.58,11.65,18,11.68,18.06A77.11,77.11,0,0,0,170,106.94c-2.81,11.8-3.66,23.95-5.56,35.92-.09.57.8.66.89.09,2.78-17.5,3.32-35.89,11.14-52.13.64-1.33,1.35-2.63,2.09-3.91L194,81l7.47-2.87A31.21,31.21,0,0,0,208,75.25C210.35,73.64,212.15,70.32,210.21,67.7Z"/><path class="cls-1" d="M170.17,5a9.84,9.84,0,0,0-11.64,1.89c-3.72,3.58-4.71,8.77-5.29,13.68a240.3,240.3,0,0,0-1.75,24.88A97.16,97.16,0,0,0,147,24c-2.92-8.44-10.09-25-21.25-24-4.7.43-7.46,4.49-7.55,9-.12,5.89,3.89,11.76,6.71,16.63,3.46,6,7.29,11.71,11.31,17.31a67.5,67.5,0,0,0-25.7-15.8c-5.39-1.8-12.73-3.24-16.74,2C90.18,33.92,93.38,40,97.63,43c3.52,2.47,7.82,3.8,11.78,5.37l13.52,5.38,27.92,11.12a2,2,0,0,0,2.87-.57,102.15,102.15,0,0,0,20.39-32.1C177.53,23.47,180.54,10.32,170.17,5Z"/><path class="cls-2" d="M181.21,111.23a11.86,11.86,0,0,0-1.87-9.25c-1.67-2.35-4.77-4.72-7.8-3.65-8.17,2.88,3.87,12.54,6.91,14.14.56.29,1.84,1.27,2,.8.27.1.63-.74.85-.87C181.66,112.41,181.11,111.7,181.21,111.23Z"/><path class="cls-3" d="M42.48,218.41c-.83-.13-1.67-.28-2.5-.43h0q.39-3.16.8-6.35c.2-1.59,1-3.85,0-5.33-.76-1.22-2.54-1.91-3.71-2.62l-6.52-4a.45.45,0,0,0-.54,0,35.83,35.83,0,0,0-7.95,12.57.4.4,0,0,0,.21.52.44.44,0,0,0,.24.28A68.53,68.53,0,0,0,39,218.68c0,.09,0,.17,0,.26a.45.45,0,0,0,.82.29l.22-.35c.8.15,1.61.29,2.42.42C43,219.38,43.05,218.49,42.48,218.41Z"/><path class="cls-4" d="M30.58,199.7a.45.45,0,0,0-.54,0,35.76,35.76,0,0,0-4.72,6,69.67,69.67,0,0,0,6.11,10.93c1.5.49,3,.93,4.57,1.31,2-4.11,2.17-8.84,1.47-13.39,0-.27-.1-.54-.14-.8l-.23-.13Z"/><path class="cls-1" d="M32.59,202.89l-8.14-10.43a2.57,2.57,0,0,0-4.24.26L.32,225.86a2.21,2.21,0,0,0,.75,3h0a2.22,2.22,0,0,0,2.29,0l15.87-9.65,3.37,3.6a1.32,1.32,0,0,0,2.22-.49l2.1-6.4a1.31,1.31,0,0,0-.35-1.36l-2-1.92h0a23.39,23.39,0,0,1,7.72-9.53Z"/><path class="cls-5" d="M24.45,192.46a2.57,2.57,0,0,0-4.24.26L.32,225.86a2.21,2.21,0,0,0,.75,3,2.19,2.19,0,0,0,1.45.27l22-36.63Z"/><path class="cls-5" d="M19.91,220.1a5.58,5.58,0,0,1,2.2-5c.49-.32-.08-1-.56-.7A6.47,6.47,0,0,0,19,220.24C19.13,220.81,20,220.67,19.91,220.1Z"/><path class="cls-5" d="M17.12,220.73c-.15-1.68-.07-3.84,1.28-5,.43-.38-.14-1.08-.57-.69-1.62,1.43-1.78,3.84-1.59,5.87C16.29,221.44,17.17,221.3,17.12,220.73Z"/><path class="cls-5" d="M42.15,227c-5.81,1.82-11-1.51-13.22-6.87-1.55-3.77-2.76-8.21-7.08-9.61-.55-.17-.85.67-.3.85,6.06,1.95,5.47,10.08,9.66,14a11.51,11.51,0,0,0,11.31,2.47C43.07,227.64,42.69,226.82,42.15,227Z"/><path class="cls-6" d="M116.47,185.07c-6-11.4-19.54-14.55-31.23-16.74a.43.43,0,0,0-.49-.32c-.23,0-.45.08-.68.13a.27.27,0,0,0-.13,0c-4.07.77-7.68,2.73-11.29,4.72-4.77,2.62-9.4,4.7-15,4.8s-11.23-.68-16.76-1.25c-5.33-.55-10.65-1.21-16-1.94.16-.55-.68-.85-.84-.3l-.06.18L23,174.22c-.57-.08-.65.81-.08.9l.93.12c-1.53,5.24-2.52,10.78-.8,16.11a23.26,23.26,0,0,0,8.8,11.42,28,28,0,0,0,2.82,1.76.48.48,0,0,0-.24.09,9.55,9.55,0,0,0-2.8,11c1.8,4.64,6.35,7.46,11,8.54,5.86,1.35,12,.52,17.83-.41a105.17,105.17,0,0,1,20.81-1.63c10.4.4,23,1,30.18-8.08a13.87,13.87,0,0,0,3.08-9.49,13.51,13.51,0,0,0,2.7-3.93A18,18,0,0,0,116.47,185.07Z"/><path class="cls-7" d="M113.46,210.64l.09-.2Z"/><path class="cls-7" d="M112.91,211.8a.41.41,0,0,1,0-.09A.41.41,0,0,0,112.91,211.8Z"/><path class="cls-7" d="M114.26,208.11s0,0,0,.08S114.25,208.14,114.26,208.11Z"/><path class="cls-7" d="M114.45,206.94v0Z"/><path class="cls-7" d="M113.94,209.34a.24.24,0,0,0,0,.08A.24.24,0,0,1,113.94,209.34Z"/><path class="cls-7" d="M116.47,185.07c-6-11.4-19.54-14.55-31.23-16.74a.43.43,0,0,0-.49-.32c-.23,0-.45.08-.68.13a.27.27,0,0,0-.13,0c-4.07.77-7.68,2.73-11.29,4.72a41.49,41.49,0,0,1-9.38,4l1.29,1a.44.44,0,0,1,.3,0l22.75,5.65c6.15,1.53,12.52,3,17.89,6.56,5.07,3.34,8.71,8.8,9,14.45h0a13.51,13.51,0,0,0,2.7-3.93A18,18,0,0,0,116.47,185.07Z"/><path class="cls-7" d="M112.18,213a2.33,2.33,0,0,1,.17-.26A2.33,2.33,0,0,0,112.18,213Z"/><path class="cls-4" d="M188.12,163a18.44,18.44,0,0,1-2.39.85.46.46,0,0,0-.73.22,57,57,0,0,1-9.25,1.26c-2.38.21-5.45.38-7.23,2.18a.47.47,0,0,0,0,.64,3.81,3.81,0,0,0,2.88.76,19.94,19.94,0,0,1,3.3.17,35.65,35.65,0,0,1-3.44,1.16,34.7,34.7,0,0,1-4.89.57c-1.5.17-4.94.58-4.86,2.82,0,1.17,1.3,1.65,2.53,1.85a.25.25,0,0,0,0,.08c1.06,2.73,3.37,3.15,5.94,2.74,2.92,2,14.78-1.71,18-3.15a.49.49,0,0,0,.39-.19l.18-.09a.46.46,0,0,0-.19-.85c-.53-3.17-1.49-6.23-2.29-9.34a21.59,21.59,0,0,0,2.52-.89C189.07,163.6,188.64,162.82,188.12,163Z"/><path class="cls-8" d="M255.12,111.19c-6.71-.09-12.18,3.08-16.94,7.86l-30,30.55a51,51,0,0,1-13.72,10.12,41.6,41.6,0,0,1-14.65,4.3c-.14-.45.63,14,.63,14a80.32,80.32,0,0,0,73.93-43.71C253.52,126.24,253.35,119.08,255.12,111.19Z"/><path class="cls-3" d="M120.09,186.32s0,0,0-.07c1.16-2.69-.19-4.61-2.32-6.11-.69-3.47-11.74-9.14-15-10.34a.52.52,0,0,0-.41-.14l-.2,0a.45.45,0,0,0-.45.73c-1.56,2.23-2.85,4.63-4.19,7a11.74,11.74,0,0,1,1.68.8.79.79,0,0,1-.15,1.41c1,.67,2.23,1.81,2.1,3,1.26,1,2.2,1.78,3.44,2.79,1.84,1.52,4.15,3.55,6.69,3.51a.45.45,0,0,0,.45-.44,3.79,3.79,0,0,0-1.52-2.56,20.25,20.25,0,0,1-2.23-2.43,32.63,32.63,0,0,1,3.26,1.58,34.22,34.22,0,0,1,3.89,3c1.19.94,3.94,3.05,5.45,1.4C121.4,188.55,120.83,187.32,120.09,186.32Z"/><path class="cls-4" d="M112.61,180.1A22.56,22.56,0,0,1,121,187c.34.46-.44.9-.78.44a21.52,21.52,0,0,0-8.09-6.59C111.64,180.63,112.1,179.86,112.61,180.1Z"/><path class="cls-4" d="M113,177.07a16.34,16.34,0,0,1,5.75,3.43c.42.39-.21,1-.64.63a15.23,15.23,0,0,0-5.34-3.2C112.21,177.74,112.44,176.88,113,177.07Z"/><path class="cls-5" d="M114.42,175.82c-14.07-19-22.11-41.75-36.74-60.4-.3-.38-.83,0-.77.37l-.25-.28a3.5,3.5,0,0,0-.24-.3l-.09-.07-.07-.08a.45.45,0,0,0-.79.36,4.54,4.54,0,0,0,.73,1.82A160.77,160.77,0,0,1,81,164.15a.43.43,0,0,0,0,.6l0,.53a.45.45,0,0,0,.88.14c7.08,5.24,13,11.06,19.37,17.13C101.32,182.68,114.6,176.06,114.42,175.82Z"/><path class="cls-9" d="M147,169.64l3.3,35.54c0,.92,6,1.67,13.5,1.67s13.5-.75,13.5-1.67l3.29-35.54Z"/><ellipse class="cls-10" cx="163.84" cy="169.64" rx="16.8" ry="1.91"/><path class="cls-6" d="M225.48,202.39l4.76,12.35a2.58,2.58,0,0,1-2.41,3.51H189.18A2.21,2.21,0,0,1,187,216h0a2.21,2.21,0,0,1,1.18-2l16.45-8.64-1.36-4.75A1.33,1.33,0,0,1,204.8,199l6.57,1.5a1.3,1.3,0,0,1,1,1l.61,2.72h0a23.37,23.37,0,0,0,12.14-1.71Z"/><path class="cls-5" d="M230.24,214.74a2.58,2.58,0,0,1-2.41,3.51H189.18A2.21,2.21,0,0,1,187,216a2.13,2.13,0,0,1,.51-1.38H230.2Z"/><path class="cls-11" d="M204.2,204.41a5.6,5.6,0,0,0,5.47.71c.51-.25.81.59.3.84a6.45,6.45,0,0,1-6.35-.86C203.19,204.71,203.77,204,204.2,204.41Z"/><path class="cls-11" d="M202.23,206.48c1.35,1,3.25,2,5,1.5.55-.18.86.67.31.84-2.07.65-4.22-.46-5.86-1.66C201.19,206.82,201.76,206.14,202.23,206.48Z"/><path class="cls-11" d="M212.35,206.37c1.94,2.64,4.18,4,7.61,3.55,2.37-.33,4.22-1.95,6.54-2.38a8.83,8.83,0,0,1,8.8,3.76c.34.46-.4,1-.73.5a8,8,0,0,0-7.25-3.48c-2.34.2-4.2,1.8-6.45,2.32a9.34,9.34,0,0,1-5.41-.34c-1.84-.68-2.72-1.9-3.84-3.42C211.28,206.42,212,205.91,212.35,206.37Z"/><path class="cls-9" d="M203.68,36.48,199,44.66c-.28.5.45,1,.73.51L204.42,37C204.7,36.49,204,36,203.68,36.48Z"/><path class="cls-9" d="M196.52,34.61l-1.29,9.31c-.08.57.79.77.87.2.43-3.1.86-6.21,1.3-9.31C197.47,34.24,196.6,34,196.52,34.61Z"/><path class="cls-9" d="M209.91,43l-8.32,4.38c-.51.26-.17,1.09.34.82l8.32-4.37C210.76,43.54,210.42,42.71,209.91,43Z"/><circle class="cls-3" cx="238.06" cy="92.97" r="12.16"/><path class="cls-12" d="M247.9,72.74c-8-3.74-15.24,1.59-22.37,4.92-1.12.53-2.2,1.13-3.27,1.73a4.81,4.81,0,0,0-2.33,2.21c-.89,2.07.29,4.58,2,5.87s7.31,1.38,7.93,1.42c2.42.15,6.88-.25,9.74,1a2.73,2.73,0,0,1,.81,4.45l0,0c-1.45,1.33-3.51,1.54-5.4,1.51-3,0-6.31-.64-8.89,1.37-4.51,3.53.44,9.38,3.68,11.8a11.42,11.42,0,0,0,5.68,2.2.41.41,0,0,0,.11.07c4.19,1.12,8.42-1.53,9.89-5.62a12.67,12.67,0,0,0-.11-7.49,42.4,42.4,0,0,1-1.62-4.37,4.92,4.92,0,0,1,0-2.47,3.64,3.64,0,0,1,.86-1.53,2.85,2.85,0,0,1,2.48.56,4.18,4.18,0,0,1,1.32,2.79,9.28,9.28,0,0,1-1.92,6.26,1.12,1.12,0,0,0,1.36,1.72,13.48,13.48,0,0,0,4.36-2.66c2.75-2.63,4.28-7.48,4.51-10.58A15.42,15.42,0,0,0,247.9,72.74Z"/><path class="cls-5" d="M240.93,88.75a75.78,75.78,0,0,0-15,3.27c-.14-.91-.27-1.82-.4-2.73-.08-.57-.95-.32-.86.24q.51,3.59,1,7.17c.08.57.95.32.86-.24L226,92.91A75.27,75.27,0,0,1,241,89.64C241.52,89.57,241.51,88.68,240.93,88.75Z"/><path class="cls-4" d="M229.54,100.89a5.29,5.29,0,0,1-5,1.54,7.65,7.65,0,0,0,.38,1,6.18,6.18,0,0,0,5.2-1.82C230.52,101.16,229.94,100.48,229.54,100.89Z"/><path class="cls-9" d="M140.86,150.74l-21.11-7.85a95.79,95.79,0,0,1,4.49-9.12c1.44-2.16,7-8.16,7-8.16l12.11,4.5s.34,8.21,0,10.79A97.78,97.78,0,0,1,140.86,150.74Z"/><polygon class="cls-9" points="140.86 150.74 157.15 135.22 155.46 134.59 140.84 145.29 140.86 150.74"/><path class="cls-9" d="M126.62,120.68a7.43,7.43,0,0,0-9,2.63c-2.47,3.49-1.95,8.09-.26,11.8,1.52,3.34,4.73,6.26,8.55,4.57.52-.24.08-1-.45-.78-4.11,1.82-6.91-2.64-8-5.91s-1-6.92,1.2-9.62a6.67,6.67,0,0,1,8.71-1.32c3,1.82,4.17,5.39,4.08,8.75a.45.45,0,0,0,.89,0C132.46,126.65,130.71,122.32,126.62,120.68Z"/><path class="cls-3" d="M123.48,124.57c-1.72-5-6.88-3-10.39-1.18a40.5,40.5,0,0,0-12.77,10.27c-.27.32.05.67.38.67a43.83,43.83,0,0,0,9.62,7.92c-.22.35-.43.71-.63,1.07s.46,1,.74.51.48-.83.73-1.22a.51.51,0,0,0,.35-.51,15.06,15.06,0,0,1,5.41-4.76c2.07-1.06,4.69-1.52,6.08-3.56.9-1.34.45-2.56.69-3.91a8.21,8.21,0,0,0,.44-2.16A11.26,11.26,0,0,0,123.48,124.57Z"/><path class="cls-13" d="M100,132.53c-2.63,1.74-8.72,6.22-11.28,8.06-8.26-37.48-25-32.47-30.62-29.81-3.73,1.76-6.67,4.9-9.24,8.28,0,.46-4.12,1.89-4.13,2.35-17.3,18.94-27.25,67.37-27.11,67.49,5.91,5.09,12.65-4.31,18.93-2.8,3.06.73,5.82,2.7,9.1,2.13,2.53-.45,4.57-2.17,6.43-3.83,2.51-2.24,5-4.74,8.48-5.15,3.87-.47,7.68,1,11.54,0,3.45-.91,6.68-3.86,8.58-6.77a26.08,26.08,0,0,0,3.07-1.26,34.56,34.56,0,0,0,13.14-9.71c5.7-6.39,11-13.15,16.52-19.74C113.74,141.34,100.06,132.46,100,132.53Z"/><path class="cls-7" d="M66.76,207.9c-11.21.63-23.52,1.27-33.35-5.12a23.29,23.29,0,0,1-9.14-10.61,16.77,16.77,0,0,1-.67-2c-.29.08-.58.14-.87.19.08.35.18.69.29,1a23.26,23.26,0,0,0,8.8,11.42c10.16,7.29,23.21,6.68,35.09,6C67.48,208.75,67.33,207.87,66.76,207.9Z"/><path class="cls-5" d="M207.63,197.71c.25,2.66.56,5.37,1.05,8a451.1,451.1,0,0,1,45.87-11.25c-.63-1.87-1.19-3.75-1.65-5.66a24,24,0,0,1-.63-5.58h0l-1.3-1a.46.46,0,0,0-.05-.3q-5.58-10.3-11.18-20.6c-3-5.57-6.07-11.36-10.83-15.67-4.51-4.08-10.7-6.24-16.25-5.12h0a13.8,13.8,0,0,0-8.42,5.36c-7,9.22-3.25,21.27-.25,31.24A105.26,105.26,0,0,1,207.63,197.71Z"/><path class="cls-5" d="M99.25,132.36A227.79,227.79,0,0,0,71.5,153.51c-.43.38.15,1.07.58.68a227.71,227.71,0,0,1,27.75-21.14C100.31,132.73,99.73,132.05,99.25,132.36Z"/><path class="cls-5" d="M72.06,179.26c3.22-.85,6.22-3.47,8.16-6.18-6.22,2.15-12.81,2.3-17.9-2.21a19.09,19.09,0,0,1-3.67-4.46.44.44,0,0,0,.12.52,8.82,8.82,0,0,1-1.54,7.82c-1.21,1.48-2.75,2.47-3.35,4.38a28.59,28.59,0,0,0-.58,4.15c2.1-1.89,4.29-3.68,7.22-4C64.39,178.78,68.2,180.28,72.06,179.26Z"/><path class="cls-5" d="M61.08,169.68a58.41,58.41,0,0,1-9.58-23.74.45.45,0,0,0-.88.15,59.47,59.47,0,0,0,9.77,24.16C60.72,170.73,61.4,170.15,61.08,169.68Z"/><path class="cls-3" d="M188.12,172a22,22,0,0,1-2.39.85.46.46,0,0,0-.73.21,57,57,0,0,1-9.25,1.26c-2.38.21-5.45.38-7.23,2.19a.45.45,0,0,0,0,.63,3.81,3.81,0,0,0,2.88.76,19.94,19.94,0,0,1,3.3.17,35.65,35.65,0,0,1-3.44,1.16,34.7,34.7,0,0,1-4.89.57c-1.5.17-4.94.59-4.86,2.82,0,1.17,1.3,1.65,2.53,1.85a.22.22,0,0,0,0,.08c1.06,2.73,3.37,3.16,5.94,2.74,2.92,2,14.78-1.7,18-3.15a.49.49,0,0,0,.39-.19l.18-.09a.46.46,0,0,0-.19-.85c-.53-3.16-1.49-6.23-2.29-9.34a18.45,18.45,0,0,0,2.52-.89C189.07,172.55,188.64,171.77,188.12,172Z"/><path class="cls-4" d="M172.82,183.66a22.38,22.38,0,0,1-10.86,1c-.57-.08-.32-.94.25-.86a21.58,21.58,0,0,0,10.39-.95C173.14,182.61,173.36,183.48,172.82,183.66Z"/><path class="cls-4" d="M175.57,186.09a16.43,16.43,0,0,1-6.5,1.57c-.58,0-.57-.87,0-.89a15.55,15.55,0,0,0,6.06-1.46C175.66,185.07,176.1,185.84,175.57,186.09Z"/><path class="cls-3" d="M273.65,218.4c.81-.12,1.62-.26,2.42-.41l.22.35a.45.45,0,0,0,.82-.29,2.51,2.51,0,0,1,0-.27,67.81,67.81,0,0,0,16.45-5.58.45.45,0,0,0,.24-.27.42.42,0,0,0,.21-.52,36,36,0,0,0-8-12.58.46.46,0,0,0-.55,0l-6.51,4c-1.18.72-2.95,1.41-3.72,2.62-.92,1.48-.16,3.74,0,5.33.27,2.12.53,4.24.8,6.36h0c-.83.16-1.67.3-2.51.43C273,217.6,273.08,218.49,273.65,218.4Z"/><path class="cls-4" d="M285.47,198.81a.46.46,0,0,1,.55,0,36.35,36.35,0,0,1,4.72,6,70.48,70.48,0,0,1-6.11,10.93c-1.51.49-3,.92-4.57,1.31-2-4.11-2.17-8.84-1.48-13.4l.15-.8.23-.13Z"/><path class="cls-6" d="M283.47,202l8.14-10.44c1.11-1.42,2.4-1,3.33.55l10.24,17.83,13.1,13.89c.63,1-1.12,2.13-2.16,2.76h0a2.22,2.22,0,0,1-2.29,0l-17-8.25-3.37,3.61a1.32,1.32,0,0,1-2.22-.49l-2.1-6.4a1.32,1.32,0,0,1,.35-1.37l2-1.92h0a23.6,23.6,0,0,0-7.72-9.53Z"/><path class="cls-5" d="M291.69,191.24a2.54,2.54,0,0,1,4.08.61,129.85,129.85,0,0,0,22.68,31.24c.89.91.62,2.25-.66,3a3.55,3.55,0,0,1-1.82.43,130.94,130.94,0,0,1-24.34-35.21Z"/><path class="cls-13" d="M296.17,218.68a5.6,5.6,0,0,0-2.05-5.12c-.48-.33.11-1,.58-.67a6.44,6.44,0,0,1,2.35,6C296.92,219.41,296,219.24,296.17,218.68Z"/><path class="cls-13" d="M298.94,219.39c.2-1.67.19-3.83-1.13-5.08-.42-.39.17-1.07.59-.67,1.58,1.48,1.66,3.9,1.42,5.92C299.75,220.13,298.87,220,298.94,219.39Z"/><path class="cls-13" d="M323.49,206.5c.32,5.12-5.74,6.08-9.44,4.89-3.07-1-5.69-2.95-8.64-4.2-3.84-1.62-9-1.79-11.38,2.2-.3.49.43,1,.73.51,4.57-7.49,13.94.83,19.37,2.45,4.41,1.31,10.59-.43,10.24-6C324.34,205.77,323.46,205.93,323.49,206.5Z"/><path class="cls-13" d="M292.24,174.34l.93-.12c.57-.08.49-1-.08-.89-.37,0-.74.09-1.11.15l-.06-.18c-.17-.56-1-.25-.84.29-5.31.73-10.63,1.39-16,1.94-5.53.58-11.19,1.35-16.76,1.25a22.9,22.9,0,0,1-5.57-.79h0c-.43.34-.86.68-1.3,1a.4.4,0,0,0-.29,0l-22.75,5.66c-6.15,1.53-12.52,3-17.89,6.56-5.08,3.34-8.72,8.8-9,14.44h0a13.85,13.85,0,0,0,3.08,9.5c7.17,9.1,19.78,8.48,30.18,8.07a105.23,105.23,0,0,1,20.81,1.63c5.85.93,12,1.76,17.83.41,4.67-1.08,9.23-3.89,11-8.54a9.52,9.52,0,0,0-2.81-11,.41.41,0,0,0-.23-.09,28,28,0,0,0,2.82-1.76A23.23,23.23,0,0,0,293,190.46C294.76,185.13,293.77,179.59,292.24,174.34Z"/><path class="cls-5" d="M249.3,207c11.21.63,23.52,1.28,33.35-5.12a23.38,23.38,0,0,0,9.14-10.6,17.5,17.5,0,0,0,.67-2.05c.29.08.58.15.87.2-.09.34-.18.69-.3,1a23.23,23.23,0,0,1-8.79,11.42c-10.16,7.28-23.21,6.67-35.09,6C248.58,207.85,248.73,207,249.3,207Z"/><path class="cls-11" d="M281.74,132.59c-3.24-7.52-7.84-17.78-15.45-21.84-7.06-3.76-14.55-2.69-21.27,1.12-8.69,4.92-14.79,15.47-20.12,23.62a.45.45,0,0,0,.22.66.44.44,0,0,0,.33.21,31.91,31.91,0,0,0,12.38-1c1.94,7.57-.21,17.28.25,25.08a121.7,121.7,0,0,1,0,13.37c-.11,2.11-.26,4.83,2,5.93,2.74,1.3,7.1-1,10.07-.81a13,13,0,0,1,8.94,4c4.72,4.5,12.85,6.6,19,5.92,13.34-1.46,18.48,4.06,18.41,3.54C293.91,172.46,289.71,151.09,281.74,132.59Z"/><path class="cls-11" d="M253,125.38a49.47,49.47,0,0,1,.58-9.26c.41-2.29,1.21-4.43,1.58-6.69-6.74-.61-12.89,3.59-17.44,8.19l-28.12,36.76a51.3,51.3,0,0,1-12.38,11.73,41.45,41.45,0,0,1-14,6c-.18-.42,2.35,13.84,2.35,13.84a81.11,81.11,0,0,0,63.19-41.73,79.93,79.93,0,0,0,4.9-10.94A68,68,0,0,1,253,125.38Z"/><path class="cls-8" d="M255.57,135.84,237.69,159.9c-.35.46.39,1,.73.51l17.89-24.06C256.65,135.88,255.92,135.38,255.57,135.84Z"/><path class="cls-8" d="M244,117.34a41.11,41.11,0,0,1,11.19-2.69c2.45-.26,5.14-.54,6.74-2.67a4.19,4.19,0,0,0,.88-2.68c-6-1.88-12.16-.62-17.79,2.57a31.34,31.34,0,0,0-6.74,5.31,1.57,1.57,0,0,0,.14.25C239.78,119.35,242.4,118,244,117.34Z"/><path class="cls-5" d="M50.83,133.9a59.11,59.11,0,0,1-6.11-2.65,15.34,15.34,0,0,1-4.81-3.63A96,96,0,0,0,33,140.18a7.51,7.51,0,0,0,2.22-1.3,15.7,15.7,0,0,1,12-3.28c3,.35,7,1.11,10.43.58A22.89,22.89,0,0,1,50.83,133.9Z"/><path class="cls-5" d="M278.21,188.81c-6.2.68-14.33-1.42-19-5.92a13,13,0,0,0-8.94-4c-1.93-.11-4.43.81-6.7,1.11,4.38,1.3,6.81,6.88,10.08,9.83,4.26,3.85,8.93,2.11,14.08,2.36s9.57,3,14.76,2.29a17.13,17.13,0,0,0,9.42-4.48A30.7,30.7,0,0,0,278.21,188.81Z"/><path class="cls-1" d="M164.79,149.6a92.49,92.49,0,0,0-8.2-28.33c3-2.26,5.29-7.85,1.79-10.69-1.62-1.31-3.44-.25-4.28,1.39-1,1.91-.72,4.1-.15,6.16a10.8,10.8,0,0,0-4.15-2.85c-1.68-.61-4-.55-4.72,1.43-.63,1.75.67,3.34,2.13,4.12a12.35,12.35,0,0,0,8.44.79l.06,0,.06,0a91.8,91.8,0,0,1,8.56,32.29c.3,4.55.75,7.31-.36,17.62h.9a92.68,92.68,0,0,0,.36-17.62C165.25,153.72,164.82,149.4,164.79,149.6Z"/><path class="cls-1" d="M183.88,111a11.31,11.31,0,0,0,4.59-5.92c.63-2.13.66-5.61-1.67-6.8-2.64-1.35-4.52,1.63-5.29,3.69-1.18,3.19-1.07,10.22-.91,10.51a94.83,94.83,0,0,0-15.95,32.08c0,.93-.2,3.26-.14,4.19a100.82,100.82,0,0,1,16.64-35.52,10.62,10.62,0,0,0,6.57,4c2.07.34,4.71,0,5.68-2.12C195.59,110.23,188.14,110.41,183.88,111Z"/><path class="cls-1" d="M152,97a63.53,63.53,0,0,0-21.34-20c-.5-.29-.86.53-.37.82a62.41,62.41,0,0,1,20.88,19.57Z"/><path class="cls-10" d="M132.44,144l-8-2.74a.45.45,0,0,0-.3.84l8,2.74A.45.45,0,0,0,132.44,144Z"/><path class="cls-1" d="M131.18,74.86a10.14,10.14,0,0,0-2-4.68c-.86-1.1-2.44-2.42-3.94-1.79-1.7.72-1.42,2.79-.68,4.09a10.56,10.56,0,0,0,4,3.83,12,12,0,0,0-5.39,1.56c-1.15.67-3,1.93-2.24,3.5s3.35,1.11,4.68.63a10,10,0,0,0,5.24-4.47.28.28,0,0,0,0-.13A5.69,5.69,0,0,0,135,75.93c1-.93,2.07-2.67,1.36-4.07C135,69.06,132.36,72.69,131.18,74.86Z"/><path class="cls-12" d="M251.39,72.32a3.62,3.62,0,0,0-3,.3,4,4,0,0,0-1.68-2.73.45.45,0,0,0-.51.74,3.09,3.09,0,0,1,1.33,2.71,3.32,3.32,0,0,0-.44.62.47.47,0,0,0,.14.61l0,.07c-.25.52.59.82.84.31a3.63,3.63,0,0,0,.36-1.22,2.67,2.67,0,0,1,2.66-.57A.45.45,0,0,0,251.39,72.32Z"/><path class="cls-1" d="M156.34,100.72c.15,0,3-10.77,1.46-16-1-3.46-3.68-9.21-8.2-8.56-4.89.7-4.59,6.9-3.55,10.39a27.57,27.57,0,0,0,4.23,8.16,26.69,26.69,0,0,0-11.47-5c-2.55-.43-6.45-.89-8.75.62-2,1.32-1.19,3.37.48,4.55,6.82,4.82,16.52,6.31,24.66,5.73,10.26,12.5,9.57,30.58,8.77,45.9,0,.57.86.65.89.08C165.67,131.13,166.33,113.72,156.34,100.72Z"/><path class="cls-2" d="M141.55,100.08c-2.21.46-9.2,1.64-8.1,5.26.91,3,6.75,2.42,9,2,4.8-.81,13.61-6.42,13.56-6.7S146.06,99.16,141.55,100.08Z"/><path class="cls-2" d="M205.43,71.2a85.82,85.82,0,0,0-22.54,9.66c-.49.3.05,1,.54.71A85.15,85.15,0,0,1,205.76,72C206.31,71.88,206,71.05,205.43,71.2Z"/><path class="cls-2" d="M174.79,76.05A39.53,39.53,0,0,1,170.87,60c0-.58-.9-.47-.89.1a40.24,40.24,0,0,0,4,16.3C174.2,76.89,175,76.57,174.79,76.05Z"/><path class="cls-14" d="M151,81.78a.45.45,0,0,0-.81.37,34,34,0,0,1,2.87,15c0,.57.87.65.89.08A34.93,34.93,0,0,0,151,81.78Z"/><path class="cls-15" d="M276.28,104c6.93,1.49,15.67,6.55,13.86,15-1,4.78-5.38,7.9-10,9.9.12.24.23.49.34.73.46-.21.93-.41,1.39-.63,5.47-2.72,10.7-7.71,9.09-14.38-1.65-6.82-8.25-10.14-14.58-11.5C275.8,103,275.73,103.92,276.28,104Z"/><path class="cls-15" d="M126.62,103.74a21,21,0,0,0-16.66.71c-5.44,2.68-8.77,7.77-12.23,12.52a35.7,35.7,0,0,1-11.61,10.67c.16.27.32.53.49.79a30.78,30.78,0,0,0,7.46-5.57c4.52-4.62,7.33-10.7,12.27-14.94a19.86,19.86,0,0,1,20-3.33A.45.45,0,0,0,126.62,103.74Z"/><path class="cls-15" d="M45.4,171.06c-12,1.89-26.65.06-33.1-11.74-6.08-11.11,1.47-23.92,12.05-28.73a34.63,34.63,0,0,1,15.54-2.92l0,0c-.24-.27-.46-.56-.67-.85a33.41,33.41,0,0,0-18.14,4.51c-9,5.42-14.84,16.84-10.33,27C16.7,171.59,32.7,174,45.55,171.94A.45.45,0,0,0,45.4,171.06Z"/><path class="cls-15" d="M210.71,124.46c-7.72,3.82-12.13,11.69-17.86,17.74a26.55,26.55,0,0,1-12.41,7.86c-5.68,1.54-11.62,1.31-17.46,1.44-8.78.21-19.37,1.72-24.13,10.21-4.65,8.3.54,18.31,9.34,20.28l-.09-.93A13.13,13.13,0,0,1,142,159c7.28-7.38,18.42-6.47,27.91-6.77a41.22,41.22,0,0,0,13-2.07,26.5,26.5,0,0,0,9.64-6.44c5.29-5.31,9.17-12.07,15.29-16.53,7.33-5.35,16-4.59,24.25-2.35l.6-.78C225.41,122,217.67,121,210.71,124.46Z"/><path class="cls-4" d="M119.2,122.59c-.46-.35-1,.39-.51.73a2.36,2.36,0,0,1,.84,2.57c-.16.55.68.85.84.3A3.26,3.26,0,0,0,119.2,122.59Z"/><path class="cls-4" d="M120.17,127.54c-.45-.37-1,.37-.51.73a1.93,1.93,0,0,1,.49,2.33c-.26.51.47,1,.74.51A2.85,2.85,0,0,0,120.17,127.54Z"/><path class="cls-4" d="M120.87,132.12c-.41-.4-1.1.17-.69.58a1.58,1.58,0,0,1,.39,1.74c-.21.53.63.84.84.3A2.46,2.46,0,0,0,120.87,132.12Z"/><path class="cls-1" d="M150.52,60.07c-.26-.52-1.07-.15-.82.37a149,149,0,0,1,14,87.31,3.57,3.57,0,0,1,.47,1.61v0a.44.44,0,0,0,.26-.34A149.91,149.91,0,0,0,150.52,60.07Z"/><path class="cls-2" d="M147.76,48a88.32,88.32,0,0,0-22.1-36.8c-.41-.4-1.1.17-.69.58a87.51,87.51,0,0,1,21.91,36.37C147,48.7,147.93,48.56,147.76,48Z"/><path class="cls-2" d="M143.9,54.85a131.06,131.06,0,0,0-41.44-19.64c-.55-.15-.86.69-.3.85A130.17,130.17,0,0,1,143.4,55.58C143.86,55.92,144.37,55.18,143.9,54.85Z"/><path class="cls-14" d="M166.34,14.39a70.46,70.46,0,0,1-11.23,37c-.31.48.42,1,.74.51a71.37,71.37,0,0,0,11.38-37.45C167.24,13.89,166.35,13.81,166.34,14.39Z"/><path class="cls-14" d="M191.15,56.84a20.76,20.76,0,0,0-5.91,10c-.14.55.7.86.84.3a19.89,19.89,0,0,1,5.65-9.66C192.14,57.13,191.57,56.44,191.15,56.84Z"/><circle class="cls-5" cx="74.49" cy="149.03" r="0.46"/><circle class="cls-5" cx="76.34" cy="149.03" r="0.46"/><circle class="cls-5" cx="79.11" cy="147.27" r="0.46"/><circle class="cls-5" cx="77.26" cy="147.27" r="0.46"/><circle class="cls-5" cx="75.41" cy="147.27" r="0.46"/><circle class="cls-5" cx="73.57" cy="147.27" r="0.46"/><circle class="cls-5" cx="74.49" cy="145.5" r="0.46"/><circle class="cls-5" cx="76.34" cy="145.5" r="0.46"/><circle class="cls-5" cx="78.19" cy="145.5" r="0.46"/><circle class="cls-5" cx="80.03" cy="145.5" r="0.46"/><circle class="cls-5" cx="82.8" cy="143.73" r="0.46"/><circle class="cls-5" cx="80.96" cy="143.73" r="0.46"/><circle class="cls-5" cx="79.11" cy="143.73" r="0.46"/><circle class="cls-5" cx="77.26" cy="143.73" r="0.46"/><circle class="cls-5" cx="75.41" cy="143.73" r="0.46"/><circle class="cls-5" cx="73.57" cy="143.73" r="0.46"/><circle class="cls-5" cx="74.49" cy="141.97" r="0.46"/><circle class="cls-5" cx="76.34" cy="141.97" r="0.46"/><circle class="cls-5" cx="78.19" cy="141.97" r="0.46"/><circle class="cls-5" cx="80.03" cy="141.97" r="0.46"/><circle class="cls-5" cx="81.88" cy="141.97" r="0.46"/><circle class="cls-5" cx="83.73" cy="141.97" r="0.46"/><circle class="cls-5" cx="85.57" cy="141.97" r="0.46"/><circle class="cls-5" cx="88.35" cy="140.2" r="0.46"/><circle class="cls-5" cx="86.5" cy="140.2" r="0.46"/><circle class="cls-5" cx="84.65" cy="140.2" r="0.46"/><circle class="cls-5" cx="82.8" cy="140.2" r="0.46"/><circle class="cls-5" cx="80.96" cy="140.2" r="0.46"/><circle class="cls-5" cx="79.11" cy="140.2" r="0.46"/><circle class="cls-5" cx="77.26" cy="140.2" r="0.46"/><circle class="cls-5" cx="75.41" cy="140.2" r="0.46"/><circle class="cls-5" cx="73.57" cy="140.2" r="0.46"/><circle class="cls-5" cx="74.49" cy="138.44" r="0.46"/><circle class="cls-5" cx="76.34" cy="138.44" r="0.46"/><circle class="cls-5" cx="78.19" cy="138.44" r="0.46"/><circle class="cls-5" cx="80.03" cy="138.44" r="0.46"/><circle class="cls-5" cx="81.88" cy="138.44" r="0.46"/><circle class="cls-5" cx="83.73" cy="138.44" r="0.46"/><circle class="cls-5" cx="85.57" cy="138.44" r="0.46"/><circle class="cls-5" cx="87.42" cy="138.44" r="0.46"/><circle class="cls-5" cx="86.5" cy="136.67" r="0.46"/><circle class="cls-5" cx="84.65" cy="136.67" r="0.46"/><circle class="cls-5" cx="82.8" cy="136.67" r="0.46"/><circle class="cls-5" cx="80.96" cy="136.67" r="0.46"/><circle class="cls-5" cx="79.11" cy="136.67" r="0.46"/><circle class="cls-5" cx="77.26" cy="136.67" r="0.46"/><circle class="cls-5" cx="75.41" cy="136.67" r="0.46"/><circle class="cls-5" cx="73.57" cy="136.67" r="0.46"/><circle class="cls-5" cx="72.64" cy="134.9" r="0.46"/><circle class="cls-5" cx="74.49" cy="134.9" r="0.46"/><circle class="cls-5" cx="76.34" cy="134.9" r="0.46"/><circle class="cls-5" cx="78.19" cy="134.9" r="0.46"/><circle class="cls-5" cx="80.03" cy="134.9" r="0.46"/><circle class="cls-5" cx="81.88" cy="134.9" r="0.46"/><circle class="cls-5" cx="83.73" cy="134.9" r="0.46"/><circle class="cls-5" cx="85.57" cy="134.9" r="0.46"/><circle class="cls-5" cx="87.42" cy="134.9" r="0.46"/><circle class="cls-5" cx="86.5" cy="133.14" r="0.46"/><circle class="cls-5" cx="84.65" cy="133.14" r="0.46"/><circle class="cls-5" cx="82.8" cy="133.14" r="0.46"/><circle class="cls-5" cx="80.96" cy="133.14" r="0.46"/><circle class="cls-5" cx="79.11" cy="133.14" r="0.46"/><circle class="cls-5" cx="77.26" cy="133.14" r="0.46"/><circle class="cls-5" cx="75.41" cy="133.14" r="0.46"/><circle class="cls-5" cx="73.57" cy="133.14" r="0.46"/><circle class="cls-5" cx="74.49" cy="131.37" r="0.46"/><circle class="cls-5" cx="76.34" cy="131.37" r="0.46"/><circle class="cls-5" cx="78.19" cy="131.37" r="0.46"/><circle class="cls-5" cx="80.03" cy="131.37" r="0.46"/><circle class="cls-5" cx="81.88" cy="131.37" r="0.46"/><circle class="cls-5" cx="83.73" cy="131.37" r="0.46"/><circle class="cls-5" cx="85.57" cy="131.37" r="0.46"/><circle class="cls-5" cx="84.65" cy="129.61" r="0.46"/><circle class="cls-5" cx="82.8" cy="129.61" r="0.46"/><circle class="cls-5" cx="80.96" cy="129.61" r="0.46"/><circle class="cls-5" cx="79.11" cy="129.61" r="0.46"/><circle class="cls-5" cx="77.26" cy="129.61" r="0.46"/><circle class="cls-5" cx="75.41" cy="129.61" r="0.46"/><circle class="cls-5" cx="76.34" cy="127.84" r="0.46"/><circle class="cls-5" cx="78.19" cy="127.84" r="0.46"/><circle class="cls-5" cx="80.03" cy="127.84" r="0.46"/><circle class="cls-5" cx="81.88" cy="127.84" r="0.46"/><circle class="cls-5" cx="83.73" cy="127.84" r="0.46"/><circle class="cls-5" cx="82.8" cy="126.07" r="0.46"/><circle class="cls-5" cx="80.96" cy="126.07" r="0.46"/><circle class="cls-5" cx="79.11" cy="126.07" r="0.46"/><circle class="cls-5" cx="77.26" cy="126.07" r="0.46"/><circle class="cls-5" cx="75.41" cy="126.07" r="0.46"/><circle class="cls-5" cx="76.34" cy="124.31" r="0.46"/><circle class="cls-5" cx="78.19" cy="124.31" r="0.46"/><circle class="cls-5" cx="80.03" cy="124.31" r="0.46"/><circle class="cls-5" cx="81.88" cy="124.31" r="0.46"/><circle class="cls-5" cx="80.96" cy="122.54" r="0.46"/><circle class="cls-5" cx="79.11" cy="122.54" r="0.46"/><circle class="cls-5" cx="77.26" cy="122.54" r="0.46"/><circle class="cls-5" cx="75.41" cy="122.54" r="0.46"/><circle class="cls-5" cx="74.49" cy="120.77" r="0.46"/><circle class="cls-5" cx="76.34" cy="120.77" r="0.46"/><circle class="cls-5" cx="78.19" cy="120.77" r="0.46"/><circle class="cls-5" cx="80.03" cy="120.77" r="0.46"/><circle class="cls-5" cx="79.11" cy="119.01" r="0.46"/><circle class="cls-5" cx="77.26" cy="119.01" r="0.46"/><circle class="cls-5" cx="75.41" cy="119.01" r="0.46"/><circle class="cls-5" cx="73.57" cy="119.01" r="0.46"/><circle class="cls-5" cx="70.8" cy="117.24" r="0.46"/><circle class="cls-5" cx="72.64" cy="117.24" r="0.46"/><circle class="cls-5" cx="74.49" cy="117.24" r="0.46"/><circle class="cls-5" cx="76.34" cy="117.24" r="0.46"/><circle class="cls-5" cx="78.19" cy="117.24" r="0.46"/><circle class="cls-5" cx="77.26" cy="115.48" r="0.46"/><circle class="cls-5" cx="75.41" cy="115.48" r="0.46"/><circle class="cls-5" cx="73.57" cy="115.48" r="0.46"/><circle class="cls-5" cx="71.72" cy="115.48" r="0.46"/><circle class="cls-5" cx="69.87" cy="115.48" r="0.46"/><circle class="cls-5" cx="68.95" cy="113.71" r="0.46"/><circle class="cls-5" cx="70.8" cy="113.71" r="0.46"/><circle class="cls-5" cx="72.64" cy="113.71" r="0.46"/><circle class="cls-5" cx="74.49" cy="113.71" r="0.46"/><circle class="cls-5" cx="73.57" cy="111.94" r="0.46"/><circle class="cls-5" cx="71.72" cy="111.94" r="0.46"/><circle class="cls-5" cx="69.87" cy="111.94" r="0.46"/><circle class="cls-5" cx="68.03" cy="111.94" r="0.46"/><circle class="cls-5" cx="68.95" cy="110.18" r="0.46"/><circle class="cls-5" cx="70.8" cy="110.18" r="0.46"/><circle class="cls-7" cx="61.27" cy="223.25" r="0.46"/><circle class="cls-7" cx="59.42" cy="223.25" r="0.46"/><circle class="cls-7" cx="57.57" cy="223.25" r="0.46"/><circle class="cls-7" cx="55.72" cy="223.25" r="0.46"/><circle class="cls-7" cx="53.88" cy="223.25" r="0.46"/><circle class="cls-7" cx="52.03" cy="223.25" r="0.46"/><circle class="cls-7" cx="50.18" cy="223.25" r="0.46"/><circle class="cls-7" cx="48.33" cy="223.25" r="0.46"/><circle class="cls-7" cx="47.41" cy="221.48" r="0.46"/><circle class="cls-7" cx="49.26" cy="221.48" r="0.46"/><circle class="cls-7" cx="51.11" cy="221.48" r="0.46"/><circle class="cls-7" cx="52.95" cy="221.48" r="0.46"/><circle class="cls-7" cx="54.8" cy="221.48" r="0.46"/><circle class="cls-7" cx="56.65" cy="221.48" r="0.46"/><circle class="cls-7" cx="58.49" cy="221.48" r="0.46"/><circle class="cls-7" cx="60.34" cy="221.48" r="0.46"/><circle class="cls-7" cx="62.19" cy="221.48" r="0.46"/><circle class="cls-7" cx="64.04" cy="221.48" r="0.46"/><circle class="cls-7" cx="65.88" cy="221.48" r="0.46"/><circle class="cls-7" cx="67.73" cy="221.48" r="0.46"/><circle class="cls-7" cx="69.58" cy="221.48" r="0.46"/><circle class="cls-7" cx="71.43" cy="221.48" r="0.46"/><circle class="cls-7" cx="73.27" cy="221.48" r="0.46"/><circle class="cls-7" cx="75.12" cy="221.48" r="0.46"/><circle class="cls-7" cx="76.97" cy="221.48" r="0.46"/><circle class="cls-7" cx="78.81" cy="221.48" r="0.46"/><circle class="cls-7" cx="80.66" cy="221.48" r="0.46"/><circle class="cls-7" cx="82.51" cy="221.48" r="0.46"/><circle class="cls-7" cx="84.36" cy="221.48" r="0.46"/><circle class="cls-7" cx="86.2" cy="221.48" r="0.46"/><circle class="cls-7" cx="88.05" cy="221.48" r="0.46"/><circle class="cls-7" cx="89.9" cy="221.48" r="0.46"/><circle class="cls-7" cx="91.75" cy="221.48" r="0.46"/><circle class="cls-7" cx="93.59" cy="221.48" r="0.46"/><circle class="cls-7" cx="95.44" cy="221.48" r="0.46"/><circle class="cls-7" cx="97.29" cy="221.48" r="0.46"/><circle class="cls-7" cx="103.75" cy="219.71" r="0.46"/><circle class="cls-7" cx="101.91" cy="219.71" r="0.46"/><circle class="cls-7" cx="100.06" cy="219.71" r="0.46"/><circle class="cls-7" cx="98.21" cy="219.71" r="0.46"/><circle class="cls-7" cx="96.36" cy="219.71" r="0.46"/><circle class="cls-7" cx="94.52" cy="219.71" r="0.46"/><circle class="cls-7" cx="92.67" cy="219.71" r="0.46"/><circle class="cls-7" cx="90.82" cy="219.71" r="0.46"/><circle class="cls-7" cx="88.97" cy="219.71" r="0.46"/><circle class="cls-7" cx="87.13" cy="219.71" r="0.46"/><circle class="cls-7" cx="85.28" cy="219.71" r="0.46"/><circle class="cls-7" cx="83.43" cy="219.71" r="0.46"/><circle class="cls-7" cx="81.59" cy="219.71" r="0.46"/><circle class="cls-7" cx="79.74" cy="219.71" r="0.46"/><circle class="cls-7" cx="77.89" cy="219.71" r="0.46"/><circle class="cls-7" cx="76.04" cy="219.71" r="0.46"/><circle class="cls-7" cx="74.2" cy="219.71" r="0.46"/><circle class="cls-7" cx="72.35" cy="219.71" r="0.46"/><circle class="cls-7" cx="70.5" cy="219.71" r="0.46"/><circle class="cls-7" cx="68.65" cy="219.71" r="0.46"/><circle class="cls-7" cx="66.81" cy="219.71" r="0.46"/><circle class="cls-7" cx="64.96" cy="219.71" r="0.46"/><circle class="cls-7" cx="63.11" cy="219.71" r="0.46"/><circle class="cls-7" cx="61.27" cy="219.71" r="0.46"/><circle class="cls-7" cx="59.42" cy="219.71" r="0.46"/><circle class="cls-7" cx="57.57" cy="219.71" r="0.46"/><circle class="cls-7" cx="55.72" cy="219.71" r="0.46"/><circle class="cls-7" cx="53.88" cy="219.71" r="0.46"/><circle class="cls-7" cx="52.03" cy="219.71" r="0.46"/><circle class="cls-7" cx="50.18" cy="219.71" r="0.46"/><circle class="cls-7" cx="48.33" cy="219.71" r="0.46"/><circle class="cls-7" cx="49.26" cy="217.95" r="0.46"/><circle class="cls-7" cx="51.11" cy="217.95" r="0.46"/><circle class="cls-7" cx="52.95" cy="217.95" r="0.46"/><circle class="cls-7" cx="54.8" cy="217.95" r="0.46"/><circle class="cls-7" cx="56.65" cy="217.95" r="0.46"/><circle class="cls-7" cx="58.49" cy="217.95" r="0.46"/><circle class="cls-7" cx="60.34" cy="217.95" r="0.46"/><circle class="cls-7" cx="62.19" cy="217.95" r="0.46"/><circle class="cls-7" cx="64.04" cy="217.95" r="0.46"/><circle class="cls-7" cx="65.88" cy="217.95" r="0.46"/><circle class="cls-7" cx="67.73" cy="217.95" r="0.46"/><circle class="cls-7" cx="69.58" cy="217.95" r="0.46"/><circle class="cls-7" cx="71.43" cy="217.95" r="0.46"/><circle class="cls-7" cx="73.27" cy="217.95" r="0.46"/><circle class="cls-7" cx="75.12" cy="217.95" r="0.46"/><circle class="cls-7" cx="76.97" cy="217.95" r="0.46"/><circle class="cls-7" cx="78.81" cy="217.95" r="0.46"/><circle class="cls-7" cx="80.66" cy="217.95" r="0.46"/><circle class="cls-7" cx="82.51" cy="217.95" r="0.46"/><circle class="cls-7" cx="84.36" cy="217.95" r="0.46"/><circle class="cls-7" cx="86.2" cy="217.95" r="0.46"/><circle class="cls-7" cx="88.05" cy="217.95" r="0.46"/><circle class="cls-7" cx="89.9" cy="217.95" r="0.46"/><circle class="cls-7" cx="91.75" cy="217.95" r="0.46"/><circle class="cls-7" cx="93.59" cy="217.95" r="0.46"/><circle class="cls-7" cx="95.44" cy="217.95" r="0.46"/><circle class="cls-7" cx="97.29" cy="217.95" r="0.46"/><circle class="cls-7" cx="99.13" cy="217.95" r="0.46"/><circle class="cls-7" cx="100.98" cy="217.95" r="0.46"/><circle class="cls-7" cx="102.83" cy="217.95" r="0.46"/><circle class="cls-7" cx="104.68" cy="217.95" r="0.46"/><circle class="cls-7" cx="106.52" cy="217.95" r="0.46"/><circle class="cls-7" cx="109.29" cy="216.18" r="0.46"/><circle class="cls-7" cx="107.45" cy="216.18" r="0.46"/><circle class="cls-7" cx="105.6" cy="216.18" r="0.46"/><circle class="cls-7" cx="103.75" cy="216.18" r="0.46"/><circle class="cls-7" cx="101.91" cy="216.18" r="0.46"/><circle class="cls-7" cx="100.06" cy="216.18" r="0.46"/><circle class="cls-7" cx="98.21" cy="216.18" r="0.46"/><circle class="cls-7" cx="96.36" cy="216.18" r="0.46"/><circle class="cls-7" cx="94.52" cy="216.18" r="0.46"/><circle class="cls-7" cx="92.67" cy="216.18" r="0.46"/><circle class="cls-7" cx="90.82" cy="216.18" r="0.46"/><circle class="cls-7" cx="88.97" cy="216.18" r="0.46"/><circle class="cls-7" cx="87.13" cy="216.18" r="0.46"/><circle class="cls-7" cx="85.28" cy="216.18" r="0.46"/><circle class="cls-7" cx="83.43" cy="216.18" r="0.46"/><circle class="cls-7" cx="81.59" cy="216.18" r="0.46"/><circle class="cls-7" cx="79.74" cy="216.18" r="0.46"/><circle class="cls-7" cx="77.89" cy="216.18" r="0.46"/><circle class="cls-7" cx="76.04" cy="216.18" r="0.46"/><circle class="cls-7" cx="74.2" cy="216.18" r="0.46"/><circle class="cls-7" cx="72.35" cy="216.18" r="0.46"/><circle class="cls-7" cx="70.5" cy="216.18" r="0.46"/><circle class="cls-7" cx="68.65" cy="216.18" r="0.46"/><circle class="cls-7" cx="66.81" cy="216.18" r="0.46"/><circle class="cls-7" cx="64.96" cy="216.18" r="0.46"/><circle class="cls-7" cx="63.11" cy="216.18" r="0.46"/><circle class="cls-7" cx="61.27" cy="216.18" r="0.46"/><circle class="cls-7" cx="59.42" cy="216.18" r="0.46"/><circle class="cls-7" cx="57.57" cy="216.18" r="0.46"/><circle class="cls-7" cx="55.72" cy="216.18" r="0.46"/><circle class="cls-7" cx="53.88" cy="216.18" r="0.46"/><circle class="cls-7" cx="52.03" cy="216.18" r="0.46"/><circle class="cls-7" cx="50.18" cy="216.18" r="0.46"/><circle class="cls-7" cx="60.34" cy="214.42" r="0.46"/><circle class="cls-7" cx="62.19" cy="214.42" r="0.46"/><circle class="cls-7" cx="64.04" cy="214.42" r="0.46"/><circle class="cls-7" cx="65.88" cy="214.42" r="0.46"/><circle class="cls-7" cx="67.73" cy="214.42" r="0.46"/><circle class="cls-7" cx="69.58" cy="214.42" r="0.46"/><circle class="cls-7" cx="71.43" cy="214.42" r="0.46"/><circle class="cls-7" cx="73.27" cy="214.42" r="0.46"/><circle class="cls-7" cx="75.12" cy="214.42" r="0.46"/><circle class="cls-7" cx="76.97" cy="214.42" r="0.46"/><circle class="cls-7" cx="78.81" cy="214.42" r="0.46"/><circle class="cls-7" cx="80.66" cy="214.42" r="0.46"/><circle class="cls-7" cx="82.51" cy="214.42" r="0.46"/><circle class="cls-7" cx="84.36" cy="214.42" r="0.46"/><circle class="cls-7" cx="86.2" cy="214.42" r="0.46"/><circle class="cls-7" cx="88.05" cy="214.42" r="0.46"/><circle class="cls-7" cx="89.9" cy="214.42" r="0.46"/><circle class="cls-7" cx="91.75" cy="214.42" r="0.46"/><circle class="cls-7" cx="93.59" cy="214.42" r="0.46"/><circle class="cls-7" cx="95.44" cy="214.42" r="0.46"/><circle class="cls-7" cx="97.29" cy="214.42" r="0.46"/><circle class="cls-7" cx="99.13" cy="214.42" r="0.46"/><circle class="cls-7" cx="100.98" cy="214.42" r="0.46"/><circle class="cls-7" cx="102.83" cy="214.42" r="0.46"/><circle class="cls-7" cx="104.68" cy="214.42" r="0.46"/><circle class="cls-7" cx="106.52" cy="214.42" r="0.46"/><circle class="cls-7" cx="108.37" cy="214.42" r="0.46"/><circle class="cls-7" cx="110.22" cy="214.42" r="0.46"/><circle class="cls-7" cx="111.14" cy="212.65" r="0.46"/><circle class="cls-7" cx="109.29" cy="212.65" r="0.46"/><circle class="cls-7" cx="107.45" cy="212.65" r="0.46"/><circle class="cls-7" cx="105.6" cy="212.65" r="0.46"/><circle class="cls-7" cx="103.75" cy="212.65" r="0.46"/><circle class="cls-7" cx="101.91" cy="212.65" r="0.46"/><circle class="cls-7" cx="100.06" cy="212.65" r="0.46"/><circle class="cls-7" cx="98.21" cy="212.65" r="0.46"/><circle class="cls-7" cx="96.36" cy="212.65" r="0.46"/><circle class="cls-7" cx="94.52" cy="212.65" r="0.46"/><circle class="cls-7" cx="92.67" cy="212.65" r="0.46"/><circle class="cls-7" cx="90.82" cy="212.65" r="0.46"/><circle class="cls-7" cx="88.97" cy="212.65" r="0.46"/><circle class="cls-7" cx="87.13" cy="212.65" r="0.46"/><circle class="cls-7" cx="85.28" cy="212.65" r="0.46"/><circle class="cls-7" cx="83.43" cy="212.65" r="0.46"/><circle class="cls-7" cx="81.59" cy="212.65" r="0.46"/><circle class="cls-7" cx="79.74" cy="212.65" r="0.46"/><circle class="cls-7" cx="77.89" cy="212.65" r="0.46"/><circle class="cls-7" cx="88.05" cy="210.88" r="0.46"/><circle class="cls-7" cx="89.9" cy="210.88" r="0.46"/><circle class="cls-7" cx="91.75" cy="210.88" r="0.46"/><circle class="cls-7" cx="93.59" cy="210.88" r="0.46"/><circle class="cls-7" cx="95.44" cy="210.88" r="0.46"/><circle class="cls-7" cx="97.29" cy="210.88" r="0.46"/><circle class="cls-7" cx="99.13" cy="210.88" r="0.46"/><circle class="cls-7" cx="100.98" cy="210.88" r="0.46"/><circle class="cls-7" cx="102.83" cy="210.88" r="0.46"/><circle class="cls-7" cx="104.68" cy="210.88" r="0.46"/><circle class="cls-7" cx="106.52" cy="210.88" r="0.46"/><circle class="cls-7" cx="108.37" cy="210.88" r="0.46"/><circle class="cls-7" cx="110.22" cy="210.88" r="0.46"/><circle class="cls-7" cx="111.14" cy="209.12" r="0.46"/><circle class="cls-7" cx="109.29" cy="209.12" r="0.46"/><circle class="cls-7" cx="107.45" cy="209.12" r="0.46"/><circle class="cls-7" cx="105.6" cy="209.12" r="0.46"/><circle class="cls-7" cx="103.75" cy="209.12" r="0.46"/><circle class="cls-7" cx="101.91" cy="209.12" r="0.46"/><circle class="cls-7" cx="100.06" cy="209.12" r="0.46"/><circle class="cls-7" cx="98.21" cy="209.12" r="0.46"/><circle class="cls-7" cx="96.36" cy="209.12" r="0.46"/><circle class="cls-7" cx="94.52" cy="209.12" r="0.46"/><circle class="cls-7" cx="92.67" cy="209.12" r="0.46"/><circle class="cls-7" cx="99.13" cy="207.35" r="0.46"/><circle class="cls-7" cx="100.98" cy="207.35" r="0.46"/><circle class="cls-7" cx="102.83" cy="207.35" r="0.46"/><circle class="cls-7" cx="104.68" cy="207.35" r="0.46"/><circle class="cls-7" cx="106.52" cy="207.35" r="0.46"/><circle class="cls-7" cx="108.37" cy="207.35" r="0.46"/><circle class="cls-7" cx="110.22" cy="207.35" r="0.46"/><circle class="cls-7" cx="19.63" cy="190.15" r="0.46"/><circle class="cls-7" cx="21.48" cy="190.15" r="0.46"/><circle class="cls-7" cx="23.33" cy="190.15" r="0.46"/><circle class="cls-7" cx="27.95" cy="188.38" r="0.46"/><circle class="cls-7" cx="26.1" cy="188.38" r="0.46"/><circle class="cls-7" cx="24.25" cy="188.38" r="0.46"/><circle class="cls-7" cx="22.4" cy="188.38" r="0.46"/><circle class="cls-7" cx="20.56" cy="188.38" r="0.46"/><circle class="cls-7" cx="18.71" cy="188.38" r="0.46"/><circle class="cls-7" cx="19.63" cy="186.62" r="0.46"/><circle class="cls-7" cx="21.48" cy="186.62" r="0.46"/><circle class="cls-7" cx="23.33" cy="186.62" r="0.46"/><circle class="cls-7" cx="25.18" cy="186.62" r="0.46"/><circle class="cls-7" cx="27.02" cy="186.62" r="0.46"/><circle class="cls-7" cx="28.87" cy="186.62" r="0.46"/><circle class="cls-7" cx="30.72" cy="186.62" r="0.46"/><circle class="cls-7" cx="33.49" cy="184.85" r="0.46"/><circle class="cls-7" cx="31.64" cy="184.85" r="0.46"/><circle class="cls-7" cx="29.79" cy="184.85" r="0.46"/><circle class="cls-7" cx="27.95" cy="184.85" r="0.46"/><circle class="cls-7" cx="26.1" cy="184.85" r="0.46"/><circle class="cls-7" cx="24.25" cy="184.85" r="0.46"/><circle class="cls-7" cx="22.4" cy="184.85" r="0.46"/><circle class="cls-7" cx="20.56" cy="184.85" r="0.46"/><circle class="cls-7" cx="18.71" cy="184.85" r="0.46"/><circle class="cls-7" cx="19.63" cy="183.08" r="0.46"/><circle class="cls-7" cx="21.48" cy="183.08" r="0.46"/><circle class="cls-7" cx="23.33" cy="183.08" r="0.46"/><circle class="cls-7" cx="25.18" cy="183.08" r="0.46"/><circle class="cls-7" cx="27.02" cy="183.08" r="0.46"/><circle class="cls-7" cx="28.87" cy="183.08" r="0.46"/><circle class="cls-7" cx="30.72" cy="183.08" r="0.46"/><circle class="cls-7" cx="32.56" cy="183.08" r="0.46"/><circle class="cls-7" cx="34.41" cy="183.08" r="0.46"/><circle class="cls-7" cx="33.49" cy="181.32" r="0.46"/><circle class="cls-7" cx="31.64" cy="181.32" r="0.46"/><circle class="cls-7" cx="29.79" cy="181.32" r="0.46"/><circle class="cls-7" cx="27.95" cy="181.32" r="0.46"/><circle class="cls-7" cx="26.1" cy="181.32" r="0.46"/><circle class="cls-7" cx="24.25" cy="181.32" r="0.46"/><circle class="cls-7" cx="22.4" cy="181.32" r="0.46"/><circle class="cls-7" cx="20.56" cy="181.32" r="0.46"/><circle class="cls-7" cx="21.48" cy="179.55" r="0.46"/><circle class="cls-7" cx="23.33" cy="179.55" r="0.46"/><circle class="cls-7" cx="25.18" cy="179.55" r="0.46"/><circle class="cls-7" cx="27.02" cy="179.55" r="0.46"/><circle class="cls-7" cx="28.87" cy="179.55" r="0.46"/><circle class="cls-7" cx="30.72" cy="179.55" r="0.46"/><circle class="cls-7" cx="32.56" cy="179.55" r="0.46"/><circle class="cls-7" cx="33.49" cy="177.79" r="0.46"/><circle class="cls-7" cx="31.64" cy="177.79" r="0.46"/><circle class="cls-7" cx="29.79" cy="177.79" r="0.46"/><circle class="cls-7" cx="27.95" cy="177.79" r="0.46"/><circle class="cls-7" cx="26.1" cy="177.79" r="0.46"/><circle class="cls-7" cx="24.25" cy="177.79" r="0.46"/><circle class="cls-7" cx="22.4" cy="177.79" r="0.46"/><circle class="cls-7" cx="20.56" cy="177.79" r="0.46"/><circle class="cls-7" cx="21.48" cy="176.02" r="0.46"/><circle class="cls-7" cx="23.33" cy="176.02" r="0.46"/><circle class="cls-7" cx="25.18" cy="176.02" r="0.46"/><circle class="cls-7" cx="27.02" cy="176.02" r="0.46"/><circle class="cls-7" cx="28.87" cy="176.02" r="0.46"/><circle class="cls-7" cx="30.72" cy="176.02" r="0.46"/><circle class="cls-7" cx="32.56" cy="176.02" r="0.46"/><circle class="cls-7" cx="31.64" cy="174.25" r="0.46"/><circle class="cls-7" cx="29.79" cy="174.25" r="0.46"/><circle class="cls-7" cx="27.95" cy="174.25" r="0.46"/><circle class="cls-7" cx="26.1" cy="174.25" r="0.46"/><circle class="cls-7" cx="24.25" cy="174.25" r="0.46"/><circle class="cls-7" cx="22.4" cy="174.25" r="0.46"/><circle class="cls-7" cx="23.33" cy="172.49" r="0.46"/><circle class="cls-7" cx="25.18" cy="172.49" r="0.46"/><circle class="cls-7" cx="27.02" cy="172.49" r="0.46"/><circle class="cls-7" cx="28.87" cy="172.49" r="0.46"/><circle class="cls-7" cx="30.72" cy="172.49" r="0.46"/><circle class="cls-7" cx="32.56" cy="172.49" r="0.46"/><circle class="cls-7" cx="31.64" cy="170.72" r="0.46"/><circle class="cls-7" cx="29.79" cy="170.72" r="0.46"/><circle class="cls-7" cx="27.95" cy="170.72" r="0.46"/><circle class="cls-7" cx="26.1" cy="170.72" r="0.46"/><circle class="cls-7" cx="24.25" cy="170.72" r="0.46"/><circle class="cls-7" cx="22.4" cy="170.72" r="0.46"/><circle class="cls-7" cx="24.25" cy="170.72" r="0.46"/><circle class="cls-7" cx="26.1" cy="170.72" r="0.46"/><circle class="cls-7" cx="27.95" cy="170.72" r="0.46"/><circle class="cls-7" cx="29.79" cy="170.72" r="0.46"/><circle class="cls-7" cx="31.64" cy="170.72" r="0.46"/><circle class="cls-7" cx="23.33" cy="168.96" r="0.46"/><circle class="cls-7" cx="25.18" cy="168.96" r="0.46"/><circle class="cls-7" cx="27.02" cy="168.96" r="0.46"/><circle class="cls-7" cx="28.87" cy="168.96" r="0.46"/><circle class="cls-7" cx="30.72" cy="168.96" r="0.46"/><circle class="cls-7" cx="32.56" cy="168.96" r="0.46"/><circle class="cls-7" cx="31.64" cy="167.19" r="0.46"/><circle class="cls-7" cx="29.79" cy="167.19" r="0.46"/><circle class="cls-7" cx="27.95" cy="167.19" r="0.46"/><circle class="cls-7" cx="26.1" cy="167.19" r="0.46"/><circle class="cls-7" cx="24.25" cy="167.19" r="0.46"/><circle class="cls-7" cx="25.18" cy="165.42" r="0.46"/><circle class="cls-7" cx="27.02" cy="165.42" r="0.46"/><circle class="cls-7" cx="28.87" cy="165.42" r="0.46"/><circle class="cls-7" cx="30.72" cy="165.42" r="0.46"/><circle class="cls-7" cx="31.64" cy="163.66" r="0.46"/><circle class="cls-7" cx="29.79" cy="163.66" r="0.46"/><circle class="cls-7" cx="27.95" cy="163.66" r="0.46"/><circle class="cls-7" cx="26.1" cy="163.66" r="0.46"/><circle class="cls-7" cx="25.18" cy="161.89" r="0.46"/><circle class="cls-7" cx="27.02" cy="161.89" r="0.46"/><circle class="cls-7" cx="28.87" cy="161.89" r="0.46"/><circle class="cls-7" cx="30.72" cy="161.89" r="0.46"/><circle class="cls-7" cx="31.64" cy="160.13" r="0.46"/><circle class="cls-7" cx="29.79" cy="160.13" r="0.46"/><circle class="cls-7" cx="27.95" cy="160.13" r="0.46"/><circle class="cls-7" cx="26.1" cy="160.13" r="0.46"/><circle class="cls-7" cx="27.02" cy="158.36" r="0.46"/><circle class="cls-7" cx="28.87" cy="158.36" r="0.46"/><circle class="cls-7" cx="30.72" cy="158.36" r="0.46"/><circle class="cls-7" cx="31.64" cy="156.59" r="0.46"/><circle class="cls-7" cx="29.79" cy="156.59" r="0.46"/><circle class="cls-7" cx="27.95" cy="156.59" r="0.46"/><circle class="cls-7" cx="28.87" cy="154.83" r="0.46"/><circle class="cls-7" cx="30.72" cy="154.83" r="0.46"/><circle class="cls-7" cx="32.56" cy="154.83" r="0.46"/><circle class="cls-7" cx="31.64" cy="153.06" r="0.46"/><circle class="cls-7" cx="29.79" cy="153.06" r="0.46"/><circle class="cls-7" cx="28.87" cy="151.29" r="0.46"/><circle class="cls-7" cx="30.72" cy="151.29" r="0.46"/><circle class="cls-7" cx="32.56" cy="151.29" r="0.46"/><circle class="cls-7" cx="31.64" cy="149.53" r="0.46"/><circle class="cls-7" cx="29.79" cy="149.53" r="0.46"/><circle class="cls-7" cx="30.72" cy="147.76" r="0.46"/><circle class="cls-7" cx="32.56" cy="147.76" r="0.46"/><circle class="cls-7" cx="31.64" cy="146" r="0.46"/><circle class="cls-3" cx="76.9" cy="90.29" r="12.16"/><path class="cls-4" d="M85.91,93.23a5.31,5.31,0,0,1-5.79.73c-.52-.25-.82.59-.3.84a6.21,6.21,0,0,0,6.66-.88A.45.45,0,0,0,85.91,93.23Z"/><path class="cls-14" d="M89,83.16a2.94,2.94,0,0,0,1.66-4.24c-2.44-4.25-8-11.3-18.29-11.73A20,20,0,0,0,53.29,79.61a16.58,16.58,0,0,0-1.12,5.61c-.06,3.16.83,6.39,0,9.5-1.43,5.31-7,9.13-10.27,13.34-2.83,3.69-5,8.08-4.68,12.84s3.3,8.24,7.51,10.35a59.11,59.11,0,0,0,6.11,2.65c7.16,3.73,16.46,3.81,22.22-2.3a8.79,8.79,0,0,0,2.65-6.24c-.1-3-2-5.28-3.9-7.4a18,18,0,0,1-4.18-6.78,31.56,31.56,0,0,1,3.44-12.62C74,92.77,78,84.73,72.19,79.3c3.18.56,5.09,3.28,6.06,5.18a2.43,2.43,0,0,0,2.89,1.22C83.27,85,86.59,84,89,83.16Z"/><path class="cls-14" d="M70.91,79.2c-.46-.34-1,.39-.52.73,6.19,4.51,3.17,12.86,1.4,18.8-1.52,5-2.36,10.92,1.43,15.19.39.43,1.08-.13.7-.57-5.33-6-1-14,.54-20.57C75.56,88,75.21,82.33,70.91,79.2Z"/><path class="cls-14" d="M56.83,87.78C56,96.05,46.9,98.47,40.57,101.45c-5.65,2.66-10.12,6.78-10.55,13.34a.45.45,0,0,0,.89.07c.59-8.94,8.52-11.87,15.58-15,5.22-2.31,10.58-5.84,11.23-12A.45.45,0,0,0,56.83,87.78Z"/><path class="cls-16" d="M87.62,80a14.39,14.39,0,0,0-9.43-8c-.55-.15-.85.69-.3.84a13.53,13.53,0,0,1,8.91,7.55A.45.45,0,0,0,87.62,80Z"/><path class="cls-16" d="M83.58,80.44a9.35,9.35,0,0,0-3.68-3.75c-.5-.27-1,.46-.51.74a8.37,8.37,0,0,1,3.37,3.38C83,81.32,83.85,81,83.58,80.44Z"/><path class="cls-16" d="M44.9,112.29a.45.45,0,0,0-.58-.69,10.19,10.19,0,0,0-1,15c.39.42,1.08-.15.69-.57A9.29,9.29,0,0,1,44.9,112.29Z"/><circle class="cls-9" cx="158.48" cy="223.17" r="0.46"/><circle class="cls-9" cx="160.33" cy="223.17" r="0.46"/><circle class="cls-9" cx="162.18" cy="223.17" r="0.46"/><circle class="cls-9" cx="164.02" cy="223.17" r="0.46"/><circle class="cls-9" cx="165.87" cy="223.17" r="0.46"/><circle class="cls-9" cx="167.72" cy="223.17" r="0.46"/><circle class="cls-9" cx="177.88" cy="221.4" r="0.46"/><circle class="cls-9" cx="176.03" cy="221.4" r="0.46"/><circle class="cls-9" cx="174.18" cy="221.4" r="0.46"/><circle class="cls-9" cx="172.34" cy="221.4" r="0.46"/><circle class="cls-9" cx="170.49" cy="221.4" r="0.46"/><circle class="cls-9" cx="168.64" cy="221.4" r="0.46"/><circle class="cls-9" cx="166.8" cy="221.4" r="0.46"/><circle class="cls-9" cx="164.95" cy="221.4" r="0.46"/><circle class="cls-9" cx="163.1" cy="221.4" r="0.46"/><circle class="cls-9" cx="161.25" cy="221.4" r="0.46"/><circle class="cls-9" cx="159.41" cy="221.4" r="0.46"/><circle class="cls-9" cx="157.56" cy="221.4" r="0.46"/><circle class="cls-9" cx="155.71" cy="221.4" r="0.46"/><circle class="cls-9" cx="153.86" cy="221.4" r="0.46"/><circle class="cls-9" cx="152.02" cy="221.4" r="0.46"/><circle class="cls-9" cx="150.17" cy="221.4" r="0.46"/><circle class="cls-9" cx="147.4" cy="219.64" r="0.46"/><circle class="cls-9" cx="149.25" cy="219.64" r="0.46"/><circle class="cls-9" cx="151.09" cy="219.64" r="0.46"/><circle class="cls-9" cx="152.94" cy="219.64" r="0.46"/><circle class="cls-9" cx="154.79" cy="219.64" r="0.46"/><circle class="cls-9" cx="156.64" cy="219.64" r="0.46"/><circle class="cls-9" cx="158.48" cy="219.64" r="0.46"/><circle class="cls-9" cx="160.33" cy="219.64" r="0.46"/><circle class="cls-9" cx="162.18" cy="219.64" r="0.46"/><circle class="cls-9" cx="164.02" cy="219.64" r="0.46"/><circle class="cls-9" cx="165.87" cy="219.64" r="0.46"/><circle class="cls-9" cx="167.72" cy="219.64" r="0.46"/><circle class="cls-9" cx="169.57" cy="219.64" r="0.46"/><circle class="cls-9" cx="171.41" cy="219.64" r="0.46"/><circle class="cls-9" cx="173.26" cy="219.64" r="0.46"/><circle class="cls-9" cx="175.11" cy="219.64" r="0.46"/><circle class="cls-9" cx="176.96" cy="219.64" r="0.46"/><circle class="cls-9" cx="178.8" cy="219.64" r="0.46"/><circle class="cls-9" cx="179.73" cy="217.87" r="0.46"/><circle class="cls-9" cx="177.88" cy="217.87" r="0.46"/><circle class="cls-9" cx="176.03" cy="217.87" r="0.46"/><circle class="cls-9" cx="174.18" cy="217.87" r="0.46"/><circle class="cls-9" cx="172.34" cy="217.87" r="0.46"/><circle class="cls-9" cx="170.49" cy="217.87" r="0.46"/><circle class="cls-9" cx="168.64" cy="217.87" r="0.46"/><circle class="cls-9" cx="166.8" cy="217.87" r="0.46"/><circle class="cls-9" cx="164.95" cy="217.87" r="0.46"/><circle class="cls-9" cx="163.1" cy="217.87" r="0.46"/><circle class="cls-9" cx="161.25" cy="217.87" r="0.46"/><circle class="cls-9" cx="159.41" cy="217.87" r="0.46"/><circle class="cls-9" cx="157.56" cy="217.87" r="0.46"/><circle class="cls-9" cx="155.71" cy="217.87" r="0.46"/><circle class="cls-9" cx="153.86" cy="217.87" r="0.46"/><circle class="cls-9" cx="152.02" cy="217.87" r="0.46"/><circle class="cls-9" cx="150.17" cy="217.87" r="0.46"/><circle class="cls-9" cx="148.32" cy="217.87" r="0.46"/><circle class="cls-9" cx="146.48" cy="217.87" r="0.46"/><circle class="cls-9" cx="147.4" cy="216.1" r="0.46"/><circle class="cls-9" cx="149.25" cy="216.1" r="0.46"/><circle class="cls-9" cx="151.09" cy="216.1" r="0.46"/><circle class="cls-9" cx="152.94" cy="216.1" r="0.46"/><circle class="cls-9" cx="154.79" cy="216.1" r="0.46"/><circle class="cls-9" cx="156.64" cy="216.1" r="0.46"/><circle class="cls-9" cx="158.48" cy="216.1" r="0.46"/><circle class="cls-9" cx="160.33" cy="216.1" r="0.46"/><circle class="cls-9" cx="162.18" cy="216.1" r="0.46"/><circle class="cls-9" cx="164.02" cy="216.1" r="0.46"/><circle class="cls-9" cx="165.87" cy="216.1" r="0.46"/><circle class="cls-9" cx="167.72" cy="216.1" r="0.46"/><circle class="cls-9" cx="169.57" cy="216.1" r="0.46"/><circle class="cls-9" cx="171.41" cy="216.1" r="0.46"/><circle class="cls-9" cx="173.26" cy="216.1" r="0.46"/><circle class="cls-9" cx="175.11" cy="216.1" r="0.46"/><circle class="cls-9" cx="176.96" cy="216.1" r="0.46"/><circle class="cls-9" cx="178.8" cy="216.1" r="0.46"/><circle class="cls-9" cx="180.65" cy="216.1" r="0.46"/><circle class="cls-9" cx="179.73" cy="214.34" r="0.46"/><circle class="cls-9" cx="177.88" cy="214.34" r="0.46"/><circle class="cls-9" cx="176.03" cy="214.34" r="0.46"/><circle class="cls-9" cx="174.18" cy="214.34" r="0.46"/><circle class="cls-9" cx="172.34" cy="214.34" r="0.46"/><circle class="cls-9" cx="170.49" cy="214.34" r="0.46"/><circle class="cls-9" cx="168.64" cy="214.34" r="0.46"/><circle class="cls-9" cx="166.8" cy="214.34" r="0.46"/><circle class="cls-9" cx="164.95" cy="214.34" r="0.46"/><circle class="cls-9" cx="163.1" cy="214.34" r="0.46"/><circle class="cls-9" cx="161.25" cy="214.34" r="0.46"/><circle class="cls-9" cx="159.41" cy="214.34" r="0.46"/><circle class="cls-9" cx="157.56" cy="214.34" r="0.46"/><circle class="cls-9" cx="155.71" cy="214.34" r="0.46"/><circle class="cls-9" cx="153.86" cy="214.34" r="0.46"/><circle class="cls-9" cx="152.02" cy="214.34" r="0.46"/><circle class="cls-9" cx="150.17" cy="214.34" r="0.46"/><circle class="cls-9" cx="148.32" cy="214.34" r="0.46"/><circle class="cls-9" cx="154.79" cy="212.57" r="0.46"/><circle class="cls-9" cx="156.64" cy="212.57" r="0.46"/><circle class="cls-9" cx="158.48" cy="212.57" r="0.46"/><circle class="cls-9" cx="160.33" cy="212.57" r="0.46"/><circle class="cls-9" cx="162.18" cy="212.57" r="0.46"/><circle class="cls-9" cx="164.02" cy="212.57" r="0.46"/><circle class="cls-9" cx="165.87" cy="212.57" r="0.46"/><circle class="cls-9" cx="167.72" cy="212.57" r="0.46"/><circle class="cls-9" cx="169.57" cy="212.57" r="0.46"/><circle class="cls-9" cx="171.41" cy="212.57" r="0.46"/><circle class="cls-9" cx="173.26" cy="212.57" r="0.46"/><circle class="cls-9" cx="175.11" cy="212.57" r="0.46"/><circle class="cls-7" cx="227.3" cy="221.4" r="0.46"/><circle class="cls-7" cx="225.45" cy="221.4" r="0.46"/><circle class="cls-7" cx="223.6" cy="221.4" r="0.46"/><circle class="cls-7" cx="215.29" cy="219.64" r="0.46"/><circle class="cls-7" cx="217.14" cy="219.64" r="0.46"/><circle class="cls-7" cx="218.99" cy="219.64" r="0.46"/><circle class="cls-7" cx="220.83" cy="219.64" r="0.46"/><circle class="cls-7" cx="222.68" cy="219.64" r="0.46"/><circle class="cls-7" cx="224.53" cy="219.64" r="0.46"/><circle class="cls-7" cx="226.38" cy="219.64" r="0.46"/><circle class="cls-7" cx="228.22" cy="219.64" r="0.46"/><circle class="cls-7" cx="230.07" cy="219.64" r="0.46"/><circle class="cls-7" cx="230.99" cy="217.87" r="0.46"/><circle class="cls-7" cx="229.15" cy="217.87" r="0.46"/><circle class="cls-7" cx="227.3" cy="217.87" r="0.46"/><circle class="cls-7" cx="225.45" cy="217.87" r="0.46"/><circle class="cls-7" cx="223.6" cy="217.87" r="0.46"/><circle class="cls-7" cx="221.76" cy="217.87" r="0.46"/><circle class="cls-7" cx="219.91" cy="217.87" r="0.46"/><circle class="cls-7" cx="218.06" cy="217.87" r="0.46"/><circle class="cls-7" cx="216.22" cy="217.87" r="0.46"/><circle class="cls-7" cx="214.37" cy="217.87" r="0.46"/><circle class="cls-7" cx="212.52" cy="217.87" r="0.46"/><circle class="cls-7" cx="210.67" cy="217.87" r="0.46"/><circle class="cls-7" cx="207.9" cy="216.1" r="0.46"/><circle class="cls-7" cx="209.75" cy="216.1" r="0.46"/><circle class="cls-7" cx="211.6" cy="216.1" r="0.46"/><circle class="cls-7" cx="213.44" cy="216.1" r="0.46"/><circle class="cls-7" cx="215.29" cy="216.1" r="0.46"/><circle class="cls-7" cx="217.14" cy="216.1" r="0.46"/><circle class="cls-7" cx="218.99" cy="216.1" r="0.46"/><circle class="cls-7" cx="220.83" cy="216.1" r="0.46"/><circle class="cls-7" cx="222.68" cy="216.1" r="0.46"/><circle class="cls-7" cx="224.53" cy="216.1" r="0.46"/><circle class="cls-7" cx="226.38" cy="216.1" r="0.46"/><circle class="cls-7" cx="228.22" cy="216.1" r="0.46"/><circle class="cls-7" cx="230.07" cy="216.1" r="0.46"/><circle class="cls-7" cx="229.15" cy="214.34" r="0.46"/><circle class="cls-7" cx="227.3" cy="214.34" r="0.46"/><circle class="cls-7" cx="225.45" cy="214.34" r="0.46"/><circle class="cls-7" cx="223.6" cy="214.34" r="0.46"/><circle class="cls-7" cx="221.76" cy="214.34" r="0.46"/><circle class="cls-7" cx="219.91" cy="214.34" r="0.46"/><circle class="cls-7" cx="218.06" cy="214.34" r="0.46"/><circle class="cls-7" cx="216.22" cy="214.34" r="0.46"/><circle class="cls-7" cx="214.37" cy="214.34" r="0.46"/><circle class="cls-7" cx="212.52" cy="214.34" r="0.46"/><circle class="cls-7" cx="210.67" cy="214.34" r="0.46"/><circle class="cls-7" cx="208.83" cy="214.34" r="0.46"/><circle class="cls-7" cx="206.98" cy="214.34" r="0.46"/><circle class="cls-7" cx="205.13" cy="214.34" r="0.46"/><circle class="cls-7" cx="204.21" cy="212.57" r="0.46"/><circle class="cls-7" cx="206.06" cy="212.57" r="0.46"/><circle class="cls-7" cx="207.9" cy="212.57" r="0.46"/><circle class="cls-7" cx="209.75" cy="212.57" r="0.46"/><circle class="cls-7" cx="211.6" cy="212.57" r="0.46"/><circle class="cls-7" cx="213.44" cy="212.57" r="0.46"/><circle class="cls-7" cx="215.29" cy="212.57" r="0.46"/><circle class="cls-7" cx="217.14" cy="212.57" r="0.46"/><circle class="cls-7" cx="218.99" cy="212.57" r="0.46"/><circle class="cls-7" cx="220.83" cy="212.57" r="0.46"/><circle class="cls-7" cx="222.68" cy="212.57" r="0.46"/><circle class="cls-7" cx="224.53" cy="212.57" r="0.46"/><circle class="cls-7" cx="219.91" cy="210.81" r="0.46"/><circle class="cls-7" cx="218.06" cy="210.81" r="0.46"/><circle class="cls-7" cx="216.22" cy="210.81" r="0.46"/><circle class="cls-7" cx="214.37" cy="210.81" r="0.46"/><circle class="cls-7" cx="212.52" cy="210.81" r="0.46"/><circle class="cls-7" cx="210.67" cy="210.81" r="0.46"/><circle class="cls-7" cx="208.83" cy="210.81" r="0.46"/><circle class="cls-7" cx="206.98" cy="210.81" r="0.46"/><circle class="cls-7" cx="205.13" cy="210.81" r="0.46"/><circle class="cls-7" cx="203.28" cy="210.81" r="0.46"/><circle class="cls-7" cx="202.36" cy="209.04" r="0.46"/><circle class="cls-7" cx="204.21" cy="209.04" r="0.46"/><circle class="cls-7" cx="206.06" cy="209.04" r="0.46"/><circle class="cls-7" cx="207.9" cy="209.04" r="0.46"/><circle class="cls-7" cx="209.75" cy="209.04" r="0.46"/><circle class="cls-7" cx="211.6" cy="209.04" r="0.46"/><circle class="cls-7" cx="213.44" cy="209.04" r="0.46"/><circle class="cls-7" cx="215.29" cy="209.04" r="0.46"/><circle class="cls-7" cx="212.52" cy="207.27" r="0.46"/><circle class="cls-7" cx="210.67" cy="207.27" r="0.46"/><circle class="cls-7" cx="208.83" cy="207.27" r="0.46"/><circle class="cls-7" cx="206.98" cy="207.27" r="0.46"/><circle class="cls-7" cx="205.13" cy="207.27" r="0.46"/><circle class="cls-7" cx="203.28" cy="207.27" r="0.46"/><circle class="cls-7" cx="201.44" cy="207.27" r="0.46"/><circle class="cls-7" cx="202.36" cy="205.51" r="0.46"/><circle class="cls-7" cx="204.21" cy="205.51" r="0.46"/><circle class="cls-7" cx="206.06" cy="205.51" r="0.46"/><circle class="cls-7" cx="207.9" cy="205.51" r="0.46"/><circle class="cls-7" cx="209.75" cy="205.51" r="0.46"/><circle class="cls-7" cx="211.6" cy="205.51" r="0.46"/><circle class="cls-7" cx="210.67" cy="203.74" r="0.46"/><circle class="cls-7" cx="208.83" cy="203.74" r="0.46"/><circle class="cls-7" cx="206.98" cy="203.74" r="0.46"/><circle class="cls-7" cx="205.13" cy="203.74" r="0.46"/><circle class="cls-7" cx="203.28" cy="203.74" r="0.46"/><circle class="cls-7" cx="201.44" cy="203.74" r="0.46"/><circle class="cls-7" cx="202.36" cy="201.98" r="0.46"/><circle class="cls-7" cx="204.21" cy="201.98" r="0.46"/><circle class="cls-7" cx="206.06" cy="201.98" r="0.46"/><circle class="cls-7" cx="207.9" cy="201.98" r="0.46"/><circle class="cls-7" cx="209.75" cy="201.98" r="0.46"/><circle class="cls-7" cx="210.67" cy="200.21" r="0.46"/><circle class="cls-7" cx="208.83" cy="200.21" r="0.46"/><circle class="cls-7" cx="206.98" cy="200.21" r="0.46"/><circle class="cls-7" cx="205.13" cy="200.21" r="0.46"/><circle class="cls-7" cx="203.28" cy="200.21" r="0.46"/><circle class="cls-7" cx="204.21" cy="198.44" r="0.46"/><circle class="cls-7" cx="206.06" cy="198.44" r="0.46"/><circle class="cls-7" cx="207.9" cy="198.44" r="0.46"/><circle class="cls-7" cx="209.75" cy="198.44" r="0.46"/><circle class="cls-7" cx="210.67" cy="196.68" r="0.46"/><circle class="cls-7" cx="208.83" cy="196.68" r="0.46"/><circle class="cls-7" cx="206.98" cy="196.68" r="0.46"/><circle class="cls-7" cx="205.13" cy="196.68" r="0.46"/><circle class="cls-7" cx="206.06" cy="194.91" r="0.46"/><circle class="cls-7" cx="207.9" cy="194.91" r="0.46"/><circle class="cls-7" cx="206.98" cy="193.15" r="0.46"/><circle class="cls-10" cx="151.56" cy="205.72" r="0.46"/><circle class="cls-10" cx="153.41" cy="205.72" r="0.46"/><circle class="cls-10" cx="155.26" cy="205.72" r="0.46"/><circle class="cls-10" cx="157.1" cy="205.72" r="0.46"/><circle class="cls-10" cx="158.95" cy="205.72" r="0.46"/><circle class="cls-10" cx="160.8" cy="205.72" r="0.46"/><circle class="cls-10" cx="162.64" cy="205.72" r="0.46"/><circle class="cls-10" cx="164.49" cy="205.72" r="0.46"/><circle class="cls-10" cx="166.34" cy="205.72" r="0.46"/><circle class="cls-10" cx="168.19" cy="205.72" r="0.46"/><circle class="cls-10" cx="170.03" cy="205.72" r="0.46"/><circle class="cls-10" cx="170.96" cy="203.96" r="0.46"/><circle class="cls-10" cx="169.11" cy="203.96" r="0.46"/><circle class="cls-10" cx="167.26" cy="203.96" r="0.46"/><circle class="cls-10" cx="165.42" cy="203.96" r="0.46"/><circle class="cls-10" cx="163.57" cy="203.96" r="0.46"/><circle class="cls-10" cx="161.72" cy="203.96" r="0.46"/><circle class="cls-10" cx="159.87" cy="203.96" r="0.46"/><circle class="cls-10" cx="158.03" cy="203.96" r="0.46"/><circle class="cls-10" cx="156.18" cy="203.96" r="0.46"/><circle class="cls-10" cx="154.33" cy="203.96" r="0.46"/><circle class="cls-10" cx="152.48" cy="203.96" r="0.46"/><circle class="cls-10" cx="150.64" cy="203.96" r="0.46"/><circle class="cls-10" cx="151.56" cy="202.19" r="0.46"/><circle class="cls-10" cx="153.41" cy="202.19" r="0.46"/><circle class="cls-10" cx="155.26" cy="202.19" r="0.46"/><circle class="cls-10" cx="157.1" cy="202.19" r="0.46"/><circle class="cls-10" cx="158.95" cy="202.19" r="0.46"/><circle class="cls-10" cx="160.8" cy="202.19" r="0.46"/><circle class="cls-10" cx="162.64" cy="202.19" r="0.46"/><circle class="cls-10" cx="164.49" cy="202.19" r="0.46"/><circle class="cls-10" cx="166.34" cy="202.19" r="0.46"/><circle class="cls-10" cx="168.19" cy="202.19" r="0.46"/><circle class="cls-10" cx="170.03" cy="202.19" r="0.46"/><circle class="cls-10" cx="169.11" cy="200.42" r="0.46"/><circle class="cls-10" cx="167.26" cy="200.42" r="0.46"/><circle class="cls-10" cx="165.42" cy="200.42" r="0.46"/><circle class="cls-10" cx="163.57" cy="200.42" r="0.46"/><circle class="cls-10" cx="161.72" cy="200.42" r="0.46"/><circle class="cls-10" cx="159.87" cy="200.42" r="0.46"/><circle class="cls-10" cx="158.03" cy="200.42" r="0.46"/><circle class="cls-10" cx="156.18" cy="200.42" r="0.46"/><circle class="cls-10" cx="154.33" cy="200.42" r="0.46"/><circle class="cls-10" cx="152.48" cy="200.42" r="0.46"/><circle class="cls-10" cx="150.64" cy="200.42" r="0.46"/><circle class="cls-10" cx="149.71" cy="198.66" r="0.46"/><circle class="cls-10" cx="151.56" cy="198.66" r="0.46"/><circle class="cls-10" cx="153.41" cy="198.66" r="0.46"/><circle class="cls-10" cx="155.26" cy="198.66" r="0.46"/><circle class="cls-10" cx="157.1" cy="198.66" r="0.46"/><circle class="cls-10" cx="158.95" cy="198.66" r="0.46"/><circle class="cls-10" cx="160.8" cy="198.66" r="0.46"/><circle class="cls-10" cx="162.64" cy="198.66" r="0.46"/><circle class="cls-10" cx="164.49" cy="198.66" r="0.46"/><circle class="cls-10" cx="166.34" cy="198.66" r="0.46"/><circle class="cls-10" cx="168.19" cy="198.66" r="0.46"/><circle class="cls-10" cx="170.03" cy="198.66" r="0.46"/><circle class="cls-10" cx="169.11" cy="196.89" r="0.46"/><circle class="cls-10" cx="167.26" cy="196.89" r="0.46"/><circle class="cls-10" cx="165.42" cy="196.89" r="0.46"/><circle class="cls-10" cx="163.57" cy="196.89" r="0.46"/><circle class="cls-10" cx="161.72" cy="196.89" r="0.46"/><circle class="cls-10" cx="159.87" cy="196.89" r="0.46"/><circle class="cls-10" cx="158.03" cy="196.89" r="0.46"/><circle class="cls-10" cx="156.18" cy="196.89" r="0.46"/><circle class="cls-10" cx="154.33" cy="196.89" r="0.46"/><circle class="cls-10" cx="152.48" cy="196.89" r="0.46"/><circle class="cls-10" cx="150.64" cy="196.89" r="0.46"/><circle class="cls-10" cx="149.71" cy="195.12" r="0.46"/><circle class="cls-10" cx="151.56" cy="195.12" r="0.46"/><circle class="cls-10" cx="153.41" cy="195.12" r="0.46"/><circle class="cls-10" cx="155.26" cy="195.12" r="0.46"/><circle class="cls-10" cx="157.1" cy="195.12" r="0.46"/><circle class="cls-10" cx="158.95" cy="195.12" r="0.46"/><circle class="cls-10" cx="160.8" cy="195.12" r="0.46"/><circle class="cls-10" cx="162.64" cy="195.12" r="0.46"/><circle class="cls-10" cx="164.49" cy="195.12" r="0.46"/><circle class="cls-10" cx="166.34" cy="195.12" r="0.46"/><circle class="cls-10" cx="168.19" cy="195.12" r="0.46"/><circle class="cls-10" cx="167.26" cy="193.36" r="0.46"/><circle class="cls-10" cx="165.42" cy="193.36" r="0.46"/><circle class="cls-10" cx="163.57" cy="193.36" r="0.46"/><circle class="cls-10" cx="161.72" cy="193.36" r="0.46"/><circle class="cls-10" cx="159.87" cy="193.36" r="0.46"/><circle class="cls-10" cx="158.03" cy="193.36" r="0.46"/><circle class="cls-10" cx="156.18" cy="193.36" r="0.46"/><circle class="cls-10" cx="154.33" cy="193.36" r="0.46"/><circle class="cls-10" cx="152.48" cy="193.36" r="0.46"/><circle class="cls-10" cx="150.64" cy="193.36" r="0.46"/><circle class="cls-10" cx="149.71" cy="191.59" r="0.46"/><circle class="cls-10" cx="151.56" cy="191.59" r="0.46"/><circle class="cls-10" cx="153.41" cy="191.59" r="0.46"/><circle class="cls-10" cx="155.26" cy="191.59" r="0.46"/><circle class="cls-10" cx="157.1" cy="191.59" r="0.46"/><circle class="cls-10" cx="158.95" cy="191.59" r="0.46"/><circle class="cls-10" cx="160.8" cy="191.59" r="0.46"/><circle class="cls-10" cx="162.64" cy="191.59" r="0.46"/><circle class="cls-10" cx="164.49" cy="191.59" r="0.46"/><circle class="cls-10" cx="166.34" cy="191.59" r="0.46"/><circle class="cls-10" cx="165.42" cy="189.83" r="0.46"/><circle class="cls-10" cx="163.57" cy="189.83" r="0.46"/><circle class="cls-10" cx="161.72" cy="189.83" r="0.46"/><circle class="cls-10" cx="159.87" cy="189.83" r="0.46"/><circle class="cls-10" cx="158.03" cy="189.83" r="0.46"/><circle class="cls-10" cx="156.18" cy="189.83" r="0.46"/><circle class="cls-10" cx="154.33" cy="189.83" r="0.46"/><circle class="cls-10" cx="152.48" cy="189.83" r="0.46"/><circle class="cls-10" cx="150.64" cy="189.83" r="0.46"/><circle class="cls-10" cx="149.71" cy="188.06" r="0.46"/><circle class="cls-10" cx="151.56" cy="188.06" r="0.46"/><circle class="cls-10" cx="153.41" cy="188.06" r="0.46"/><circle class="cls-10" cx="155.26" cy="188.06" r="0.46"/><circle class="cls-10" cx="157.1" cy="188.06" r="0.46"/><circle class="cls-10" cx="158.95" cy="188.06" r="0.46"/><circle class="cls-10" cx="160.8" cy="188.06" r="0.46"/><circle class="cls-10" cx="162.64" cy="188.06" r="0.46"/><circle class="cls-10" cx="164.49" cy="188.06" r="0.46"/><circle class="cls-10" cx="163.57" cy="186.29" r="0.46"/><circle class="cls-10" cx="161.72" cy="186.29" r="0.46"/><circle class="cls-10" cx="159.87" cy="186.29" r="0.46"/><circle class="cls-10" cx="158.03" cy="186.29" r="0.46"/><circle class="cls-10" cx="156.18" cy="186.29" r="0.46"/><circle class="cls-10" cx="154.33" cy="186.29" r="0.46"/><circle class="cls-10" cx="152.48" cy="186.29" r="0.46"/><circle class="cls-10" cx="150.64" cy="186.29" r="0.46"/><circle class="cls-10" cx="148.79" cy="186.29" r="0.46"/><circle class="cls-10" cx="149.71" cy="184.53" r="0.46"/><circle class="cls-10" cx="151.56" cy="184.53" r="0.46"/><circle class="cls-10" cx="153.41" cy="184.53" r="0.46"/><circle class="cls-10" cx="155.26" cy="184.53" r="0.46"/><circle class="cls-10" cx="157.1" cy="184.53" r="0.46"/><circle class="cls-10" cx="158.95" cy="184.53" r="0.46"/><circle class="cls-10" cx="160.8" cy="184.53" r="0.46"/><circle class="cls-10" cx="159.87" cy="182.76" r="0.46"/><circle class="cls-10" cx="158.03" cy="182.76" r="0.46"/><circle class="cls-10" cx="156.18" cy="182.76" r="0.46"/><circle class="cls-10" cx="154.33" cy="182.76" r="0.46"/><circle class="cls-10" cx="152.48" cy="182.76" r="0.46"/><circle class="cls-10" cx="150.64" cy="182.76" r="0.46"/><circle class="cls-10" cx="148.79" cy="182.76" r="0.46"/><circle class="cls-10" cx="147.87" cy="181" r="0.46"/><circle class="cls-10" cx="149.71" cy="181" r="0.46"/><circle class="cls-10" cx="151.56" cy="181" r="0.46"/><circle class="cls-10" cx="153.41" cy="181" r="0.46"/><circle class="cls-10" cx="155.26" cy="181" r="0.46"/><circle class="cls-10" cx="157.1" cy="181" r="0.46"/><circle class="cls-10" cx="158.95" cy="181" r="0.46"/><circle class="cls-10" cx="160.8" cy="181" r="0.46"/><circle class="cls-10" cx="159.87" cy="179.23" r="0.46"/><circle class="cls-10" cx="158.03" cy="179.23" r="0.46"/><circle class="cls-10" cx="156.18" cy="179.23" r="0.46"/><circle class="cls-10" cx="154.33" cy="179.23" r="0.46"/><circle class="cls-10" cx="152.48" cy="179.23" r="0.46"/><circle class="cls-10" cx="150.64" cy="179.23" r="0.46"/><circle class="cls-10" cx="148.79" cy="179.23" r="0.46"/><circle class="cls-10" cx="147.87" cy="177.46" r="0.46"/><circle class="cls-10" cx="149.71" cy="177.46" r="0.46"/><circle class="cls-10" cx="151.56" cy="177.46" r="0.46"/><circle class="cls-10" cx="153.41" cy="177.46" r="0.46"/><circle class="cls-10" cx="155.26" cy="177.46" r="0.46"/><circle class="cls-10" cx="157.1" cy="177.46" r="0.46"/><circle class="cls-10" cx="156.18" cy="175.7" r="0.46"/><circle class="cls-10" cx="154.33" cy="175.7" r="0.46"/><circle class="cls-10" cx="152.48" cy="175.7" r="0.46"/><circle class="cls-10" cx="150.64" cy="175.7" r="0.46"/><circle class="cls-10" cx="148.79" cy="175.7" r="0.46"/><circle class="cls-10" cx="147.87" cy="173.93" r="0.46"/><circle class="cls-10" cx="149.71" cy="173.93" r="0.46"/><circle class="cls-10" cx="151.56" cy="173.93" r="0.46"/><circle class="cls-10" cx="153.41" cy="173.93" r="0.46"/><circle class="cls-10" cx="155.26" cy="173.93" r="0.46"/><circle class="cls-10" cx="156.18" cy="172.17" r="0.46"/><circle class="cls-10" cx="154.33" cy="172.17" r="0.46"/><circle class="cls-10" cx="152.48" cy="172.17" r="0.46"/><circle class="cls-10" cx="150.64" cy="172.17" r="0.46"/><circle class="cls-10" cx="148.79" cy="172.17" r="0.46"/><circle class="cls-8" cx="185.61" cy="184.53" r="0.46"/><circle class="cls-8" cx="187.46" cy="184.53" r="0.46"/><circle class="cls-8" cx="189.3" cy="184.53" r="0.46"/><circle class="cls-8" cx="191.15" cy="184.53" r="0.46"/><circle class="cls-8" cx="193" cy="184.53" r="0.46"/><circle class="cls-8" cx="199.46" cy="182.76" r="0.46"/><circle class="cls-8" cx="197.62" cy="182.76" r="0.46"/><circle class="cls-8" cx="195.77" cy="182.76" r="0.46"/><circle class="cls-8" cx="193.92" cy="182.76" r="0.46"/><circle class="cls-8" cx="192.07" cy="182.76" r="0.46"/><circle class="cls-8" cx="190.23" cy="182.76" r="0.46"/><circle class="cls-8" cx="188.38" cy="182.76" r="0.46"/><circle class="cls-8" cx="186.53" cy="182.76" r="0.46"/><circle class="cls-8" cx="184.69" cy="182.76" r="0.46"/><circle class="cls-8" cx="185.61" cy="181" r="0.46"/><circle class="cls-8" cx="187.46" cy="181" r="0.46"/><circle class="cls-8" cx="189.3" cy="181" r="0.46"/><circle class="cls-8" cx="191.15" cy="181" r="0.46"/><circle class="cls-8" cx="193" cy="181" r="0.46"/><circle class="cls-8" cx="194.85" cy="181" r="0.46"/><circle class="cls-8" cx="196.69" cy="181" r="0.46"/><circle class="cls-8" cx="198.54" cy="181" r="0.46"/><circle class="cls-8" cx="200.39" cy="181" r="0.46"/><circle class="cls-8" cx="202.23" cy="181" r="0.46"/><circle class="cls-8" cx="204.08" cy="181" r="0.46"/><circle class="cls-8" cx="208.7" cy="179.23" r="0.46"/><circle class="cls-8" cx="206.85" cy="179.23" r="0.46"/><circle class="cls-8" cx="205.01" cy="179.23" r="0.46"/><circle class="cls-8" cx="203.16" cy="179.23" r="0.46"/><circle class="cls-8" cx="201.31" cy="179.23" r="0.46"/><circle class="cls-8" cx="199.46" cy="179.23" r="0.46"/><circle class="cls-8" cx="197.62" cy="179.23" r="0.46"/><circle class="cls-8" cx="195.77" cy="179.23" r="0.46"/><circle class="cls-8" cx="193.92" cy="179.23" r="0.46"/><circle class="cls-8" cx="192.07" cy="179.23" r="0.46"/><circle class="cls-8" cx="190.23" cy="179.23" r="0.46"/><circle class="cls-8" cx="188.38" cy="179.23" r="0.46"/><circle class="cls-8" cx="186.53" cy="179.23" r="0.46"/><circle class="cls-8" cx="189.3" cy="177.46" r="0.46"/><circle class="cls-8" cx="191.15" cy="177.46" r="0.46"/><circle class="cls-8" cx="193" cy="177.46" r="0.46"/><circle class="cls-8" cx="194.85" cy="177.46" r="0.46"/><circle class="cls-8" cx="196.69" cy="177.46" r="0.46"/><circle class="cls-8" cx="198.54" cy="177.46" r="0.46"/><circle class="cls-8" cx="200.39" cy="177.46" r="0.46"/><circle class="cls-8" cx="202.23" cy="177.46" r="0.46"/><circle class="cls-8" cx="204.08" cy="177.46" r="0.46"/><circle class="cls-8" cx="205.93" cy="177.46" r="0.46"/><circle class="cls-8" cx="207.78" cy="177.46" r="0.46"/><circle class="cls-8" cx="209.62" cy="177.46" r="0.46"/><circle class="cls-8" cx="211.47" cy="177.46" r="0.46"/><circle class="cls-8" cx="213.32" cy="177.46" r="0.46"/><circle class="cls-8" cx="216.09" cy="175.7" r="0.46"/><circle class="cls-8" cx="214.24" cy="175.7" r="0.46"/><circle class="cls-8" cx="212.4" cy="175.7" r="0.46"/><circle class="cls-8" cx="210.55" cy="175.7" r="0.46"/><circle class="cls-8" cx="208.7" cy="175.7" r="0.46"/><circle class="cls-8" cx="206.85" cy="175.7" r="0.46"/><circle class="cls-8" cx="205.01" cy="175.7" r="0.46"/><circle class="cls-8" cx="207.78" cy="173.93" r="0.46"/><circle class="cls-8" cx="209.62" cy="173.93" r="0.46"/><circle class="cls-8" cx="211.47" cy="173.93" r="0.46"/><circle class="cls-8" cx="213.32" cy="173.93" r="0.46"/><circle class="cls-8" cx="215.17" cy="173.93" r="0.46"/><circle class="cls-8" cx="217.01" cy="173.93" r="0.46"/><circle class="cls-8" cx="216.09" cy="172.17" r="0.46"/><circle class="cls-8" cx="214.24" cy="172.17" r="0.46"/><circle class="cls-8" cx="212.4" cy="172.17" r="0.46"/><circle class="cls-7" cx="168.52" cy="165.1" r="0.46"/><circle class="cls-7" cx="166.67" cy="165.1" r="0.46"/><circle class="cls-7" cx="164.82" cy="165.1" r="0.46"/><circle class="cls-7" cx="162.97" cy="165.1" r="0.46"/><circle class="cls-7" cx="162.05" cy="163.34" r="0.46"/><circle class="cls-7" cx="163.9" cy="163.34" r="0.46"/><circle class="cls-7" cx="165.75" cy="163.34" r="0.46"/><circle class="cls-7" cx="167.59" cy="163.34" r="0.46"/><circle class="cls-7" cx="169.44" cy="163.34" r="0.46"/><circle class="cls-7" cx="171.29" cy="163.34" r="0.46"/><circle class="cls-7" cx="172.21" cy="161.57" r="0.46"/><circle class="cls-7" cx="170.36" cy="161.57" r="0.46"/><circle class="cls-7" cx="168.52" cy="161.57" r="0.46"/><circle class="cls-7" cx="166.67" cy="161.57" r="0.46"/><circle class="cls-7" cx="164.82" cy="161.57" r="0.46"/><circle class="cls-7" cx="162.97" cy="161.57" r="0.46"/><circle class="cls-7" cx="161.13" cy="161.57" r="0.46"/><circle class="cls-7" cx="162.05" cy="159.8" r="0.46"/><circle class="cls-7" cx="163.9" cy="159.8" r="0.46"/><circle class="cls-7" cx="165.75" cy="159.8" r="0.46"/><circle class="cls-7" cx="167.59" cy="159.8" r="0.46"/><circle class="cls-7" cx="169.44" cy="159.8" r="0.46"/><circle class="cls-7" cx="171.29" cy="159.8" r="0.46"/><circle class="cls-7" cx="173.13" cy="159.8" r="0.46"/><circle class="cls-7" cx="172.21" cy="158.04" r="0.46"/><circle class="cls-7" cx="170.36" cy="158.04" r="0.46"/><circle class="cls-7" cx="168.52" cy="158.04" r="0.46"/><circle class="cls-7" cx="166.67" cy="158.04" r="0.46"/><circle class="cls-7" cx="164.82" cy="158.04" r="0.46"/><circle class="cls-7" cx="162.97" cy="158.04" r="0.46"/><circle class="cls-7" cx="161.13" cy="158.04" r="0.46"/><circle class="cls-7" cx="158.36" cy="156.27" r="0.46"/><circle class="cls-7" cx="160.2" cy="156.27" r="0.46"/><circle class="cls-7" cx="162.05" cy="156.27" r="0.46"/><circle class="cls-7" cx="163.9" cy="156.27" r="0.46"/><circle class="cls-7" cx="165.75" cy="156.27" r="0.46"/><circle class="cls-7" cx="167.59" cy="156.27" r="0.46"/><circle class="cls-7" cx="169.44" cy="156.27" r="0.46"/><circle class="cls-7" cx="171.29" cy="156.27" r="0.46"/><circle class="cls-7" cx="173.13" cy="156.27" r="0.46"/><circle class="cls-7" cx="172.21" cy="154.51" r="0.46"/><circle class="cls-7" cx="170.36" cy="154.51" r="0.46"/><circle class="cls-7" cx="168.52" cy="154.51" r="0.46"/><circle class="cls-7" cx="166.67" cy="154.51" r="0.46"/><circle class="cls-7" cx="164.82" cy="154.51" r="0.46"/><circle class="cls-7" cx="162.97" cy="154.51" r="0.46"/><circle class="cls-7" cx="161.13" cy="154.51" r="0.46"/><circle class="cls-7" cx="159.28" cy="154.51" r="0.46"/><circle class="cls-7" cx="157.43" cy="154.51" r="0.46"/><circle class="cls-7" cx="158.36" cy="152.74" r="0.46"/><circle class="cls-7" cx="160.2" cy="152.74" r="0.46"/><circle class="cls-7" cx="162.05" cy="152.74" r="0.46"/><circle class="cls-7" cx="163.9" cy="152.74" r="0.46"/><circle class="cls-7" cx="165.75" cy="152.74" r="0.46"/><circle class="cls-7" cx="167.59" cy="152.74" r="0.46"/><circle class="cls-7" cx="169.44" cy="152.74" r="0.46"/><circle class="cls-7" cx="171.29" cy="152.74" r="0.46"/><circle class="cls-7" cx="170.36" cy="150.97" r="0.46"/><circle class="cls-7" cx="168.52" cy="150.97" r="0.46"/><circle class="cls-7" cx="166.67" cy="150.97" r="0.46"/><circle class="cls-7" cx="164.82" cy="150.97" r="0.46"/><circle class="cls-7" cx="162.97" cy="150.97" r="0.46"/><circle class="cls-7" cx="161.13" cy="150.97" r="0.46"/><circle class="cls-7" cx="159.28" cy="150.97" r="0.46"/><circle class="cls-7" cx="157.43" cy="150.97" r="0.46"/><circle class="cls-7" cx="158.36" cy="149.21" r="0.46"/><circle class="cls-7" cx="160.2" cy="149.21" r="0.46"/><circle class="cls-7" cx="162.05" cy="149.21" r="0.46"/><circle class="cls-7" cx="163.9" cy="149.21" r="0.46"/><circle class="cls-7" cx="165.75" cy="149.21" r="0.46"/><circle class="cls-7" cx="167.59" cy="149.21" r="0.46"/><circle class="cls-7" cx="164.82" cy="147.44" r="0.46"/><circle class="cls-7" cx="162.97" cy="147.44" r="0.46"/><circle class="cls-7" cx="161.13" cy="147.44" r="0.46"/><circle class="cls-7" cx="159.28" cy="147.44" r="0.46"/><circle class="cls-7" cx="160.2" cy="145.68" r="0.46"/><circle class="cls-7" cx="162.05" cy="145.68" r="0.46"/><circle class="cls-7" cx="163.9" cy="145.68" r="0.46"/><circle class="cls-7" cx="162.97" cy="143.91" r="0.46"/><circle class="cls-7" cx="161.13" cy="143.91" r="0.46"/><circle class="cls-7" cx="160.2" cy="142.14" r="0.46"/><circle class="cls-7" cx="162.05" cy="142.14" r="0.46"/><circle class="cls-7" cx="162.97" cy="140.38" r="0.46"/><circle class="cls-7" cx="161.13" cy="140.38" r="0.46"/><circle class="cls-7" cx="160.2" cy="138.61" r="0.46"/><circle class="cls-7" cx="162.05" cy="138.61" r="0.46"/><circle class="cls-7" cx="161.13" cy="136.85" r="0.46"/><circle class="cls-7" cx="159.28" cy="136.85" r="0.46"/><circle class="cls-7" cx="157.43" cy="136.85" r="0.46"/><circle class="cls-7" cx="156.51" cy="135.08" r="0.46"/><circle class="cls-7" cx="158.36" cy="135.08" r="0.46"/><circle class="cls-8" cx="240.28" cy="180.08" r="0.46"/><circle class="cls-8" cx="242.13" cy="180.08" r="0.46"/><circle class="cls-8" cx="243.97" cy="180.08" r="0.46"/><circle class="cls-8" cx="248.59" cy="178.32" r="0.46"/><circle class="cls-8" cx="246.74" cy="178.32" r="0.46"/><circle class="cls-8" cx="244.9" cy="178.32" r="0.46"/><circle class="cls-8" cx="243.05" cy="178.32" r="0.46"/><circle class="cls-8" cx="241.2" cy="178.32" r="0.46"/><circle class="cls-8" cx="239.36" cy="178.32" r="0.46"/><circle class="cls-8" cx="238.43" cy="176.55" r="0.46"/><circle class="cls-8" cx="240.28" cy="176.55" r="0.46"/><circle class="cls-8" cx="242.13" cy="176.55" r="0.46"/><circle class="cls-8" cx="243.97" cy="176.55" r="0.46"/><circle class="cls-8" cx="245.82" cy="176.55" r="0.46"/><circle class="cls-8" cx="247.67" cy="176.55" r="0.46"/><circle class="cls-8" cx="248.59" cy="174.79" r="0.46"/><circle class="cls-8" cx="246.74" cy="174.79" r="0.46"/><circle class="cls-8" cx="244.9" cy="174.79" r="0.46"/><circle class="cls-8" cx="243.05" cy="174.79" r="0.46"/><circle class="cls-8" cx="241.2" cy="174.79" r="0.46"/><circle class="cls-8" cx="239.36" cy="174.79" r="0.46"/><circle class="cls-8" cx="238.43" cy="173.02" r="0.46"/><circle class="cls-8" cx="240.28" cy="173.02" r="0.46"/><circle class="cls-8" cx="242.13" cy="173.02" r="0.46"/><circle class="cls-8" cx="243.97" cy="173.02" r="0.46"/><circle class="cls-8" cx="245.82" cy="173.02" r="0.46"/><circle class="cls-8" cx="247.67" cy="173.02" r="0.46"/><circle class="cls-8" cx="246.74" cy="171.25" r="0.46"/><circle class="cls-8" cx="244.9" cy="171.25" r="0.46"/><circle class="cls-8" cx="243.05" cy="171.25" r="0.46"/><circle class="cls-8" cx="241.2" cy="171.25" r="0.46"/><circle class="cls-8" cx="239.36" cy="171.25" r="0.46"/><circle class="cls-8" cx="238.43" cy="169.49" r="0.46"/><circle class="cls-8" cx="240.28" cy="169.49" r="0.46"/><circle class="cls-8" cx="242.13" cy="169.49" r="0.46"/><circle class="cls-8" cx="243.97" cy="169.49" r="0.46"/><circle class="cls-8" cx="245.82" cy="169.49" r="0.46"/><circle class="cls-8" cx="247.67" cy="169.49" r="0.46"/><circle class="cls-8" cx="248.59" cy="167.72" r="0.46"/><circle class="cls-8" cx="246.74" cy="167.72" r="0.46"/><circle class="cls-8" cx="244.9" cy="167.72" r="0.46"/><circle class="cls-8" cx="243.05" cy="167.72" r="0.46"/><circle class="cls-8" cx="241.2" cy="167.72" r="0.46"/><circle class="cls-8" cx="239.36" cy="167.72" r="0.46"/><circle class="cls-8" cx="238.43" cy="165.96" r="0.46"/><circle class="cls-8" cx="240.28" cy="165.96" r="0.46"/><circle class="cls-8" cx="242.13" cy="165.96" r="0.46"/><circle class="cls-8" cx="243.97" cy="165.96" r="0.46"/><circle class="cls-8" cx="245.82" cy="165.96" r="0.46"/><circle class="cls-8" cx="247.67" cy="165.96" r="0.46"/><circle class="cls-8" cx="248.59" cy="164.19" r="0.46"/><circle class="cls-8" cx="246.74" cy="164.19" r="0.46"/><circle class="cls-8" cx="244.9" cy="164.19" r="0.46"/><circle class="cls-8" cx="243.05" cy="164.19" r="0.46"/><circle class="cls-8" cx="241.2" cy="164.19" r="0.46"/><circle class="cls-8" cx="239.36" cy="164.19" r="0.46"/><circle class="cls-8" cx="238.43" cy="162.42" r="0.46"/><circle class="cls-8" cx="240.28" cy="162.42" r="0.46"/><circle class="cls-8" cx="242.13" cy="162.42" r="0.46"/><circle class="cls-8" cx="243.97" cy="162.42" r="0.46"/><circle class="cls-8" cx="245.82" cy="162.42" r="0.46"/><circle class="cls-8" cx="247.67" cy="162.42" r="0.46"/><circle class="cls-8" cx="249.52" cy="162.42" r="0.46"/><circle class="cls-8" cx="250.44" cy="160.66" r="0.46"/><circle class="cls-8" cx="248.59" cy="160.66" r="0.46"/><circle class="cls-8" cx="246.74" cy="160.66" r="0.46"/><circle class="cls-8" cx="244.9" cy="160.66" r="0.46"/><circle class="cls-8" cx="243.05" cy="160.66" r="0.46"/><circle class="cls-8" cx="241.2" cy="160.66" r="0.46"/><circle class="cls-8" cx="239.36" cy="160.66" r="0.46"/><circle class="cls-8" cx="240.28" cy="158.89" r="0.46"/><circle class="cls-8" cx="242.13" cy="158.89" r="0.46"/><circle class="cls-8" cx="243.97" cy="158.89" r="0.46"/><circle class="cls-8" cx="245.82" cy="158.89" r="0.46"/><circle class="cls-8" cx="247.67" cy="158.89" r="0.46"/><circle class="cls-8" cx="249.52" cy="158.89" r="0.46"/><circle class="cls-8" cx="251.36" cy="158.89" r="0.46"/><circle class="cls-8" cx="252.29" cy="157.13" r="0.46"/><circle class="cls-8" cx="250.44" cy="157.13" r="0.46"/><circle class="cls-8" cx="248.59" cy="157.13" r="0.46"/><circle class="cls-8" cx="246.74" cy="157.13" r="0.46"/><circle class="cls-8" cx="244.9" cy="157.13" r="0.46"/><circle class="cls-8" cx="243.05" cy="157.13" r="0.46"/><circle class="cls-8" cx="241.2" cy="157.13" r="0.46"/><circle class="cls-8" cx="242.13" cy="155.36" r="0.46"/><circle class="cls-8" cx="243.97" cy="155.36" r="0.46"/><circle class="cls-8" cx="245.82" cy="155.36" r="0.46"/><circle class="cls-8" cx="247.67" cy="155.36" r="0.46"/><circle class="cls-8" cx="249.52" cy="155.36" r="0.46"/><circle class="cls-8" cx="251.36" cy="155.36" r="0.46"/><circle class="cls-8" cx="253.21" cy="155.36" r="0.46"/><circle class="cls-8" cx="252.29" cy="153.59" r="0.46"/><circle class="cls-8" cx="250.44" cy="153.59" r="0.46"/><circle class="cls-8" cx="248.59" cy="153.59" r="0.46"/><circle class="cls-8" cx="246.74" cy="153.59" r="0.46"/><circle class="cls-8" cx="244.9" cy="153.59" r="0.46"/><circle class="cls-8" cx="243.05" cy="153.59" r="0.46"/><circle class="cls-8" cx="245.82" cy="151.83" r="0.46"/><circle class="cls-8" cx="247.67" cy="151.83" r="0.46"/><circle class="cls-8" cx="249.52" cy="151.83" r="0.46"/><circle class="cls-8" cx="251.36" cy="151.83" r="0.46"/><circle class="cls-8" cx="253.21" cy="151.83" r="0.46"/><circle class="cls-8" cx="254.13" cy="150.06" r="0.46"/><circle class="cls-8" cx="252.29" cy="150.06" r="0.46"/><circle class="cls-8" cx="250.44" cy="150.06" r="0.46"/><circle class="cls-8" cx="248.59" cy="150.06" r="0.46"/><circle class="cls-8" cx="246.74" cy="150.06" r="0.46"/><circle class="cls-8" cx="247.67" cy="148.3" r="0.46"/><circle class="cls-8" cx="249.52" cy="148.3" r="0.46"/><circle class="cls-8" cx="251.36" cy="148.3" r="0.46"/><circle class="cls-8" cx="253.21" cy="148.3" r="0.46"/><circle class="cls-8" cx="254.13" cy="146.53" r="0.46"/><circle class="cls-8" cx="252.29" cy="146.53" r="0.46"/><circle class="cls-8" cx="250.44" cy="146.53" r="0.46"/><circle class="cls-8" cx="248.59" cy="146.53" r="0.46"/><circle class="cls-8" cx="249.52" cy="144.76" r="0.46"/><circle class="cls-8" cx="251.36" cy="144.76" r="0.46"/><circle class="cls-8" cx="253.21" cy="144.76" r="0.46"/><circle class="cls-8" cx="255.06" cy="144.76" r="0.46"/><circle class="cls-8" cx="254.13" cy="143" r="0.46"/><circle class="cls-8" cx="252.29" cy="143" r="0.46"/><circle class="cls-8" cx="253.21" cy="141.23" r="0.46"/><circle class="cls-8" cx="255.06" cy="141.23" r="0.46"/><circle class="cls-8" cx="254.13" cy="139.46" r="0.46"/><circle class="cls-8" cx="255.06" cy="137.7" r="0.46"/></g></g></svg>