<?xml version="1.0" encoding="UTF-8"?>
<svg width="424px" height="300px" viewBox="0 0 424 300" version="1.1" xmlns="http://www.w3.org/2000/svg" xmlns:xlink="http://www.w3.org/1999/xlink">
    <!-- Generator: Sketch 52.6 (67491) - http://www.bohemiancoding.com/sketch -->
    <title>app-ecosystem</title>
    <desc>Created with Sketch.</desc>
    <defs>
        <linearGradient x1="10.8549605%" y1="101.74029%" x2="89.1461511%" y2="-1.73567835%" id="linearGradient-1">
            <stop stop-color="#808080" stop-opacity="0.25" offset="0%"></stop>
            <stop stop-color="#808080" stop-opacity="0.12" offset="54%"></stop>
            <stop stop-color="#808080" stop-opacity="0.1" offset="100%"></stop>
        </linearGradient>
        <linearGradient x1="49.8838081%" y1="100%" x2="49.8838081%" y2="0.0522411741%" id="linearGradient-2">
            <stop stop-color="#808080" stop-opacity="0.25" offset="0%"></stop>
            <stop stop-color="#808080" stop-opacity="0.12" offset="54%"></stop>
            <stop stop-color="#808080" stop-opacity="0.1" offset="100%"></stop>
        </linearGradient>
        <linearGradient x1="50.0259293%" y1="100%" x2="50.0259293%" y2="0.000865642094%" id="linearGradient-3">
            <stop stop-color="#808080" stop-opacity="0.25" offset="0%"></stop>
            <stop stop-color="#808080" stop-opacity="0.12" offset="54%"></stop>
            <stop stop-color="#808080" stop-opacity="0.1" offset="100%"></stop>
        </linearGradient>
    </defs>
    <g id="app-ecosystem" stroke="none" stroke-width="1" fill="none" fill-rule="evenodd">
        <rect fill="#F6F6F6" x="0" y="0" width="424" height="300"></rect>
        <g transform="translate(36.000000, 15.000000)">
            <path d="M81.6264635,216.765021 C86.3415016,217.074964 91.3246572,218.708862 95.6145375,216.730583 C96.7214799,216.221664 97.7250054,215.486984 98.8740805,215.077553 C101.513123,214.136245 104.412622,215.050768 107.070816,215.930853 C127.881258,222.812132 149.272342,227.797931 170.982372,230.827255 C175.456104,231.450967 180.12518,231.975192 184.388248,230.521138 C187.506072,229.461209 190.206398,227.414054 193.29358,226.266117 C198.34185,224.394979 203.918694,225.091394 209.292535,225.386031 C223.368022,226.152355 237.450418,224.009521 250.659238,219.091508 L251.352514,218.827482 C258.024058,216.253452 265.549641,217.26376 271.304287,221.506003 C273.548779,223.150654 275.929611,224.601037 278.420892,225.84138 C286.798099,230.061141 290.293492,240.174009 286.307378,248.658549 L286.215452,248.857525 C284.024548,253.629118 282.197519,258.970853 277.903808,262.001408 C273.855234,264.859772 268.542677,264.978393 263.586333,264.989872 L233.162655,265.062575 C230.006529,265.062575 226.8121,265.062575 223.7479,264.320242 C220.99395,263.642959 218.431513,262.372575 215.892057,261.109844 L202.279347,254.363798 C196.798259,251.643186 190.788596,248.842219 184.790424,250.093471 C178.662024,251.371508 174.245745,256.518094 168.906376,259.76293 C160.621545,264.802376 149.605745,265.001351 141.144723,260.256543 C137.092318,257.983627 133.572318,254.669915 129.152209,253.242646 C121.851752,250.881721 114.095495,254.149516 106.584374,255.714538 C91.9681393,258.760398 74.7511643,254.593385 63.5515125,244.518321 C49.12679,231.538976 66.0641567,215.747183 81.6264635,216.765021 Z" id="Path" fill="#F0E4E4"></path>
            <path d="M26.3521219,238.43808 C26.3521219,238.43808 15.2022633,200.640327 28.4434385,172.791366 C34.0011317,161.109189 35.8473123,147.995917 33.2772144,135.318862 C32.0498892,129.301858 30.2728742,123.409957 27.9684875,117.717155" id="Path" stroke="#535461" stroke-width="2"></path>
            <path d="M36.2035256,100.142233 C36.2035256,104.776074 27.8037867,118.214595 27.8037867,118.214595 C27.8037867,118.214595 19.4040479,104.776074 19.4040479,100.142233 C19.4040479,95.5077786 23.1647391,91.7508108 27.8037867,91.7508108 C32.4428344,91.7508108 36.2035256,95.5077786 36.2035256,100.142233 Z" id="Path" fill="#009DA5"></path>
            <path d="M50.0881828,125.81394 C47.5678781,129.705448 33.2044396,136.424708 33.2044396,136.424708 C33.2044396,136.424708 33.4648966,120.583172 35.9852013,116.691664 C37.6163539,114.174904 40.4676076,112.718669 43.4649228,112.871509 C46.4622379,113.02435 49.150251,114.763046 50.5164135,117.432647 C51.882576,120.102249 51.7193354,123.29718 50.0881828,125.81394 Z" id="Path" fill="#009DA5"></path>
            <path d="M49.4830033,169.680455 C45.3425027,171.765875 29.5657018,170.327127 29.5657018,170.327127 C29.5657018,170.327127 37.7969097,156.781465 41.9374102,154.696046 C44.6203096,153.316375 47.8378272,153.480359 50.3662518,155.12563 C52.8946763,156.770901 54.3454467,159.644618 54.1667946,162.653827 C53.9881426,165.663037 52.2075228,168.345291 49.5021545,169.680455 L49.4830033,169.680455 Z" id="Path" fill="#009DA5"></path>
            <path d="M41.5428945,202.771664 C37.8122307,205.526714 22.0086181,206.774139 22.0086181,206.774139 C22.0086181,206.774139 27.8305985,192.034623 31.557432,189.279573 C35.2880586,186.590124 40.4901603,187.399133 43.2259243,191.094207 C45.9616883,194.789281 45.2130597,199.99538 41.5467247,202.771664 L41.5428945,202.771664 Z" id="Path" fill="#009DA5"></path>
            <path d="M15.5699674,137.3201 C18.8984548,140.54963 34.3994777,143.893954 34.3994777,143.893954 C34.3994777,143.893954 30.6036997,128.511593 27.2752122,125.282063 C23.9430866,122.082696 18.6497729,122.173497 15.4295609,125.485263 C12.2093489,128.797029 12.2720906,134.08551 15.5699674,137.3201 Z" id="Path" fill="#009DA5"></path>
            <path d="M6.77188248,176.150996 C10.912383,178.236415 26.6891839,176.797667 26.6891839,176.797667 C26.6891839,176.797667 18.4579761,163.252006 14.3174755,161.166586 C10.2047526,159.267241 5.32530592,160.968794 3.28910429,165.012384 C1.25290266,169.055973 2.79384012,173.984195 6.77188248,176.150996 Z" id="Path" fill="#009DA5"></path>
            <path d="M3.40509249,215.035462 C7.13575626,217.790512 22.9393689,219.037937 22.9393689,219.037937 C22.9393689,219.037937 17.1173885,204.298421 13.390555,201.543371 C9.65992836,198.853922 4.45782661,199.662931 1.7220626,203.358005 C-1.01370141,207.053079 -0.26507278,212.259178 3.40126224,215.035462 L3.40509249,215.035462 Z" id="Path" fill="#009DA5"></path>
            <path d="M36.2035256,100.142233 C36.2035256,104.776074 27.8037867,118.214595 27.8037867,118.214595 C27.8037867,118.214595 19.4040479,104.776074 19.4040479,100.142233 C19.4040479,95.5077786 23.1647391,91.7508108 27.8037867,91.7508108 C32.4428344,91.7508108 36.2035256,95.5077786 36.2035256,100.142233 Z" id="Path" fill="#000000" opacity="0.25"></path>
            <path d="M50.0881828,125.81394 C47.5678781,129.705448 33.2044396,136.424708 33.2044396,136.424708 C33.2044396,136.424708 33.4648966,120.583172 35.9852013,116.691664 C37.6163539,114.174904 40.4676076,112.718669 43.4649228,112.871509 C46.4622379,113.02435 49.150251,114.763046 50.5164135,117.432647 C51.882576,120.102249 51.7193354,123.29718 50.0881828,125.81394 Z" id="Path" fill="#000000" opacity="0.25"></path>
            <path d="M49.4830033,169.680455 C45.3425027,171.765875 29.5657018,170.327127 29.5657018,170.327127 C29.5657018,170.327127 37.7969097,156.781465 41.9374102,154.696046 C44.6203096,153.316375 47.8378272,153.480359 50.3662518,155.12563 C52.8946763,156.770901 54.3454467,159.644618 54.1667946,162.653827 C53.9881426,165.663037 52.2075228,168.345291 49.5021545,169.680455 L49.4830033,169.680455 Z" id="Path" fill="#000000" opacity="0.25"></path>
            <path d="M41.5428945,202.771664 C37.8122307,205.526714 22.0086181,206.774139 22.0086181,206.774139 C22.0086181,206.774139 27.8305985,192.034623 31.557432,189.279573 C35.2880586,186.590124 40.4901603,187.399133 43.2259243,191.094207 C45.9616883,194.789281 45.2130597,199.99538 41.5467247,202.771664 L41.5428945,202.771664 Z" id="Path" fill="#000000" opacity="0.25"></path>
            <path d="M15.5699674,137.3201 C18.8984548,140.54963 34.3994777,143.893954 34.3994777,143.893954 C34.3994777,143.893954 30.6036997,128.511593 27.2752122,125.282063 C23.9430866,122.082696 18.6497729,122.173497 15.4295609,125.485263 C12.2093489,128.797029 12.2720906,134.08551 15.5699674,137.3201 Z" id="Path" fill="#000000" opacity="0.25"></path>
            <path d="M6.77188248,176.150996 C10.912383,178.236415 26.6891839,176.797667 26.6891839,176.797667 C26.6891839,176.797667 18.4579761,163.252006 14.3174755,161.166586 C10.2047526,159.267241 5.32530592,160.968794 3.28910429,165.012384 C1.25290266,169.055973 2.79384012,173.984195 6.77188248,176.150996 Z" id="Path" fill="#000000" opacity="0.25"></path>
            <path d="M3.40509249,215.035462 C7.13575626,217.790512 22.9393689,219.037937 22.9393689,219.037937 C22.9393689,219.037937 17.1173885,204.298421 13.390555,201.543371 C9.65992836,198.853922 4.45782661,199.662931 1.7220626,203.358005 C-1.01370141,207.053079 -0.26507278,212.259178 3.40126224,215.035462 L3.40509249,215.035462 Z" id="Path" fill="#000000" opacity="0.25"></path>
            <path d="M229.631164,133.6467 C228.213972,122.549972 232.653232,111.127994 230.014189,100.26468 C227.984157,91.8732575 221.970664,84.8670128 219.994255,76.4602845 C217.090925,64.0013371 223.732579,51.2056615 232.208923,41.6395164 C238.038564,35.0465292 245.354342,29.0619488 254.075822,27.8642674 C259.461153,27.0989758 264.995865,28.2813514 269.96753,30.4739118 C280.187587,35.0514402 288.041276,43.6694695 291.646746,54.2630014 C292.795822,57.6685491 293.458455,61.2309815 294.871817,64.5332148 C297.304026,70.2231579 301.766268,74.8149075 304.543199,80.3479659 C308.285525,87.9267927 308.655444,96.7307534 305.562046,104.59623 C302.348466,112.608834 295.603395,119.312788 294.60753,127.887881 C293.883613,134.06761 296.204744,140.836615 293.190337,146.281664 C290.915169,150.39128 286.230773,152.46522 281.795343,154.018762 C271.476649,157.615633 257.051926,163.431849 246.71025,157.894964 C237.663199,153.054495 230.94111,143.890128 229.631164,133.6467 Z" id="Path" fill="#009DA5"></path>
            <path d="M258.584026,141.53303 C258.584026,141.53303 273.774799,135.410697 275.689924,131.966885 C277.605049,128.523073 280.286224,108.242845 280.286224,108.242845" id="Path" stroke="#333333" stroke-width="3"></path>
            <path d="M258.438477,235.288905 L258.438477,124.887937" id="Path" stroke="#333333" stroke-width="3"></path>
            <g id="Group" opacity="0.5" transform="translate(107.630033, 0.000000)" fill="url(#linearGradient-1)">
                <path d="M132.679869,0 L5.32404788,0.309943101 C3.93640185,0.312984279 2.60679986,0.866597094 1.62774088,1.84899233 C0.648681904,2.83138757 0.100365872,4.16209201 0.103416757,5.54836415 L0.681784548,243.496657 C0.684827594,244.883594 1.23951511,246.212461 2.22371302,247.190661 C3.20791092,248.16886 4.54091867,248.716184 5.92922742,248.712119 L133.285049,248.402176 C134.672695,248.399135 136.002297,247.845522 136.981356,246.863127 C137.960415,245.880732 138.508731,244.550027 138.50568,243.163755 L137.931143,5.2154623 C137.928101,3.82786025 137.372888,2.49841156 136.387861,1.52010164 C135.402833,0.541791718 134.068841,-0.00508240863 132.679869,0 Z" id="Path"></path>
            </g>
            <path d="M123.530059,3.40152689 L230.347887,3.40002812 C237.881051,3.39994365 243.987956,9.50671118 243.98804,17.0398752 C243.98804,17.0399755 243.98804,17.0400758 243.98804,17.0401761 L243.98511,231.571513 C243.985029,239.104559 237.87831,245.211281 230.345263,245.211365 L123.527435,245.213165 C115.994271,245.213249 109.887367,239.106482 109.887282,231.573318 C109.887282,231.573217 109.887282,231.573117 109.887282,231.573017 L109.890212,17.0416798 C109.890294,9.50863339 115.997013,3.40191232 123.530059,3.40182785 Z" id="Rectangle" fill="#535461" transform="translate(176.937661, 124.306596) rotate(-0.140000) translate(-176.937661, -124.306596) "></path>
            <path d="M240.88827,233.907553 C240.894625,236.716748 238.621331,238.99978 235.809358,239.008222 L118.6037,239.29138 C115.791721,239.297729 113.506426,237.026685 113.497976,234.217496 L113.417541,199.875036 L112.969402,14.7050782 C112.963046,11.895884 115.236341,9.61285122 118.048313,9.60440967 L142.561915,9.5470128 C143.37722,14.8374403 147.928564,18.7460968 153.286616,18.7572973 L199.602002,18.64633 C204.975467,18.6275718 209.530125,14.6919124 210.322873,9.38247511 L235.219499,9.32125178 C238.031478,9.31490255 240.316773,11.5859464 240.325223,14.3951351 L240.804004,199.875036 L240.88827,233.907553 Z" id="Path" fill="#FFFFFF"></path>
            <path d="M240.88827,233.907553 C240.894625,236.716748 238.621331,238.99978 235.809358,239.008222 L118.6037,239.29138 C115.791721,239.297729 113.506426,237.026685 113.497976,234.217496 L113.417541,199.875036 L240.804004,199.875036 L240.88827,233.907553 Z" id="Path" fill="#E6E6E6"></path>
            <path d="M161.441157,12.3749477 L189.459615,12.3731997 C189.974524,12.3731676 190.391966,12.7905577 190.391998,13.3054665 C190.391998,13.3055056 190.391998,13.3055446 190.391998,13.3055836 L190.391998,13.3055836 C190.391965,13.8205761 189.974489,14.2380518 189.459497,14.2380839 L161.441039,14.2398319 C160.92613,14.239864 160.508688,13.8224739 160.508656,13.307565 C160.508656,13.307526 160.508656,13.307487 160.508656,13.307448 L160.508656,13.307448 C160.508689,12.7924555 160.926165,12.3749798 161.441157,12.3749477 Z" id="Rectangle" fill="#FFFFFF" transform="translate(175.450327, 13.306516) rotate(-0.860000) translate(-175.450327, -13.306516) "></path>
            <ellipse id="Oval" fill="#FFFFFF" transform="translate(196.732645, 12.796099) rotate(-0.860000) translate(-196.732645, -12.796099) " cx="196.732645" cy="12.7960987" rx="1.12226308" ry="1.12115245"></ellipse>
            <path d="M273.679042,133.6467 C272.26185,122.549972 276.70111,111.127994 274.062067,100.26468 C272.032035,91.8732575 266.018542,84.8670128 264.042133,76.4602845 C261.138803,64.0013371 267.780457,51.2056615 276.256801,41.6395164 C282.086442,35.0465292 289.40222,29.0619488 298.1237,27.8642674 C303.509032,27.0989758 309.043743,28.2813514 314.015408,30.4739118 C324.235465,35.0514402 332.089154,43.6694695 335.694625,54.2630014 C336.8437,57.6685491 337.506333,61.2309815 338.919695,64.5332148 C341.351904,70.2231579 345.814146,74.8149075 348.591077,80.3479659 C352.334164,87.932707 352.699951,96.7431886 349.598433,104.611536 C346.384853,112.624139 339.639782,119.328094 338.643917,127.903186 C337.92,134.082916 340.241132,140.85192 337.226725,146.29697 C334.951556,150.406586 330.26716,152.480526 325.83173,154.034068 C315.524527,157.615633 301.099804,163.431849 290.758128,157.894964 C281.711077,153.054495 274.988988,143.890128 273.679042,133.6467 Z" id="Path" fill="#009DA5"></path>
            <path d="M273.679042,133.6467 C272.26185,122.549972 276.70111,111.127994 274.062067,100.26468 C272.032035,91.8732575 266.018542,84.8670128 264.042133,76.4602845 C261.138803,64.0013371 267.780457,51.2056615 276.256801,41.6395164 C282.086442,35.0465292 289.40222,29.0619488 298.1237,27.8642674 C303.509032,27.0989758 309.043743,28.2813514 314.015408,30.4739118 C324.235465,35.0514402 332.089154,43.6694695 335.694625,54.2630014 C336.8437,57.6685491 337.506333,61.2309815 338.919695,64.5332148 C341.351904,70.2231579 345.814146,74.8149075 348.591077,80.3479659 C352.334164,87.932707 352.699951,96.7431886 349.598433,104.611536 C346.384853,112.624139 339.639782,119.328094 338.643917,127.903186 C337.92,134.082916 340.241132,140.85192 337.226725,146.29697 C334.951556,150.406586 330.26716,152.480526 325.83173,154.034068 C315.524527,157.615633 301.099804,163.431849 290.758128,157.894964 C281.711077,153.054495 274.988988,143.890128 273.679042,133.6467 Z" id="Path" fill="#000000" opacity="0.2"></path>
            <path d="M302.631904,141.53303 C302.631904,141.53303 317.822677,135.410697 319.737802,131.966885 C321.652927,128.523073 324.334102,108.242845 324.334102,108.242845" id="Path" stroke="#333333" stroke-width="3"></path>
            <path d="M302.486355,235.288905 L302.486355,124.887937" id="Path" stroke="#333333" stroke-width="3"></path>
            <path d="M54.1788901,253.828094 C54.1788901,253.828094 49.3068118,237.301622 55.0904897,225.129659 C57.5500144,220.044149 58.2919078,214.298825 57.2047878,208.756245 C56.6677831,206.128334 55.8908231,203.555121 54.8836561,201.06889" id="Path" stroke="#535461" stroke-width="2"></path>
            <path d="M58.4840914,193.393016 C58.4840914,195.417212 54.8147116,201.290825 54.8147116,201.290825 C54.8147116,201.290825 51.1453319,195.417212 51.1453319,193.393016 C51.1453319,191.367423 52.7890266,189.725356 54.8166268,189.725356 C56.8442269,189.725356 58.4879217,191.367423 58.4879217,193.393016 L58.4840914,193.393016 Z" id="Path" fill="#009DA5"></path>
            <path d="M64.5550381,204.612191 C63.451926,206.311138 57.1779761,209.249858 57.1779761,209.249858 C57.1779761,209.249858 57.2928836,202.327795 58.3921654,200.625021 C59.1051105,199.52522 60.3512173,198.888937 61.6610896,198.955854 C62.9709618,199.02277 64.1455987,199.78272 64.7425259,200.949438 C65.3394531,202.116156 65.2679831,203.512389 64.5550381,204.612191 Z" id="Path" fill="#009DA5"></path>
            <path d="M64.2869206,223.782745 C62.4752122,224.693442 55.5731012,224.065903 55.5731012,224.065903 C55.5731012,224.065903 59.1697062,218.146373 60.9814146,217.235676 C62.152095,216.645788 63.5488613,216.724642 64.6455651,217.442534 C65.7422689,218.160426 66.3722948,219.40829 66.2983181,220.716069 C66.2243415,222.023848 65.457601,223.192858 64.2869206,223.782745 Z" id="Path" fill="#009DA5"></path>
            <path d="M60.8167138,238.24293 C59.1850272,239.448265 52.279086,239.991622 52.279086,239.991622 C52.279086,239.991622 54.8223721,233.551693 56.4540588,232.338706 C58.0839658,231.134128 60.3827375,231.477617 61.588509,233.105911 C62.7942806,234.734204 62.450451,237.0307 60.8205441,238.235277 L60.8167138,238.24293 Z" id="Path" fill="#009DA5"></path>
            <path d="M49.4523613,209.643983 C50.9078564,211.055946 57.6797388,212.517653 57.6797388,212.517653 C57.6797388,212.517653 56.0212405,205.794566 54.5657454,204.382603 C53.624959,203.470089 52.2683337,203.128298 51.0068971,203.48598 C49.7454606,203.843661 48.770855,204.846475 48.450205,206.11667 C48.1295549,207.386865 48.5115748,208.731469 49.4523613,209.643983 Z" id="Path" fill="#009DA5"></path>
            <path d="M45.622111,226.602845 C47.4338194,227.513542 54.3359304,226.886003 54.3359304,226.886003 C54.3359304,226.886003 50.7393254,220.966472 48.927617,220.055775 C47.1179019,219.143889 44.9108752,219.87027 43.998085,221.678194 C43.0852947,223.486117 43.8123959,225.690958 45.622111,226.602845 Z" id="Path" fill="#009DA5"></path>
            <path d="M44.1512949,243.603798 C45.7829815,244.809132 52.6889227,245.352489 52.6889227,245.352489 C52.6889227,245.352489 50.1456366,238.91256 48.5139499,237.699573 C46.8840429,236.494995 44.5852711,236.838485 43.3794995,238.466778 C42.1737278,240.095071 42.5175576,242.391567 44.1474646,243.596145 L44.1512949,243.603798 Z" id="Path" fill="#009DA5"></path>
            <path d="M58.4840914,193.393016 C58.4840914,195.417212 54.8147116,201.290825 54.8147116,201.290825 C54.8147116,201.290825 51.1453319,195.417212 51.1453319,193.393016 C51.1453319,191.367423 52.7890266,189.725356 54.8166268,189.725356 C56.8442269,189.725356 58.4879217,191.367423 58.4879217,193.393016 L58.4840914,193.393016 Z" id="Path" fill="#000000" opacity="0.25"></path>
            <path d="M64.5550381,204.612191 C63.451926,206.311138 57.1779761,209.249858 57.1779761,209.249858 C57.1779761,209.249858 57.2928836,202.327795 58.3921654,200.625021 C59.1051105,199.52522 60.3512173,198.888937 61.6610896,198.955854 C62.9709618,199.02277 64.1455987,199.78272 64.7425259,200.949438 C65.3394531,202.116156 65.2679831,203.512389 64.5550381,204.612191 Z" id="Path" fill="#000000" opacity="0.25"></path>
            <path d="M64.2869206,223.782745 C62.4752122,224.693442 55.5731012,224.065903 55.5731012,224.065903 C55.5731012,224.065903 59.1697062,218.146373 60.9814146,217.235676 C62.152095,216.645788 63.5488613,216.724642 64.6455651,217.442534 C65.7422689,218.160426 66.3722948,219.40829 66.2983181,220.716069 C66.2243415,222.023848 65.457601,223.192858 64.2869206,223.782745 Z" id="Path" fill="#000000" opacity="0.25"></path>
            <path d="M60.8167138,238.24293 C59.1850272,239.448265 52.279086,239.991622 52.279086,239.991622 C52.279086,239.991622 54.8223721,233.551693 56.4540588,232.338706 C58.0839658,231.134128 60.3827375,231.477617 61.588509,233.105911 C62.7942806,234.734204 62.450451,237.0307 60.8205441,238.235277 L60.8167138,238.24293 Z" id="Path" fill="#000000" opacity="0.25"></path>
            <path d="M49.4523613,209.643983 C50.9078564,211.055946 57.6797388,212.517653 57.6797388,212.517653 C57.6797388,212.517653 56.0212405,205.794566 54.5657454,204.382603 C53.624959,203.470089 52.2683337,203.128298 51.0068971,203.48598 C49.7454606,203.843661 48.770855,204.846475 48.450205,206.11667 C48.1295549,207.386865 48.5115748,208.731469 49.4523613,209.643983 Z" id="Path" fill="#000000" opacity="0.25"></path>
            <path d="M45.622111,226.602845 C47.4338194,227.513542 54.3359304,226.886003 54.3359304,226.886003 C54.3359304,226.886003 50.7393254,220.966472 48.927617,220.055775 C47.1179019,219.143889 44.9108752,219.87027 43.998085,221.678194 C43.0852947,223.486117 43.8123959,225.690958 45.622111,226.602845 Z" id="Path" fill="#000000" opacity="0.25"></path>
            <path d="M44.1512949,243.603798 C45.7829815,244.809132 52.6889227,245.352489 52.6889227,245.352489 C52.6889227,245.352489 50.1456366,238.91256 48.5139499,237.699573 C46.8840429,236.494995 44.5852711,236.838485 43.3794995,238.466778 C42.1737278,240.095071 42.5175576,242.391567 44.1474646,243.596145 L44.1512949,243.603798 Z" id="Path" fill="#000000" opacity="0.25"></path>
            <path d="M324.104287,244.47623 C324.104287,244.47623 318.067813,224.00468 325.253362,208.936088 C328.298165,202.636638 329.216093,195.52067 327.869423,188.655861 C327.203625,185.401351 326.240761,182.214623 324.992905,179.135633" id="Path" stroke="#535461" stroke-width="2"></path>
            <path d="M329.443656,169.6001 C329.443656,172.110256 324.897149,179.384353 324.897149,179.384353 C324.897149,179.384353 320.350642,172.114083 320.350642,169.6001 C320.350642,167.090562 322.38704,165.056181 324.899064,165.056181 C327.411088,165.056181 329.447486,167.090562 329.447486,169.6001 L329.443656,169.6001 Z" id="Path" fill="#009DA5"></path>
            <path d="M336.954777,183.497795 C335.591208,185.602347 327.8158,189.237482 327.8158,189.237482 C327.8158,189.237482 327.957519,180.66239 329.321088,178.554011 C330.686572,176.448114 333.502374,175.846793 335.610359,177.210925 C337.718344,178.575056 338.32026,181.388071 336.954777,183.493969 L336.954777,183.497795 Z" id="Path" fill="#009DA5"></path>
            <path d="M336.629206,207.24862 C334.388509,208.396558 325.83556,207.596828 325.83556,207.596828 C325.83556,207.596828 330.290141,200.265334 332.534668,199.132703 C334.77698,198.003147 337.511327,198.903415 338.642002,201.143507 C339.772677,203.383599 338.871518,206.115238 336.629206,207.244794 L336.629206,207.24862 Z" id="Path" fill="#009DA5"></path>
            <path d="M332.327835,225.164097 C330.309293,226.656415 321.748683,227.329872 321.748683,227.329872 C321.748683,227.329872 324.900979,219.351707 326.919521,217.859388 C328.93866,216.367403 331.786187,216.793124 333.279652,218.810263 C334.773116,220.827403 334.346973,223.672111 332.327835,225.164097 Z" id="Path" fill="#009DA5"></path>
            <path d="M318.266986,189.731095 C320.067203,191.479787 328.463112,193.289701 328.463112,193.289701 C328.463112,193.289701 326.406268,184.959502 324.60605,183.214637 C322.792581,181.569981 320.000918,181.656041 318.292406,183.409271 C316.583893,185.162502 316.572653,187.952705 318.266986,189.719616 L318.266986,189.731095 Z" id="Path" fill="#009DA5"></path>
            <path d="M313.505985,210.746003 C315.746681,211.89394 324.29963,211.094211 324.29963,211.094211 C324.29963,211.094211 319.845049,203.762717 317.600522,202.630085 C316.150001,201.899391 314.419456,201.997279 313.060768,202.886877 C311.70208,203.776474 310.921666,205.32263 311.013499,206.942922 C311.105333,208.563214 312.055463,210.011482 313.505985,210.742176 L313.505985,210.746003 Z" id="Path" fill="#009DA5"></path>
            <path d="M311.682786,231.803001 C313.701328,233.29532 322.261937,233.968777 322.261937,233.968777 C322.261937,233.968777 319.109641,225.990612 317.091099,224.498293 C315.07196,223.006307 312.224433,223.432028 310.730968,225.449168 C309.237504,227.466307 309.663647,230.311016 311.682786,231.803001 Z" id="Path" fill="#009DA5"></path>
            <path d="M329.443656,169.6001 C329.443656,172.110256 324.897149,179.384353 324.897149,179.384353 C324.897149,179.384353 320.350642,172.114083 320.350642,169.6001 C320.350642,167.090562 322.38704,165.056181 324.899064,165.056181 C327.411088,165.056181 329.447486,167.090562 329.447486,169.6001 L329.443656,169.6001 Z" id="Path" fill="#FFFFFF" opacity="0.5"></path>
            <path d="M336.954777,183.497795 C335.591208,185.602347 327.8158,189.237482 327.8158,189.237482 C327.8158,189.237482 327.957519,180.66239 329.321088,178.554011 C330.686572,176.448114 333.502374,175.846793 335.610359,177.210925 C337.718344,178.575056 338.32026,181.388071 336.954777,183.493969 L336.954777,183.497795 Z" id="Path" fill="#FFFFFF" opacity="0.5"></path>
            <path d="M336.629206,207.24862 C334.388509,208.396558 325.83556,207.596828 325.83556,207.596828 C325.83556,207.596828 330.290141,200.265334 332.534668,199.132703 C334.77698,198.003147 337.511327,198.903415 338.642002,201.143507 C339.772677,203.383599 338.871518,206.115238 336.629206,207.244794 L336.629206,207.24862 Z" id="Path" fill="#FFFFFF" opacity="0.5"></path>
            <path d="M332.327835,225.164097 C330.309293,226.656415 321.748683,227.329872 321.748683,227.329872 C321.748683,227.329872 324.900979,219.351707 326.919521,217.859388 C328.93866,216.367403 331.786187,216.793124 333.279652,218.810263 C334.773116,220.827403 334.346973,223.672111 332.327835,225.164097 Z" id="Path" fill="#FFFFFF" opacity="0.5"></path>
            <path d="M318.266986,189.731095 C320.067203,191.479787 328.463112,193.289701 328.463112,193.289701 C328.463112,193.289701 326.406268,184.959502 324.60605,183.214637 C322.792581,181.569981 320.000918,181.656041 318.292406,183.409271 C316.583893,185.162502 316.572653,187.952705 318.266986,189.719616 L318.266986,189.731095 Z" id="Path" fill="#FFFFFF" opacity="0.5"></path>
            <path d="M313.505985,210.746003 C315.746681,211.89394 324.29963,211.094211 324.29963,211.094211 C324.29963,211.094211 319.845049,203.762717 317.600522,202.630085 C316.150001,201.899391 314.419456,201.997279 313.060768,202.886877 C311.70208,203.776474 310.921666,205.32263 311.013499,206.942922 C311.105333,208.563214 312.055463,210.011482 313.505985,210.742176 L313.505985,210.746003 Z" id="Path" fill="#FFFFFF" opacity="0.5"></path>
            <path d="M311.682786,231.803001 C313.701328,233.29532 322.261937,233.968777 322.261937,233.968777 C322.261937,233.968777 319.109641,225.990612 317.091099,224.498293 C315.07196,223.006307 312.224433,223.432028 310.730968,225.449168 C309.237504,227.466307 309.663647,230.311016 311.682786,231.803001 Z" id="Path" fill="#FFFFFF" opacity="0.5"></path>
            <g id="Group" opacity="0.6" transform="translate(119.503808, 38.647226)" fill="#009DA5">
                <rect id="Rectangle" x="0.0344722524" y="0.329075391" width="24.5136017" height="24.4893314" rx="10.5"></rect>
                <rect id="Rectangle" x="30.2934494" y="0.329075391" width="24.5136017" height="24.4893314" rx="10.5"></rect>
                <rect id="Rectangle" x="60.5524266" y="0.329075391" width="24.5136017" height="24.4893314" rx="10.5"></rect>
                <rect id="Rectangle" x="90.8114037" y="0.329075391" width="24.5136017" height="24.4893314" rx="10.5"></rect>
            </g>
            <rect id="Rectangle" fill="#009DA5" x="119.411882" y="75.7102987" width="24.5136017" height="24.4893314" rx="10.5"></rect>
            <rect id="Rectangle" fill="#009DA5" opacity="0.6" x="149.67086" y="75.7102987" width="24.5136017" height="24.4893314" rx="10.5"></rect>
            <rect id="Rectangle" fill="#009DA5" opacity="0.6" x="179.929837" y="75.7102987" width="24.5136017" height="24.4893314" rx="10.5"></rect>
            <rect id="Rectangle" fill="#009DA5" opacity="0.6" x="210.188814" y="75.7102987" width="24.5136017" height="24.4893314" rx="10.5"></rect>
            <g id="Group" opacity="0.6" transform="translate(119.120783, 112.115220)" fill="#009DA5">
                <rect id="Rectangle" x="0.164700762" y="0.329075391" width="24.5136017" height="24.4893314" rx="10.5"></rect>
                <rect id="Rectangle" x="30.4236779" y="0.329075391" width="24.5136017" height="24.4893314" rx="10.5"></rect>
                <rect id="Rectangle" x="60.6826551" y="0.329075391" width="24.5136017" height="24.4893314" rx="10.5"></rect>
                <rect id="Rectangle" x="90.9416322" y="0.329075391" width="24.5136017" height="24.4893314" rx="10.5"></rect>
            </g>
            <g id="Group" opacity="0.6" transform="translate(119.120783, 148.849218)" fill="#009DA5">
                <rect id="Rectangle" x="0.042132753" y="0.329075391" width="24.5136017" height="24.4893314" rx="10.5"></rect>
                <rect id="Rectangle" x="30.3011099" y="0.329075391" width="24.5136017" height="24.4893314" rx="10.5"></rect>
                <rect id="Rectangle" x="60.5600871" y="0.329075391" width="24.5136017" height="24.4893314" rx="10.5"></rect>
                <rect id="Rectangle" x="90.8190642" y="0.329075391" width="24.5136017" height="24.4893314" rx="10.5"></rect>
            </g>
            <path d="M132.185767,103.394723 L132.185767,105.606415 L122.847617,99.71367 L123.831991,98.485377 L124.287791,98.753229 L131.515473,88.1730725 L131.515473,82.020128 L134.269423,82.2650213 L134.269423,81.2816216 C141.546899,72.9322902 142.278477,82.2650213 140.780849,84.9665007 C139.283221,87.6679801 136.525441,89.6309531 136.525441,89.6309531 C134.993341,90.916643 132.312165,100.635846 131.664853,103.0733 L132.185767,103.394723 Z" id="Path" fill="url(#linearGradient-2)"></path>
            <path d="M61.3835909,122.676245 C61.3835909,122.676245 68.5116866,136.608378 66.297802,150.540512 C65.5547334,155.224097 65.8649837,158.086287 66.6080522,159.831152 C66.4033013,161.717294 65.8855168,163.556196 65.0759521,165.272376 C62.3717954,170.920228 62.3717954,176.812973 65.8113602,183.689118 L66.7957345,219.275178 C66.7957345,219.275178 68.0252448,235.970014 66.7957345,239.41 C65.5662242,242.849986 67.2860065,259.307582 67.2860065,259.307582 L67.0408705,259.307582 L67.0408705,268.391593 L85.4567138,268.885206 C85.4567138,268.885206 89.7734059,266.838051 90.5394559,265.307468 L99.7933406,268.150526 C99.7933406,268.150526 109.977976,266.398009 104.006616,263.972034 C99.5596953,262.165946 98.4565832,259.583087 98.1808052,258.389232 L112.735756,216.581351 C112.735756,216.581351 110.0316,180.995292 100.199347,168.700882 L99.203482,161.461223 L99.3413711,161.461223 L101.428857,119.190341 L101.601219,119.2133 L101.551425,119.2133 C106.933148,120.072462 112.423564,119.988296 117.776366,118.96458 C119.381639,118.679519 120.955543,118.23998 122.476083,117.652105 L122.755691,117.541138 L122.786333,117.541138 L122.813145,117.541138 C123.952365,117.074664 125.026148,116.462417 126.007573,115.719744 L132.135974,106.341095 L122.797824,99.9126458 L119.603395,104.466131 C119.603395,104.466131 109.594951,102.353926 104.098542,100.126927 C101.539904,99.0833244 98.8169519,98.499117 96.0550163,98.4011949 L90.0530141,98.1945661 L87.0615887,96.3999573 L87.9961697,93.9854623 C88.0880958,93.9433713 88.1800218,93.9012802 88.2719478,93.8515363 L88.3562133,93.3349644 C96.0380662,91.4292092 100.720529,83.6648048 98.8166268,75.9896302 L99.0119695,75.9896302 C98.927704,71.0152347 97.4032644,70.5292745 97.4032644,70.5292745 C97.4032644,65.470697 92.9793254,61.7705121 87.938716,61.3457752 C85.3284831,61.1661426 82.7061923,61.395963 80.1671382,62.0268848 C76.4339426,62.9173583 73.6700727,66.0650505 73.2726877,69.8787767 C66.6884875,71.6886913 68.8947116,75.1325036 68.7912949,76.4526316 C68.2857018,82.8810811 70.323395,86.6807539 72.5832427,88.8962731 C73.539832,89.8945391 74.6636766,90.7181348 75.9040696,91.3299004 L74.4677258,94.2035704 L74.0463983,94.2035704 L72.8743417,97.6473826 L72.8168879,97.6473826 L71.5375843,98.4738976 C63.6442506,103.81271 59.659505,113.31047 61.3835909,122.676245 Z M81.0442655,259.307582 L81.0442655,248.260597 L85.7133406,215.605605 L85.7133406,198.906942 L94.0747769,216.328805 L85.0736888,254.118905 L84.602568,253.988805 L82.5304026,261.42744 C81.8547138,260.86662 81.3426815,260.134359 81.0480958,259.307582 L81.0442655,259.307582 Z" id="Shape" fill="url(#linearGradient-3)" fill-rule="nonzero"></path>
            <path d="M130.312775,85.2840967 L130.312775,91.1806686 L123.280435,101.473841 L130.312775,106.046458 C130.312775,106.046458 133.438259,94.016074 135.123569,92.6002845 C135.123569,92.6002845 137.770272,90.7138407 139.210446,88.1195021 C140.65062,85.5251636 139.930533,76.5597724 132.955647,84.5800284 L132.955647,85.5251636 L130.312775,85.2840967 Z" id="Path" fill="#FDA57D"></path>
            <path d="M74.3221763,99.3501565 L77.1067682,93.7864865 C77.2722683,93.4535306 77.6046191,93.2355956 77.976235,93.2163442 L88.551556,92.6768137 C88.9007859,92.6583139 89.2355675,92.8180482 89.4406645,93.1010337 C89.6457615,93.3840193 89.6931704,93.751618 89.5665724,94.0772973 L86.8394342,101.121807 C86.6737829,101.55026 86.2440284,101.817224 85.7861153,101.776131 L75.1571708,100.830996 C74.8181478,100.801621 74.515509,100.60691 74.3484933,100.310713 C74.1814777,100.014515 74.1716288,99.6550373 74.3221763,99.3501565 Z" id="Path" fill="#FDA57D"></path>
            <polygon id="Path" fill="#EDEEF9" points="75.1035473 96.9624467 73.30716 102.223826 91.7536453 101.561849 84.6676823 97.3144808"></polygon>
            <polygon id="Path" fill="#EDEEF9" points="121.98198 102.269744 122.924222 101.091195 130.952427 105.809218 130.952427 107.932902"></polygon>
            <path d="M67.7303156,154.462632 C68.4711707,158.102897 68.0352625,161.884174 66.4854842,165.260896 C63.8885745,170.686814 63.8885745,176.357624 67.1940805,182.954438 L68.1401523,217.162973 C68.1401523,217.162973 69.3198694,233.207312 68.1401523,236.509545 C66.9604353,239.811778 68.6036126,255.622703 68.6036126,255.622703 L81.8294668,255.622703 L81.8294668,245.004282 L86.3146899,213.627326 L86.3146899,197.579161 L94.3582155,214.331394 L85.1656148,253.024538 L97.2079217,257.979801 L112.322089,214.568634 C112.322089,214.568634 109.702198,180.3601 100.256801,168.566956 L98.4795647,155.70623 L67.7303156,154.462632 Z" id="Path" fill="#7A7478"></path>
            <path d="M68.3737976,264.350853 L68.3737976,255.622703 L81.8332971,255.622703 C81.8332971,255.622703 82.7793689,259.162176 88.9192601,259.870071 C95.0591513,260.577966 86.0848749,264.825334 86.0848749,264.825334 L68.3737976,264.350853 Z" id="Path" fill="#333333"></path>
            <path d="M82.9134276,258.917283 L85.2575408,250.499075 L98.2267682,254.107425 C98.2267682,254.107425 98.1846355,257.769346 103.91086,260.095832 C109.637084,262.422319 99.8507943,264.109787 99.8507943,264.109787 L82.9134276,258.917283 Z" id="Path" fill="#333333"></path>
            <path d="M98.4795647,156.414125 L67.7264853,155.170526 C68.1073943,157.00255 68.1863143,158.884416 67.9601306,160.741849 C69.3658324,164.047909 72.3840696,163.144865 72.3840696,163.144865 L99.2915778,162.31835 L98.4795647,156.414125 Z" id="Path" fill="#000000" opacity="0.1"></path>
            <path d="M73.9238303,100.26468 L72.6981502,101.095021 C65.1193422,106.223255 61.2916864,115.342283 62.9425027,124.336927 C62.9425027,124.336927 69.7909902,137.729531 67.6652013,151.122134 C65.5394124,164.514737 72.3878999,162.44845 72.3878999,162.44845 L99.4294668,161.618108 L101.436518,121.000256 C101.436518,121.000256 117.730403,123.315263 125.053841,117.652105 L130.956257,108.640797 L121.98198,102.453414 L118.91778,106.830882 C118.91778,106.830882 109.300022,104.802859 104.018107,102.660043 C101.554496,101.655894 98.9325226,101.094969 96.2733406,101.003186 L73.9238303,100.26468 Z" id="Path" fill="#4D8AF0"></path>
            <path d="M74.1613058,165.616757 C74.1613058,165.616757 72.5066376,173.874253 81.9558651,187.557667" id="Path" fill="#000000" opacity="0.1"></path>
            <path d="M101.543765,121.027041 C101.543765,121.027041 112.877476,117.254154 117.83765,117.254154 C122.797824,117.254154 121.97049,119.393144 121.97049,119.393144 C121.97049,119.393144 114.072514,122.913485 101.543765,121.027041 Z" id="Path" fill="#000000" opacity="0.1"></path>
            <path d="M88.7009358,93.1551209 L84.188901,93.6946515 C84.0471817,93.6946515 83.9169532,93.8898009 83.8403482,94.1691323 C84.832383,95.9560882 86.0733841,97.0198435 87.4216322,97.0198435 C87.9028741,97.0124943 88.373993,96.8806589 88.7890316,96.6371977 L89.1337541,94.5517781 C89.2486616,93.8591892 89.0188466,93.1168563 88.7009358,93.1551209 Z" id="Path" fill="#000000" opacity="0.1"></path>
            <ellipse id="Oval" fill="#FDA57D" cx="85.5524701" cy="82.7854196" rx="13.77358" ry="13.7599431"></ellipse>
            <path d="M97.2692057,74.9947511 L96.5644396,75.6299431 C95.9643887,76.178786 95.6861692,76.9955809 95.8265811,77.7961436 C95.9669929,78.5967063 96.5066211,79.2703416 97.2577149,79.5826743 C97.2577149,79.5826743 91.0871817,85.7470982 90.2292057,86.8912091 C89.3712296,88.0353201 90.3709249,91.0467425 90.3709249,91.0467425 C90.3709249,91.0467425 93.0980631,96.063229 78.7499456,94.9152916 C78.7499456,94.9152916 69.2815669,92.9102276 70.2850925,80.1528165 C70.384679,78.8747795 68.2780413,75.5610669 74.5902938,73.8468137 C74.9778828,70.176409 77.646843,67.1524333 81.2434385,66.3086913 C83.6836346,65.7023465 86.2038374,65.4815629 88.7124266,65.654367 C93.5580815,66.0791705 97.2739181,70.1352926 97.2692057,74.9947511 Z" id="Path" fill="#000000" opacity="0.1"></path>
            <path d="M97.5679652,74.2447653 C97.5679652,74.2447653 99.0311208,74.6962873 99.1000653,79.4908393 L97.0202394,79.3492603 C97.0202394,79.3492603 92.209445,92.2061593 92.7150381,90.5301707 C94.58037,84.3657468 90.8497062,85.5136842 89.9878999,86.6616216 C89.1260936,87.809559 90.1296192,90.817155 90.1296192,90.817155 C90.1296192,90.817155 92.8567573,95.8336415 78.5086398,94.6857041 C78.5086398,94.6857041 69.0402612,92.6806401 70.0437867,79.923229 C70.1433732,78.645192 68.0367356,75.3314794 74.348988,73.6172262 C74.7335049,69.9486344 77.3973372,66.9237121 80.990642,66.0752774 C83.4308381,65.4689325 85.9510409,65.248149 88.45963,65.4209531 C93.3163874,65.8303841 97.5679652,69.3928165 97.5679652,74.2447653 Z" id="Path" fill="#72351C"></path>
            <g id="Group" opacity="0.6" transform="translate(119.503808, 207.394026)" fill="#009DA5">
                <rect id="Rectangle" x="0.042132753" y="0.133926031" width="24.5136017" height="24.4893314" rx="10.5"></rect>
                <rect id="Rectangle" x="30.3011099" y="0.133926031" width="24.5136017" height="24.4893314" rx="10.5"></rect>
                <rect id="Rectangle" x="60.5600871" y="0.133926031" width="24.5136017" height="24.4893314" rx="10.5"></rect>
                <rect id="Rectangle" x="90.8190642" y="0.133926031" width="24.5136017" height="24.4893314" rx="10.5"></rect>
            </g>
            <g id="Group" opacity="0.1" transform="translate(119.503808, 207.394026)" fill="#000000">
                <rect id="Rectangle" x="0.042132753" y="0.133926031" width="24.5136017" height="24.4893314" rx="10.5"></rect>
                <rect id="Rectangle" x="30.3011099" y="0.133926031" width="24.5136017" height="24.4893314" rx="10.5"></rect>
                <rect id="Rectangle" x="60.5600871" y="0.133926031" width="24.5136017" height="24.4893314" rx="10.5"></rect>
                <rect id="Rectangle" x="90.8190642" y="0.133926031" width="24.5136017" height="24.4893314" rx="10.5"></rect>
            </g>
        </g>
    </g>
</svg>