<?xml version="1.0" encoding="UTF-8"?>
<svg width="424px" height="300px" viewBox="0 0 424 300" version="1.1" xmlns="http://www.w3.org/2000/svg" xmlns:xlink="http://www.w3.org/1999/xlink">
    <!-- Generator: Sketch 52.6 (67491) - http://www.bohemiancoding.com/sketch -->
    <title>cloud-native</title>
    <desc>Created with Sketch.</desc>
    <defs>
        <linearGradient x1="50.0011621%" y1="100.00118%" x2="50.0011621%" y2="-0.0158321861%" id="linearGradient-1">
            <stop stop-color="#808080" stop-opacity="0.25" offset="0%"></stop>
            <stop stop-color="#808080" stop-opacity="0.12" offset="54%"></stop>
            <stop stop-color="#808080" stop-opacity="0.1" offset="100%"></stop>
        </linearGradient>
    </defs>
    <g id="cloud-native" stroke="none" stroke-width="1" fill="none" fill-rule="evenodd">
        <g transform="translate(16.000000, 11.000000)">
            <ellipse id="Oval" fill="#009DA5" opacity="0.1" cx="196" cy="192.545608" rx="196" ry="84.2707459"></ellipse>
            <path d="M206.683245,40.9875829 L205.223304,125.54145 C205.223304,125.54145 258.072414,125.54145 303.035543,140.118384 L303.91304,54.6768923 C303.91304,54.6768923 231.79347,37.4906492 206.683245,40.9875829 Z" id="Path" fill="#000000" opacity="0.1"></path>
            <path d="M205.916872,39.8397928 L204.456931,124.39366 C204.456931,124.39366 257.306041,124.39366 302.269169,138.970594 L303.146667,53.5291022 C303.146667,53.5291022 231.027097,36.3428591 205.916872,39.8397928 Z" id="Path" fill="#FFFFFF"></path>
            <path d="M184.174858,40.9225414 L185.6348,125.476409 C185.6348,125.476409 132.785689,125.476409 87.8225611,140.053343 L86.9450635,54.6348066 C86.9450635,54.6348066 159.064633,37.4256077 184.174858,40.9225414 Z" id="Path" fill="#000000" opacity="0.1"></path>
            <path d="M184.941232,39.7747514 L186.401173,124.328619 C186.401173,124.328619 133.552063,124.328619 88.5889345,138.905552 L87.711437,53.4870166 C87.711437,53.4870166 159.831007,36.2778177 184.941232,39.7747514 Z" id="Path" fill="#FFFFFF"></path>
            <path d="M316.669326,66.7325138 L316.669326,150.402583 C316.669326,150.402583 333.912727,148.363343 370.10088,192.966464 L373.315816,109.296395 C373.315816,109.296395 335.648563,68.7755801 316.669326,66.7325138 Z" id="Path" fill="#000000" opacity="0.1"></path>
            <path d="M315.902952,65.9673204 L315.902952,149.63739 C315.902952,149.63739 333.146354,147.598149 369.334506,192.201271 L372.549443,108.531202 C372.549443,108.531202 334.88219,68.0103867 315.902952,65.9673204 Z" id="Path" fill="#FFFFFF"></path>
            <path d="M75.1275855,69.2155663 L75.1275855,152.889461 C75.1275855,152.889461 57.8841838,150.850221 21.6960313,195.453343 L18.4849267,111.783273 C18.4849267,111.783273 56.148348,71.2624586 75.1275855,69.2155663 Z" id="Path" fill="#000000" opacity="0.1"></path>
            <path d="M75.8939589,68.0677762 L75.8939589,151.741671 C75.8939589,151.741671 58.6505572,149.702431 22.4624047,194.305552 L19.2513001,110.635483 C19.2513001,110.635483 56.9147214,70.1146685 75.8939589,68.0677762 Z" id="Path" fill="#FFFFFF"></path>
            <path d="M269.786432,208.392762 C269.786432,211.243108 251.657869,227.713895 210.392493,227.713895 C169.127116,227.713895 146.7835,211.817003 146.7835,208.966657 C146.7835,206.116312 169.89349,213.175221 211.158866,213.175221 C252.424242,213.175221 269.786432,205.538591 269.786432,208.392762 Z" id="Path" fill="#F7F7FD"></path>
            <g id="Group" opacity="0.1" transform="translate(149.442815, 103.301105)" fill="#000000">
                <ellipse id="Oval" cx="59.3173021" cy="20.4689227" rx="58.2903617" ry="20.2355387"></ellipse>
                <path d="M118.619277,27.0763674 C116.04043,40.6202901 90.5585142,51.2526519 59.4973998,51.2526519 C28.1642229,51.2526519 2.50604106,40.4328177 0.306549365,26.7243785 L0.0881329423,26.7243785 L0.0881329423,48.7963812 C10.3345455,59.4861326 33.0191984,66.9199862 59.3517889,66.9199862 C85.6843793,66.9199862 108.369032,59.4861326 118.619277,48.7963812 L118.619277,27.0763674 Z" id="Path"></path>
                <path d="M118.619277,53.9346547 C116.04043,67.4747514 90.5585142,78.1109392 59.4973998,78.1109392 C28.1642229,78.1109392 2.50604106,67.291105 0.306549365,53.5788398 L0.0881329423,53.5788398 L0.0881329423,75.6546685 C10.3345455,86.3444199 33.0191984,93.7744475 59.3517889,93.7744475 C85.6843793,93.7744475 108.369032,86.3444199 118.619277,75.6546685 L118.619277,53.9346547 Z" id="Path"></path>
                <path d="M118.619277,82.7097514 C116.04043,96.253674 90.5585142,106.886036 59.4973998,106.886036 C28.1642229,106.886036 2.50604106,96.0700276 0.306549365,82.3577624 L0.0881263789,82.3577624 L0.0881329423,106.162928 C0.086193447,107.18842 0.514171609,108.167924 1.268348,108.864061 C11.9975758,118.700622 33.9886608,122.55337 59.3517889,122.55337 C84.7149169,122.55337 106.694506,118.700622 117.439062,108.864061 C118.193238,108.167924 118.621216,107.18842 118.619277,106.162928 L118.619277,82.7097514 Z" id="Path"></path>
            </g>
            <ellipse id="Oval" fill="#009DA5" cx="208.760117" cy="119.944061" rx="58.2903617" ry="21.7659254"></ellipse>
            <path d="M268.062092,128.847086 C265.483245,142.391008 240.001329,153.02337 208.940215,153.02337 C177.607038,153.02337 151.948856,142.203536 149.749365,128.495097 L149.530948,128.495097 L149.530948,150.567099 C159.777361,161.256851 182.462014,168.690704 208.794604,168.690704 C235.127195,168.690704 257.811848,161.256851 268.062092,150.567099 L268.062092,128.847086 Z" id="Path" fill="#009DA5"></path>
            <path d="M268.062092,155.705373 C265.483245,169.24547 240.001329,179.881657 208.940215,179.881657 C177.607038,179.881657 151.948856,169.061823 149.749365,155.349558 L149.530948,155.349558 L149.530948,177.425387 C159.777361,188.115138 182.462014,195.545166 208.794604,195.545166 C235.127195,195.545166 257.811848,188.115138 268.062092,177.425387 L268.062092,155.705373 Z" id="Path" fill="#009DA5"></path>
            <path d="M268.062092,186.010856 C265.483245,199.554779 240.001329,208.656754 208.940215,208.656754 C177.607038,208.656754 151.948856,197.840746 149.749365,184.128481 L149.530948,185.658867 L149.530948,207.933646 C149.529009,208.959138 149.956987,209.938643 150.711163,210.634779 C161.440391,220.47134 183.431476,224.324088 208.794604,224.324088 C234.157732,224.324088 256.137322,220.47134 266.881877,210.634779 C267.636053,209.938643 268.064031,208.959138 268.062092,207.933646 L268.062092,186.010856 Z" id="Path" fill="#009DA5"></path>
            <ellipse id="Oval" fill="#009DA5" opacity="0.1" cx="294.682072" cy="248.018301" rx="21.8416422" ry="3.92544199"></ellipse>
            <path d="M282.420098,198.001436 C283.523675,198.651851 285.255679,199.076533 287.436012,197.676229 L287.416852,200.779088 C287.570127,202.906326 290.206452,210.661561 290.206452,210.661561 L292.064907,217.039448 C293.398775,221.546804 294.086402,226.220103 294.107292,230.920055 C294.107292,232.473398 294.252903,234.080304 294.701232,235.289309 C295.693685,237.967486 294.318045,241.410856 293.716442,242.681077 C292.710217,243.020793 291.687009,243.308127 290.650948,243.54192 C290.55856,243.56417 290.467688,243.592284 290.378886,243.626091 L290.378886,243.606961 C290.378886,243.606961 287.589286,244.712666 286.347761,244.559627 C285.424282,244.448674 284.84567,245.60029 285.581388,246.445829 C284.980898,246.628844 284.354258,246.711578 283.726764,246.690691 C282.485239,246.537652 281.864477,248.66489 284.19042,249.273218 C286.516364,249.881547 299.694154,249.273218 299.694154,249.273218 C300.455359,248.892578 300.862058,248.045807 300.682776,247.214848 L302.330479,247.145981 C302.330479,247.145981 304.656422,246.082362 302.330479,243.193757 L302.204027,243.28558 L301.709717,241.824061 L301.709717,239.853688 C301.709717,239.853688 304.656422,225.69761 303.725279,224.040967 C302.794135,222.384323 302.299824,213.837113 302.299824,213.837113 L302.625533,204.578273 C303.464712,202.848936 303.893881,200.1325 304.112297,198.009088 C304.429673,196.997262 304.628973,195.952229 304.706237,194.894751 C304.744555,194.39355 304.77521,193.873218 304.79437,193.329931 C304.80723,192.137966 304.615415,190.952616 304.227253,189.825345 C305.279123,188.267499 306.454146,186.796184 307.741075,185.425483 C308.827547,184.41637 309.350053,182.939885 309.139707,181.47326 L308.373333,176.304378 L306.511046,167.504655 C306.74479,165.059862 306.235152,163.651906 305.668035,162.856105 C305.802151,162.06413 305.928602,161.275981 306.024399,160.48018 C306.434334,157.031022 306.250305,153.537264 305.480274,150.150069 C305.212043,148.971671 304.844184,147.75884 304.012669,146.863564 C303.073861,145.845856 301.548778,145.229876 301.196246,143.902265 C301.146515,143.563847 301.074836,143.229009 300.981662,142.899862 C300.640626,142.031367 299.567703,141.713812 298.625064,141.599033 C296.946706,141.396257 294.521134,141.243218 292.907918,141.901285 C291.492158,142.526305 290.326666,143.606496 289.597185,144.96971 C289.234003,145.529822 289.097068,146.206609 289.213998,146.863564 C289.271373,147.091602 289.360366,147.310521 289.478397,147.513978 C288.360833,150.539097 289.887946,153.899029 292.904086,155.051133 C292.942405,155.169738 292.976891,155.284517 293.003715,155.39547 C293.07461,155.668202 293.125833,155.945658 293.156989,156.225704 C293.126334,156.76134 293.091848,157.300801 293.068856,157.840262 L293.011378,158.058343 C291.677393,158.648017 290.376473,159.309609 289.11437,160.040193 C290.041681,161.40989 288.957263,167.187099 288.957263,167.187099 C286.63132,168.55297 284.309208,172.049903 286.788426,175.699876 C289.267644,179.349848 287.872845,183.298246 287.872845,183.298246 L287.489658,189.243798 L287.413021,190.433674 L287.439844,190.433674 L287.413021,190.885138 L287.478162,190.885138 L287.478162,191.371036 C286.389912,191.772762 284.795855,192.576215 283.849384,194.068343 C283.400935,194.799968 282.85573,195.467877 282.228504,196.054019 C281.931906,196.307507 281.777953,196.689623 281.816121,197.077571 C281.854288,197.465518 282.079767,197.81042 282.420098,198.001436 Z M301.138768,182.207845 C301.04532,181.178931 301.236166,180.144128 301.690557,179.215939 L302.786471,179.215939 C302.818774,179.457841 302.863539,179.697919 302.920587,179.935221 C303.2348,181.293439 301.977947,181.932376 301.138768,182.207845 Z" id="Shape" fill="url(#linearGradient-1)" fill-rule="nonzero"></path>
            <path d="M301.445318,241.127735 L302.043089,242.914461 L300.104164,244.850401 L293.689619,246.357831 L289.064555,245.910193 L289.363441,244.27268 C289.543022,243.554364 290.109325,242.996315 290.831046,242.826464 C292.746979,242.382652 296.356598,241.364945 297.11914,239.953163 L301.445318,241.127735 Z" id="Path" fill="#DB8B8B"></path>
            <path d="M301.445318,241.127735 L302.043089,242.914461 L300.104164,244.850401 L293.689619,246.357831 L289.064555,245.910193 L289.363441,244.27268 C289.543022,243.554364 290.109325,242.996315 290.831046,242.826464 C292.746979,242.382652 296.356598,241.364945 297.11914,239.953163 L301.445318,241.127735 Z" id="Path" fill="#000000" opacity="0.1"></path>
            <path d="M290.555152,245.447251 L291.451808,244.257376 L290.555152,242.876202 C290.555152,242.876202 287.872845,243.95895 286.677302,243.809738 C285.48176,243.660525 284.88782,245.745677 287.12563,246.342528 C289.363441,246.939378 302.043089,246.342528 302.043089,246.342528 C302.043089,246.342528 304.280899,245.298039 302.043089,242.466823 L300.104164,243.95895 C300.104164,243.95895 296.820254,245.745677 295.180215,245.447251 L290.555152,245.447251 Z" id="Path" fill="#C17174"></path>
            <path d="M286.531691,247.980041 L291.156755,248.42768 L297.5713,246.935552 L299.510225,244.999613 L299.353118,244.529019 L299.13087,243.863301 L298.912454,243.212887 L294.578612,242.023011 C294.358727,242.379532 294.058185,242.679611 293.701114,242.899157 C292.294819,243.859475 289.773451,244.551975 288.290518,244.896312 C288.228012,244.911387 288.166569,244.930559 288.106588,244.953702 C287.818084,245.045388 287.55545,245.204037 287.340215,245.416644 C287.081307,245.670292 286.898209,245.990881 286.811417,246.342528 L286.531691,247.980041 Z" id="Path" fill="#DB8B8B"></path>
            <path d="M286.531691,247.980041 L291.156755,248.42768 L297.5713,246.935552 L299.510225,244.999613 L299.353118,244.529019 L297.5713,245.89489 C297.5713,245.89489 294.28739,247.681616 292.647351,247.383191 L288.018456,247.383191 L288.915112,246.193315 L288.11042,244.953702 C287.821916,245.045388 287.559282,245.204037 287.344047,245.416644 C287.085138,245.670292 286.902041,245.990881 286.815249,246.342528 L286.531691,247.980041 Z" id="Path" fill="#000000" opacity="0.1"></path>
            <path d="M288.018456,247.532403 L288.915112,246.342528 L288.018456,244.961354 C288.018456,244.961354 285.336149,246.044102 284.140606,245.89489 C282.945064,245.745677 282.351124,247.830829 284.588935,248.42768 C286.826745,249.02453 299.506393,248.42768 299.506393,248.42768 C299.506393,248.42768 301.744203,247.383191 299.506393,244.555801 L297.567468,246.044102 C297.567468,246.044102 294.283558,247.830829 292.643519,247.532403 L288.018456,247.532403 Z" id="Path" fill="#C17174"></path>
            <path d="M291.746862,161.142072 C291.746862,161.142072 298.908622,161.907265 297.877849,158.907707 C297.583383,158.062879 297.506945,157.157569 297.655601,156.275442 C297.839966,155.18344 298.272546,154.148155 298.920117,153.249102 L292.206686,154.289765 C292.610215,154.961584 292.91721,155.686677 293.118671,156.443785 C293.904203,159.604033 291.746862,161.142072 291.746862,161.142072 Z" id="Path" fill="#DB8B8B"></path>
            <path d="M303.982014,195.089876 C303.982014,195.089876 303.832571,201.494544 302.341975,204.624185 L302.043089,213.710856 C302.043089,213.710856 302.487586,222.051464 303.384242,223.688978 C304.280899,225.326492 301.445318,239.180318 301.445318,239.180318 L301.445318,241.563895 C301.445318,241.563895 296.670811,243.350622 295.31433,241.26547 L296.655484,223.539765 L296.057713,198.96558 L303.982014,195.089876 Z" id="Path" fill="#474463"></path>
            <path d="M303.982014,195.089876 C303.982014,195.089876 303.832571,201.494544 302.341975,204.624185 L302.043089,213.710856 C302.043089,213.710856 302.487586,222.051464 303.384242,223.688978 C304.280899,225.326492 301.445318,239.180318 301.445318,239.180318 L301.445318,241.563895 C301.445318,241.563895 296.670811,243.350622 295.31433,241.26547 L296.655484,223.539765 L296.057713,198.96558 L303.982014,195.089876 Z" id="Path" fill="#000000" opacity="0.1"></path>
            <path d="M306.963206,174.54826 L307.859863,176.931837 L308.626237,181.993591 C308.828713,183.426327 308.328135,184.868791 307.281251,185.869296 C305.491769,187.656022 303.104516,191.378688 303.104516,191.378688 L300.272766,182.888867 C300.272766,182.888867 303.104516,182.441229 302.656188,180.50529 C302.207859,178.569351 302.361134,174.995898 302.361134,174.995898 L306.963206,174.54826 Z" id="Path" fill="#FF748E"></path>
            <path d="M306.997693,174.513826 L307.890518,176.897403 L308.656891,181.962983 C308.862298,183.394127 308.362784,184.836212 307.315738,185.834862 C305.522424,187.621588 303.139003,191.34808 303.139003,191.34808 L300.284262,182.846782 C300.284262,182.846782 303.119844,182.399144 302.671515,180.463204 C302.223187,178.527265 302.37263,174.949986 302.37263,174.949986 L306.997693,174.513826 Z" id="Path" fill="#000000" opacity="0.05"></path>
            <path d="M293.704946,242.914461 C295.62088,245.921671 298.59824,244.21529 299.127038,243.878605 L298.908622,243.228191 L294.578612,242.023011 C294.361713,242.384671 294.062375,242.690103 293.704946,242.914461 Z" id="Path" fill="#000000" opacity="0.1"></path>
            <path d="M287.71957,200.912997 C287.869013,202.998149 290.401877,210.592693 290.401877,210.592693 L292.191359,216.844323 C293.471532,221.264611 294.133053,225.840487 294.157107,230.441809 C294.112166,231.890442 294.305033,233.33665 294.728055,234.723066 C295.923597,238.00192 293.536344,242.466823 293.536344,242.466823 C295.624712,246.193315 299.203675,243.660525 299.203675,243.660525 L299.203675,241.276948 C299.203675,241.276948 302.039257,228.318398 301.292043,225.785608 C300.544829,223.252818 300.249775,216.404337 300.249775,216.404337 L300.249775,204.038812 C302.638465,201.661406 304.091026,198.505456 304.342209,195.147265 C304.376696,194.657541 304.407351,194.144862 304.42651,193.616878 C304.545298,190.25768 302.242346,186.316934 301.361017,184.912804 C301.146432,184.572293 301.008485,184.380994 301.008485,184.380994 L287.838358,189.599613 L287.807703,189.599613 L287.807703,190.116119 L287.807703,191.240953 L287.71957,200.912997 Z" id="Path" fill="#474463"></path>
            <path d="M292.195191,154.289765 C292.598719,154.961584 292.905714,155.686677 293.107175,156.443785 C294.58018,157.00183 296.216646,156.941109 297.644106,156.275442 C297.828471,155.18344 298.261051,154.148155 298.908622,153.249102 L292.195191,154.289765 Z" id="Path" fill="#000000" opacity="0.1"></path>
            <ellipse id="Oval" fill="#DB8B8B" cx="295.180215" cy="150.716312" rx="5.81677419" ry="5.80781768"></ellipse>
            <path d="M287.71957,191.229475 L287.784712,191.229475 C294.038319,192.515 301.893646,186.00703 301.893646,186.00703 C301.683067,185.652192 301.501117,185.281176 301.349521,184.8975 C301.134936,184.556989 300.996989,184.365691 300.996989,184.365691 L287.826862,189.584309 L287.792375,190.104641 L287.71957,191.229475 Z" id="Path" fill="#000000" opacity="0.1"></path>
            <path d="M289.363441,160.992859 C289.363441,160.992859 297.716911,155.927279 300.399218,158.012431 L304.131457,162.779586 C304.131457,162.779586 306.51871,163.525649 306.074213,168.308108 L307.863695,176.947141 L302.499081,178.286229 C302.499081,178.286229 299.368446,181.266657 301.905142,185.586174 C301.905142,185.586174 293.996168,192.140055 287.727234,190.797141 L288.175562,183.799448 C288.175562,183.799448 289.516716,179.923743 287.133294,176.35029 C284.749873,172.776837 286.983851,169.348771 289.221662,168.009682 C289.213998,167.994378 290.256266,162.331948 289.363441,160.992859 Z" id="Path" fill="#FF748E"></path>
            <path d="M288.915112,191.378688 C288.915112,191.378688 285.780645,191.975539 284.290049,194.359116 C283.858946,195.075464 283.333075,195.730504 282.726647,196.306533 C282.45054,196.557414 282.309595,196.923936 282.346593,197.294849 C282.38359,197.665763 282.594168,197.997329 282.914409,198.188909 C284.098456,198.900539 286.025885,199.336699 288.466784,197.335718 C292.662678,193.911478 288.915112,191.378688 288.915112,191.378688 Z" id="Path" fill="#DB8B8B"></path>
            <path d="M293.540176,163.824075 C293.540176,163.824075 296.521369,163.525649 297.268583,171.269406 C298.015797,179.013163 299.207507,180.803715 299.207507,180.803715 C299.207507,180.803715 299.954721,184.824807 298.161408,187.208384 C296.368094,189.591961 292.942405,194.657541 292.942405,194.657541 C292.942405,194.657541 289.213998,195.698204 288.466784,191.979365 L293.091848,183.340331 C293.091848,183.340331 293.83523,180.359903 292.045748,178.274751 C290.256266,176.189599 288.915112,162.331948 293.540176,163.824075 Z" id="Path" fill="#000000" opacity="0.1"></path>
            <path d="M293.24129,163.376436 C293.24129,163.376436 296.222483,163.078011 296.969697,170.825594 C297.716911,178.573177 298.908622,180.356077 298.908622,180.356077 C298.908622,180.356077 299.674995,184.377169 297.866354,186.760746 C296.057713,189.144323 292.662678,194.209903 292.662678,194.209903 C292.662678,194.209903 288.934272,195.250566 288.187058,191.531727 L292.812121,182.892693 C292.812121,182.892693 293.559335,179.912265 291.766022,177.827113 C289.972708,175.741961 288.616227,161.888135 293.24129,163.376436 Z" id="Path" fill="#FF748E"></path>
            <path d="M290.7774,168.962348 C290.7774,168.962348 290.482346,173.58029 291.8235,176.11308 C293.164653,178.64587 293.164653,181.920898 291.8235,183.707624" id="Path" fill="#000000" opacity="0.1"></path>
            <path d="M290.034018,163.299917 C290.034018,163.299917 291.225728,162.110041 294.659081,161.960829 C298.092434,161.811616 299.579198,160.770953 299.579198,160.770953" id="Path" fill="#000000" opacity="0.1"></path>
            <path d="M298.33001,143.209765 C299.238162,143.320718 300.272766,143.630622 300.598475,144.479986 C300.688165,144.803288 300.75854,145.131624 300.809228,145.46326 C301.146432,146.764088 302.614037,147.376243 303.518358,148.363343 C304.315386,149.243315 304.667918,150.429365 304.928485,151.588633 C305.671349,154.908497 305.848821,158.329586 305.453451,161.708315 C305.162229,164.176064 304.564457,166.609378 304.399687,169.088605 C304.234917,171.567831 304.537634,174.180967 305.894115,176.266119 C306.480391,177.161395 307.250596,177.949544 307.664438,178.944296 C306.809932,179.636796 305.629717,179.736271 304.526139,179.77453 C303.24885,179.817891 301.965174,179.817891 300.675112,179.77453 C299.99982,179.801434 299.328379,179.660781 298.72086,179.365152 C298.291016,179.09178 297.937676,178.713973 297.69392,178.267099 C296.958201,177.02366 296.774272,175.527707 296.804927,174.085318 C296.835582,172.642928 297.065494,171.208191 297.092317,169.761975 C297.168463,168.973017 296.99276,168.180225 296.590342,167.497003 C296.220022,167.067248 295.800797,166.682052 295.341153,166.349213 C293.743265,164.933605 293.195308,162.668633 293.141662,160.537569 C293.088016,158.406506 293.440547,156.275442 293.26045,154.15203 C293.191476,153.321796 292.877263,152.323218 292.061075,152.162528 C291.803172,152.152081 291.546708,152.118792 291.294702,152.063052 C290.639453,151.810539 290.704594,150.888481 290.528328,150.211285 C290.317576,149.446091 289.666158,148.860718 289.482229,148.095525 C289.05306,146.293494 291.35218,144.139475 292.858104,143.504365 C294.364027,142.869254 296.716794,143.010815 298.33001,143.209765 Z" id="Path" fill="#000000" opacity="0.1"></path>
            <path d="M298.479453,142.91134 C299.387605,143.022293 300.422209,143.332196 300.747918,144.185387 C300.837996,144.5073 300.908377,144.834387 300.958671,145.164834 C301.295875,146.465663 302.76348,147.077818 303.667801,148.064917 C304.464829,148.94489 304.817361,150.130939 305.077928,151.290207 C305.820809,154.613998 305.996991,158.039075 305.599062,161.421367 C305.311672,163.889116 304.7139,166.322431 304.54913,168.805483 C304.38436,171.288536 304.687077,173.894019 306.043558,175.979171 C306.629834,176.878273 307.400039,177.662597 307.813881,178.657348 C306.959374,179.353674 305.779159,179.449323 304.675582,179.487583 C303.398293,179.528393 302.114617,179.528393 300.824555,179.487583 C300.149572,179.515836 299.478109,179.376492 298.870303,179.08203 C298.4403,178.807206 298.087004,178.428129 297.843363,177.980152 C297.107644,176.736713 296.923715,175.24076 296.95437,173.79837 C296.985024,172.355981 297.214936,170.921243 297.24176,169.478854 C297.24176,168.690704 297.195777,167.856644 296.739785,167.213881 C296.370333,166.783288 295.951004,166.397997 295.490596,166.066091 C293.892708,164.650483 293.344751,162.385511 293.291105,160.254448 C293.237458,158.123384 293.58999,155.99232 293.409892,153.868909 C293.340919,153.038674 293.026706,152.040097 292.210518,151.879406 C291.952615,151.86896 291.69615,151.835671 291.444145,151.779931 C290.788895,151.527417 290.854037,150.605359 290.677771,149.928163 C290.467019,149.16297 289.815601,148.581423 289.631672,147.812403 C289.202502,146.010373 291.501623,143.856354 293.007546,143.221243 C294.51347,142.586133 296.877732,142.71239 298.479453,142.91134 Z" id="Path" fill="#464353"></path>
            <path d="M135.054154,77.6556492 C130.609963,77.6556492 127.007234,81.252831 127.007234,85.6901796 C127.007234,90.1275282 130.609963,93.7247099 135.054154,93.7247099 C139.498346,93.7247099 143.101075,90.1275282 143.101075,85.6901796 C143.101075,81.252831 139.498346,77.6556492 135.054154,77.6556492 Z M135.054154,79.2128177 C138.651833,79.2128177 141.568328,82.124822 141.568328,85.7169613 C141.568328,89.3091007 138.651833,92.221105 135.054154,92.221105 C131.456475,92.221105 128.53998,89.3091007 128.53998,85.7169613 C128.53998,82.124822 131.456475,79.2128177 135.054154,79.2128177 Z M139.610244,83.440511 L138.878358,82.7020994 C138.806134,82.6272819 138.706537,82.5850149 138.602463,82.5850149 C138.49839,82.5850149 138.398793,82.6272819 138.326569,82.7020994 L133.728328,87.251174 L131.789404,85.2846271 C131.717179,85.2098096 131.617583,85.1675426 131.513509,85.1675426 C131.409436,85.1675426 131.309839,85.2098096 131.237615,85.2846271 L130.501896,86.0153867 C130.426964,86.0874998 130.384631,86.1869432 130.384631,86.2908564 C130.384631,86.3947695 130.426964,86.4942129 130.501896,86.566326 L133.452434,89.5352762 C133.524658,89.6100937 133.624255,89.6523608 133.728328,89.6523608 C133.832402,89.6523608 133.931999,89.6100937 134.004223,89.5352762 L139.610244,83.9799724 C139.685177,83.9078593 139.727509,83.808416 139.727509,83.7045028 C139.727509,83.6005896 139.685177,83.5011462 139.610244,83.4290331 L139.610244,83.440511 Z" id="Shape" fill="#3ACC6C" fill-rule="nonzero" opacity="0.7"></path>
            <path d="M45.9709091,118.333329 C41.6447842,119.336711 38.9508238,123.649888 39.951787,127.97027 C40.9527501,132.290652 45.2701068,134.984418 49.5980672,133.988957 C53.9260275,132.993497 56.6279047,128.68526 55.6348778,124.363052 C55.1568426,122.282377 53.8691599,120.477181 52.0560492,119.345911 C50.2429386,118.214641 48.0534708,117.850308 45.9709091,118.333329 Z M46.3234409,119.863715 C48.8919785,119.265243 51.5684777,120.272304 53.1026418,122.414461 C54.6368059,124.556618 54.7258316,127.411066 53.3281315,129.644382 C51.9304315,131.877698 49.3218745,133.049084 46.721019,132.611341 C44.1201634,132.173597 42.040349,130.213123 41.4531378,127.645732 C40.6548516,124.155483 42.8316335,120.677311 46.3234409,119.863715 Z M51.7148778,122.962749 L50.8335484,122.396506 C50.7465963,122.340084 50.6404537,122.32126 50.5393601,122.344332 C50.4382665,122.367403 50.3508549,122.4304 50.297087,122.518936 L46.8484066,127.982417 L44.5147996,126.50942 C44.4278475,126.452999 44.321705,126.434174 44.2206113,126.457246 C44.1195177,126.480317 44.0321061,126.543315 43.9783382,126.631851 L43.4227175,127.511823 C43.3662092,127.598641 43.3473559,127.704621 43.370463,127.805558 C43.3935701,127.906496 43.4566644,127.993773 43.5453372,128.047459 L47.0859824,130.277997 C47.1732268,130.335676 47.2802999,130.355224 47.3823411,130.332101 C47.4843823,130.308978 47.5725148,130.245197 47.6262757,130.155566 L51.8413294,123.486906 C51.898176,123.400559 51.9176247,123.294924 51.8952507,123.194036 C51.8728767,123.093148 51.8105828,123.005585 51.7225415,122.951271 L51.7148778,122.962749 Z" id="Shape" fill="#3ACC6C" fill-rule="nonzero" opacity="0.7"></path>
            <path d="M252.336109,78.8187431 C247.891918,78.8187431 244.289189,82.4159249 244.289189,86.8532735 C244.289189,91.2906221 247.891918,94.8878039 252.336109,94.8878039 C256.780301,94.8878039 260.38303,91.2906221 260.38303,86.8532735 C260.38303,82.4159249 256.780301,78.8187431 252.336109,78.8187431 Z M252.336109,80.3759116 C255.933788,80.3759116 258.850283,83.2879159 258.850283,86.8800552 C258.850283,90.4721946 255.933788,93.3841989 252.336109,93.3841989 C248.738431,93.3841989 245.821935,90.4721946 245.821935,86.8800552 C245.821935,83.2879159 248.738431,80.3759116 252.336109,80.3759116 Z M256.892199,84.603605 L256.160313,83.8651934 C256.088089,83.7903759 255.988492,83.7481089 255.884418,83.7481089 C255.780345,83.7481089 255.680748,83.7903759 255.608524,83.8651934 L251.010283,88.414268 L249.067527,86.4591989 C248.995303,86.3843814 248.895706,86.3421144 248.791632,86.3421144 C248.687559,86.3421144 248.587962,86.3843814 248.515738,86.4591989 L247.783851,87.1976105 C247.708919,87.2697236 247.666586,87.3691669 247.666586,87.4730801 C247.666586,87.5769933 247.708919,87.6764367 247.783851,87.7485497 L250.734389,90.7175 C250.806613,90.7923175 250.90621,90.8345845 251.010283,90.8345845 C251.114357,90.8345845 251.213954,90.7923175 251.286178,90.7175 L256.892199,85.1621961 C256.967132,85.0900831 257.009464,84.9906397 257.009464,84.8867265 C257.009464,84.7828133 256.967132,84.68337 256.892199,84.6112569 L256.892199,84.603605 Z" id="Shape" fill="#3ACC6C" fill-rule="nonzero" opacity="0.7"></path>
            <path d="M344.657283,118.497845 C340.227816,118.15462 336.357882,121.460552 336.012145,125.883044 C335.666409,130.305536 338.975706,134.170991 343.404864,134.518174 C347.834021,134.865358 351.706917,131.562886 352.056618,127.140704 C352.224751,125.014562 351.539338,122.908913 350.151408,121.287729 C348.763477,119.666545 346.786927,118.662865 344.657283,118.497845 Z M344.534663,120.047362 C347.164725,120.244692 349.416078,122.006024 350.237073,124.508607 C351.058068,127.01119 350.286672,129.76111 348.283219,131.47383 C346.279765,133.186549 343.43966,133.524042 341.089567,132.32866 C338.739474,131.133277 337.343212,128.640943 337.553001,126.01587 C337.685077,124.299582 338.495136,122.706136 339.804705,121.586608 C341.114273,120.467079 342.815895,119.913329 344.534663,120.047362 Z M348.749717,124.615566 L348.075308,123.823591 C348.009616,123.743608 347.914288,123.693591 347.811053,123.684941 C347.707818,123.676291 347.605475,123.709746 347.527351,123.77768 L342.595738,127.959461 L340.810088,125.859006 C340.744326,125.77785 340.648206,125.727048 340.544015,125.718379 C340.439823,125.70971 340.336608,125.743926 340.258299,125.813094 L339.465103,126.486464 C339.385551,126.552606 339.336187,126.648071 339.328248,126.751128 C339.320308,126.854186 339.354468,126.956066 339.422952,127.033577 L342.132082,130.220608 C342.197774,130.300591 342.293102,130.350608 342.396337,130.359258 C342.499572,130.367907 342.601916,130.334453 342.680039,130.266519 L348.703734,125.16268 C348.783841,125.097089 348.833935,125.001907 348.842598,124.898832 C348.851261,124.795756 348.817755,124.69357 348.749717,124.615566 Z" id="Shape" fill="#3ACC6C" fill-rule="nonzero" opacity="0.7"></path>
            <path d="M111.549482,195.946856 L105.590929,199.711608 L109.200547,193.157726 C108.178439,192.34347 106.913732,191.892485 105.606256,191.876027 L105.510459,191.876027 C105.097199,191.884096 104.684094,191.853353 104.276598,191.784204 L102.261036,193.062077 L103.123206,191.493431 C101.695298,190.993014 100.46173,190.055875 99.5978886,188.815254 L95.9921017,191.110834 L98.2682307,186.971138 C96.1607038,184.442174 93.3174585,182.892657 90.1868231,182.892657 C86.4354252,182.892657 83.0940371,185.11937 80.936696,188.593348 C79.6343553,190.711166 77.2932846,191.967554 74.8057087,191.883679 L74.6064516,191.883679 C70.4642033,191.883679 67.1074878,196.570489 67.1074878,202.355351 C67.1074878,208.140213 70.4642033,212.827022 74.6064516,212.827022 C75.5166369,212.824136 76.4123723,212.599562 77.2159531,212.172782 C80.070181,210.790255 83.3878168,210.725934 86.2936461,211.996787 C88.7493864,213.091014 91.5552861,213.091014 94.0110264,211.996787 C96.8921289,210.750018 100.173299,210.812833 103.004418,212.168956 C103.803112,212.585121 104.690026,212.804212 105.590929,212.807892 C109.733177,212.807892 113.089892,208.121083 113.089892,202.336221 C113.119684,200.11132 112.590052,197.914498 111.549482,195.946856 Z" id="Path" fill="#66C5C9"></path>
            <path d="M100.341271,211.269853 C98.1774731,210.861079 95.9408211,211.103443 93.9152297,211.966179 C91.4614127,213.063158 88.6554983,213.063158 86.2016813,211.966179 C83.2965802,210.691684 79.977347,210.756035 77.1239883,212.142174 C76.3185414,212.567685 75.4218876,212.79216 74.5106549,212.796414 C70.8320626,212.796414 67.7704008,209.092878 67.1343109,204.210945 C67.8703574,203.677248 68.4951139,203.005369 68.973607,202.23292 C71.1309482,198.762768 74.4723363,196.536055 78.2237341,196.536055 C81.975132,196.536055 85.2820332,198.716856 87.4355425,202.160226 C88.7427329,204.271229 91.0618114,205.544396 93.5473705,205.515599 L93.6431672,205.515599 C96.5707136,205.507947 99.1074096,207.849439 100.341271,211.269853 Z" id="Path" fill="#000000" opacity="0.05"></path>
            <path d="M295.095914,50.1775192 L289.137361,53.9422706 L292.746979,47.3883894 C291.724871,46.5741335 290.460164,46.1231477 289.152688,46.1066905 L289.056891,46.1066905 C288.643631,46.1147588 288.230526,46.0840158 287.82303,46.0148673 L285.807468,47.2927402 L286.669638,45.7240938 C285.24173,45.2236769 284.008162,44.2865378 283.144321,43.045917 L279.538534,45.3414971 L281.814663,41.201801 C279.707136,38.6728369 276.863891,37.1233203 273.733255,37.1233203 C269.981857,37.1233203 266.640469,39.350033 264.483128,42.8240109 C263.180787,44.9418294 260.839717,46.1982173 258.352141,46.1143424 L258.152884,46.1143424 C254.010635,46.1143424 250.65392,50.8011518 250.65392,56.5860137 C250.65392,62.3708756 254.010635,67.0576849 258.152884,67.0576849 C259.063069,67.0547987 259.958804,66.8302246 260.762385,66.4034446 C263.616613,65.0209176 266.934249,64.9565967 269.840078,66.2274501 C272.293097,67.3277679 275.098998,67.3347232 277.557458,66.24658 C280.438561,64.9998112 283.719731,65.0626255 286.55085,66.4187485 C287.349544,66.8349136 288.236458,67.0540049 289.137361,67.0576849 C293.279609,67.0576849 296.636325,62.3708756 296.636325,56.5860137 C296.669333,54.3546576 296.139607,52.1508646 295.095914,50.1775192 Z" id="Path" fill="#66C5C9"></path>
            <path d="M283.887703,65.5005164 C281.723905,65.0917419 279.487253,65.3341055 277.461662,66.1968424 C275.007845,67.2938207 272.20193,67.2938207 269.748113,66.1968424 C266.843012,64.9223465 263.523779,64.9866984 260.67042,66.3728369 C259.864973,66.7983479 258.96832,67.0228225 258.057087,67.0270772 C254.378495,67.0270772 251.316833,63.3235413 250.680743,58.4416076 C251.416789,57.907911 252.041546,57.2360323 252.520039,56.4635827 C254.67738,52.9934308 258.018768,50.7667181 261.770166,50.7667181 C265.521564,50.7667181 268.828465,52.9475192 270.981975,56.3908894 C272.292696,58.5077877 274.620611,59.7818113 277.112962,59.7462623 L277.208759,59.7462623 C280.117146,59.7386104 282.653842,62.0801021 283.887703,65.5005164 Z" id="Path" fill="#000000" opacity="0.05"></path>
            <path d="M33.7549169,51.9412899 L30.7852199,53.8198396 L32.5861975,50.552464 C32.0772255,50.1440224 31.4458212,49.9177135 30.7928837,49.9097015 L30.7469013,49.9097015 C30.5403279,49.9118302 30.3339455,49.8964714 30.1299707,49.8637899 L29.1260215,50.4989004 L29.5551906,49.733707 C28.8427943,49.484508 28.2273037,49.0172412 27.7963636,48.3984446 L25.999218,49.5462347 L27.1487781,47.4840385 C26.1807222,46.2339462 24.6998265,45.4862053 23.117654,45.4486242 C21.2477028,45.4486242 19.5808407,46.5581546 18.5194135,48.2913175 C17.8690007,49.3505759 16.697496,49.977828 15.4539198,49.9326573 L15.3542913,49.9326573 C13.288915,49.9326573 11.6143891,52.274149 11.6143891,55.158928 C11.6143891,58.043707 13.288915,60.3813728 15.3542913,60.3813728 C15.8085366,60.3799018 16.2556282,60.268301 16.6571261,60.0561656 C18.0807016,59.364229 19.7369356,59.3320507 21.186393,59.9681684 C22.4061483,60.5095036 23.7985046,60.5095036 25.01826,59.9681684 C26.4557951,59.3455039 28.0934381,59.3776199 29.5053763,60.0561656 C29.9034747,60.2618717 30.3446441,60.3706833 30.7928837,60.3737209 C32.85826,60.3737209 34.5327859,58.0360551 34.5327859,55.1512761 C34.5473224,54.0330664 34.2798201,52.9291807 33.7549169,51.9412899 Z" id="Path" fill="#66C5C9"></path>
            <path d="M28.1642229,59.5855717 C27.0843049,59.3790675 25.9671895,59.5003351 24.9569501,59.9337347 C24.3533034,60.1998691 23.7008907,60.3379676 23.0410166,60.3392872 C22.3736407,60.3390924 21.7139653,60.1969262 21.1059238,59.9222568 C19.6555949,59.2889035 18.0000414,59.3224671 16.5766569,60.01408 C16.1765268,60.22619 15.7306787,60.3378087 15.277654,60.3392872 C13.4421896,60.3392872 11.9132747,58.4913452 11.5952297,56.0580302 C11.9613566,55.7898198 12.2733872,55.4549034 12.5148778,55.0709308 C13.5878006,53.3377678 15.2546628,52.2282374 17.1131183,52.2282374 C18.9715738,52.2282374 20.6307722,53.3262899 21.7113587,55.0364971 C22.3664933,56.0944702 23.5312568,56.7297426 24.7768524,56.7084446 L24.8266667,56.7084446 C26.2712805,56.7084446 27.5472923,57.8791905 28.1642229,59.5855717 Z" id="Path" fill="#000000" opacity="0.05"></path>
            <path d="M356.279335,219.224039 L353.309638,221.102588 L355.110616,217.835213 C354.601644,217.426771 353.97024,217.200462 353.317302,217.19245 L353.27132,217.19245 C353.064746,217.194579 352.858364,217.17922 352.654389,217.146539 L351.65044,217.781649 L352.079609,217.016456 C351.367213,216.767257 350.751722,216.29999 350.320782,215.681193 L348.523636,216.828983 L349.673196,214.766787 C348.705141,213.516695 347.224245,212.768954 345.642072,212.731373 C343.772121,212.731373 342.105259,213.840903 341.043832,215.574066 C340.393419,216.633325 339.221914,217.260577 337.978338,217.215406 L337.87871,217.215406 C335.813333,217.215406 334.138807,219.556898 334.138807,222.441677 C334.138807,225.326456 335.813333,227.664121 337.87871,227.664121 C338.332955,227.66265 338.780047,227.55105 339.181544,227.338914 C340.60512,226.646978 342.261354,226.614799 343.710811,227.250917 C344.930567,227.792252 346.322923,227.792252 347.542678,227.250917 C348.980214,226.628253 350.617857,226.660368 352.029795,227.338914 C352.427893,227.54462 352.869063,227.653432 353.317302,227.656469 C355.382678,227.656469 357.057204,225.318804 357.057204,222.434025 C357.071741,221.315815 356.804239,220.211929 356.279335,219.224039 Z" id="Path" fill="#66C5C9"></path>
            <path d="M22.2593157,248.978583 L19.2896188,250.857132 L21.0905963,247.589757 C20.5816243,247.181315 19.9502201,246.955006 19.2972825,246.946994 L19.2513001,246.946994 C19.0447267,246.949123 18.8383443,246.933764 18.6343695,246.901083 L17.6304203,247.536193 L18.0595894,246.771 C17.3471931,246.521801 16.7317025,246.054534 16.3007625,245.435737 L14.5036168,246.583527 L15.6531769,244.521331 C14.685121,243.271239 13.2042253,242.523498 11.6220528,242.485917 C9.75210166,242.485917 8.08523949,243.595447 7.02381232,245.32861 C6.37339958,246.387869 5.20189484,247.015121 3.95831867,246.96995 L3.85869013,246.96995 C1.79331378,246.96995 0.118787879,249.311442 0.118787879,252.196221 C0.118787879,255.081 1.79331378,257.418666 3.85869013,257.418666 C4.31293538,257.417195 4.76002701,257.305594 5.16152493,257.093458 C6.58510043,256.401522 8.24133443,256.369344 9.69079179,257.005461 C10.9105472,257.546796 12.3029035,257.546796 13.5226588,257.005461 C14.960194,256.382797 16.597837,256.414913 18.0097752,257.093458 C18.4078735,257.299165 18.849043,257.407976 19.2972825,257.411014 C21.3626588,257.411014 23.0371848,255.073348 23.0371848,252.188569 C23.0517212,251.070359 22.784219,249.966473 22.2593157,248.978583 Z" id="Path" fill="#66C5C9"></path>
            <path d="M16.6686217,256.622865 C15.5887037,256.41636 14.4715883,256.537628 13.461349,256.971027 C12.8577022,257.237162 12.2052896,257.37526 11.5454154,257.37658 C10.8780395,257.376385 10.2183641,257.234219 9.61032258,256.95955 C8.15999375,256.326196 6.50444019,256.35976 5.08105572,257.051373 C4.68092564,257.263483 4.23507752,257.375101 3.78205279,257.37658 C1.94658847,257.37658 0.417673509,255.528638 0.0996285435,253.095323 C0.465755392,252.827113 0.777786028,252.492196 1.01927664,252.108224 C2.09219941,250.375061 3.75906158,249.26553 5.61751711,249.26553 C7.47597263,249.26553 9.13517107,250.363583 10.2157576,252.07379 C10.8708921,253.131763 12.0356556,253.767035 13.2812512,253.745737 L13.3310655,253.745737 C14.7756794,253.745737 16.0516911,254.916483 16.6686217,256.622865 Z" id="Path" fill="#000000" opacity="0.05"></path>
            <path d="M159.44782,13.0656407 L153.489267,16.8303921 L157.098886,10.2765109 C156.076778,9.46225503 154.81207,9.01126921 153.504594,8.99481202 L153.408798,8.99481202 C152.995537,9.00288038 152.582433,8.97213737 152.174936,8.90298881 L150.159374,10.1808617 L151.021544,8.61221533 C149.593636,8.11179849 148.360068,7.17465937 147.496227,5.93403854 L143.89044,8.22961865 L146.166569,4.08992251 C144.059042,1.56095843 141.215797,0.0114418507 138.085161,0.0114418507 C134.333763,0.0114418507 130.992375,2.23815456 128.835034,5.71213246 C127.532693,7.82995092 125.191623,9.08633887 122.704047,9.00246395 L122.50479,9.00246395 C118.362542,9.00246395 115.005826,13.6892733 115.005826,19.4741352 C115.005826,25.2589971 118.362542,29.9458065 122.50479,29.9458065 C123.414975,29.9429202 124.31071,29.7183462 125.114291,29.2915662 C127.968519,27.9090391 131.286155,27.8447182 134.191984,29.1155717 C136.645003,30.2158895 139.450904,30.2228447 141.909365,29.1347015 C144.790467,27.8879327 148.071637,27.9507471 150.902757,29.30687 C151.70145,29.7230352 152.588364,29.9421264 153.489267,29.9458065 C157.631515,29.9458065 160.988231,25.2589971 160.988231,19.4741352 C161.021239,17.2427792 160.491514,15.0389861 159.44782,13.0656407 Z" id="Path" fill="#66C5C9"></path>
            <path d="M148.239609,28.388638 C146.075811,27.9798634 143.839159,28.2222271 141.813568,29.084964 C139.359751,30.1819422 136.553837,30.1819422 134.10002,29.084964 C131.194918,27.8104681 127.875685,27.87482 125.022326,29.2609584 C124.21688,29.6864694 123.320226,29.9109441 122.408993,29.9151988 C118.730401,29.9151988 115.668739,26.2116628 115.032649,21.3297291 C115.768696,20.7960326 116.393452,20.1241539 116.871945,19.3517043 C119.029286,15.8815523 122.370674,13.6548396 126.122072,13.6548396 C129.87347,13.6548396 133.180371,15.8356407 135.333881,19.2790109 C136.644602,21.3959092 138.972517,22.6699329 141.464868,22.6343838 L141.560665,22.6343838 C144.469052,22.6267319 147.005748,24.9682236 148.239609,28.388638 Z" id="Path" fill="#000000" opacity="0.05"></path>
            <path d="M362.52911,78.7230579 L359.559413,80.6016076 L361.360391,77.3342319 C360.851419,76.9257904 360.220015,76.6994815 359.567077,76.6914695 L359.521095,76.6914695 C359.314521,76.6935982 359.108139,76.6782393 358.904164,76.6455579 L357.900215,77.2806684 L358.329384,76.515475 C357.616988,76.2662759 357.001497,75.7990091 356.570557,75.1802126 L354.773412,76.3280026 L355.922972,74.2658065 C354.954916,73.0157142 353.47402,72.2679733 351.891848,72.2303921 C350.021896,72.2303921 348.355034,73.3399225 347.293607,75.0730855 C346.643194,76.1323439 345.47169,76.759596 344.228113,76.7144253 L344.128485,76.7144253 C342.063109,76.7144253 340.388583,79.055917 340.388583,81.940696 C340.388583,84.825475 342.063109,87.1631407 344.128485,87.1631407 C344.58273,87.1616698 345.029822,87.050069 345.43132,86.8379336 C346.854895,86.1459969 348.511129,86.1138186 349.960587,86.7499363 C351.180342,87.2912716 352.572698,87.2912716 353.792454,86.7499363 C355.229989,86.1272719 356.867632,86.1593878 358.27957,86.8379336 C358.677668,87.0436397 359.118838,87.1524512 359.567077,87.1554888 C361.632454,87.1554888 363.306979,84.8178231 363.306979,81.9330441 C363.321516,80.8148343 363.054014,79.7109486 362.52911,78.7230579 Z" id="Path" fill="#66C5C9"></path>
            <path d="M356.938416,86.3673396 C355.858498,86.1608355 354.741383,86.2821031 353.731144,86.7155026 C353.127497,86.981637 352.475084,87.1197356 351.81521,87.1210551 C351.154296,87.1181569 350.501431,86.9760515 349.899277,86.7040247 C348.448948,86.0706715 346.793394,86.104235 345.37001,86.7958479 C344.96988,87.0079579 344.524032,87.1195766 344.071007,87.1210551 C342.235543,87.1210551 340.706628,85.2731131 340.388583,82.8397982 C340.754709,82.5715878 341.06674,82.2366713 341.308231,81.8526988 C342.381153,80.1195358 344.048016,79.0100054 345.906471,79.0100054 C347.764927,79.0100054 349.424125,80.1080579 350.504712,81.8182651 C351.156321,82.8703311 352.312239,83.5047441 353.551046,83.4902126 L353.60086,83.4902126 C355.045474,83.4902126 356.321486,84.6609584 356.938416,86.3673396 Z" id="Path" fill="#000000" opacity="0.05"></path>
        </g>
    </g>
</svg>