<?xml version="1.0" encoding="UTF-8"?>
<svg version="1.1" viewBox="0 0 300 141" xmlns="http://www.w3.org/2000/svg">
<g fill="none" fill-rule="evenodd">
<g fill="#fff" fill-rule="nonzero">
<path d="m21.818 122.67c-0.28494 0.2438-0.52917 0.56888-0.65129 0.97522l-3.2972 10.809-3.2972-10.768c-0.12212-0.44698-0.36635-0.77205-0.7327-1.0565-0.7327-0.52824-1.7096-0.52824-2.4423 0-0.36635 0.28444-0.61058 0.60951-0.7327 1.0565l-3.3379 10.768-3.2972-10.809c-0.12212-0.40634-0.32564-0.73141-0.65129-0.97522-0.7327-0.60951-1.8318-0.52824-2.483 0.1219-0.36635 0.36571-0.52917 0.81268-0.48847 1.3003 0 0.16254 0.040706 0.36571 0.12212 0.65014l4.6811 14.425c0.16282 0.48761 0.44776 0.89395 0.81411 1.1378 0.77341 0.56888 1.8318 0.56888 2.6459-0.040634 0.40706-0.28444 0.65129-0.69078 0.81411-1.1378l3.1343-9.8741 3.1343 9.8741c0.12212 0.48761 0.40706 0.85331 0.81411 1.1784 0.40706 0.28444 0.85482 0.44697 1.3433 0.44697 0.48847 0 0.93623-0.16254 1.3026-0.40634 0.36635-0.28444 0.65129-0.65014 0.81411-1.1784l4.7218-14.425c0.081411-0.2438 0.081411-0.44697 0.081411-0.56888 0.040706-0.52824-0.12212-0.97522-0.48847-1.3409-0.65129-0.69078-1.791-0.77205-2.5237-0.16254zm82.673 0.1219c-0.32564 0.36571-0.52917 0.81268-0.52917 1.3003v10.484l-7.8562-11.296c-0.65129-0.85331-1.384-1.0158-1.9132-1.0158h-0.32564c-0.65129 0-1.1805 0.2438-1.6282 0.69078-0.44776 0.44698-0.69199 1.0159-0.69199 1.6254v14.263c0 0.48761 0.20353 0.97522 0.52917 1.3003 0.69199 0.69078 1.9132 0.69078 2.6052 0 0.36635-0.36571 0.56988-0.81268 0.56988-1.3003v-10.484l7.8969 11.378c0.20353 0.28444 0.48847 0.48761 0.81411 0.69078 0.32564 0.16254 0.692 0.28444 1.0583 0.28444h0.28494c0.65129 0 1.1805-0.2438 1.6282-0.65014 0.44776-0.44697 0.692-1.0158 0.692-1.6254v-14.263c0-0.48761-0.20353-0.97522-0.52917-1.3003-0.69199-0.81268-1.9132-0.77205-2.6052-0.081268zm-20.393 0c-0.32564 0.36571-0.52917 0.81268-0.52917 1.3003v14.75c0 0.48761 0.20353 0.97522 0.52917 1.3003 0.36635 0.36571 0.81411 0.52824 1.3026 0.52824 0.48847 0 0.93623-0.16254 1.3026-0.52824s0.56988-0.81268 0.56988-1.3003v-14.75c0-0.48761-0.20353-0.97522-0.52917-1.3003-0.77341-0.73141-1.9539-0.69078-2.6459 0zm-43.718 0.52824c-1.384-0.81268-2.9715-1.219-4.7626-1.219s-3.4193 0.40634-4.8033 1.219c-1.384 0.81268-2.4423 1.9098-3.2157 3.332-0.7327 1.3816-1.1398 3.0069-1.1805 4.7948 0.040706 1.7879 0.44776 3.4133 1.1805 4.7948 0.7327 1.4222 1.8318 2.5193 3.2157 3.332 1.384 0.81268 2.9715 1.219 4.8033 1.219 1.791 0 3.4193-0.40634 4.7626-1.219 1.384-0.81268 2.4423-1.9098 3.2157-3.332 0.7327-1.3816 1.1398-3.0069 1.1805-4.7948-0.040706-1.7879-0.44776-3.3726-1.1805-4.7542-0.77341-1.4222-1.8318-2.5599-3.2157-3.3726zm0.040706 11.134c-0.44776 0.85331-1.0583 1.5441-1.8725 2.0317-0.81411 0.48761-1.791 0.73141-2.9308 0.73141s-2.1167-0.2438-2.9308-0.73141c-0.81411-0.48761-1.4247-1.1784-1.8725-2.0317-0.44776-0.89395-0.65129-1.8692-0.65129-3.0069 0-1.1378 0.20353-2.113 0.65129-3.0069 0.44776-0.85331 1.0583-1.5441 1.8725-2.0317 0.81411-0.48761 1.791-0.73141 2.9308-0.73141s2.1167 0.2438 2.9308 0.73141c0.81411 0.48761 1.4247 1.1784 1.8725 2.0317 0.44776 0.89395 0.65129 1.9098 0.65129 3.0069 0 1.1378-0.24423 2.1536-0.65129 3.0069zm84.953-4.551h-4.7218c-0.48847 0-0.89552 0.16254-1.2212 0.52824-0.32564 0.32507-0.48847 0.77205-0.48847 1.219 0 0.48761 0.16282 0.89395 0.52917 1.219 0.32564 0.32507 0.7734 0.52824 1.2212 0.52824h3.175v3.0882c-2.1167 1.0159-4.8033 1.0159-6.5129 0-0.85482-0.48761-1.5061-1.1378-1.9539-2.0317-0.44776-0.85331-0.69199-1.8692-0.69199-2.9663 0-1.219 0.24423-2.2755 0.7327-3.1288s1.1398-1.5035 1.9946-1.9504c1.5061-0.77205 3.5414-0.85331 5.1696-0.36571 0.692 0.20317 1.384 0.52824 2.1167 0.97522 0.7327 0.36571 1.5875 0.20317 2.1167-0.32507 0.32564-0.32507 0.48847-0.77205 0.48847-1.219 0-0.32507-0.081411-0.65014-0.24423-0.93458s-0.40706-0.48761-0.56988-0.56888c-0.89552-0.56888-1.8725-1.0159-2.8494-1.3409-1.0176-0.32507-2.1981-0.48761-3.5007-0.48761-1.6689 0-3.2157 0.40634-4.5997 1.1784-1.384 0.77205-2.483 1.9098-3.2972 3.332s-1.1805 3.0476-1.1805 4.8761c0 1.7879 0.36635 3.3726 1.1398 4.7948 0.77341 1.4222 1.8725 2.5599 3.2564 3.332 1.384 0.77205 2.9715 1.1784 4.7626 1.1784 1.9946 0 3.9484-0.48761 5.8209-1.4222 0.40706-0.20317 0.7327-0.48761 0.97693-0.85331 0.24423-0.36571 0.36635-0.81268 0.36635-1.3003v-5.4043c0-0.52824-0.20353-0.97522-0.56988-1.3409-0.44776-0.40634-0.93623-0.60951-1.4654-0.60951zm-63.541 1.1378c0.61058-0.89395 0.93623-1.9504 0.93623-3.0476 0-1.666-0.65129-3.0476-1.9132-4.104-1.2212-1.0159-3.0122-1.5035-5.3731-1.5035h-5.5767c-0.52917 0-0.97693 0.20317-1.3026 0.56888s-0.52917 0.81268-0.52917 1.3003v14.628c0 0.48761 0.20353 0.97522 0.52917 1.3003 0.69199 0.69078 1.9132 0.69078 2.6052 0 0.36635-0.36571 0.56988-0.81268 0.56988-1.3003v-4.7948h4.1927c0.89552 0 1.5468 0.20317 1.9132 0.56888 0.44776 0.44697 0.69199 0.89395 0.81411 1.4222 0.12212 0.60951 0.20353 1.3003 0.20353 2.0723v0.73141c0 0.52824 0.16282 0.97522 0.52917 1.3003 0.32564 0.32507 0.81411 0.52824 1.3433 0.52824 0.48847 0 0.93623-0.20317 1.3026-0.52824 0.36635-0.36571 0.52917-0.81268 0.52917-1.3003v-1.1378c0-1.1784-0.24423-2.3568-0.69199-3.5758-0.28494-0.81268-0.77341-1.4222-1.3433-1.8692 0.52917-0.36571 0.93623-0.77205 1.2619-1.2597zm-3.6228-1.219c-0.69199 0.44697-1.6282 0.69078-2.8494 0.69078h-3.5821v-4.551h3.46c1.8725 0 2.7273 0.32507 3.0936 0.60951 0.48847 0.36571 0.7327 0.85331 0.7327 1.5847s-0.28494 1.2597-0.85482 1.666zm16.282 0.44697l5.0475-4.998c0.20353-0.20317 0.48847-0.60951 0.48847-1.2597 0-0.48761-0.20353-0.89395-0.52917-1.2597-0.7327-0.69078-1.9539-0.56888-2.5645 0.1219l-6.9199 6.989v-5.7294c0-0.48761-0.20353-0.97522-0.52917-1.3003-0.7327-0.73141-1.9132-0.69078-2.6459 0-0.32564 0.36571-0.52917 0.81268-0.52917 1.3003v14.75c0 0.48761 0.20353 0.97522 0.52917 1.3003 0.69199 0.69078 1.9132 0.69078 2.6052 0 0.36635-0.36571 0.56988-0.81268 0.56988-1.3003v-4.1447l1.9132-1.9098 5.6174 7.1516c0.36635 0.48761 0.85482 0.73141 1.4654 0.73141 0.48847 0 0.93623-0.20317 1.3026-0.52824 0.36635-0.36571 0.52917-0.81268 0.52917-1.2597 0-0.40634-0.16282-0.81268-0.40706-1.1784l-5.943-7.4767zm178.17-7.883h-11.927c-0.48847 0-0.93623 0.20317-1.2619 0.52824-0.32564 0.32507-0.48847 0.77205-0.48847 1.2597s0.16282 0.93458 0.52917 1.2597c0.32564 0.32507 0.77341 0.52824 1.2619 0.52824h4.1113v12.922c0 0.48761 0.20353 0.93458 0.52917 1.3003 0.36635 0.36571 0.81411 0.52824 1.3026 0.52824s0.93623-0.16254 1.3026-0.52824 0.56988-0.81268 0.56988-1.3003v-12.922h4.1113c0.48847 0 0.93623-0.16254 1.2619-0.48761 0.36635-0.32507 0.52917-0.77205 0.52917-1.2597s-0.16282-0.93458-0.52917-1.2597c-0.40706-0.40634-0.81411-0.56888-1.3026-0.56888zm-25.034 0.85331c-1.0583-0.56888-2.4423-0.85331-4.0706-0.85331h-5.4545c-0.52917 0-0.97693 0.20317-1.3026 0.56888-0.32564 0.36571-0.52917 0.81268-0.52917 1.3003v14.628c0 0.48761 0.20353 0.97522 0.52917 1.3003 0.36635 0.36571 0.81411 0.52824 1.3026 0.52824s0.93623-0.16254 1.3026-0.52824 0.56988-0.81268 0.56988-1.3003v-4.3885h3.5821c1.6282 0 3.0122-0.28444 4.0706-0.85331 1.099-0.56888 1.8725-1.3409 2.3609-2.2755 0.48847-0.89395 0.692-1.8692 0.692-2.9256s-0.24423-2.0317-0.692-2.9256c-0.48847-0.93458-1.2619-1.7066-2.3609-2.2755zm-1.384 6.9484c-0.48847 0.48761-1.5061 0.73141-2.9308 0.73141h-3.3786v-4.9573h3.3786c1.384 0 2.4016 0.2438 2.9308 0.73141 0.48847 0.48761 0.7734 1.0565 0.7734 1.7473s-0.24423 1.3003-0.7734 1.7473zm51.574-7.5173c-0.28494 0.2438-0.52917 0.56888-0.65129 0.97522l-3.2972 10.809-3.2972-10.768c-0.12212-0.44698-0.36635-0.77205-0.7327-1.0565-0.7327-0.52824-1.7096-0.52824-2.4423 0-0.36635 0.28444-0.61058 0.60951-0.7327 1.0565l-3.2972 10.768-3.2972-10.809c-0.12212-0.40634-0.32564-0.73141-0.65129-0.97522-0.7327-0.60951-1.8318-0.52824-2.483 0.1219-0.36635 0.36571-0.52917 0.81268-0.48847 1.3003 0 0.16254 0.040706 0.36571 0.12212 0.65014l4.6811 14.425c0.16282 0.48761 0.44776 0.89395 0.81411 1.1378 0.77341 0.56888 1.8318 0.56888 2.6459-0.040634 0.40706-0.28444 0.65129-0.69078 0.81411-1.1378l3.1343-9.8741 3.1343 9.8741c0.12212 0.48761 0.40706 0.85331 0.81411 1.1784 0.40706 0.28444 0.85482 0.44697 1.3433 0.44697 0.48847 0 0.93623-0.16254 1.3026-0.40634 0.36635-0.28444 0.65129-0.65014 0.81411-1.1784l4.7218-14.425c0.081411-0.2438 0.081411-0.44697 0.081411-0.56888 0.040706-0.52824-0.12212-0.97522-0.48847-1.3409-0.7327-0.69078-1.8725-0.77205-2.5645-0.16254zm20.963 4.0228c-0.77341-1.4222-1.8318-2.5599-3.2157-3.332-1.384-0.81268-2.9715-1.219-4.7626-1.219s-3.4193 0.40634-4.8033 1.219c-1.384 0.81268-2.4423 1.9098-3.2157 3.332-0.7327 1.3816-1.1398 3.0069-1.1805 4.7948 0.040706 1.7879 0.44776 3.4133 1.1805 4.7948 0.7327 1.4222 1.8318 2.5193 3.2157 3.332s2.9715 1.219 4.8033 1.219c1.791 0 3.4193-0.40634 4.7626-1.219 1.384-0.81268 2.4423-1.9098 3.2157-3.332 0.7327-1.3816 1.1398-3.0069 1.1805-4.7948-0.040705-1.7879-0.40706-3.4133-1.1805-4.7948zm-3.175 7.7611c-0.44776 0.85331-1.0583 1.5441-1.8725 2.0317-0.81411 0.48761-1.791 0.73141-2.9308 0.73141s-2.1167-0.2438-2.9308-0.73141-1.4247-1.1784-1.8725-2.0317c-0.44776-0.89395-0.65129-1.8692-0.65129-3.0069 0-1.1378 0.20353-2.113 0.65129-3.0069 0.44776-0.85331 1.0583-1.5441 1.8725-2.0317s1.791-0.73141 2.9308-0.73141 2.1167 0.2438 2.9308 0.73141c0.81411 0.48761 1.4247 1.1784 1.8725 2.0317 0.44776 0.89395 0.65129 1.9098 0.65129 3.0069 0 1.1378-0.20353 2.1536-0.65129 3.0069zm-143.49-4.551h-4.7218c-0.48847 0-0.89552 0.16254-1.2212 0.52824-0.32564 0.32507-0.48847 0.77205-0.48847 1.219 0 0.48761 0.16282 0.89395 0.52917 1.219 0.32564 0.32507 0.7734 0.52824 1.2212 0.52824h3.175v3.0882c-2.1167 1.0159-4.8033 1.0159-6.5129 0-0.85482-0.48761-1.5061-1.1378-1.9539-2.0317-0.44776-0.85331-0.69199-1.8692-0.69199-2.9663 0-1.219 0.24423-2.2755 0.7327-3.1288s1.1398-1.5035 1.9946-1.9504c1.5061-0.77205 3.5414-0.85331 5.1696-0.36571 0.692 0.20317 1.384 0.52824 2.1167 0.97522 0.7327 0.36571 1.5875 0.20317 2.1167-0.32507 0.32564-0.32507 0.48847-0.77205 0.48847-1.219 0-0.32507-0.081411-0.65014-0.24423-0.93458s-0.40706-0.48761-0.56988-0.56888c-0.89552-0.56888-1.8725-1.0159-2.8494-1.3409-1.0176-0.32507-2.1981-0.48761-3.5007-0.48761-1.6689 0-3.2157 0.40634-4.5997 1.1784-1.384 0.77205-2.483 1.9098-3.2972 3.332s-1.1805 3.0476-1.1805 4.8761c0 1.7879 0.36635 3.3726 1.1398 4.7948 0.77341 1.4222 1.8725 2.5599 3.2564 3.332 1.384 0.77205 2.9715 1.1784 4.7626 1.1784 1.9946 0 3.9484-0.48761 5.8209-1.4222 0.40706-0.20317 0.7327-0.48761 0.97693-0.85331 0.24423-0.36571 0.36635-0.81268 0.36635-1.3003v-5.4043c0-0.52824-0.20353-0.97522-0.56988-1.3409-0.44776-0.40634-0.93623-0.60951-1.4654-0.60951zm56.784-7.111c-0.32564 0.36571-0.52917 0.81268-0.52917 1.3003v9.5084c0 0.81268-0.16282 1.4628-0.52917 2.0317s-0.81411 0.97522-1.4247 1.219c-1.2212 0.56888-2.7273 0.56888-3.9484 0-0.61058-0.28444-1.0583-0.69078-1.4247-1.219s-0.52917-1.219-0.52917-2.0317v-9.5084c0-0.48761-0.20353-0.97522-0.52917-1.3003-0.7327-0.73141-1.9132-0.69078-2.6459 0-0.32564 0.36571-0.52917 0.81268-0.52917 1.3003v9.4271c0 1.5847 0.36635 2.9256 1.1398 4.0228 0.7327 1.0971 1.7096 1.9098 2.8901 2.438 1.1398 0.52824 2.3609 0.77205 3.5821 0.77205s2.4423-0.2438 3.5821-0.77205c1.1805-0.52824 2.1574-1.3409 2.8901-2.438 0.77341-1.0971 1.1398-2.438 1.1398-4.0228v-9.4271c0-0.48761-0.20353-0.97522-0.52917-1.3003-0.7327-0.73141-1.9132-0.69078-2.6052 0zm-19.661 0.52824c-1.384-0.81268-2.9715-1.219-4.7626-1.219s-3.4193 0.40634-4.8033 1.219c-1.384 0.81268-2.4423 1.9098-3.2157 3.332-0.7327 1.3816-1.1398 3.0069-1.1805 4.7948 0.040705 1.7879 0.44776 3.4133 1.1805 4.7948 0.7327 1.4222 1.8318 2.5193 3.2157 3.332 1.384 0.81268 2.9715 1.219 4.8033 1.219 1.791 0 3.4193-0.40634 4.7626-1.219 1.384-0.81268 2.4423-1.9098 3.2157-3.332 0.7327-1.3816 1.1398-3.0069 1.1805-4.7948-0.040706-1.7879-0.44776-3.3726-1.1805-4.7542-0.7734-1.4222-1.8725-2.5599-3.2157-3.3726zm0 11.134c-0.44776 0.85331-1.0583 1.5441-1.8725 2.0317s-1.791 0.73141-2.9308 0.73141c-1.1398 0-2.1167-0.2438-2.9308-0.73141s-1.4247-1.1784-1.8725-2.0317c-0.44776-0.89395-0.65129-1.8692-0.65129-3.0069 0-1.1378 0.20353-2.113 0.65129-3.0069 0.44776-0.85331 1.0583-1.5441 1.8725-2.0317s1.791-0.73141 2.9308-0.73141c1.1398 0 2.1167 0.2438 2.9308 0.73141s1.4247 1.1784 1.8725 2.0317c0.44776 0.89395 0.65129 1.9098 0.65129 3.0069 0 1.1378-0.20353 2.1536-0.65129 3.0069zm-17.422-3.4133c0.61058-0.89395 0.93623-1.9504 0.93623-3.0476 0-1.666-0.65129-3.0476-1.9132-4.104-1.2212-1.0159-3.0122-1.5035-5.3731-1.5035h-5.5767c-0.52917 0-0.97693 0.20317-1.3026 0.56888-0.32564 0.36571-0.52917 0.81268-0.52917 1.3003v14.628c0 0.48761 0.20353 0.97522 0.52917 1.3003 0.69199 0.69078 1.9132 0.69078 2.6052 0 0.36635-0.36571 0.56988-0.81268 0.56988-1.3003v-4.7948h4.1927c0.89552 0 1.5468 0.20317 1.9132 0.56888 0.44776 0.44697 0.692 0.89395 0.81411 1.4222 0.12212 0.60951 0.20353 1.3003 0.20353 2.0723v0.73141c0 0.52824 0.16282 0.97522 0.52917 1.3003 0.32564 0.32507 0.81411 0.52824 1.3433 0.52824 0.48847 0 0.93623-0.20317 1.3026-0.52824 0.36635-0.36571 0.52917-0.81268 0.52917-1.3003v-1.1378c0-1.1784-0.24423-2.3568-0.692-3.5758-0.28494-0.81268-0.77341-1.4222-1.3433-1.8692 0.48847-0.36571 0.89552-0.77205 1.2619-1.2597zm-3.6635-1.219c-0.69199 0.44697-1.6282 0.69078-2.8494 0.69078h-3.5821v-4.551h3.46c1.8725 0 2.7273 0.32507 3.0936 0.60951 0.48847 0.36571 0.7327 0.85331 0.7327 1.5847 0.040706 0.73141-0.24423 1.2597-0.85482 1.666zm29.104-30.272c2.1167 0 4.1113-0.81268 5.5767-2.3161l41.805-41.731c1.5061-1.5035 2.3202-3.4539 2.3202-5.5669s-0.81411-4.104-2.3202-5.5669l-41.805-41.772c-1.5061-1.5035-3.46-2.3161-5.5767-2.3161-2.1167 0-4.1113 0.81268-5.5767 2.3161l-17.951 17.92-17.951-17.92c-1.5061-1.5035-3.46-2.3161-5.5767-2.3161s-4.1113 0.81268-5.5767 2.3161l-17.951 17.92-17.992-17.92c-1.5061-1.5035-3.46-2.3161-5.5767-2.3161-2.1167 0-4.1113 0.81268-5.5767 2.3161l-41.805 41.731c-3.0936 3.0882-3.0936 8.0862 0 11.134l41.805 41.731c1.5061 1.5035 3.46 2.3161 5.5767 2.3161 2.1167 0 4.1113-0.81268 5.5767-2.3161l17.951-17.92 17.951 17.92c1.5061 1.5035 3.46 2.3161 5.5767 2.3161 2.1167 0 4.1113-0.81268 5.5767-2.3161l17.951-17.92 17.951 17.92c1.5061 1.5441 3.5007 2.3568 5.6174 2.3568zm-92.28-6.0138c-0.97693 0.97522-2.7273 0.97522-3.7042 0l-41.845-41.772c-0.48847-0.48761-0.77341-1.1378-0.77341-1.8692 0-0.69078 0.28494-1.3816 0.77341-1.8692l41.805-41.731c0.48847-0.48761 1.1398-0.77205 1.8725-0.77205 0.692 0 1.384 0.28444 1.8725 0.77205l17.951 17.92-20.149 20.114c-1.5061 1.5035-2.3202 3.4539-2.3202 5.5669s0.81411 4.104 2.3202 5.5669l20.149 20.114-17.951 17.96zm71.438-29.947c0 4.2259-3.4193 7.6392-7.6526 7.6392h-6.9607c-1.4247 0-2.5644-1.1378-2.5644-2.5599s1.1398-2.5599 2.5644-2.5599h6.9607c1.4247 0 2.5644-1.1378 2.5644-2.5599v-13.45c0-1.4222 1.1398-2.5599 2.5645-2.5599 1.4247 0 2.5644 1.1378 2.5644 2.5599v13.49h-0.040706zm-2.5644-29.907h-14.735c-1.4247 0-2.5644 1.1378-2.5644 2.5599v2.0317 25.315c0 4.2259-3.4193 7.6392-7.6526 7.6392h-3.5821c-1.9539 0-3.7449-0.73141-5.0882-1.9504-1.3433 1.219-3.1343 1.9504-5.0882 1.9504h-3.5821c-4.2334 0-7.6526-3.4133-7.6526-7.6392v-32.467c0-1.4222 1.1398-2.5599 2.5645-2.5599 1.4247 0 2.5644 1.1378 2.5644 2.5599v32.467c0 1.4222 1.1398 2.5599 2.5644 2.5599h3.5821c1.4247 0 2.5645-1.1378 2.5645-2.5599v-32.467c0-1.4222 1.1398-2.5599 2.5644-2.5599s2.5644 1.1378 2.5644 2.5599v32.467c0 1.4222 1.1398 2.5599 2.5645 2.5599h3.5821c1.4247 0 2.5645-1.1378 2.5645-2.5599v-25.681-1.7066c0-4.2259 3.4193-7.6392 7.6526-7.6392h14.735c1.4247 0 2.5644 1.1378 2.5644 2.5599-0.12212 1.4222-1.2619 2.5599-2.6866 2.5599zm23.731 10.646l-20.149-20.114 17.951-17.92c0.48847-0.48761 1.1398-0.77205 1.8725-0.77205s1.384 0.28444 1.8725 0.77205l41.805 41.731c0.48847 0.48761 0.77341 1.1378 0.77341 1.8692 0 0.69078-0.28494 1.3816-0.77341 1.8692l-41.805 41.772c-0.97693 0.97522-2.7273 0.97522-3.7042 0l-17.951-17.92 20.149-20.114c3.0529-3.0882 3.0529-8.0862-0.040706-11.174z"/>
</g>
</g>
</svg>
