<svg width="78" height="40" xmlns="http://www.w3.org/2000/svg">
    <path d="M57.73 40c.85 0 1.65-.327 2.237-.93l16.768-16.768c.604-.604.93-1.388.93-2.237 0-.849-.326-1.649-.93-2.236L59.967 1.045a3.124 3.124 0 0 0-2.236-.93c-.85 0-1.65.326-2.237.93l-7.2 7.2-7.2-7.2a3.124 3.124 0 0 0-2.237-.93c-.849 0-1.649.326-2.237.93l-7.2 7.2-7.216-7.2a3.124 3.124 0 0 0-2.237-.93c-.849 0-1.649.326-2.236.93L.963 17.812c-1.24 1.241-1.24 3.25 0 4.474l16.768 16.767c.604.604 1.387.93 2.236.93.85 0 1.65-.326 2.237-.93l7.2-7.2 7.2 7.2c.604.604 1.388.93 2.237.93.849 0 1.649-.326 2.237-.93l7.2-7.2 7.2 7.2A3.11 3.11 0 0 0 57.73 40zm-37.012-2.416c-.391.392-1.094.392-1.485 0L2.449 20.8a1.048 1.048 0 0 1-.31-.751c0-.278.114-.555.31-.751L19.216 2.531c.196-.196.457-.31.751-.31.278 0 .555.114.751.31l7.2 7.2-8.081 8.081a3.124 3.124 0 0 0-.93 2.237c0 .849.326 1.649.93 2.237l8.081 8.081-7.2 7.217zM49.371 25.55a3.066 3.066 0 0 1-3.069 3.07H43.51a1.024 1.024 0 0 1-1.028-1.03c0-.57.457-1.028 1.028-1.028h2.792c.571 0 1.029-.457 1.029-1.028V20.13c0-.572.457-1.029 1.028-1.029.572 0 1.029.457 1.029 1.029v5.42h-.017zm-1.028-12.016h-5.91c-.572 0-1.029.457-1.029 1.028v10.988a3.066 3.066 0 0 1-3.07 3.07h-1.436a3.024 3.024 0 0 1-2.04-.784 3.024 3.024 0 0 1-2.042.783H31.38a3.066 3.066 0 0 1-3.07-3.069V12.506c0-.571.457-1.028 1.029-1.028.571 0 1.028.457 1.028 1.028v13.045c0 .571.457 1.029 1.029 1.029h1.437c.571 0 1.028-.458 1.028-1.029V12.506c0-.571.457-1.028 1.029-1.028.571 0 1.028.457 1.028 1.028v13.045c0 .571.458 1.029 1.029 1.029h1.437c.571 0 1.028-.458 1.028-1.029V14.547a3.066 3.066 0 0 1 3.07-3.07h5.91c.571 0 1.028.458 1.028 1.03-.049.57-.506 1.028-1.077 1.028zm9.518 4.277L49.78 9.731l7.2-7.2c.196-.196.457-.31.75-.31.294 0 .556.114.752.31l16.767 16.767c.196.196.31.457.31.751 0 .278-.114.555-.31.751L58.482 37.584c-.392.392-1.094.392-1.486 0l-7.2-7.2 8.082-8.082a3.188 3.188 0 0 0-.017-4.49z"
          fill="#009DA5" fill-rule="nonzero"/>
</svg>
