<?xml version="1.0" encoding="UTF-8"?>
<svg width="736px" height="347px" viewBox="0 0 736 347" version="1.1" xmlns="http://www.w3.org/2000/svg" xmlns:xlink="http://www.w3.org/1999/xlink">
    <g id="Teal" stroke="none" stroke-width="1" fill="none" fill-rule="evenodd">
        <g id="green" transform="translate(-1.000000, 0.000000)" fill="#009DA5" fill-rule="nonzero">
            <path d="M53.6,301.9 C52.9,302.5 52.3,303.3 52,304.3 L43.9,330.9 L35.8,304.4 C35.5,303.3 34.9,302.5 34,301.8 C32.2,300.5 29.8,300.5 28,301.8 C27.1,302.5 26.5,303.3 26.2,304.4 L18,330.9 L9.9,304.3 C9.6,303.3 9.1,302.5 8.3,301.9 C6.5,300.4 3.8,300.6 2.2,302.2 C1.3,303.1 0.9,304.2 1,305.4 C1,305.8 1.1,306.3 1.3,307 L12.8,342.5 C13.2,343.7 13.9,344.7 14.8,345.3 C16.7,346.7 19.3,346.7 21.3,345.2 C22.3,344.5 22.9,343.5 23.3,342.4 L31,318.1 L38.7,342.4 C39,343.6 39.7,344.5 40.7,345.3 C41.7,346 42.8,346.4 44,346.4 C45.2,346.4 46.3,346 47.2,345.4 C48.1,344.7 48.8,343.8 49.2,342.5 L60.8,307 C61,306.4 61,305.9 61,305.6 C61.1,304.3 60.7,303.2 59.8,302.3 C58.2,300.6 55.4,300.4 53.6,301.9 Z M256.7,302.2 C255.9,303.1 255.4,304.2 255.4,305.4 L255.4,331.2 L236.1,303.4 C234.5,301.3 232.7,300.9 231.4,300.9 L230.6,300.9 C229,300.9 227.7,301.5 226.6,302.6 C225.5,303.7 224.9,305.1 224.9,306.6 L224.9,341.7 C224.9,342.9 225.4,344.1 226.2,344.9 C227.9,346.6 230.9,346.6 232.6,344.9 C233.5,344 234,342.9 234,341.7 L234,315.9 L253.4,343.9 C253.9,344.6 254.6,345.1 255.4,345.6 C256.2,346 257.1,346.3 258,346.3 L258.7,346.3 C260.3,346.3 261.6,345.7 262.7,344.7 C263.8,343.6 264.4,342.2 264.4,340.7 L264.4,305.6 C264.4,304.4 263.9,303.2 263.1,302.4 C261.4,300.4 258.4,300.5 256.7,302.2 Z M206.6,302.2 C205.8,303.1 205.3,304.2 205.3,305.4 L205.3,341.7 C205.3,342.9 205.8,344.1 206.6,344.9 C207.5,345.8 208.6,346.2 209.8,346.2 C211,346.2 212.1,345.8 213,344.9 C213.9,344 214.4,342.9 214.4,341.7 L214.4,305.4 C214.4,304.2 213.9,303 213.1,302.2 C211.2,300.4 208.3,300.5 206.6,302.2 Z M99.2,303.5 C95.8,301.5 91.9,300.5 87.5,300.5 C83.1,300.5 79.1,301.5 75.7,303.5 C72.3,305.5 69.7,308.2 67.8,311.7 C66,315.1 65,319.1 64.9,323.5 C65,327.9 66,331.9 67.8,335.3 C69.6,338.8 72.3,341.5 75.7,343.5 C79.1,345.5 83,346.5 87.5,346.5 C91.9,346.5 95.9,345.5 99.2,343.5 C102.6,341.5 105.2,338.8 107.1,335.3 C108.9,331.9 109.9,327.9 110,323.5 C109.9,319.1 108.9,315.2 107.1,311.8 C105.2,308.3 102.6,305.5 99.2,303.5 Z M99.3,330.9 C98.2,333 96.7,334.7 94.7,335.9 C92.7,337.1 90.3,337.7 87.5,337.7 C84.7,337.7 82.3,337.1 80.3,335.9 C78.3,334.7 76.8,333 75.7,330.9 C74.6,328.7 74.1,326.3 74.1,323.5 C74.1,320.7 74.6,318.3 75.7,316.1 C76.8,314 78.3,312.3 80.3,311.1 C82.3,309.9 84.7,309.3 87.5,309.3 C90.3,309.3 92.7,309.9 94.7,311.1 C96.7,312.3 98.2,314 99.3,316.1 C100.4,318.3 100.9,320.8 100.9,323.5 C100.9,326.3 100.3,328.8 99.3,330.9 Z M308,319.7 L296.4,319.7 C295.2,319.7 294.2,320.1 293.4,321 C292.6,321.8 292.2,322.9 292.2,324 C292.2,325.2 292.6,326.2 293.5,327 C294.3,327.8 295.4,328.3 296.5,328.3 L304.3,328.3 L304.3,335.9 C299.1,338.4 292.5,338.4 288.3,335.9 C286.2,334.7 284.6,333.1 283.5,330.9 C282.4,328.8 281.8,326.3 281.8,323.6 C281.8,320.6 282.4,318 283.6,315.9 C284.8,313.8 286.4,312.2 288.5,311.1 C292.2,309.2 297.2,309 301.2,310.2 C302.9,310.7 304.6,311.5 306.4,312.6 C308.2,313.5 310.3,313.1 311.6,311.8 C312.4,311 312.8,309.9 312.8,308.8 C312.8,308 312.6,307.2 312.2,306.5 C311.8,305.8 311.2,305.3 310.8,305.1 C308.6,303.7 306.2,302.6 303.8,301.8 C301.3,301 298.4,300.6 295.2,300.6 C291.1,300.6 287.3,301.6 283.9,303.5 C280.5,305.4 277.8,308.2 275.8,311.7 C273.8,315.2 272.9,319.2 272.9,323.7 C272.9,328.1 273.8,332 275.7,335.5 C277.6,339 280.3,341.8 283.7,343.7 C287.1,345.6 291,346.6 295.4,346.6 C300.3,346.6 305.1,345.4 309.7,343.1 C310.7,342.6 311.5,341.9 312.1,341 C312.7,340.1 313,339 313,337.8 L313,324.5 C313,323.2 312.5,322.1 311.6,321.2 C310.5,320.2 309.3,319.7 308,319.7 Z M151.9,322.5 C153.4,320.3 154.2,317.7 154.2,315 C154.2,310.9 152.6,307.5 149.5,304.9 C146.5,302.4 142.1,301.2 136.3,301.2 L122.6,301.2 C121.3,301.2 120.2,301.7 119.4,302.6 C118.6,303.5 118.1,304.6 118.1,305.8 L118.1,341.8 C118.1,343 118.6,344.2 119.4,345 C121.1,346.7 124.1,346.7 125.8,345 C126.7,344.1 127.2,343 127.2,341.8 L127.2,330 L137.5,330 C139.7,330 141.3,330.5 142.2,331.4 C143.3,332.5 143.9,333.6 144.2,334.9 C144.5,336.4 144.7,338.1 144.7,340 L144.7,341.8 C144.7,343.1 145.1,344.2 146,345 C146.8,345.8 148,346.3 149.3,346.3 C150.5,346.3 151.6,345.8 152.5,345 C153.4,344.1 153.8,343 153.8,341.8 L153.8,339 C153.8,336.1 153.2,333.2 152.1,330.2 C151.4,328.2 150.2,326.7 148.8,325.6 C150.1,324.7 151.1,323.7 151.9,322.5 Z M143,319.5 C141.3,320.6 139,321.2 136,321.2 L127.2,321.2 L127.2,310 L135.7,310 C140.3,310 142.4,310.8 143.3,311.5 C144.5,312.4 145.1,313.6 145.1,315.4 C145.1,317.2 144.4,318.5 143,319.5 Z M183,320.6 L195.4,308.3 C195.9,307.8 196.6,306.8 196.6,305.2 C196.6,304 196.1,303 195.3,302.1 C193.5,300.4 190.5,300.7 189,302.4 L172,319.6 L172,305.5 C172,304.3 171.5,303.1 170.7,302.3 C168.9,300.5 166,300.6 164.2,302.3 C163.4,303.2 162.9,304.3 162.9,305.5 L162.9,341.8 C162.9,343 163.4,344.2 164.2,345 C165.9,346.7 168.9,346.7 170.6,345 C171.5,344.1 172,343 172,341.8 L172,331.6 L176.7,326.9 L190.5,344.5 C191.4,345.7 192.6,346.3 194.1,346.3 C195.3,346.3 196.4,345.8 197.3,345 C198.2,344.1 198.6,343 198.6,341.9 C198.6,340.9 198.2,339.9 197.6,339 L183,320.6 Z M620.7,301.2 L591.4,301.2 C590.2,301.2 589.1,301.7 588.3,302.5 C587.5,303.3 587.1,304.4 587.1,305.6 C587.1,306.8 587.5,307.9 588.4,308.7 C589.2,309.5 590.3,310 591.5,310 L601.6,310 L601.6,341.8 C601.6,343 602.1,344.1 602.9,345 C603.8,345.9 604.9,346.3 606.1,346.3 C607.3,346.3 608.4,345.9 609.3,345 C610.2,344.1 610.7,343 610.7,341.8 L610.7,310 L620.8,310 C622,310 623.1,309.6 623.9,308.8 C624.8,308 625.2,306.9 625.2,305.7 C625.2,304.5 624.8,303.4 623.9,302.6 C622.9,301.6 621.9,301.2 620.7,301.2 Z M559.2,303.3 C556.6,301.9 553.2,301.2 549.2,301.2 L535.8,301.2 C534.5,301.2 533.4,301.7 532.6,302.6 C531.8,303.5 531.3,304.6 531.3,305.8 L531.3,341.8 C531.3,343 531.8,344.2 532.6,345 C533.5,345.9 534.6,346.3 535.8,346.3 C537,346.3 538.1,345.9 539,345 C539.9,344.1 540.4,343 540.4,341.8 L540.4,331 L549.2,331 C553.2,331 556.6,330.3 559.2,328.9 C561.9,327.5 563.8,325.6 565,323.3 C566.2,321.1 566.7,318.7 566.7,316.1 C566.7,313.5 566.1,311.1 565,308.9 C563.8,306.6 561.9,304.7 559.2,303.3 Z M555.8,320.4 C554.6,321.6 552.1,322.2 548.6,322.2 L540.3,322.2 L540.3,310 L548.6,310 C552,310 554.5,310.6 555.8,311.8 C557,313 557.7,314.4 557.7,316.1 C557.7,317.8 557.1,319.3 555.8,320.4 Z M682.5,301.9 C681.8,302.5 681.2,303.3 680.9,304.3 L672.8,330.9 L664.7,304.4 C664.4,303.3 663.8,302.5 662.9,301.8 C661.1,300.5 658.7,300.5 656.9,301.8 C656,302.5 655.4,303.3 655.1,304.4 L647,330.9 L638.9,304.3 C638.6,303.3 638.1,302.5 637.3,301.9 C635.5,300.4 632.8,300.6 631.2,302.2 C630.3,303.1 629.9,304.2 630,305.4 C630,305.8 630.1,306.3 630.3,307 L641.8,342.5 C642.2,343.7 642.9,344.7 643.8,345.3 C645.7,346.7 648.3,346.7 650.3,345.2 C651.3,344.5 651.9,343.5 652.3,342.4 L660,318.1 L667.7,342.4 C668,343.6 668.7,344.5 669.7,345.3 C670.7,346 671.8,346.4 673,346.4 C674.2,346.4 675.3,346 676.2,345.4 C677.1,344.7 677.8,343.8 678.2,342.5 L689.8,307 C690,306.4 690,305.9 690,305.6 C690.1,304.3 689.7,303.2 688.8,302.3 C687,300.6 684.2,300.4 682.5,301.9 Z M734,311.8 C732.1,308.3 729.5,305.5 726.1,303.6 C722.7,301.6 718.8,300.6 714.4,300.6 C710,300.6 706,301.6 702.6,303.6 C699.2,305.6 696.6,308.3 694.7,311.8 C692.9,315.2 691.9,319.2 691.8,323.6 C691.9,328 692.9,332 694.7,335.4 C696.5,338.9 699.2,341.6 702.6,343.6 C706,345.6 709.9,346.6 714.4,346.6 C718.8,346.6 722.8,345.6 726.1,343.6 C729.5,341.6 732.1,338.9 734,335.4 C735.8,332 736.8,328 736.9,323.6 C736.8,319.2 735.9,315.2 734,311.8 Z M726.2,330.9 C725.1,333 723.6,334.7 721.6,335.9 C719.6,337.1 717.2,337.7 714.4,337.7 C711.6,337.7 709.2,337.1 707.2,335.9 C705.2,334.7 703.7,333 702.6,330.9 C701.5,328.7 701,326.3 701,323.5 C701,320.7 701.5,318.3 702.6,316.1 C703.7,314 705.2,312.3 707.2,311.1 C709.2,309.9 711.6,309.3 714.4,309.3 C717.2,309.3 719.6,309.9 721.6,311.1 C723.6,312.3 725.1,314 726.2,316.1 C727.3,318.3 727.8,320.8 727.8,323.5 C727.8,326.3 727.3,328.8 726.2,330.9 Z M373.7,319.7 L362.1,319.7 C360.9,319.7 359.9,320.1 359.1,321 C358.3,321.8 357.9,322.9 357.9,324 C357.9,325.2 358.3,326.2 359.2,327 C360,327.8 361.1,328.3 362.2,328.3 L370,328.3 L370,335.9 C364.8,338.4 358.2,338.4 354,335.9 C351.9,334.7 350.3,333.1 349.2,330.9 C348.1,328.8 347.5,326.3 347.5,323.6 C347.5,320.6 348.1,318 349.3,315.9 C350.5,313.8 352.1,312.2 354.2,311.1 C357.9,309.2 362.9,309 366.9,310.2 C368.6,310.7 370.3,311.5 372.1,312.6 C373.9,313.5 376,313.1 377.3,311.8 C378.1,311 378.5,309.9 378.5,308.8 C378.5,308 378.3,307.2 377.9,306.5 C377.5,305.8 376.9,305.3 376.5,305.1 C374.3,303.7 371.9,302.6 369.5,301.8 C367,301 364.1,300.6 360.9,300.6 C356.8,300.6 353,301.6 349.6,303.5 C346.2,305.4 343.5,308.2 341.5,311.7 C339.5,315.2 338.6,319.2 338.6,323.7 C338.6,328.1 339.5,332 341.4,335.5 C343.3,339 346,341.8 349.4,343.7 C352.8,345.6 356.7,346.6 361.1,346.6 C366,346.6 370.8,345.4 375.4,343.1 C376.4,342.6 377.2,341.9 377.8,341 C378.4,340.1 378.7,339 378.7,337.8 L378.7,324.5 C378.7,323.2 378.2,322.1 377.3,321.2 C376.2,320.2 375,319.7 373.7,319.7 Z M513.2,302.2 C512.4,303.1 511.9,304.2 511.9,305.4 L511.9,328.8 C511.9,330.8 511.5,332.4 510.6,333.8 C509.7,335.2 508.6,336.2 507.1,336.8 C504.1,338.2 500.4,338.2 497.4,336.8 C495.9,336.1 494.8,335.1 493.9,333.8 C493,332.5 492.6,330.8 492.6,328.8 L492.6,305.4 C492.6,304.2 492.1,303 491.3,302.2 C489.5,300.4 486.6,300.5 484.8,302.2 C484,303.1 483.5,304.2 483.5,305.4 L483.5,328.6 C483.5,332.5 484.4,335.8 486.3,338.5 C488.1,341.2 490.5,343.2 493.4,344.5 C496.2,345.8 499.2,346.4 502.2,346.4 C505.2,346.4 508.2,345.8 511,344.5 C513.9,343.2 516.3,341.2 518.1,338.5 C520,335.8 520.9,332.5 520.9,328.6 L520.9,305.4 C520.9,304.2 520.4,303 519.6,302.2 C517.8,300.4 514.9,300.5 513.2,302.2 Z M464.9,303.5 C461.5,301.5 457.6,300.5 453.2,300.5 C448.8,300.5 444.8,301.5 441.4,303.5 C438,305.5 435.4,308.2 433.5,311.7 C431.7,315.1 430.7,319.1 430.6,323.5 C430.7,327.9 431.7,331.9 433.5,335.3 C435.3,338.8 438,341.5 441.4,343.5 C444.8,345.5 448.7,346.5 453.2,346.5 C457.6,346.5 461.6,345.5 464.9,343.5 C468.3,341.5 470.9,338.8 472.8,335.3 C474.6,331.9 475.6,327.9 475.7,323.5 C475.6,319.1 474.6,315.2 472.8,311.8 C470.9,308.3 468.2,305.5 464.9,303.5 Z M464.9,330.9 C463.8,333 462.3,334.7 460.3,335.9 C458.3,337.1 455.9,337.7 453.1,337.7 C450.3,337.7 447.9,337.1 445.9,335.9 C443.9,334.7 442.4,333 441.3,330.9 C440.2,328.7 439.7,326.3 439.7,323.5 C439.7,320.7 440.2,318.3 441.3,316.1 C442.4,314 443.9,312.3 445.9,311.1 C447.9,309.9 450.3,309.3 453.1,309.3 C455.9,309.3 458.3,309.9 460.3,311.1 C462.3,312.3 463.8,314 464.9,316.1 C466,318.3 466.5,320.8 466.5,323.5 C466.5,326.3 466,328.8 464.9,330.9 Z M422.1,322.5 C423.6,320.3 424.4,317.7 424.4,315 C424.4,310.9 422.8,307.5 419.7,304.9 C416.7,302.4 412.3,301.2 406.5,301.2 L392.8,301.2 C391.5,301.2 390.4,301.7 389.6,302.6 C388.8,303.5 388.3,304.6 388.3,305.8 L388.3,341.8 C388.3,343 388.8,344.2 389.6,345 C391.3,346.7 394.3,346.7 396,345 C396.9,344.1 397.4,343 397.4,341.8 L397.4,330 L407.7,330 C409.9,330 411.5,330.5 412.4,331.4 C413.5,332.5 414.1,333.6 414.4,334.9 C414.7,336.4 414.9,338.1 414.9,340 L414.9,341.8 C414.9,343.1 415.3,344.2 416.2,345 C417,345.8 418.2,346.3 419.5,346.3 C420.7,346.3 421.8,345.8 422.7,345 C423.6,344.1 424,343 424,341.8 L424,339 C424,336.1 423.4,333.2 422.3,330.2 C421.6,328.2 420.4,326.7 419,325.6 C420.2,324.7 421.2,323.7 422.1,322.5 Z M413.1,319.5 C411.4,320.6 409.1,321.2 406.1,321.2 L397.3,321.2 L397.3,310 L405.8,310 C410.4,310 412.5,310.8 413.4,311.5 C414.6,312.4 415.2,313.6 415.2,315.4 C415.3,317.2 414.6,318.5 413.1,319.5 Z M484.6,245 C489.8,245 494.7,243 498.3,239.3 L601,136.6 C604.7,132.9 606.7,128.1 606.7,122.9 C606.7,117.7 604.7,112.8 601,109.2 L498.3,6.4 C494.6,2.7 489.8,0.7 484.6,0.7 C479.4,0.7 474.5,2.7 470.9,6.4 L426.8,50.5 L382.7,6.4 C379,2.7 374.2,0.7 369,0.7 C363.8,0.7 358.9,2.7 355.3,6.4 L311.2,50.5 L267,6.4 C263.3,2.7 258.5,0.7 253.3,0.7 C248.1,0.7 243.2,2.7 239.6,6.4 L136.9,109.1 C129.3,116.7 129.3,129 136.9,136.5 L239.6,239.2 C243.3,242.9 248.1,244.9 253.3,244.9 C258.5,244.9 263.4,242.9 267,239.2 L311.1,195.1 L355.2,239.2 C358.9,242.9 363.7,244.9 368.9,244.9 C374.1,244.9 379,242.9 382.6,239.2 L426.7,195.1 L470.8,239.2 C474.5,243 479.4,245 484.6,245 Z M257.9,230.2 C255.5,232.6 251.2,232.6 248.8,230.2 L146,127.4 C144.8,126.2 144.1,124.6 144.1,122.8 C144.1,121.1 144.8,119.4 146,118.2 L248.7,15.5 C249.9,14.3 251.5,13.6 253.3,13.6 C255,13.6 256.7,14.3 257.9,15.5 L302,59.6 L252.5,109.1 C248.8,112.8 246.8,117.6 246.8,122.8 C246.8,128 248.8,132.9 252.5,136.5 L302,186 L257.9,230.2 Z M433.4,156.5 C433.4,166.9 425,175.3 414.6,175.3 L397.5,175.3 C394,175.3 391.2,172.5 391.2,169 C391.2,165.5 394,162.7 397.5,162.7 L414.6,162.7 C418.1,162.7 420.9,159.9 420.9,156.4 L420.9,123.3 C420.9,119.8 423.7,117 427.2,117 C430.7,117 433.5,119.8 433.5,123.3 L433.5,156.5 L433.4,156.5 Z M427.1,82.9 L390.9,82.9 C387.4,82.9 384.6,85.7 384.6,89.2 L384.6,94.2 L384.6,156.5 C384.6,166.9 376.2,175.3 365.8,175.3 L357,175.3 C352.2,175.3 347.8,173.5 344.5,170.5 C341.2,173.5 336.8,175.3 332,175.3 L323.2,175.3 C312.8,175.3 304.4,166.9 304.4,156.5 L304.4,76.6 C304.4,73.1 307.2,70.3 310.7,70.3 C314.2,70.3 317,73.1 317,76.6 L317,156.5 C317,160 319.8,162.8 323.3,162.8 L332.1,162.8 C335.6,162.8 338.4,160 338.4,156.5 L338.4,76.6 C338.4,73.1 341.2,70.3 344.7,70.3 C348.2,70.3 351,73.1 351,76.6 L351,156.5 C351,160 353.8,162.8 357.3,162.8 L366.1,162.8 C369.6,162.8 372.4,160 372.4,156.5 L372.4,93.3 L372.4,89.1 C372.4,78.7 380.8,70.3 391.2,70.3 L427.4,70.3 C430.9,70.3 433.7,73.1 433.7,76.6 C433.4,80.1 430.6,82.9 427.1,82.9 Z M485.4,109.1 L435.9,59.6 L480,15.5 C481.2,14.3 482.8,13.6 484.6,13.6 C486.4,13.6 488,14.3 489.2,15.5 L591.9,118.2 C593.1,119.4 593.8,121 593.8,122.8 C593.8,124.5 593.1,126.2 591.9,127.4 L489.2,230.2 C486.8,232.6 482.5,232.6 480.1,230.2 L436,186.1 L485.5,136.6 C493,129 493,116.7 485.4,109.1 Z" id="Shape"></path>
        </g>
    </g>
</svg>
